M48
;Layer_Color=9474304
;FILE_FORMAT=2:5
INCH,LZ
;TYPE=PLATED
T1F00S00C0.01181
T2F00S00C0.03150
T3F00S00C0.03543
T4F00S00C0.03937
T5F00S00C0.04331
T6F00S00C0.04921
T7F00S00C0.06693
T8F00S00C0.07087
T9F00S00C0.11811
T10F00S00C0.15748
%
T01
X07944Y09132
X0800767
X0807133
X08135
X0819867
X0826233
X08326
X08381Y09237
X0844467
X0850833
X08572
X0863567
X0869933
X08763
X07759Y09114
X0769533
X0763167
X07568
X0750433
X0744067
X07377
X06574Y09208
Y0929533
X064825
Y09208
X06391
Y0929533
X05773Y0932467
Y0923733
Y0915
X056815
Y0923733
Y0932467
X0559
Y0923733
Y0915
X04966Y09134
Y0922133
Y0930867
X048745
Y0922133
Y09134
X04783
Y0922133
Y0930867
X0411611Y0926789
X0407109Y0931291
X0402608Y0935792
X0393Y09253
X0386633
X0380267
X03739
X0367533
X0361167
X03548
X02938Y09718
X0287433
X0281067
X02747
X0268333
X0261967
X02556
X0239711Y0969889
X0235209Y0974391
X0230708Y0978892
X0226206Y0983394
X0221704Y0987896
X0217202Y0992398
X02127Y09969
X02039Y10232
Y1029567
Y1035933
Y10423
Y1048667
Y1055033
Y10614
Y10714
Y1077767
Y1084133
Y10905
X02771Y09916
X0283467
X0289833
X02962
X0302567
X0308933
X0310233Y10093
X0303867
X02975
X03166
X0322967
X03357
X03372Y10333
X03683Y10377
X03783Y10443
Y1050667
Y1057033
Y10634
Y1069767
Y1076133
Y10825
X03688Y107
X03242
Y1076367
Y1082733
Y10891
X04123Y1089533
Y10808
X042145
Y1089533
X04306
X0409Y10653
X04096Y1023
X04079Y10203
X04082Y100482
X04151Y10055
X0379Y1005267
Y09989
Y0992533
Y0986167
Y09798
X03682Y09767
X03681Y0947
X0389102Y0949298
X03846Y09538
X0393604Y0944796
X0398106Y0940294
X0379Y1011633
Y1018
X03685Y1007
X03153Y09916
X04819Y09899
Y0998633
Y1007367
Y10161
X049105
Y1007367
Y0998633
Y09899
X05002
Y0998633
Y1007367
Y10161
X05581Y10197
Y1010967
Y1002233
Y09935
X056725
Y1002233
Y1010967
Y10197
X05764
Y1010967
Y1002233
Y09935
X05773Y09412
X056815
X0559
X04966Y09396
X048745
X04783
X04866Y10653
X048705Y10739
Y1082633
Y1091367
X04962
Y1082633
Y10739
X04779
Y1082633
Y1091367
X0561Y1086633
Y10779
X057015
Y1086633
X05793
Y10779
X05645Y10652
X06424Y1065
X06391Y108
Y1088733
X064825
Y108
X06574
Y1088733
X06578Y1009594
Y1000861
Y0992128
Y0983394
X066695
Y0992128
Y1000861
Y1009594
X06761
Y1000861
Y0992128
Y0983394
X06453Y09822
Y0990933
Y0999667
Y10084
X063615
Y0999667
Y0990933
Y09822
X0627
Y0990933
Y0999667
Y10084
X06391Y0947
Y0938267
X064825
Y0947
X06574
Y0938267
X07377Y09668
Y0973167
Y0979533
Y09859
Y0992267
Y0998633
Y1005
X07464Y1002494
Y1008861
Y1015228
Y1021594
Y0996128
Y0989761
Y0983394
X07774Y09788
X07786Y10082
X07777Y10383
X07778Y10687
X07783Y10867
X07493Y10913
X07386Y10904
X07419Y10748
X07784Y09469
X08148Y09562
Y0962567
Y0968933
Y09753
Y0981667
Y0988033
Y09944
X08312Y09797
Y0970967
Y0962233
Y09535
X084035
Y0962233
Y0970967
Y09797
X08495
Y0970967
Y0962233
Y09535
X08732Y09391
X0879567
X0885933
X08923
X0898667
X0905033
X09114
X0912167Y09563
X0918533
X09249
X09058
X0899433
X0893067
X08867
X09071Y09717
X0911602Y0976202
X0916104Y0980704
X0920606Y0985206
X0925108Y0989708
X0929609Y0994209
X0934111Y0998711
X08765Y10168
X08285Y10146
Y1020967
Y1027333
Y10337
Y1040067
Y1046433
Y10528
X08158Y1050867
Y10445
Y1038133
Y1031767
Y10254
Y1057233
Y10636
X09482Y12402
X09246Y12394
X09246Y124175
Y12441
X09246Y124645
Y12488
X0921351Y12488
Y1246425
X0921351Y124405
X0921351Y1241675
X0921351Y12393
X0918101
Y1241675
X0918101Y124405
Y1246425
X0918101Y12488
X0907Y12431
X08919Y11947
X08886Y11808
X08909Y11777
X08797Y11677
X08815Y11652
X08845Y11591
X08696Y1145
X08756Y11317
X08715Y11271
X08595Y11303
X08485Y11271
X08481Y11362
X08421Y11473
X08334Y11418
X08311Y11606
Y11684
X0838Y11693
X08408Y11919
X08288Y11872
X08215Y11852
X08223Y12005
X08131Y11989
X08164Y12074
X08242Y12125
X08236Y12226
X0819098Y1227102
X0814596Y1231604
X0810094Y1236106
X0805592Y1240608
X0801091Y1245109
X0796589Y1249611
X0793992Y1240508
X0798494Y1236006
X0802996Y1231504
X0807498Y1227002
X0812Y12225
X0798298Y1221502
X08028Y1217
X0804Y12111
X0793796Y1226004
X0789294Y1230506
X0784792Y1235008
X0789491Y124501
X0784989Y1249511
X08628Y1214126
X0863655Y1189972
X0772398Y1188602
X07769Y11841
X0767896Y1193104
X0763394Y1197606
X0758892Y1202108
X075439Y120661
X0749889Y1211111
X0747392Y1195208
X07451Y11955
X0742891Y119971
X0738389Y1204211
X0734492Y1185908
X0738994Y1181406
X0743496Y1176904
X0747998Y1172402
X07525Y11679
X0738Y11669
X07423Y11503
X07533Y11498
X07548Y11526
X07584Y11419
X07399Y11411
X07312Y11436
X07283Y11522
X07197Y11452
X06669Y11432
X06713Y11357
X06496Y11325
X06372Y1132
X06274Y11371
X06349Y11473
X06397Y11444
X06383Y11683
X06509Y11752
X06615Y11739
X06564Y11643
X06661Y11568
X06701Y11932
X06774Y11934
X06856Y11931
X06907Y11942
X0692337Y11973
X0691Y12133
X06907Y12209
X06837Y1222574
X06824Y12302
X06769Y1229374
X06675Y1232158
X06636Y12277
X0665Y12203
X06614Y12349
X06467Y12283
X06366Y12382
X06317Y12383
X06259Y12318
X0626Y12219
X06436Y12028
X0638022Y124905
X06821Y124084
X07187Y1243
X0726Y12459
X07283Y1230766
X07189Y12299
X0725489Y1194911
X072999Y1190409
X0751894Y1190706
X0756396Y1186204
X0760898Y1181702
X07654Y11772
X07506Y11816
X07787Y11601
X07784Y11294
X07778Y10991
X07584Y1111
X07411Y11073
X06574Y11062
Y1097467
X064825
Y11062
X06391
Y1097467
X0780291Y1239509
X0775789Y1244011
X06142Y12282
X0599424Y1235
X0586785Y1247269
X05838Y12474
X0567057Y1247157
X05591Y12473
X0563Y12364
X05704Y1234
X0575Y12356
X05728Y12382
X0558Y12291
X05602Y12268
X05446Y12292
X05401Y12242
Y1218961
X05321Y12338
X05227Y12294
X05091Y1234
X04998Y12309
X04979Y1227102
X04972Y12218
X04938Y12181
X04977Y12146
X04816Y12166
X0476275Y12165
X04885Y12246
X04862Y12377
X047615Y123725
X04712Y12379
X0471Y1248
X04793Y12491
X0497Y12423
X04986Y12377
X05057Y12488
X05149Y12176
X05184Y12137
X05278Y11941
X05615Y1203876
X05685Y11978
X05715Y12094
X05816Y12191
X058105Y11704
Y1161667
Y1152933
Y11442
X05902
Y1152933
Y1161667
Y11704
X05719
Y1161667
Y1152933
Y11442
X05804Y11337
X06018Y11341
X05524Y11345
X05314Y11362
X05116Y11366
X04959Y1137
X04869
X04737Y11386
X04825Y11491
Y1157833
Y1166567
Y11753
X049165
Y1166567
Y1157833
Y11491
X05008
Y1157833
Y1166567
Y11753
X04962Y11001
X048705
X04779
X0561Y11041
Y1095367
X057015
Y11041
X05793
Y1095367
X05462Y12403
X04647Y12453
X04614Y12422
X04523Y12402
X04479Y12346
X0437Y12337
X04372Y12389
X04332Y12398
X04313Y1243
X04292Y12457
X0426889Y12477
X04361Y12498
X04555Y12476
X04567Y12203
X04486Y12192
X04488Y12164
X04616Y12158
X04376Y12233
X04371Y12283
X04121Y12304
X04095Y12311
X04085Y12344
X03987Y12338
X03988Y12391
X03939Y12389
X03921Y12411
X03899Y12434
X03878Y12463
X03728Y12424
X0359008Y1249008
X0354506Y1244506
X0350004Y1240004
X0345502Y1235502
X0341Y1231
X0334111Y1224111
X0329609Y121961
X0325108Y1215108
X0320606Y1210606
X0316104Y1206104
X03193Y11864
X03148Y11733
X0367986Y11592
X03818Y11631
X03807Y11775
X03818Y11421
X03685Y11277
X03684Y11065
X03818Y1102
Y1114
X04123Y1107
Y1098267
X042145
Y1107
X04306
Y1098267
X0444Y11374
X04572Y11382
X04164Y11518
X04152Y11716
X04148Y11893
X04123Y12182
X04097Y12166
X04173Y12186
X03981Y12232
X03986Y12285
X03965Y12136
X03817Y12135
X03683Y12219
X04138Y1243
X04101Y12494
X03242Y11082
Y1101833
Y1095467
X02984Y11301
X02884Y11267
X02864Y11212
X02733Y11284
X02795Y11376
X0296Y11411
X03032Y11452
X02901Y11473
X02994Y11572
X03063Y11586
X03071Y11971
X0311602Y1201602
X0296711Y1188811
X029221Y1184309
X0287708Y1179808
X0283206Y1175306
X0278704Y1170804
X0274202Y1166302
X02697Y11618
X0256211Y1151711
X025171Y1147209
X0247208Y1142708
X0242706Y1138206
X0238204Y1133704
X0233702Y1129202
X02295Y11334
X02292Y11247
X0224998Y1128898
X0220496Y1124396
X0215994Y1119894
X0211492Y1115392
X0206991Y111089
X02039Y11096
X0202489Y1106389
X02039Y1103233
Y1096867
X0363509Y125351
X0368011Y1258011
X03718Y12604
X03864Y1267
X03837Y12743
X03938Y12697
X03964Y12638
X04068Y12587
X04062Y12701
X04063Y12751
X0412667
X0412567Y12701
X0418933
X0419033Y12751
X04179Y12801
X0421067Y12817
X04147
X0408333
X0401967
X04042Y12846
X04084Y12883
X03956Y12817
X03999Y1276
X04254Y12751
X04253Y12701
X0431667
X0431767Y12751
X04346Y12772
X04338Y12817
X0427433
X0438133Y12751
X0438033Y12701
X04444
X04434Y12535
X04503Y1255368
X04524Y12523
X0456667Y1255368
X0456Y12588
X04311Y12533
X04694Y1255368
X0475767
X0482133
X04885
X04842Y12635
X05004Y12611
X05045Y12767
X05027Y1286
X04974Y12812
X04934Y12765
X04739Y12733
X05145Y12535
X05354Y12523
X05464Y12539
X0546126Y12577
X05596Y12535
X0569353Y12609
X05653Y12726
X05618Y12751
X05572Y12703
X05329Y1262742
X0521Y1291
X0594Y12908
X0600367
X0606733
X06131
X0619467
X06171Y12658
X06212Y12637
X06103Y12607
X06152Y12547
X06004Y12513
X0583459Y1250405
X06419Y12642
X06386Y1276375
X06322Y12908
X0625833
X06611Y12756
X0676Y12753
X06789Y12801
X06826Y127727
X06877Y12779
X06896Y12758
X0689248Y1287689
X06853Y12929
X0682Y12849
X06828Y12545
X0677499Y12575
X06612Y12598
X0695716Y1255368
X07236Y128515
X07333Y12892
X07954Y12705
X0793Y12669
X08302Y12656
X08308Y1275
X08459Y12503
X09363Y12652
T02
X07679Y12612
T03
X0437327Y0949622
X0460555Y0960055
X0460555Y1038795
X0437327Y1028362
X0516067
X0539295Y1038795
X0594807Y1028362
X0618035Y1038795
Y0960055
X0594807Y0949622
X0539295Y0960055
X0516067Y0949622
X0673547
X0696775Y0960055
Y1038795
X0673547Y1028362
Y1107102
X0696775Y1117535
Y1196276
X0673547Y1185843
X0617777Y1196155
X0594549Y1185722
X0539295Y1196276
X0516067Y1185842
X0516067Y1107102
X0539295Y1117535
X0595027Y1107052
X0618255Y1117485
X0460555Y1117535
X0437327Y1107102
Y1185843
X0460555Y1196276
X04613Y12813
X04713
X04813
X04913
X04915Y12913
X04815
X05549Y12895
Y12795
X05649
Y12895
X05749
Y12795
X05849
X05849Y12895
T04
X0852547Y1282185
X0895854
T05
X0241739Y10103
Y1028016
X026753Y10282
Y1010483
X0871661Y10103
Y1028016
X0897451Y10282
Y1010483
T06
X0294009Y1048757
Y10586
Y1068443
X0923931
Y10586
Y1048757
X0894403Y109797
X0884561
X0874718
X0264482
X0254639
X0244797
T07
X0864357Y1242815
X0884042Y1242815
T08
X0224116Y10321
Y10856
X0285139
X0285139Y10321
X0854037
Y10856
X0915061
X0915061Y10321
T09
X09363Y09187
X02047Y0921
X02044Y12767
T10
X04515Y094037
X04515Y101911
X053024
X060898
Y094037
X053024
X068772
Y101911
Y109785
Y1176591
X0608722Y117647
X053024Y1176591
X053024Y109785
X06092Y10978
X04515Y109785
Y1176591
M30
