G04*
G04 #@! TF.GenerationSoftware,Altium Limited,Altium Designer,19.0.12 (326)*
G04*
G04 Layer_Color=255*
%FSLAX24Y24*%
%MOIN*%
G70*
G01*
G75*
%ADD10C,0.0079*%
%ADD14C,0.0060*%
%ADD110C,0.1969*%
%ADD111C,0.0600*%
%ADD112C,0.1102*%
%ADD113C,0.0787*%
%ADD114R,0.0591X0.0591*%
%ADD115C,0.0591*%
%ADD116C,0.0984*%
D10*
X88414Y129234D02*
X88430Y129250D01*
D14*
X96180Y121566D02*
Y129440D01*
X18750D02*
X96180D01*
X18750Y127140D02*
Y129440D01*
Y121566D02*
Y127140D01*
Y90070D02*
Y121566D01*
Y90070D02*
X96180D01*
X96180Y121566D02*
X96180Y90070D01*
D110*
X20440Y127670D02*
D03*
X93630Y91870D02*
D03*
X20470Y92100D02*
D03*
D111*
X43733Y118584D02*
D03*
X46056Y119628D02*
D03*
X51607Y118584D02*
D03*
X53930Y119628D02*
D03*
X59455Y118572D02*
D03*
X61778Y119616D02*
D03*
X67355Y118584D02*
D03*
X69678Y119628D02*
D03*
X43733Y110710D02*
D03*
X46056Y111754D02*
D03*
X51607Y110710D02*
D03*
X53930Y111754D02*
D03*
X67355Y110710D02*
D03*
X69678Y111754D02*
D03*
X43733Y102836D02*
D03*
X46056Y103880D02*
D03*
X51607Y102836D02*
D03*
X53930Y103880D02*
D03*
X59481Y102836D02*
D03*
X61804Y103880D02*
D03*
X67355Y102836D02*
D03*
X69678Y103880D02*
D03*
X43733Y94962D02*
D03*
X46056Y96006D02*
D03*
X51607Y94962D02*
D03*
X53930Y96006D02*
D03*
X59481Y94962D02*
D03*
X61804Y96006D02*
D03*
X67355Y94962D02*
D03*
X69678Y96006D02*
D03*
X59503Y110705D02*
D03*
X61826Y111749D02*
D03*
D112*
X85404Y103210D02*
D03*
Y108560D02*
D03*
X91506Y103210D02*
D03*
X91506Y108560D02*
D03*
X28514D02*
D03*
X28514Y103210D02*
D03*
X22412Y108560D02*
D03*
Y103210D02*
D03*
D113*
X88456Y109797D02*
D03*
X87472D02*
D03*
X89440D02*
D03*
X92393Y106844D02*
D03*
Y104876D02*
D03*
Y105860D02*
D03*
X87166Y101030D02*
D03*
Y102802D02*
D03*
X89745Y102820D02*
D03*
Y101048D02*
D03*
X85255Y128218D02*
D03*
X89585D02*
D03*
X26753Y101048D02*
D03*
Y102820D02*
D03*
X24174Y102802D02*
D03*
Y101030D02*
D03*
X29401Y105860D02*
D03*
Y104876D02*
D03*
Y106844D02*
D03*
X26448Y109797D02*
D03*
X24480D02*
D03*
X25464D02*
D03*
D114*
X49130Y128130D02*
D03*
X55490Y127950D02*
D03*
X49150Y129130D02*
D03*
D115*
X48130Y128130D02*
D03*
X47130D02*
D03*
X46130D02*
D03*
X55490Y128950D02*
D03*
X56490Y127950D02*
D03*
Y128950D02*
D03*
X57490Y127950D02*
D03*
Y128950D02*
D03*
X58490Y127950D02*
D03*
X58490Y128950D02*
D03*
X48150Y129130D02*
D03*
D116*
X86436Y124282D02*
D03*
X88404Y124281D02*
D03*
M02*
