G04*
G04 #@! TF.GenerationSoftware,Altium Limited,Altium Designer,19.0.12 (326)*
G04*
G04 Layer_Color=32896*
%FSLAX24Y24*%
%MOIN*%
G70*
G01*
G75*
%ADD10C,0.0079*%
%ADD14C,0.0060*%
%ADD15C,0.0039*%
%ADD120C,0.0020*%
D10*
X88414Y129234D02*
X88430Y129250D01*
D14*
X96180Y121566D02*
Y129440D01*
X18750D02*
X96180D01*
X18750Y127140D02*
Y129440D01*
Y121566D02*
Y127140D01*
Y90070D02*
Y121566D01*
Y90070D02*
X96180D01*
X96180Y121566D02*
X96180Y90070D01*
D15*
X42873Y123620D02*
X43267D01*
X43070Y123423D02*
Y123817D01*
X84193Y126780D02*
X84586D01*
X84390Y126583D02*
Y126977D01*
X52753Y126060D02*
X53147D01*
X52950Y125863D02*
Y126257D01*
X91933Y121840D02*
X92327D01*
X92130Y121643D02*
X92130Y122037D01*
X41196Y105666D02*
Y106059D01*
X40999Y105863D02*
X41393D01*
X49090Y105633D02*
Y106027D01*
X48893Y105830D02*
X49287D01*
X56970Y105693D02*
Y106087D01*
X56773Y105890D02*
X57167D01*
X64830Y105673D02*
Y106067D01*
X64633Y105870D02*
X65027D01*
X51009Y125842D02*
X51403D01*
X51206Y125646D02*
X51206Y126039D01*
X51473Y122670D02*
X51867D01*
X51670Y122473D02*
Y122867D01*
X47443Y122967D02*
X47837D01*
X47640Y122770D02*
Y123164D01*
X38956Y123620D02*
X39350D01*
X39153Y123423D02*
Y123817D01*
X84880Y121168D02*
Y121562D01*
X84683Y121365D02*
X85077D01*
X60453Y126550D02*
X60847D01*
X60650Y126353D02*
Y126747D01*
X90523Y116840D02*
X90917D01*
X90720Y117037D02*
X90720Y116643D01*
X56811Y124879D02*
X57089Y124601D01*
X56811D02*
X57089Y124879D01*
X63246Y122700D02*
X63640D01*
X63443Y122503D02*
Y122897D01*
D120*
X41613Y121553D02*
Y125687D01*
X44527Y121553D02*
Y125687D01*
X41613D02*
X44527D01*
X41613Y121553D02*
X44527D01*
X85571Y126130D02*
X85571Y127430D01*
X83209Y126130D02*
Y127430D01*
Y126130D02*
X85571D01*
X83209Y127430D02*
X85571D01*
X52044Y125627D02*
Y126493D01*
X53856Y125627D02*
Y126493D01*
X52044D02*
X53856D01*
X52044Y125627D02*
X53856D01*
X90949Y121190D02*
Y122490D01*
X93311Y121190D02*
Y122490D01*
X90949D02*
X93311D01*
X90949Y121190D02*
X93311D01*
X40424Y104996D02*
X41967D01*
X40424Y106729D02*
X41967D01*
Y104996D02*
Y106729D01*
X40424Y104996D02*
Y106729D01*
X48318Y104964D02*
X49862D01*
X48318Y106696D02*
X49862D01*
Y104964D02*
Y106696D01*
X48318Y104964D02*
Y106696D01*
X56198Y105024D02*
X57742D01*
X56198Y106756D02*
X57742D01*
Y105024D02*
Y106756D01*
X56198Y105024D02*
Y106756D01*
X64058Y105004D02*
X65602D01*
X64058Y106736D02*
X65602D01*
Y105004D02*
Y106736D01*
X64058Y105004D02*
Y106736D01*
X51895Y125085D02*
Y126600D01*
X50517Y125085D02*
Y126600D01*
X51895Y126600D01*
X50517Y125085D02*
X51895Y125085D01*
X50213Y121568D02*
Y123772D01*
X53127Y121568D02*
Y123772D01*
X50213D02*
X53127D01*
X50213Y121568D02*
X53127D01*
X45809Y121510D02*
Y124424D01*
X49471Y121510D02*
Y124424D01*
X45809Y121510D02*
X49471D01*
X45809Y124424D02*
X49471D01*
X37696Y121553D02*
Y125687D01*
X40610Y121553D02*
Y125687D01*
X37696D02*
X40610D01*
X37696Y121553D02*
X40610D01*
X83463Y119692D02*
X86297D01*
X83463Y123038D02*
X86297D01*
X83463Y119692D02*
Y123038D01*
X86297Y119692D02*
Y123038D01*
X59892Y125861D02*
Y127239D01*
X61408Y125861D02*
X61408Y127239D01*
X59892D02*
X61408D01*
X59892Y125861D02*
X61408Y125861D01*
X89047Y115423D02*
Y118257D01*
X92393Y115423D02*
Y118257D01*
X89047D02*
X92393D01*
X89047Y115423D02*
X92393D01*
X56950Y121845D02*
X59845Y124740D01*
X54055D02*
X56950Y127635D01*
X54055Y124740D02*
X56950Y121845D01*
Y127635D02*
X59845Y124740D01*
X64900Y120869D02*
Y124531D01*
X61986Y120869D02*
Y124531D01*
Y120869D02*
X64900D01*
X61986Y124531D02*
X64900D01*
M02*
