G04*
G04 #@! TF.GenerationSoftware,Altium Limited,Altium Designer,19.0.12 (326)*
G04*
G04 Layer_Color=32768*
%FSLAX24Y24*%
%MOIN*%
G70*
G01*
G75*
%ADD10C,0.0079*%
%ADD14C,0.0060*%
%ADD15C,0.0039*%
%ADD120C,0.0020*%
%ADD122C,0.0050*%
%ADD123C,0.0030*%
D10*
X88414Y129234D02*
X88430Y129250D01*
D14*
X96180Y121566D02*
Y129440D01*
X18750D02*
X96180D01*
X18750Y127140D02*
Y129440D01*
Y121566D02*
Y127140D01*
Y90070D02*
Y121566D01*
Y90070D02*
X96180D01*
X96180Y121566D02*
X96180Y90070D01*
D15*
X76292Y124194D02*
X76568D01*
X76292Y123486D02*
X76568D01*
Y124194D01*
X76292Y123486D02*
Y124194D01*
X76430Y123722D02*
Y123958D01*
X76312Y123840D02*
X76548D01*
D120*
X36868Y95120D02*
G03*
X36868Y95120I-138J0D01*
G01*
Y98141D02*
G03*
X36868Y98141I-138J0D01*
G01*
X36878Y116360D02*
G03*
X36878Y116360I-138J0D01*
G01*
X36868Y113249D02*
G03*
X36868Y113249I-138J0D01*
G01*
Y110227D02*
G03*
X36868Y110227I-138J0D01*
G01*
Y107206D02*
G03*
X36868Y107206I-138J0D01*
G01*
Y104184D02*
G03*
X36868Y104184I-138J0D01*
G01*
Y101163D02*
G03*
X36868Y101163I-138J0D01*
G01*
X58334Y121490D02*
G03*
X58334Y121490I-138J0D01*
G01*
X60447Y123280D02*
G03*
X60447Y123280I-138J0D01*
G01*
X91898Y122900D02*
G03*
X91898Y122900I-138J0D01*
G01*
X90358Y123777D02*
G03*
X90358Y123777I-138J0D01*
G01*
X69449Y125934D02*
G03*
X69449Y125934I-138J0D01*
G01*
X67628Y126110D02*
G03*
X67628Y126110I-138J0D01*
G01*
X77878Y116500D02*
G03*
X77878Y116500I-138J0D01*
G01*
Y113453D02*
G03*
X77878Y113453I-138J0D01*
G01*
Y110406D02*
G03*
X77878Y110406I-138J0D01*
G01*
Y107359D02*
G03*
X77878Y107359I-138J0D01*
G01*
Y104311D02*
G03*
X77878Y104311I-138J0D01*
G01*
Y101264D02*
G03*
X77878Y101264I-138J0D01*
G01*
Y98217D02*
G03*
X77878Y98217I-138J0D01*
G01*
Y95170D02*
G03*
X77878Y95170I-138J0D01*
G01*
X46708Y129020D02*
G03*
X46708Y129020I-138J0D01*
G01*
X49908Y125740D02*
G03*
X49908Y125740I-138J0D01*
G01*
X50418Y127240D02*
G03*
X50418Y127240I-138J0D01*
G01*
X53998Y122940D02*
G03*
X53998Y122940I-138J0D01*
G01*
X90688Y120490D02*
G03*
X90688Y120490I-138J0D01*
G01*
X89798Y120510D02*
G03*
X89798Y120510I-138J0D01*
G01*
X91478Y120340D02*
G03*
X91478Y120340I-138J0D01*
G01*
X92218Y120320D02*
G03*
X92218Y120320I-138J0D01*
G01*
X94483Y124570D02*
G03*
X94483Y124570I-138J0D01*
G01*
X86153Y118680D02*
G03*
X86153Y118680I-138J0D01*
G01*
X86148Y119320D02*
G03*
X86148Y119320I-138J0D01*
G01*
X84598Y119440D02*
G03*
X84598Y119440I-138J0D01*
G01*
Y118920D02*
G03*
X84598Y118920I-138J0D01*
G01*
X81758Y126190D02*
G03*
X81758Y126190I-138J0D01*
G01*
X85758Y123500D02*
G03*
X85758Y123500I-138J0D01*
G01*
X88638Y118330D02*
G03*
X88638Y118330I-138J0D01*
G01*
X88838Y116250D02*
G03*
X88838Y116250I-138J0D01*
G01*
X88338Y116250D02*
G03*
X88338Y116250I-138J0D01*
G01*
X88638Y117810D02*
G03*
X88638Y117810I-138J0D01*
G01*
X83568Y127740D02*
G03*
X83568Y127740I-138J0D01*
G01*
X89473Y121840D02*
G03*
X89473Y121840I-138J0D01*
G01*
X87058Y121080D02*
G03*
X87058Y121080I-138J0D01*
G01*
X45266Y115790D02*
G03*
X45266Y115790I-138J0D01*
G01*
X53128Y115790D02*
G03*
X53128Y115790I-138J0D01*
G01*
X60990Y115790D02*
G03*
X60990Y115790I-138J0D01*
G01*
X68878Y115760D02*
G03*
X68878Y115760I-138J0D01*
G01*
X45286Y107920D02*
G03*
X45286Y107920I-138J0D01*
G01*
X53128Y107920D02*
G03*
X53128Y107920I-138J0D01*
G01*
X61028Y107930D02*
G03*
X61028Y107930I-138J0D01*
G01*
X68888Y107900D02*
G03*
X68888Y107900I-138J0D01*
G01*
X45258Y100050D02*
G03*
X45258Y100050I-138J0D01*
G01*
X53148Y100040D02*
G03*
X53148Y100040I-138J0D01*
G01*
X61046Y100050D02*
G03*
X61046Y100050I-138J0D01*
G01*
X68848Y100030D02*
G03*
X68848Y100030I-138J0D01*
G01*
X45268Y92180D02*
G03*
X45268Y92180I-138J0D01*
G01*
X53108Y92190D02*
G03*
X53108Y92190I-138J0D01*
G01*
X60998Y92140D02*
G03*
X60998Y92140I-138J0D01*
G01*
X68910Y92170D02*
G03*
X68910Y92170I-138J0D01*
G01*
X55998Y122040D02*
G03*
X55998Y122040I-138J0D01*
G01*
X65418Y126230D02*
G03*
X65418Y126230I-138J0D01*
G01*
X87258Y119840D02*
G03*
X87258Y119840I-138J0D01*
G01*
X88628Y118920D02*
G03*
X88628Y118920I-138J0D01*
G01*
X67518Y128110D02*
G03*
X67518Y128110I-138J0D01*
G01*
X36533Y95120D02*
X36927D01*
X36730Y94923D02*
Y95317D01*
X36533Y98141D02*
X36927D01*
X36730Y97945D02*
Y98338D01*
X36543Y116360D02*
X36937D01*
X36740Y116163D02*
Y116557D01*
X36533Y113249D02*
X36927D01*
X36730Y113052D02*
Y113445D01*
X36533Y110227D02*
X36927D01*
X36730Y110030D02*
Y110424D01*
X36533Y107206D02*
X36927D01*
X36730Y107009D02*
Y107403D01*
X36533Y104184D02*
X36927D01*
X36730Y103987D02*
Y104381D01*
X36533Y101163D02*
X36927D01*
X36730Y100966D02*
Y101360D01*
X58057Y121351D02*
X58335Y121629D01*
X58057D02*
X58335Y121351D01*
X60170Y123141D02*
X60449Y123420D01*
X60170D02*
X60449Y123141D01*
X91760Y122703D02*
X91760Y123097D01*
X91563Y122900D02*
X91957Y122900D01*
X90220Y123580D02*
Y123973D01*
X90023Y123777D02*
X90417D01*
X69115Y125934D02*
X69508D01*
X69312Y125737D02*
Y126131D01*
X67293Y126110D02*
X67687D01*
X67490Y125913D02*
Y126307D01*
X77543Y116500D02*
X77937D01*
X77740Y116303D02*
Y116697D01*
X77543Y113453D02*
X77937D01*
X77740Y113256D02*
Y113650D01*
X77543Y110406D02*
X77937D01*
X77740Y110209D02*
Y110603D01*
X77543Y107359D02*
X77937D01*
X77740Y107162D02*
Y107555D01*
X77543Y104311D02*
X77937D01*
X77740Y104115D02*
Y104508D01*
X77543Y101264D02*
X77937D01*
X77740Y101067D02*
Y101461D01*
X77543Y98217D02*
X77937D01*
X77740Y98020D02*
Y98414D01*
X77543Y95170D02*
X77937D01*
X77740Y94973D02*
Y95367D01*
X46570Y128823D02*
Y129217D01*
X46373Y129020D02*
X46767D01*
X49573Y125740D02*
X49967D01*
X49770Y125543D02*
Y125937D01*
X50280Y127043D02*
Y127437D01*
X50083Y127240D02*
X50477D01*
X53860Y122743D02*
Y123137D01*
X53663Y122940D02*
X54057D01*
X90550Y120687D02*
X90550Y120293D01*
X90353Y120490D02*
X90747D01*
X89660Y120707D02*
X89660Y120313D01*
X89463Y120510D02*
X89857Y120510D01*
X91143Y120340D02*
X91537D01*
X91340Y120143D02*
Y120537D01*
X91883Y120320D02*
X92277D01*
X92080Y120123D02*
X92080Y120517D01*
X94345Y124767D02*
X94345Y124373D01*
X94148Y124570D02*
X94542D01*
X86016Y118483D02*
Y118877D01*
X85819Y118680D02*
X86212D01*
X86010Y119123D02*
Y119517D01*
X85813Y119320D02*
X86207D01*
X84460Y119243D02*
Y119637D01*
X84263Y119440D02*
X84657D01*
X84460Y118723D02*
Y119117D01*
X84263Y118920D02*
X84657D01*
X81423Y126190D02*
X81817D01*
X81620Y125993D02*
Y126387D01*
X85620Y123303D02*
Y123697D01*
X85423Y123500D02*
X85817D01*
X88500Y118133D02*
Y118527D01*
X88303Y118330D02*
X88697D01*
X88503Y116250D02*
X88897D01*
X88700Y116053D02*
Y116447D01*
X88003Y116250D02*
X88397D01*
X88200Y116053D02*
Y116447D01*
X88500Y117613D02*
Y118007D01*
X88303Y117810D02*
X88697D01*
X83430Y127543D02*
Y127937D01*
X83233Y127740D02*
X83627D01*
X89335Y121643D02*
Y122037D01*
X89138Y121840D02*
X89532D01*
X86920Y120883D02*
Y121277D01*
X86723Y121080D02*
X87117D01*
X45128Y115593D02*
Y115987D01*
X44931Y115790D02*
X45325D01*
X52990Y115593D02*
Y115987D01*
X52793Y115790D02*
X53187D01*
X60852Y115593D02*
Y115987D01*
X60655Y115790D02*
X61049D01*
X68740Y115563D02*
Y115957D01*
X68543Y115760D02*
X68937D01*
X45148Y107723D02*
Y108117D01*
X44951Y107920D02*
X45345D01*
X52990Y107723D02*
Y108117D01*
X52793Y107920D02*
X53187D01*
X60890Y107733D02*
Y108127D01*
X60693Y107930D02*
X61087D01*
X68750Y107703D02*
Y108097D01*
X68553Y107900D02*
X68947D01*
X45120Y99853D02*
Y100247D01*
X44923Y100050D02*
X45317D01*
X53010Y99843D02*
Y100237D01*
X52813Y100040D02*
X53207D01*
X60908Y99853D02*
Y100247D01*
X60711Y100050D02*
X61105D01*
X68710Y99833D02*
Y100227D01*
X68513Y100030D02*
X68907D01*
X45130Y91983D02*
Y92377D01*
X44933Y92180D02*
X45327D01*
X52970Y91993D02*
Y92387D01*
X52773Y92190D02*
X53167D01*
X60860Y91943D02*
Y92337D01*
X60663Y92140D02*
X61057D01*
X68772Y91973D02*
Y92367D01*
X68575Y92170D02*
X68969D01*
X55860Y121843D02*
Y122237D01*
X55663Y122040D02*
X56057D01*
X65083Y126230D02*
X65477D01*
X65280Y126033D02*
Y126427D01*
X87120Y119643D02*
Y120037D01*
X86923Y119840D02*
X87317D01*
X88490Y118723D02*
Y119117D01*
X88293Y118920D02*
X88687D01*
X67380Y127913D02*
Y128307D01*
X67183Y128110D02*
X67577D01*
D122*
X93625Y126485D02*
Y126685D01*
X93525Y126585D02*
X93725Y126585D01*
X93165Y126485D02*
X93165Y126685D01*
X93065Y126585D02*
X93265D01*
X84560Y125820D02*
X84760D01*
X84660Y125720D02*
Y125920D01*
X60419Y121459D02*
X60561Y121601D01*
X60419D02*
X60561Y121459D01*
X72680Y129030D02*
X72880D01*
X72780Y128930D02*
Y129130D01*
X63800Y128615D02*
Y128815D01*
X63700Y128715D02*
X63900D01*
X30610Y105825D02*
X30810D01*
X30710Y105725D02*
Y105925D01*
X24745Y111180D02*
X24945D01*
X24845Y111080D02*
Y111280D01*
X30610Y106720D02*
X30810D01*
X30710Y106620D02*
Y106820D01*
X93655Y104870D02*
X93855D01*
X93755Y104770D02*
Y104970D01*
X93655Y106620D02*
X93855D01*
X93755Y106520D02*
Y106720D01*
X93655Y106040D02*
X93855D01*
X93755Y105940D02*
Y106140D01*
X72360Y128050D02*
Y128250D01*
X72260Y128150D02*
X72460D01*
X71790Y128050D02*
Y128250D01*
X71690Y128150D02*
X71890D01*
X63800Y127325D02*
Y127525D01*
X63700Y127425D02*
X63900D01*
X30610Y104930D02*
X30810D01*
X30710Y104830D02*
Y105030D01*
X93655Y105460D02*
X93855D01*
X93755Y105360D02*
Y105560D01*
X66820Y123330D02*
X67020D01*
X66920Y123230D02*
Y123430D01*
X66820Y123840D02*
X67020D01*
X66920Y123740D02*
Y123940D01*
X76430Y124965D02*
Y125165D01*
X76330Y125065D02*
X76530D01*
X52790Y125280D02*
X52990D01*
X52890Y125180D02*
Y125380D01*
X53770Y122430D02*
X53970D01*
X53870Y122330D02*
Y122530D01*
X49930Y128095D02*
Y128295D01*
X49830Y128195D02*
X50030D01*
X53775Y121830D02*
X53975D01*
X53875Y121730D02*
Y121930D01*
X50330Y125630D02*
Y125830D01*
X50230Y125730D02*
X50430D01*
X50540Y128100D02*
Y128300D01*
X50440Y128200D02*
X50640D01*
X50140Y129240D02*
X50340D01*
X50240Y129140D02*
Y129340D01*
X71790Y126625D02*
Y126825D01*
X71690Y126725D02*
X71890D01*
X72360Y126625D02*
Y126825D01*
X72260Y126725D02*
X72460D01*
X94270Y124050D02*
X94470Y124050D01*
X94370Y123950D02*
Y124150D01*
X60657Y125630D02*
X60857Y125630D01*
X60757Y125530D02*
Y125730D01*
X88970Y120130D02*
Y120330D01*
X88870Y120230D02*
X89070D01*
X87015Y120490D02*
X87215D01*
X87115Y120390D02*
Y120590D01*
X60652Y125140D02*
X60852D01*
X60752Y125040D02*
Y125240D01*
X82200Y126105D02*
Y126305D01*
X82100Y126205D02*
X82300D01*
X90380Y125570D02*
Y125770D01*
X90280Y125670D02*
X90480D01*
X61540Y126130D02*
X61740D01*
X61640Y126030D02*
Y126230D01*
X93445Y125700D02*
X93645D01*
X93545Y125600D02*
Y125800D01*
X94260Y125060D02*
X94460D01*
X94360Y124960D02*
Y125160D01*
X61600Y126990D02*
X61800D01*
X61700Y126890D02*
Y127090D01*
X82780Y126305D02*
X82780Y126105D01*
X82680Y126205D02*
X82880D01*
X65470Y122800D02*
X65670D01*
X65570Y122700D02*
Y122900D01*
X65470Y122270D02*
X65670D01*
X65570Y122170D02*
Y122370D01*
X66820Y122800D02*
X67020D01*
X66920Y122700D02*
Y122900D01*
X65485Y123340D02*
X65685D01*
X65585Y123240D02*
Y123440D01*
X37180Y122600D02*
Y122800D01*
X37080Y122700D02*
X37280D01*
X65485Y123840D02*
X65685D01*
X65585Y123740D02*
Y123940D01*
X61540Y121678D02*
Y121878D01*
X61440Y121778D02*
X61640D01*
X61526Y123055D02*
Y123255D01*
X61426Y123155D02*
X61626D01*
X66820Y122270D02*
X67020D01*
X66920Y122170D02*
Y122370D01*
X55765Y121580D02*
X55965D01*
X55865Y121480D02*
Y121680D01*
D123*
X68897Y125741D02*
Y125841D01*
X68847Y125791D02*
X68947D01*
M02*
