G04*
G04 #@! TF.GenerationSoftware,Altium Limited,Altium Designer,19.0.12 (326)*
G04*
G04 Layer_Color=128*
%FSLAX24Y24*%
%MOIN*%
G70*
G01*
G75*
%ADD10C,0.0079*%
%ADD14C,0.0060*%
%ADD124C,0.0020*%
D10*
X88414Y129234D02*
X88430Y129250D01*
D14*
X96180Y121566D02*
Y129440D01*
X18750D02*
X96180D01*
X18750Y127140D02*
Y129440D01*
Y121566D02*
Y127140D01*
Y90070D02*
Y121566D01*
Y90070D02*
X96180D01*
X96180Y121566D02*
X96180Y90070D01*
D124*
X19849Y127670D02*
X21031D01*
X20440Y127079D02*
Y128261D01*
X93039Y91870D02*
X94221D01*
X93630Y91279D02*
Y92461D01*
X19879Y92100D02*
X21061D01*
X20470Y91509D02*
Y92691D01*
X43556Y118584D02*
X43910D01*
X43733Y118407D02*
Y118761D01*
X45878Y119628D02*
X46233D01*
X46056Y119450D02*
Y119805D01*
X51430Y118584D02*
X51784D01*
X51607Y118407D02*
Y118761D01*
X53752Y119628D02*
X54107D01*
X53930Y119450D02*
Y119805D01*
X59278Y118572D02*
X59632D01*
X59455Y118395D02*
Y118749D01*
X61601Y119616D02*
X61955D01*
X61778Y119438D02*
Y119793D01*
X67178Y118584D02*
X67532D01*
X67355Y118407D02*
Y118761D01*
X69500Y119628D02*
X69855D01*
X69678Y119450D02*
Y119805D01*
X43556Y110710D02*
X43910D01*
X43733Y110533D02*
Y110887D01*
X45878Y111754D02*
X46233D01*
X46056Y111576D02*
Y111931D01*
X51430Y110710D02*
X51784D01*
X51607Y110533D02*
Y110887D01*
X53752Y111754D02*
X54107D01*
X53930Y111576D02*
Y111931D01*
X67178Y110710D02*
X67532D01*
X67355Y110533D02*
Y110887D01*
X69500Y111754D02*
X69855D01*
X69678Y111576D02*
Y111931D01*
X43556Y102836D02*
X43910D01*
X43733Y102659D02*
Y103013D01*
X45878Y103880D02*
X46233D01*
X46056Y103702D02*
Y104057D01*
X51430Y102836D02*
X51784D01*
X51607Y102659D02*
Y103013D01*
X53752Y103880D02*
X54107D01*
X53930Y103702D02*
Y104057D01*
X59304Y102836D02*
X59658D01*
X59481Y102659D02*
Y103013D01*
X61626Y103880D02*
X61981D01*
X61804Y103702D02*
Y104057D01*
X67178Y102836D02*
X67532D01*
X67355Y102659D02*
Y103013D01*
X69500Y103880D02*
X69855D01*
X69678Y103702D02*
Y104057D01*
X43556Y94962D02*
X43910D01*
X43733Y94785D02*
Y95139D01*
X45878Y96006D02*
X46233D01*
X46056Y95828D02*
Y96183D01*
X51430Y94962D02*
X51784D01*
X51607Y94785D02*
Y95139D01*
X53752Y96006D02*
X54107D01*
X53930Y95828D02*
Y96183D01*
X59304Y94962D02*
X59658D01*
X59481Y94785D02*
Y95139D01*
X61626Y96006D02*
X61981D01*
X61804Y95828D02*
Y96183D01*
X67178Y94962D02*
X67532D01*
X67355Y94785D02*
Y95139D01*
X69500Y96006D02*
X69855D01*
X69678Y95828D02*
Y96183D01*
X85049Y103210D02*
X85758D01*
X85404Y102856D02*
Y103564D01*
X85049Y108560D02*
X85758D01*
X85404Y108206D02*
Y108914D01*
X91152Y103210D02*
X91860D01*
X91506Y102856D02*
Y103564D01*
X91152Y108560D02*
X91860D01*
X91506Y108206D02*
Y108914D01*
X88210Y109797D02*
X88702D01*
X88456Y109551D02*
Y110043D01*
X87226Y109797D02*
X87718D01*
X87472Y109551D02*
Y110043D01*
X89194Y109797D02*
X89686D01*
X89440Y109551D02*
Y110043D01*
X92147Y106844D02*
X92639D01*
X92393Y106598D02*
Y107090D01*
X92147Y104876D02*
X92639D01*
X92393Y104630D02*
Y105122D01*
X92147Y105860D02*
X92639D01*
X92393Y105614D02*
Y106106D01*
X86950Y101030D02*
X87383D01*
X87166Y100813D02*
Y101247D01*
X86950Y102802D02*
X87383D01*
X87166Y102585D02*
Y103018D01*
X89529Y102820D02*
X89962D01*
X89745Y102603D02*
Y103037D01*
X89529Y101048D02*
X89962D01*
X89745Y100832D02*
Y101265D01*
X48953Y128130D02*
X49307D01*
X49130Y127953D02*
Y128307D01*
X47953Y128130D02*
X48307D01*
X48130Y127953D02*
Y128307D01*
X46953Y128130D02*
X47307D01*
X47130Y127953D02*
Y128307D01*
X45953Y128130D02*
X46307D01*
X46130Y127953D02*
Y128307D01*
X55313Y127950D02*
X55667D01*
X55490Y127773D02*
Y128127D01*
X55313Y128950D02*
X55667D01*
X55490Y128773D02*
Y129127D01*
X56313Y127950D02*
X56667D01*
X56490Y127773D02*
Y128127D01*
X56313Y128950D02*
X56667D01*
X56490Y128773D02*
Y129127D01*
X57313Y127950D02*
X57667D01*
X57490Y127773D02*
Y128127D01*
X57313Y128950D02*
X57667D01*
X57490Y128773D02*
Y129127D01*
X58313Y127950D02*
X58667D01*
X58490Y127773D02*
Y128127D01*
X58313Y128950D02*
X58667D01*
X58490Y128773D02*
Y129127D01*
X86101Y124282D02*
X86770D01*
X86436Y123947D02*
Y124616D01*
X88070Y124281D02*
X88739D01*
X88404Y123947D02*
Y124616D01*
X85058Y128218D02*
X85451D01*
X85255Y128022D02*
Y128415D01*
X89389Y128218D02*
X89782D01*
X89585Y128022D02*
Y128415D01*
X47973Y129130D02*
X48327D01*
X48150Y128953D02*
Y129307D01*
X48973Y129130D02*
X49327D01*
X49150Y128953D02*
Y129307D01*
X59326Y110705D02*
X59680D01*
X59503Y110528D02*
Y110882D01*
X61648Y111749D02*
X62003D01*
X61826Y111571D02*
Y111926D01*
X26536Y101048D02*
X26970D01*
X26753Y100832D02*
Y101265D01*
X26536Y102820D02*
X26970D01*
X26753Y102603D02*
Y103037D01*
X23957Y102802D02*
X24390D01*
X24174Y102585D02*
Y103018D01*
X23957Y101030D02*
X24390D01*
X24174Y100813D02*
Y101247D01*
X29155Y105860D02*
X29647D01*
X29401Y105614D02*
Y106106D01*
X29155Y104876D02*
X29647D01*
X29401Y104630D02*
Y105122D01*
X29155Y106844D02*
X29647D01*
X29401Y106598D02*
Y107090D01*
X26202Y109797D02*
X26694D01*
X26448Y109551D02*
Y110043D01*
X24234Y109797D02*
X24726D01*
X24480Y109551D02*
Y110043D01*
X25218Y109797D02*
X25710D01*
X25464Y109551D02*
Y110043D01*
X28160Y108560D02*
X28868D01*
X28514Y108206D02*
Y108914D01*
X28160Y103210D02*
X28868D01*
X28514Y102856D02*
Y103564D01*
X22057Y108560D02*
X22766D01*
X22412Y108206D02*
Y108914D01*
X22057Y103210D02*
X22766D01*
X22412Y102856D02*
Y103564D01*
X40911Y121660D02*
X41029D01*
X40970Y121601D02*
Y121719D01*
X41171Y121820D02*
X41289D01*
X41230Y121761D02*
Y121879D01*
X41671Y121860D02*
X41789D01*
X41730Y121801D02*
Y121919D01*
X44363Y117659D02*
X45937D01*
X45150Y116872D02*
Y118446D01*
X52237Y117659D02*
X53811D01*
X53024Y116872D02*
Y118446D01*
X60085Y117647D02*
X61660D01*
X60872Y116860D02*
Y118434D01*
X67985Y117659D02*
X69559D01*
X68772Y116872D02*
Y118446D01*
X44363Y109785D02*
X45937D01*
X45150Y108998D02*
Y110572D01*
X52237Y109785D02*
X53811D01*
X53024Y108998D02*
Y110572D01*
X67985Y109785D02*
X69559D01*
X68772Y108998D02*
Y110572D01*
X44363Y101911D02*
X45937D01*
X45150Y101124D02*
Y102698D01*
X52237Y101911D02*
X53811D01*
X53024Y101124D02*
Y102698D01*
X60111Y101911D02*
X61685D01*
X60898Y101124D02*
Y102698D01*
X67985Y101911D02*
X69559D01*
X68772Y101124D02*
Y102698D01*
X44363Y94037D02*
X45937D01*
X45150Y93250D02*
Y94824D01*
X52237Y94037D02*
X53811D01*
X53024Y93250D02*
Y94824D01*
X60111Y94037D02*
X61685D01*
X60898Y93250D02*
Y94824D01*
X67985Y94037D02*
X69559D01*
X68772Y93250D02*
Y94824D01*
X60133Y109780D02*
X61707D01*
X60920Y108993D02*
Y110567D01*
X74451Y119550D02*
X74569D01*
X74510Y119491D02*
Y119609D01*
X69175Y119730D02*
X69293D01*
X69234Y119671D02*
Y119789D01*
X21661Y99240D02*
X21779D01*
X21720Y99181D02*
Y99299D01*
X22111Y98790D02*
X22229D01*
X22170Y98731D02*
Y98849D01*
X22562Y98339D02*
X22680D01*
X22621Y98280D02*
Y98398D01*
X23012Y97889D02*
X23130D01*
X23071Y97830D02*
Y97948D01*
X23462Y97439D02*
X23580D01*
X23521Y97380D02*
Y97498D01*
X55661Y127030D02*
X55779D01*
X55720Y126971D02*
Y127089D01*
X56471Y127260D02*
X56589D01*
X56530Y127201D02*
Y127319D01*
X56876Y126090D02*
X56994D01*
X56935Y126031D02*
Y126149D01*
X54554Y125770D02*
X54672D01*
X54613Y125711D02*
Y125829D01*
X54581Y125390D02*
X54699D01*
X54640Y125331D02*
Y125449D01*
X59883Y123500D02*
X60001D01*
X59942Y123441D02*
Y123559D01*
X58101Y121910D02*
X58219D01*
X58160Y121851D02*
Y121969D01*
X79481Y127050D02*
X79599D01*
X79540Y126991D02*
Y127109D01*
X56091Y120388D02*
X56209D01*
X56150Y120329D02*
Y120447D01*
X71831Y122990D02*
X71949D01*
X71890Y122931D02*
Y123049D01*
X72771Y123077D02*
X72889D01*
X72830Y123018D02*
Y123136D01*
X68201Y127727D02*
X68319D01*
X68260Y127668D02*
Y127786D01*
X68711Y127790D02*
X68829D01*
X68770Y127731D02*
Y127849D01*
X67831Y128010D02*
X67949D01*
X67890Y127951D02*
Y128069D01*
X62061Y126370D02*
X62179D01*
X62120Y126311D02*
Y126429D01*
X61461Y125470D02*
X61579D01*
X61520Y125411D02*
Y125529D01*
X57091Y120940D02*
X57209D01*
X57150Y120881D02*
Y120999D01*
X56791Y119780D02*
X56909D01*
X56850Y119721D02*
Y119839D01*
X55961Y122680D02*
X56079D01*
X56020Y122621D02*
Y122739D01*
X55851Y124730D02*
X55969D01*
X55910Y124671D02*
Y124789D01*
X56647Y124716D02*
X56765D01*
X56706Y124657D02*
Y124775D01*
X56981Y123400D02*
X57099D01*
X57040Y123341D02*
Y123459D01*
X57441Y123560D02*
X57559D01*
X57500Y123501D02*
Y123619D01*
X58961Y114420D02*
X59079D01*
X59020Y114361D02*
Y114479D01*
X58046Y114420D02*
X58164D01*
X58105Y114361D02*
Y114479D01*
X57131Y114420D02*
X57249D01*
X57190Y114361D02*
Y114479D01*
X57131Y115293D02*
X57249D01*
X57190Y115234D02*
Y115352D01*
X58046Y115293D02*
X58164D01*
X58105Y115234D02*
Y115352D01*
X58961Y115293D02*
X59079D01*
X59020Y115234D02*
Y115352D01*
X58961Y116167D02*
X59079D01*
X59020Y116108D02*
Y116226D01*
X58046Y116167D02*
X58164D01*
X58105Y116108D02*
Y116226D01*
X57131Y116167D02*
X57249D01*
X57190Y116108D02*
Y116226D01*
X57131Y117040D02*
X57249D01*
X57190Y116981D02*
Y117099D01*
X58046Y117040D02*
X58164D01*
X58105Y116981D02*
Y117099D01*
X58961Y117040D02*
X59079D01*
X59020Y116981D02*
Y117099D01*
X50021Y114910D02*
X50139D01*
X50080Y114851D02*
Y114969D01*
X49106Y114910D02*
X49224D01*
X49165Y114851D02*
Y114969D01*
X48191Y114910D02*
X48309D01*
X48250Y114851D02*
Y114969D01*
X48191Y115783D02*
X48309D01*
X48250Y115724D02*
Y115842D01*
X49106Y115783D02*
X49224D01*
X49165Y115724D02*
Y115842D01*
X50021Y115783D02*
X50139D01*
X50080Y115724D02*
Y115842D01*
X50021Y116657D02*
X50139D01*
X50080Y116598D02*
Y116716D01*
X49106Y116657D02*
X49224D01*
X49165Y116598D02*
Y116716D01*
X48191Y116657D02*
X48309D01*
X48250Y116598D02*
Y116716D01*
X48191Y117530D02*
X48309D01*
X48250Y117471D02*
Y117589D01*
X49106Y117530D02*
X49224D01*
X49165Y117471D02*
Y117589D01*
X50021Y117530D02*
X50139D01*
X50080Y117471D02*
Y117589D01*
X49561Y107390D02*
X49679D01*
X49620Y107331D02*
Y107449D01*
X48646Y107390D02*
X48764D01*
X48705Y107331D02*
Y107449D01*
X47731Y107390D02*
X47849D01*
X47790Y107331D02*
Y107449D01*
X47731Y108263D02*
X47849D01*
X47790Y108204D02*
Y108322D01*
X48646Y108263D02*
X48764D01*
X48705Y108204D02*
Y108322D01*
X49561Y108263D02*
X49679D01*
X49620Y108204D02*
Y108322D01*
X49561Y109137D02*
X49679D01*
X49620Y109078D02*
Y109196D01*
X48646Y109137D02*
X48764D01*
X48705Y109078D02*
Y109196D01*
X47731Y109137D02*
X47849D01*
X47790Y109078D02*
Y109196D01*
X47731Y110010D02*
X47849D01*
X47790Y109951D02*
Y110069D01*
X48646Y110010D02*
X48764D01*
X48705Y109951D02*
Y110069D01*
X49561Y110010D02*
X49679D01*
X49620Y109951D02*
Y110069D01*
X42086Y108080D02*
X42204D01*
X42145Y108021D02*
Y108139D01*
X41171Y108080D02*
X41289D01*
X41230Y108021D02*
Y108139D01*
X41171Y108953D02*
X41289D01*
X41230Y108894D02*
Y109012D01*
X42086Y108953D02*
X42204D01*
X42145Y108894D02*
Y109012D01*
X43001Y108953D02*
X43119D01*
X43060Y108894D02*
Y109012D01*
X43001Y109827D02*
X43119D01*
X43060Y109768D02*
Y109886D01*
X42086Y109827D02*
X42204D01*
X42145Y109768D02*
Y109886D01*
X41171Y109827D02*
X41289D01*
X41230Y109768D02*
Y109886D01*
X41171Y110700D02*
X41289D01*
X41230Y110641D02*
Y110759D01*
X42086Y110700D02*
X42204D01*
X42145Y110641D02*
Y110759D01*
X43001Y110700D02*
X43119D01*
X43060Y110641D02*
Y110759D01*
X57671Y91500D02*
X57789D01*
X57730Y91441D02*
Y91559D01*
X56756Y91500D02*
X56874D01*
X56815Y91441D02*
Y91559D01*
X55841Y91500D02*
X55959D01*
X55900Y91441D02*
Y91559D01*
X55841Y92373D02*
X55959D01*
X55900Y92314D02*
Y92432D01*
X56756Y92373D02*
X56874D01*
X56815Y92314D02*
Y92432D01*
X57671Y92373D02*
X57789D01*
X57730Y92314D02*
Y92432D01*
X57671Y93247D02*
X57789D01*
X57730Y93188D02*
Y93306D01*
X56756Y93247D02*
X56874D01*
X56815Y93188D02*
Y93306D01*
X55841Y93247D02*
X55959D01*
X55900Y93188D02*
Y93306D01*
X55841Y94120D02*
X55959D01*
X55900Y94061D02*
Y94179D01*
X56756Y94120D02*
X56874D01*
X56815Y94061D02*
Y94179D01*
X57671Y94120D02*
X57789D01*
X57730Y94061D02*
Y94179D01*
X49601Y91340D02*
X49719D01*
X49660Y91281D02*
Y91399D01*
X48686Y91340D02*
X48804D01*
X48745Y91281D02*
Y91399D01*
X47771Y91340D02*
X47889D01*
X47830Y91281D02*
Y91399D01*
X47771Y92213D02*
X47889D01*
X47830Y92154D02*
Y92272D01*
X48686Y92213D02*
X48804D01*
X48745Y92154D02*
Y92272D01*
X49601Y92213D02*
X49719D01*
X49660Y92154D02*
Y92272D01*
X49601Y93087D02*
X49719D01*
X49660Y93028D02*
Y93146D01*
X48686Y93087D02*
X48804D01*
X48745Y93028D02*
Y93146D01*
X47771Y93087D02*
X47889D01*
X47830Y93028D02*
Y93146D01*
X47771Y93960D02*
X47889D01*
X47830Y93901D02*
Y94019D01*
X48686Y93960D02*
X48804D01*
X48745Y93901D02*
Y94019D01*
X49601Y93960D02*
X49719D01*
X49660Y93901D02*
Y94019D01*
X49961Y98990D02*
X50079D01*
X50020Y98931D02*
Y99049D01*
X49046Y98990D02*
X49164D01*
X49105Y98931D02*
Y99049D01*
X48131Y98990D02*
X48249D01*
X48190Y98931D02*
Y99049D01*
X48131Y99863D02*
X48249D01*
X48190Y99804D02*
Y99922D01*
X49046Y99863D02*
X49164D01*
X49105Y99804D02*
Y99922D01*
X49961Y99863D02*
X50079D01*
X50020Y99804D02*
Y99922D01*
X49961Y100737D02*
X50079D01*
X50020Y100678D02*
Y100796D01*
X49046Y100737D02*
X49164D01*
X49105Y100678D02*
Y100796D01*
X48131Y100737D02*
X48249D01*
X48190Y100678D02*
Y100796D01*
X48131Y101610D02*
X48249D01*
X48190Y101551D02*
Y101669D01*
X49046Y101610D02*
X49164D01*
X49105Y101551D02*
Y101669D01*
X49961Y101610D02*
X50079D01*
X50020Y101551D02*
Y101669D01*
X57581Y99350D02*
X57699D01*
X57640Y99291D02*
Y99409D01*
X56666Y99350D02*
X56784D01*
X56725Y99291D02*
Y99409D01*
X55751Y99350D02*
X55869D01*
X55810Y99291D02*
Y99409D01*
X55751Y100223D02*
X55869D01*
X55810Y100164D02*
Y100282D01*
X56666Y100223D02*
X56784D01*
X56725Y100164D02*
Y100282D01*
X57581Y100223D02*
X57699D01*
X57640Y100164D02*
Y100282D01*
X57581Y101097D02*
X57699D01*
X57640Y101038D02*
Y101156D01*
X56666Y101097D02*
X56784D01*
X56725Y101038D02*
Y101156D01*
X55751Y101097D02*
X55869D01*
X55810Y101038D02*
Y101156D01*
X55751Y101970D02*
X55869D01*
X55810Y101911D02*
Y102029D01*
X56666Y101970D02*
X56784D01*
X56725Y101911D02*
Y102029D01*
X57581Y101970D02*
X57699D01*
X57640Y101911D02*
Y102029D01*
X57871Y107790D02*
X57989D01*
X57930Y107731D02*
Y107849D01*
X56956Y107790D02*
X57074D01*
X57015Y107731D02*
Y107849D01*
X56041Y107790D02*
X56159D01*
X56100Y107731D02*
Y107849D01*
X56041Y108663D02*
X56159D01*
X56100Y108604D02*
Y108722D01*
X56956Y108663D02*
X57074D01*
X57015Y108604D02*
Y108722D01*
X57871Y108663D02*
X57989D01*
X57930Y108604D02*
Y108722D01*
X57871Y109537D02*
X57989D01*
X57930Y109478D02*
Y109596D01*
X56956Y109537D02*
X57074D01*
X57015Y109478D02*
Y109596D01*
X56041Y109537D02*
X56159D01*
X56100Y109478D02*
Y109596D01*
X56041Y110410D02*
X56159D01*
X56100Y110351D02*
Y110469D01*
X56956Y110410D02*
X57074D01*
X57015Y110351D02*
Y110469D01*
X57871Y110410D02*
X57989D01*
X57930Y110351D02*
Y110469D01*
X65681Y108000D02*
X65799D01*
X65740Y107941D02*
Y108059D01*
X64766Y108000D02*
X64884D01*
X64825Y107941D02*
Y108059D01*
X63851Y108000D02*
X63969D01*
X63910Y107941D02*
Y108059D01*
X63851Y108873D02*
X63969D01*
X63910Y108814D02*
Y108932D01*
X64766Y108873D02*
X64884D01*
X64825Y108814D02*
Y108932D01*
X65681Y108873D02*
X65799D01*
X65740Y108814D02*
Y108932D01*
X65681Y109747D02*
X65799D01*
X65740Y109688D02*
Y109806D01*
X64766Y109747D02*
X64884D01*
X64825Y109688D02*
Y109806D01*
X63851Y109747D02*
X63969D01*
X63910Y109688D02*
Y109806D01*
X63851Y110620D02*
X63969D01*
X63910Y110561D02*
Y110679D01*
X64766Y110620D02*
X64884D01*
X64825Y110561D02*
Y110679D01*
X65681Y110620D02*
X65799D01*
X65740Y110561D02*
Y110679D01*
X67551Y98339D02*
X67669D01*
X67610Y98280D02*
Y98398D01*
X66636Y98339D02*
X66754D01*
X66695Y98280D02*
Y98398D01*
X65721Y98339D02*
X65839D01*
X65780Y98280D02*
Y98398D01*
X65721Y99213D02*
X65839D01*
X65780Y99154D02*
Y99272D01*
X66636Y99213D02*
X66754D01*
X66695Y99154D02*
Y99272D01*
X67551Y99213D02*
X67669D01*
X67610Y99154D02*
Y99272D01*
X67551Y100086D02*
X67669D01*
X67610Y100027D02*
Y100145D01*
X66636Y100086D02*
X66754D01*
X66695Y100027D02*
Y100145D01*
X65721Y100086D02*
X65839D01*
X65780Y100027D02*
Y100145D01*
X65721Y100959D02*
X65839D01*
X65780Y100900D02*
Y101018D01*
X66636Y100959D02*
X66754D01*
X66695Y100900D02*
Y101018D01*
X67551Y100959D02*
X67669D01*
X67610Y100900D02*
Y101018D01*
X64471Y98220D02*
X64589D01*
X64530Y98161D02*
Y98279D01*
X63556Y98220D02*
X63674D01*
X63615Y98161D02*
Y98279D01*
X62641Y98220D02*
X62759D01*
X62700Y98161D02*
Y98279D01*
X62641Y99093D02*
X62759D01*
X62700Y99034D02*
Y99152D01*
X63556Y99093D02*
X63674D01*
X63615Y99034D02*
Y99152D01*
X64471Y99093D02*
X64589D01*
X64530Y99034D02*
Y99152D01*
X64471Y99967D02*
X64589D01*
X64530Y99908D02*
Y100026D01*
X63556Y99967D02*
X63674D01*
X63615Y99908D02*
Y100026D01*
X62641Y99967D02*
X62759D01*
X62700Y99908D02*
Y100026D01*
X62641Y100840D02*
X62759D01*
X62700Y100781D02*
Y100899D01*
X63556Y100840D02*
X63674D01*
X63615Y100781D02*
Y100899D01*
X64471Y100840D02*
X64589D01*
X64530Y100781D02*
Y100899D01*
X65681Y92080D02*
X65799D01*
X65740Y92021D02*
Y92139D01*
X64766Y92080D02*
X64884D01*
X64825Y92021D02*
Y92139D01*
X63851Y92080D02*
X63969D01*
X63910Y92021D02*
Y92139D01*
X63851Y92953D02*
X63969D01*
X63910Y92894D02*
Y93012D01*
X64766Y92953D02*
X64884D01*
X64825Y92894D02*
Y93012D01*
X65681Y92953D02*
X65799D01*
X65740Y92894D02*
Y93012D01*
X65681Y93827D02*
X65799D01*
X65740Y93768D02*
Y93886D01*
X64766Y93827D02*
X64884D01*
X64825Y93768D02*
Y93886D01*
X63851Y93827D02*
X63969D01*
X63910Y93768D02*
Y93886D01*
X63851Y94700D02*
X63969D01*
X63910Y94641D02*
Y94759D01*
X64766Y94700D02*
X64884D01*
X64825Y94641D02*
Y94759D01*
X65681Y94700D02*
X65799D01*
X65740Y94641D02*
Y94759D01*
X84891Y97970D02*
X85009D01*
X84950Y97911D02*
Y98029D01*
X83976Y97970D02*
X84094D01*
X84035Y97911D02*
Y98029D01*
X83061Y97970D02*
X83179D01*
X83120Y97911D02*
Y98029D01*
X83061Y97097D02*
X83179D01*
X83120Y97038D02*
Y97156D01*
X83976Y97097D02*
X84094D01*
X84035Y97038D02*
Y97156D01*
X84891Y97097D02*
X85009D01*
X84950Y97038D02*
Y97156D01*
X84891Y96223D02*
X85009D01*
X84950Y96164D02*
Y96282D01*
X83976Y96223D02*
X84094D01*
X84035Y96164D02*
Y96282D01*
X83061Y96223D02*
X83179D01*
X83120Y96164D02*
Y96282D01*
X83061Y95350D02*
X83179D01*
X83120Y95291D02*
Y95409D01*
X83976Y95350D02*
X84094D01*
X84035Y95291D02*
Y95409D01*
X84891Y95350D02*
X85009D01*
X84950Y95291D02*
Y95409D01*
X63771Y116830D02*
X63889D01*
X63830Y116771D02*
Y116889D01*
X65581Y116430D02*
X65699D01*
X65640Y116371D02*
Y116489D01*
X65031Y117520D02*
X65149D01*
X65090Y117461D02*
Y117579D01*
X63431Y114730D02*
X63549D01*
X63490Y114671D02*
Y114789D01*
X62681Y113710D02*
X62799D01*
X62740Y113651D02*
Y113769D01*
X63661Y113200D02*
X63779D01*
X63720Y113141D02*
Y113259D01*
X67071Y113570D02*
X67189D01*
X67130Y113511D02*
Y113629D01*
X66631Y114320D02*
X66749D01*
X66690Y114261D02*
Y114379D01*
X66551Y115680D02*
X66669D01*
X66610Y115621D02*
Y115739D01*
X66091Y117390D02*
X66209D01*
X66150Y117331D02*
Y117449D01*
X66951Y119320D02*
X67069D01*
X67010Y119261D02*
Y119379D01*
X67681Y119340D02*
X67799D01*
X67740Y119281D02*
Y119399D01*
X68501Y119310D02*
X68619D01*
X68560Y119251D02*
Y119369D01*
X69011Y119420D02*
X69129D01*
X69070Y119361D02*
Y119479D01*
X75001Y118160D02*
X75119D01*
X75060Y118101D02*
Y118219D01*
X73741Y116690D02*
X73859D01*
X73800Y116631D02*
Y116749D01*
X75421Y115260D02*
X75539D01*
X75480Y115201D02*
Y115319D01*
X75271Y114980D02*
X75389D01*
X75330Y114921D02*
Y115039D01*
X74171Y115030D02*
X74289D01*
X74230Y114971D02*
Y115089D01*
X82091Y118520D02*
X82209D01*
X82150Y118461D02*
Y118579D01*
X81251Y119890D02*
X81369D01*
X81310Y119831D02*
Y119949D01*
X80341Y121110D02*
X80459D01*
X80400Y121051D02*
Y121169D01*
X81581Y120740D02*
X81699D01*
X81640Y120681D02*
Y120799D01*
X82361Y121250D02*
X82479D01*
X82420Y121191D02*
Y121309D01*
X82171Y120050D02*
X82289D01*
X82230Y119991D02*
Y120109D01*
X82821Y118720D02*
X82939D01*
X82880Y118661D02*
Y118779D01*
X84791Y112710D02*
X84909D01*
X84850Y112651D02*
Y112769D01*
X85891Y113030D02*
X86009D01*
X85950Y112971D02*
Y113089D01*
X87501Y113170D02*
X87619D01*
X87560Y113111D02*
Y113229D01*
X86901Y114500D02*
X87019D01*
X86960Y114441D02*
Y114559D01*
X83281Y114180D02*
X83399D01*
X83340Y114121D02*
Y114239D01*
X84151Y114730D02*
X84269D01*
X84210Y114671D02*
Y114789D01*
X83741Y116930D02*
X83859D01*
X83800Y116871D02*
Y116989D01*
X83051Y116840D02*
X83169D01*
X83110Y116781D02*
Y116899D01*
X83051Y116060D02*
X83169D01*
X83110Y116001D02*
Y116119D01*
X84751Y113620D02*
X84869D01*
X84810Y113561D02*
Y113679D01*
X87091Y112710D02*
X87209D01*
X87150Y112651D02*
Y112769D01*
X40731Y102030D02*
X40849D01*
X40790Y101971D02*
Y102089D01*
X40761Y100482D02*
X40879D01*
X40820Y100423D02*
Y100541D01*
X41451Y100550D02*
X41569D01*
X41510Y100491D02*
Y100609D01*
X40901Y102300D02*
X41019D01*
X40960Y102241D02*
Y102359D01*
X38121Y110200D02*
X38239D01*
X38180Y110141D02*
Y110259D01*
X38121Y111400D02*
X38239D01*
X38180Y111341D02*
Y111459D01*
X38121Y114210D02*
X38239D01*
X38180Y114151D02*
Y114269D01*
X38121Y116310D02*
X38239D01*
X38180Y116251D02*
Y116369D01*
X38011Y117750D02*
X38129D01*
X38070Y117691D02*
Y117809D01*
X31871Y118640D02*
X31989D01*
X31930Y118581D02*
Y118699D01*
X31421Y117330D02*
X31539D01*
X31480Y117271D02*
Y117389D01*
X29881Y115720D02*
X29999D01*
X29940Y115661D02*
Y115779D01*
X28951Y114730D02*
X29069D01*
X29010Y114671D02*
Y114789D01*
X27891Y113760D02*
X28009D01*
X27950Y113701D02*
Y113819D01*
X28581Y112120D02*
X28699D01*
X28640Y112061D02*
Y112179D01*
X27271Y112840D02*
X27389D01*
X27330Y112781D02*
Y112899D01*
X30571Y115860D02*
X30689D01*
X30630Y115801D02*
Y115919D01*
X30261Y114520D02*
X30379D01*
X30320Y114461D02*
Y114579D01*
X29781Y113010D02*
X29899D01*
X29840Y112951D02*
Y113069D01*
X28781Y112670D02*
X28899D01*
X28840Y112611D02*
Y112729D01*
X29541Y114110D02*
X29659D01*
X29600Y114051D02*
Y114169D01*
X41421Y118930D02*
X41539D01*
X41480Y118871D02*
Y118989D01*
X41461Y117160D02*
X41579D01*
X41520Y117101D02*
Y117219D01*
X41581Y115180D02*
X41699D01*
X41640Y115121D02*
Y115239D01*
X44341Y113740D02*
X44459D01*
X44400Y113681D02*
Y113799D01*
X45661Y113820D02*
X45779D01*
X45720Y113761D02*
Y113879D01*
X47311Y113860D02*
X47429D01*
X47370Y113801D02*
Y113919D01*
X48631Y113700D02*
X48749D01*
X48690Y113641D02*
Y113759D01*
X49531Y113700D02*
X49649D01*
X49590Y113641D02*
Y113759D01*
X51101Y113660D02*
X51219D01*
X51160Y113601D02*
Y113719D01*
X53081Y113620D02*
X53199D01*
X53140Y113561D02*
Y113679D01*
X55181Y113450D02*
X55299D01*
X55240Y113391D02*
Y113509D01*
X57981Y113370D02*
X58099D01*
X58040Y113311D02*
Y113429D01*
X60121Y113410D02*
X60239D01*
X60180Y113351D02*
Y113469D01*
X63911Y114440D02*
X64029D01*
X63970Y114381D02*
Y114499D01*
X64901Y113250D02*
X65019D01*
X64960Y113191D02*
Y113309D01*
X72771Y115220D02*
X72889D01*
X72830Y115161D02*
Y115279D01*
X73931Y114110D02*
X74049D01*
X73990Y114051D02*
Y114169D01*
X71911Y114520D02*
X72029D01*
X71970Y114461D02*
Y114579D01*
X73061Y114360D02*
X73179D01*
X73120Y114301D02*
Y114419D01*
X75781Y114190D02*
X75899D01*
X75840Y114131D02*
Y114249D01*
X75781Y111100D02*
X75899D01*
X75840Y111041D02*
Y111159D01*
X74131Y107480D02*
X74249D01*
X74190Y107421D02*
Y107539D01*
X74871Y109130D02*
X74989D01*
X74930Y109071D02*
Y109189D01*
X73801Y109040D02*
X73919D01*
X73860Y108981D02*
Y109099D01*
X74051Y110730D02*
X74169D01*
X74110Y110671D02*
Y110789D01*
X51431Y121760D02*
X51549D01*
X51490Y121701D02*
Y121819D01*
X51781Y121370D02*
X51899D01*
X51840Y121311D02*
Y121429D01*
X49921Y123090D02*
X50039D01*
X49980Y123031D02*
Y123149D01*
X49711Y121460D02*
X49829D01*
X49770Y121401D02*
Y121519D01*
X49661Y122180D02*
X49779D01*
X49720Y122121D02*
Y122239D01*
X49731Y122710D02*
X49849D01*
X49790Y122651D02*
Y122769D01*
X47871Y124910D02*
X47989D01*
X47930Y124851D02*
Y124969D01*
X47041Y124800D02*
X47159D01*
X47100Y124741D02*
Y124859D01*
X46411Y124530D02*
X46529D01*
X46470Y124471D02*
Y124589D01*
X48154Y125537D02*
X48272D01*
X48213Y125478D02*
Y125596D01*
X48791Y125537D02*
X48909D01*
X48850Y125478D02*
Y125596D01*
X46881Y125537D02*
X46999D01*
X46940Y125478D02*
Y125596D01*
X47518Y125537D02*
X47636D01*
X47577Y125478D02*
Y125596D01*
X45608Y125537D02*
X45726D01*
X45667Y125478D02*
Y125596D01*
X44971Y125537D02*
X45089D01*
X45030Y125478D02*
Y125596D01*
X62524Y129080D02*
X62642D01*
X62583Y129021D02*
Y129139D01*
X63161Y129080D02*
X63279D01*
X63220Y129021D02*
Y129139D01*
X60614Y129080D02*
X60732D01*
X60673Y129021D02*
Y129139D01*
X61251Y129080D02*
X61369D01*
X61310Y129021D02*
Y129139D01*
X61888Y129080D02*
X62006D01*
X61947Y129021D02*
Y129139D01*
X59978Y129080D02*
X60096D01*
X60037Y129021D02*
Y129139D01*
X59341Y129080D02*
X59459D01*
X59400Y129021D02*
Y129139D01*
X77181Y118860D02*
X77299D01*
X77240Y118801D02*
Y118919D01*
X77631Y118410D02*
X77749D01*
X77690Y118351D02*
Y118469D01*
X75830Y120211D02*
X75948D01*
X75889Y120152D02*
Y120270D01*
X76280Y119761D02*
X76398D01*
X76339Y119702D02*
Y119820D01*
X76731Y119310D02*
X76849D01*
X76790Y119251D02*
Y119369D01*
X75380Y120661D02*
X75498D01*
X75439Y120602D02*
Y120720D01*
X74930Y121111D02*
X75048D01*
X74989Y121052D02*
Y121170D01*
X74741Y117240D02*
X74859D01*
X74800Y117181D02*
Y117299D01*
X75191Y116790D02*
X75309D01*
X75250Y116731D02*
Y116849D01*
X73390Y118591D02*
X73508D01*
X73449Y118532D02*
Y118650D01*
X73840Y118141D02*
X73958D01*
X73899Y118082D02*
Y118200D01*
X74291Y117690D02*
X74409D01*
X74350Y117631D02*
Y117749D01*
X72940Y119041D02*
X73058D01*
X72999Y118982D02*
Y119100D01*
X72490Y119491D02*
X72608D01*
X72549Y119432D02*
Y119550D01*
X76031Y118170D02*
X76149D01*
X76090Y118111D02*
Y118229D01*
X76481Y117720D02*
X76599D01*
X76540Y117661D02*
Y117779D01*
X74680Y119521D02*
X74798D01*
X74739Y119462D02*
Y119580D01*
X75130Y119071D02*
X75248D01*
X75189Y119012D02*
Y119130D01*
X75581Y118620D02*
X75699D01*
X75640Y118561D02*
Y118679D01*
X74230Y119971D02*
X74348D01*
X74289Y119912D02*
Y120030D01*
X73780Y120421D02*
X73898D01*
X73839Y120362D02*
Y120480D01*
X81851Y122710D02*
X81969D01*
X81910Y122651D02*
Y122769D01*
X82301Y122260D02*
X82419D01*
X82360Y122201D02*
Y122319D01*
X80500Y124061D02*
X80618D01*
X80559Y124002D02*
Y124120D01*
X80950Y123611D02*
X81068D01*
X81009Y123552D02*
Y123670D01*
X81401Y123160D02*
X81519D01*
X81460Y123101D02*
Y123219D01*
X80050Y124511D02*
X80168D01*
X80109Y124452D02*
Y124570D01*
X79600Y124961D02*
X79718D01*
X79659Y124902D02*
Y125020D01*
X80691Y122700D02*
X80809D01*
X80750Y122641D02*
Y122759D01*
X81141Y122250D02*
X81259D01*
X81200Y122191D02*
Y122309D01*
X79340Y124051D02*
X79458D01*
X79399Y123992D02*
Y124110D01*
X79790Y123601D02*
X79908D01*
X79849Y123542D02*
Y123660D01*
X80241Y123150D02*
X80359D01*
X80300Y123091D02*
Y123209D01*
X78890Y124501D02*
X79008D01*
X78949Y124442D02*
Y124560D01*
X78440Y124951D02*
X78558D01*
X78499Y124892D02*
Y125010D01*
X79771Y122150D02*
X79889D01*
X79830Y122091D02*
Y122209D01*
X80221Y121700D02*
X80339D01*
X80280Y121641D02*
Y121759D01*
X78420Y123501D02*
X78538D01*
X78479Y123442D02*
Y123560D01*
X78870Y123051D02*
X78988D01*
X78929Y122992D02*
Y123110D01*
X79321Y122600D02*
X79439D01*
X79380Y122541D02*
Y122659D01*
X77970Y123951D02*
X78088D01*
X78029Y123892D02*
Y124010D01*
X77520Y124401D02*
X77638D01*
X77579Y124342D02*
Y124460D01*
X82791Y102097D02*
X82909D01*
X82850Y102038D02*
Y102156D01*
X82791Y101460D02*
X82909D01*
X82850Y101401D02*
Y101519D01*
X82791Y104007D02*
X82909D01*
X82850Y103948D02*
Y104066D01*
X82791Y103370D02*
X82909D01*
X82850Y103311D02*
Y103429D01*
X82791Y102733D02*
X82909D01*
X82850Y102674D02*
Y102792D01*
X82791Y104643D02*
X82909D01*
X82850Y104584D02*
Y104702D01*
X82791Y105280D02*
X82909D01*
X82850Y105221D02*
Y105339D01*
X81521Y103177D02*
X81639D01*
X81580Y103118D02*
Y103236D01*
X81521Y102540D02*
X81639D01*
X81580Y102481D02*
Y102599D01*
X81521Y105087D02*
X81639D01*
X81580Y105028D02*
Y105146D01*
X81521Y104450D02*
X81639D01*
X81580Y104391D02*
Y104509D01*
X81521Y103813D02*
X81639D01*
X81580Y103754D02*
Y103872D01*
X81521Y105723D02*
X81639D01*
X81580Y105664D02*
Y105782D01*
X81521Y106360D02*
X81639D01*
X81580Y106301D02*
Y106419D01*
X81421Y96257D02*
X81539D01*
X81480Y96198D02*
Y96316D01*
X81421Y95620D02*
X81539D01*
X81480Y95561D02*
Y95679D01*
X81421Y98167D02*
X81539D01*
X81480Y98108D02*
Y98226D01*
X81421Y97530D02*
X81539D01*
X81480Y97471D02*
Y97589D01*
X81421Y96893D02*
X81539D01*
X81480Y96834D02*
Y96952D01*
X81421Y98803D02*
X81539D01*
X81480Y98744D02*
Y98862D01*
X81421Y99440D02*
X81539D01*
X81480Y99381D02*
Y99499D01*
X91101Y97620D02*
X91219D01*
X91160Y97561D02*
Y97679D01*
X90651Y97170D02*
X90769D01*
X90710Y97111D02*
Y97229D01*
X92452Y98971D02*
X92570D01*
X92511Y98912D02*
Y99030D01*
X92002Y98521D02*
X92120D01*
X92061Y98462D02*
Y98580D01*
X91551Y98070D02*
X91669D01*
X91610Y98011D02*
Y98129D01*
X92902Y99421D02*
X93020D01*
X92961Y99362D02*
Y99480D01*
X93352Y99871D02*
X93470D01*
X93411Y99812D02*
Y99930D01*
X91794Y95630D02*
X91912D01*
X91853Y95571D02*
Y95689D01*
X92431Y95630D02*
X92549D01*
X92490Y95571D02*
Y95689D01*
X89884Y95630D02*
X90002D01*
X89943Y95571D02*
Y95689D01*
X90521Y95630D02*
X90639D01*
X90580Y95571D02*
Y95689D01*
X91158Y95630D02*
X91276D01*
X91217Y95571D02*
Y95689D01*
X89248Y95630D02*
X89366D01*
X89307Y95571D02*
Y95689D01*
X88611Y95630D02*
X88729D01*
X88670Y95571D02*
Y95689D01*
X90444Y93910D02*
X90562D01*
X90503Y93851D02*
Y93969D01*
X91081Y93910D02*
X91199D01*
X91140Y93851D02*
Y93969D01*
X88534Y93910D02*
X88652D01*
X88593Y93851D02*
Y93969D01*
X89171Y93910D02*
X89289D01*
X89230Y93851D02*
Y93969D01*
X89808Y93910D02*
X89926D01*
X89867Y93851D02*
Y93969D01*
X87898Y93910D02*
X88016D01*
X87957Y93851D02*
Y93969D01*
X87261Y93910D02*
X87379D01*
X87320Y93851D02*
Y93969D01*
X86934Y92370D02*
X87052D01*
X86993Y92311D02*
Y92429D01*
X87571Y92370D02*
X87689D01*
X87630Y92311D02*
Y92429D01*
X85024Y92370D02*
X85142D01*
X85083Y92311D02*
Y92429D01*
X85661Y92370D02*
X85779D01*
X85720Y92311D02*
Y92429D01*
X86298Y92370D02*
X86416D01*
X86357Y92311D02*
Y92429D01*
X84388Y92370D02*
X84506D01*
X84447Y92311D02*
Y92429D01*
X83751Y92370D02*
X83869D01*
X83810Y92311D02*
Y92429D01*
X82564Y91320D02*
X82682D01*
X82623Y91261D02*
Y91379D01*
X83201Y91320D02*
X83319D01*
X83260Y91261D02*
Y91379D01*
X80654Y91320D02*
X80772D01*
X80713Y91261D02*
Y91379D01*
X81291Y91320D02*
X81409D01*
X81350Y91261D02*
Y91379D01*
X81928Y91320D02*
X82046D01*
X81987Y91261D02*
Y91379D01*
X80018Y91320D02*
X80136D01*
X80077Y91261D02*
Y91379D01*
X79381Y91320D02*
X79499D01*
X79440Y91261D02*
Y91379D01*
X76894Y91140D02*
X77012D01*
X76953Y91081D02*
Y91199D01*
X77531Y91140D02*
X77649D01*
X77590Y91081D02*
Y91199D01*
X74984Y91140D02*
X75102D01*
X75043Y91081D02*
Y91199D01*
X75621Y91140D02*
X75739D01*
X75680Y91081D02*
Y91199D01*
X76258Y91140D02*
X76376D01*
X76317Y91081D02*
Y91199D01*
X74348Y91140D02*
X74466D01*
X74407Y91081D02*
Y91199D01*
X73711Y91140D02*
X73829D01*
X73770Y91081D02*
Y91199D01*
X73711Y97317D02*
X73829D01*
X73770Y97258D02*
Y97376D01*
X73711Y96680D02*
X73829D01*
X73770Y96621D02*
Y96739D01*
X73711Y99227D02*
X73829D01*
X73770Y99168D02*
Y99286D01*
X73711Y98590D02*
X73829D01*
X73770Y98531D02*
Y98649D01*
X73711Y97953D02*
X73829D01*
X73770Y97894D02*
Y98012D01*
X73711Y99863D02*
X73829D01*
X73770Y99804D02*
Y99922D01*
X73711Y100500D02*
X73829D01*
X73770Y100441D02*
Y100559D01*
X74581Y98976D02*
X74699D01*
X74640Y98917D02*
Y99035D01*
X74581Y98339D02*
X74699D01*
X74640Y98280D02*
Y98398D01*
X74581Y100886D02*
X74699D01*
X74640Y100827D02*
Y100945D01*
X74581Y100249D02*
X74699D01*
X74640Y100190D02*
Y100308D01*
X74581Y99613D02*
X74699D01*
X74640Y99554D02*
Y99672D01*
X74581Y101523D02*
X74699D01*
X74640Y101464D02*
Y101582D01*
X74581Y102159D02*
X74699D01*
X74640Y102100D02*
Y102218D01*
X32361Y107637D02*
X32479D01*
X32420Y107578D02*
Y107696D01*
X32361Y107000D02*
X32479D01*
X32420Y106941D02*
Y107059D01*
X32361Y109547D02*
X32479D01*
X32420Y109488D02*
Y109606D01*
X32361Y108910D02*
X32479D01*
X32420Y108851D02*
Y108969D01*
X32361Y108273D02*
X32479D01*
X32420Y108214D02*
Y108332D01*
X32361Y110183D02*
X32479D01*
X32420Y110124D02*
Y110242D01*
X32361Y110820D02*
X32479D01*
X32420Y110761D02*
Y110879D01*
X37771Y105067D02*
X37889D01*
X37830Y105008D02*
Y105126D01*
X37771Y104430D02*
X37889D01*
X37830Y104371D02*
Y104489D01*
X37771Y106977D02*
X37889D01*
X37830Y106918D02*
Y107036D01*
X37771Y106340D02*
X37889D01*
X37830Y106281D02*
Y106399D01*
X37771Y105703D02*
X37889D01*
X37830Y105644D02*
Y105762D01*
X37771Y107613D02*
X37889D01*
X37830Y107554D02*
Y107672D01*
X37771Y108250D02*
X37889D01*
X37830Y108191D02*
Y108309D01*
X37841Y98617D02*
X37959D01*
X37900Y98558D02*
Y98676D01*
X37841Y97980D02*
X37959D01*
X37900Y97921D02*
Y98039D01*
X37841Y100527D02*
X37959D01*
X37900Y100468D02*
Y100586D01*
X37841Y99890D02*
X37959D01*
X37900Y99831D02*
Y99949D01*
X37841Y99253D02*
X37959D01*
X37900Y99194D02*
Y99312D01*
X37841Y101163D02*
X37959D01*
X37900Y101104D02*
Y101222D01*
X37841Y101800D02*
X37959D01*
X37900Y101741D02*
Y101859D01*
X38851Y94930D02*
X38969D01*
X38910Y94871D02*
Y94989D01*
X38401Y95380D02*
X38519D01*
X38460Y95321D02*
Y95439D01*
X40202Y93579D02*
X40320D01*
X40261Y93520D02*
Y93638D01*
X39752Y94029D02*
X39870D01*
X39811Y93970D02*
Y94088D01*
X39301Y94480D02*
X39419D01*
X39360Y94421D02*
Y94539D01*
X40652Y93129D02*
X40770D01*
X40711Y93070D02*
Y93188D01*
X41102Y92679D02*
X41220D01*
X41161Y92620D02*
Y92738D01*
X36058Y92530D02*
X36176D01*
X36117Y92471D02*
Y92589D01*
X35421Y92530D02*
X35539D01*
X35480Y92471D02*
Y92589D01*
X37968Y92530D02*
X38086D01*
X38027Y92471D02*
Y92589D01*
X37331Y92530D02*
X37449D01*
X37390Y92471D02*
Y92589D01*
X36694Y92530D02*
X36812D01*
X36753Y92471D02*
Y92589D01*
X38604Y92530D02*
X38722D01*
X38663Y92471D02*
Y92589D01*
X39241Y92530D02*
X39359D01*
X39300Y92471D02*
Y92589D01*
X30328Y100930D02*
X30446D01*
X30387Y100871D02*
Y100989D01*
X29691Y100930D02*
X29809D01*
X29750Y100871D02*
Y100989D01*
X32238Y100930D02*
X32356D01*
X32297Y100871D02*
Y100989D01*
X31601Y100930D02*
X31719D01*
X31660Y100871D02*
Y100989D01*
X30964Y100930D02*
X31082D01*
X31023Y100871D02*
Y100989D01*
X33511Y100930D02*
X33629D01*
X33570Y100871D02*
Y100989D01*
X28288Y99160D02*
X28406D01*
X28347Y99101D02*
Y99219D01*
X27651Y99160D02*
X27769D01*
X27710Y99101D02*
Y99219D01*
X30198Y99160D02*
X30316D01*
X30257Y99101D02*
Y99219D01*
X29561Y99160D02*
X29679D01*
X29620Y99101D02*
Y99219D01*
X28924Y99160D02*
X29042D01*
X28983Y99101D02*
Y99219D01*
X30834Y99160D02*
X30952D01*
X30893Y99101D02*
Y99219D01*
X31471Y99160D02*
X31589D01*
X31530Y99101D02*
Y99219D01*
X26138Y97180D02*
X26256D01*
X26197Y97121D02*
Y97239D01*
X25501Y97180D02*
X25619D01*
X25560Y97121D02*
Y97239D01*
X28048Y97180D02*
X28166D01*
X28107Y97121D02*
Y97239D01*
X27411Y97180D02*
X27529D01*
X27470Y97121D02*
Y97239D01*
X26774Y97180D02*
X26892D01*
X26833Y97121D02*
Y97239D01*
X28684Y97180D02*
X28802D01*
X28743Y97121D02*
Y97239D01*
X29321Y97180D02*
X29439D01*
X29380Y97121D02*
Y97239D01*
X21211Y99690D02*
X21329D01*
X21270Y99631D02*
Y99749D01*
X23912Y96989D02*
X24030D01*
X23971Y96930D02*
Y97048D01*
X20331Y105503D02*
X20449D01*
X20390Y105444D02*
Y105562D01*
X20331Y106140D02*
X20449D01*
X20390Y106081D02*
Y106199D01*
X20331Y103593D02*
X20449D01*
X20390Y103534D02*
Y103652D01*
X20331Y104230D02*
X20449D01*
X20390Y104171D02*
Y104289D01*
X20331Y104867D02*
X20449D01*
X20390Y104808D02*
Y104926D01*
X20331Y102957D02*
X20449D01*
X20390Y102898D02*
Y103016D01*
X20331Y102320D02*
X20449D01*
X20390Y102261D02*
Y102379D01*
X22441Y112890D02*
X22559D01*
X22500Y112831D02*
Y112949D01*
X22891Y113340D02*
X23009D01*
X22950Y113281D02*
Y113399D01*
X21090Y111539D02*
X21208D01*
X21149Y111480D02*
Y111598D01*
X21540Y111989D02*
X21658D01*
X21599Y111930D02*
Y112048D01*
X21991Y112440D02*
X22109D01*
X22050Y112381D02*
Y112499D01*
X20640Y111089D02*
X20758D01*
X20699Y111030D02*
Y111148D01*
X20190Y110639D02*
X20308D01*
X20249Y110580D02*
Y110698D01*
X20331Y107777D02*
X20449D01*
X20390Y107718D02*
Y107836D01*
X20331Y107140D02*
X20449D01*
X20390Y107081D02*
Y107199D01*
X20331Y109687D02*
X20449D01*
X20390Y109628D02*
Y109746D01*
X20331Y109050D02*
X20449D01*
X20390Y108991D02*
Y109109D01*
X20331Y108413D02*
X20449D01*
X20390Y108354D02*
Y108472D01*
X20331Y110323D02*
X20449D01*
X20390Y110264D02*
Y110382D01*
X20331Y110960D02*
X20449D01*
X20390Y110901D02*
Y111019D01*
X23311Y112920D02*
X23429D01*
X23370Y112861D02*
Y112979D01*
X22861Y112470D02*
X22979D01*
X22920Y112411D02*
Y112529D01*
X24662Y114271D02*
X24780D01*
X24721Y114212D02*
Y114330D01*
X24212Y113821D02*
X24330D01*
X24271Y113762D02*
Y113880D01*
X23761Y113370D02*
X23879D01*
X23820Y113311D02*
Y113429D01*
X25112Y114721D02*
X25230D01*
X25171Y114662D02*
Y114780D01*
X25562Y115171D02*
X25680D01*
X25621Y115112D02*
Y115230D01*
X27361Y116630D02*
X27479D01*
X27420Y116571D02*
Y116689D01*
X26911Y116180D02*
X27029D01*
X26970Y116121D02*
Y116239D01*
X28712Y117981D02*
X28830D01*
X28771Y117922D02*
Y118040D01*
X28262Y117531D02*
X28380D01*
X28321Y117472D02*
Y117590D01*
X27811Y117080D02*
X27929D01*
X27870Y117021D02*
Y117139D01*
X29162Y118431D02*
X29280D01*
X29221Y118372D02*
Y118490D01*
X29612Y118881D02*
X29730D01*
X29671Y118822D02*
Y118940D01*
X31101Y120160D02*
X31219D01*
X31160Y120101D02*
Y120219D01*
X30651Y119710D02*
X30769D01*
X30710Y119651D02*
Y119769D01*
X32452Y121511D02*
X32570D01*
X32511Y121452D02*
Y121570D01*
X32002Y121061D02*
X32120D01*
X32061Y121002D02*
Y121120D01*
X31551Y120610D02*
X31669D01*
X31610Y120551D02*
Y120669D01*
X32902Y121961D02*
X33020D01*
X32961Y121902D02*
Y122020D01*
X33352Y122411D02*
X33470D01*
X33411Y122352D02*
Y122470D01*
X34491Y123550D02*
X34609D01*
X34550Y123491D02*
Y123609D01*
X34041Y123100D02*
X34159D01*
X34100Y123041D02*
Y123159D01*
X35842Y124901D02*
X35960D01*
X35901Y124842D02*
Y124960D01*
X35392Y124451D02*
X35510D01*
X35451Y124392D02*
Y124510D01*
X34941Y124000D02*
X35059D01*
X35000Y123941D02*
Y124059D01*
X36292Y125351D02*
X36410D01*
X36351Y125292D02*
Y125410D01*
X36742Y125801D02*
X36860D01*
X36801Y125742D02*
Y125860D01*
X40138Y128170D02*
X40256D01*
X40197Y128111D02*
Y128229D01*
X39501Y128170D02*
X39619D01*
X39560Y128111D02*
Y128229D01*
X42048Y128170D02*
X42166D01*
X42107Y128111D02*
Y128229D01*
X41411Y128170D02*
X41529D01*
X41470Y128111D02*
Y128229D01*
X40774Y128170D02*
X40892D01*
X40833Y128111D02*
Y128229D01*
X42684Y128170D02*
X42802D01*
X42743Y128111D02*
Y128229D01*
X43321Y128170D02*
X43439D01*
X43380Y128111D02*
Y128229D01*
X41208Y127510D02*
X41326D01*
X41267Y127451D02*
Y127569D01*
X40571Y127510D02*
X40689D01*
X40630Y127451D02*
Y127569D01*
X43118Y127510D02*
X43236D01*
X43177Y127451D02*
Y127569D01*
X42481Y127510D02*
X42599D01*
X42540Y127451D02*
Y127569D01*
X41844Y127510D02*
X41962D01*
X41903Y127451D02*
Y127569D01*
X43754Y127510D02*
X43872D01*
X43813Y127451D02*
Y127569D01*
X44381Y127010D02*
X44499D01*
X44440Y126951D02*
Y127069D01*
X43744Y127010D02*
X43862D01*
X43803Y126951D02*
Y127069D01*
X43401Y127720D02*
X43519D01*
X43460Y127661D02*
Y127779D01*
X41731Y128010D02*
X41849D01*
X41790Y127951D02*
Y128069D01*
X41834Y127010D02*
X41952D01*
X41893Y126951D02*
Y127069D01*
X42471Y127010D02*
X42589D01*
X42530Y126951D02*
Y127069D01*
X43108Y127010D02*
X43226D01*
X43167Y126951D02*
Y127069D01*
X43051Y125330D02*
X43169D01*
X43110Y125271D02*
Y125389D01*
X43551Y124980D02*
X43669D01*
X43610Y124921D02*
Y125039D01*
X45541Y125880D02*
X45659D01*
X45600Y125821D02*
Y125939D01*
X45181Y125230D02*
X45299D01*
X45240Y125171D02*
Y125289D01*
X45491Y124760D02*
X45609D01*
X45550Y124701D02*
Y124819D01*
X45171Y124020D02*
X45289D01*
X45230Y123961D02*
Y124079D01*
X44731Y123460D02*
X44849D01*
X44790Y123401D02*
Y123519D01*
X41151Y123040D02*
X41269D01*
X41210Y122981D02*
Y123099D01*
X40791Y123440D02*
X40909D01*
X40850Y123381D02*
Y123499D01*
X41321Y124300D02*
X41439D01*
X41380Y124241D02*
Y124359D01*
X40621Y125870D02*
X40739D01*
X40680Y125811D02*
Y125929D01*
X38581Y126700D02*
X38699D01*
X38640Y126641D02*
Y126759D01*
X39321Y126970D02*
X39439D01*
X39380Y126911D02*
Y127029D01*
X40561Y127010D02*
X40679D01*
X40620Y126951D02*
Y127069D01*
X41198Y127010D02*
X41316D01*
X41257Y126951D02*
Y127069D01*
X40781Y128830D02*
X40899D01*
X40840Y128771D02*
Y128889D01*
X40361Y128460D02*
X40479D01*
X40420Y128401D02*
Y128519D01*
X39931Y127600D02*
X40049D01*
X39990Y127541D02*
Y127659D01*
X38311Y127430D02*
X38429D01*
X38370Y127371D02*
Y127489D01*
X37121Y126040D02*
X37239D01*
X37180Y125981D02*
Y126099D01*
X37221Y124240D02*
X37339D01*
X37280Y124181D02*
Y124299D01*
X39591Y121360D02*
X39709D01*
X39650Y121301D02*
Y121419D01*
X38111Y121350D02*
X38229D01*
X38170Y121291D02*
Y121409D01*
X40891Y123110D02*
X41009D01*
X40950Y123051D02*
Y123169D01*
X40951Y124940D02*
X41069D01*
X41010Y124881D02*
Y124999D01*
X63801Y127637D02*
X63919D01*
X63860Y127578D02*
Y127697D01*
X64131Y126420D02*
X64249D01*
X64190Y126361D02*
Y126479D01*
X71811Y124300D02*
X71929D01*
X71870Y124241D02*
Y124359D01*
X84531Y125030D02*
X84649D01*
X84590Y124971D02*
Y125089D01*
X49281Y127650D02*
X49399D01*
X49340Y127591D02*
Y127709D01*
X49981Y126110D02*
X50099D01*
X50040Y126051D02*
Y126169D01*
X51391Y125350D02*
X51509D01*
X51450Y125291D02*
Y125409D01*
X50851Y123400D02*
X50969D01*
X50910Y123341D02*
Y123459D01*
X49681Y128120D02*
X49799D01*
X49740Y128061D02*
Y128179D01*
X47331Y127330D02*
X47449D01*
X47390Y127271D02*
Y127389D01*
X46081Y124220D02*
X46199D01*
X46140Y124161D02*
Y124279D01*
X87591Y101680D02*
X87709D01*
X87650Y101621D02*
Y101739D01*
X53951Y121896D02*
X54069D01*
X54010Y121837D02*
Y121955D01*
X53951Y122420D02*
X54069D01*
X54010Y122361D02*
Y122479D01*
X77771Y108670D02*
X77889D01*
X77830Y108611D02*
Y108729D01*
X77681Y97880D02*
X77799D01*
X77740Y97821D02*
Y97939D01*
X36771Y122190D02*
X36889D01*
X36830Y122131D02*
Y122249D01*
X36740Y115920D02*
X36858D01*
X36799Y115861D02*
Y115979D01*
X36771Y103770D02*
X36889D01*
X36830Y103711D02*
Y103829D01*
X36791Y112770D02*
X36909D01*
X36850Y112711D02*
Y112829D01*
X33661Y103330D02*
X33779D01*
X33720Y103271D02*
Y103389D01*
X66081Y123490D02*
X66199D01*
X66140Y123431D02*
Y123549D01*
X66301Y122770D02*
X66419D01*
X66360Y122711D02*
Y122829D01*
X61361Y122820D02*
X61479D01*
X61420Y122761D02*
Y122879D01*
X63601Y123820D02*
X63719D01*
X63660Y123761D02*
Y123879D01*
X63111Y123830D02*
X63229D01*
X63170Y123771D02*
Y123889D01*
X66691Y123216D02*
X66809D01*
X66750Y123157D02*
Y123275D01*
X64611Y122830D02*
X64729D01*
X64670Y122771D02*
Y122889D01*
X77781Y94690D02*
X77899D01*
X77840Y94631D02*
Y94749D01*
X77811Y116010D02*
X77929D01*
X77870Y115951D02*
Y116069D01*
X77781Y112940D02*
X77899D01*
X77840Y112881D02*
Y112999D01*
X77721Y109910D02*
X77839D01*
X77780Y109851D02*
Y109969D01*
X77721Y106870D02*
X77839D01*
X77780Y106811D02*
Y106929D01*
X77711Y103830D02*
X77829D01*
X77770Y103771D02*
Y103889D01*
X77801Y100820D02*
X77919D01*
X77860Y100761D02*
Y100879D01*
X36781Y110650D02*
X36899D01*
X36840Y110591D02*
Y110709D01*
X36751Y94700D02*
X36869D01*
X36810Y94641D02*
Y94759D01*
X36761Y97670D02*
X36879D01*
X36820Y97611D02*
Y97729D01*
X36791Y100700D02*
X36909D01*
X36850Y100641D02*
Y100759D01*
X36821Y107000D02*
X36939D01*
X36880Y106941D02*
Y107059D01*
X61651Y126580D02*
X61769D01*
X61710Y126521D02*
Y126639D01*
X60971Y126070D02*
X61089D01*
X61030Y126011D02*
Y126129D01*
X52211Y122940D02*
X52329D01*
X52270Y122881D02*
Y122999D01*
X53231Y126274D02*
X53349D01*
X53290Y126215D02*
Y126333D01*
X48361Y126350D02*
X48479D01*
X48420Y126291D02*
Y126409D01*
X50391Y127670D02*
X50509D01*
X50450Y127611D02*
Y127729D01*
X52721Y119410D02*
X52839D01*
X52780Y119351D02*
Y119469D01*
X49321Y121810D02*
X49439D01*
X49380Y121751D02*
Y121869D01*
X48791Y122460D02*
X48909D01*
X48850Y122401D02*
Y122519D01*
X44281Y125350D02*
X44399D01*
X44340Y125291D02*
Y125409D01*
X39581Y126380D02*
X39699D01*
X39640Y126321D02*
Y126439D01*
X67691Y125750D02*
X67809D01*
X67750Y125691D02*
Y125809D01*
X68221Y125450D02*
X68339D01*
X68280Y125391D02*
Y125509D01*
X76633Y126120D02*
X76947D01*
X76790Y125963D02*
Y126277D01*
X66061Y125980D02*
X66179D01*
X66120Y125921D02*
Y126039D01*
X79241Y126690D02*
X79359D01*
X79300Y126631D02*
Y126749D01*
X82961Y126560D02*
X83079D01*
X83020Y126501D02*
Y126619D01*
X84021Y119190D02*
X84139D01*
X84080Y119131D02*
Y119249D01*
X86306Y118997D02*
X86425D01*
X86366Y118938D02*
Y119056D01*
X86221Y121413D02*
X86339D01*
X86280Y121354D02*
Y121472D01*
X89031Y117770D02*
X89149D01*
X89090Y117711D02*
Y117829D01*
X88801Y118080D02*
X88919D01*
X88860Y118021D02*
Y118139D01*
X88391Y115910D02*
X88509D01*
X88450Y115851D02*
Y115969D01*
X83021Y127500D02*
X83139D01*
X83080Y127441D02*
Y127559D01*
X88091Y116520D02*
X88209D01*
X88150Y116461D02*
Y116579D01*
X87911Y116770D02*
X88029D01*
X87970Y116711D02*
Y116829D01*
X64181Y106500D02*
X64299D01*
X64240Y106441D02*
Y106559D01*
X56391Y106520D02*
X56509D01*
X56450Y106461D02*
Y106579D01*
X48601Y106530D02*
X48719D01*
X48660Y106471D02*
Y106589D01*
X40841Y106530D02*
X40959D01*
X40900Y106471D02*
Y106589D01*
X53481Y125230D02*
X53599D01*
X53540Y125171D02*
Y125289D01*
X55741Y122910D02*
X55859D01*
X55800Y122851D02*
Y122969D01*
X68151Y124084D02*
X68269D01*
X68210Y124025D02*
Y124143D01*
X68181Y123020D02*
X68299D01*
X68240Y122961D02*
Y123079D01*
X56241Y123640D02*
X56359D01*
X56300Y123581D02*
Y123699D01*
X63743Y124905D02*
X63861D01*
X63802Y124846D02*
Y124964D01*
X55901Y125350D02*
X56019D01*
X55960Y125291D02*
Y125409D01*
X57221Y123820D02*
X57339D01*
X57280Y123761D02*
Y123879D01*
X72541Y124590D02*
X72659D01*
X72600Y124531D02*
Y124649D01*
X58619Y124727D02*
X58738D01*
X58678Y124668D02*
Y124786D01*
X73271Y128920D02*
X73389D01*
X73330Y128861D02*
Y128979D01*
X92401Y124410D02*
X92519D01*
X92460Y124351D02*
Y124469D01*
X92401Y123940D02*
X92519D01*
X92460Y123881D02*
Y123999D01*
X92076Y124405D02*
X92194D01*
X92135Y124346D02*
Y124464D01*
X92401Y124175D02*
X92519D01*
X92460Y124116D02*
Y124234D01*
X92076Y123930D02*
X92194D01*
X92135Y123871D02*
Y123989D01*
X91751Y124405D02*
X91869D01*
X91810Y124346D02*
Y124464D01*
X92076Y124167D02*
X92194D01*
X92135Y124108D02*
Y124227D01*
X91751Y123930D02*
X91869D01*
X91810Y123871D02*
Y123989D01*
X90641Y124310D02*
X90759D01*
X90700Y124251D02*
Y124369D01*
X94761Y124020D02*
X94879D01*
X94820Y123961D02*
Y124079D01*
X48561Y123770D02*
X48679D01*
X48620Y123711D02*
Y123829D01*
X50511Y124880D02*
X50629D01*
X50570Y124821D02*
Y124939D01*
X49801Y123770D02*
X49919D01*
X49860Y123711D02*
Y123829D01*
X49641Y124230D02*
X49759D01*
X49700Y124171D02*
Y124289D01*
X48101Y121660D02*
X48219D01*
X48160Y121601D02*
Y121719D01*
X47568Y121650D02*
X47687D01*
X47628Y121591D02*
Y121709D01*
X46101Y121580D02*
X46219D01*
X46160Y121521D02*
Y121639D01*
X54561Y124030D02*
X54679D01*
X54620Y123971D02*
Y124089D01*
X47556Y123725D02*
X47674D01*
X47615Y123666D02*
Y123784D01*
X47061Y123790D02*
X47179D01*
X47120Y123731D02*
Y123849D01*
X44821Y121640D02*
X44939D01*
X44880Y121581D02*
Y121699D01*
X44801Y121920D02*
X44919D01*
X44860Y121861D02*
Y121979D01*
X45611Y122030D02*
X45729D01*
X45670Y121971D02*
Y122089D01*
X43651Y122830D02*
X43769D01*
X43710Y122771D02*
Y122889D01*
X43701Y122330D02*
X43819D01*
X43760Y122271D02*
Y122389D01*
X43641Y123370D02*
X43759D01*
X43700Y123311D02*
Y123429D01*
X43661Y123890D02*
X43779D01*
X43720Y123831D02*
Y123949D01*
X43261Y123980D02*
X43379D01*
X43320Y123921D02*
Y124039D01*
X42630Y124770D02*
X42748D01*
X42689Y124711D02*
Y124829D01*
X43071Y124300D02*
X43189D01*
X43130Y124241D02*
Y124359D01*
X42861Y124570D02*
X42979D01*
X42920Y124511D02*
Y124629D01*
X54401Y122920D02*
X54519D01*
X54460Y122861D02*
Y122979D01*
X53151Y123380D02*
X53269D01*
X53210Y123321D02*
Y123439D01*
X69041Y121330D02*
X69159D01*
X69100Y121271D02*
Y121389D01*
X68311Y122257D02*
X68429D01*
X68370Y122198D02*
Y122316D01*
X67631Y122937D02*
X67749D01*
X67690Y122878D02*
Y122996D01*
X69011Y122090D02*
X69129D01*
X69070Y122031D02*
Y122149D01*
X62531Y123180D02*
X62649D01*
X62590Y123121D02*
Y123239D01*
X64301Y120280D02*
X64419D01*
X64360Y120221D02*
Y120339D01*
X62541Y122190D02*
X62659D01*
X62600Y122131D02*
Y122249D01*
X67541Y127530D02*
X67659D01*
X67600Y127471D02*
Y127589D01*
X68901Y127580D02*
X69019D01*
X68960Y127521D02*
Y127639D01*
X68866Y128769D02*
X68984D01*
X68925Y128710D02*
Y128828D01*
X72301Y128515D02*
X72419D01*
X72360Y128456D02*
Y128574D01*
X68471Y129290D02*
X68589D01*
X68530Y129231D02*
Y129349D01*
X68141Y128490D02*
X68259D01*
X68200Y128431D02*
Y128549D01*
X66051Y127560D02*
X66169D01*
X66110Y127501D02*
Y127619D01*
X66441Y122030D02*
X66559D01*
X66500Y121971D02*
Y122089D01*
X58287Y125040D02*
X58405D01*
X58346Y124981D02*
Y125100D01*
X58321Y124740D02*
X58439D01*
X58380Y124681D02*
Y124799D01*
X59981Y125130D02*
X60099D01*
X60040Y125071D02*
Y125189D01*
X69513Y125537D02*
X69631D01*
X69572Y125478D02*
Y125596D01*
X89131Y119470D02*
X89249D01*
X89190Y119411D02*
Y119529D01*
X93571Y126520D02*
X93689D01*
X93630Y126461D02*
Y126579D01*
X91751Y124167D02*
X91869D01*
X91810Y124108D02*
Y124227D01*
X91751Y124642D02*
X91869D01*
X91810Y124583D02*
Y124702D01*
X91751Y124880D02*
X91869D01*
X91810Y124821D02*
Y124939D01*
X92076Y124880D02*
X92194D01*
X92135Y124821D02*
Y124939D01*
X92076Y124642D02*
X92194D01*
X92135Y124583D02*
Y124702D01*
X92401Y124880D02*
X92519D01*
X92460Y124821D02*
Y124939D01*
X92401Y124645D02*
X92519D01*
X92460Y124586D02*
Y124704D01*
X39331Y123890D02*
X39449D01*
X39390Y123831D02*
Y123949D01*
X39821Y123910D02*
X39939D01*
X39880Y123851D02*
Y123969D01*
X39751Y122320D02*
X39869D01*
X39810Y122261D02*
Y122379D01*
X39801Y122850D02*
X39919D01*
X39860Y122791D02*
Y122909D01*
X39811Y123380D02*
X39929D01*
X39870Y123321D02*
Y123439D01*
X38721Y124630D02*
X38839D01*
X38780Y124571D02*
Y124689D01*
X38931Y124340D02*
X39049D01*
X38990Y124281D02*
Y124399D01*
X39151Y124110D02*
X39269D01*
X39210Y124051D02*
Y124169D01*
X56121Y127510D02*
X56239D01*
X56180Y127451D02*
Y127569D01*
X50211Y128600D02*
X50329D01*
X50270Y128541D02*
Y128659D01*
X52041Y129100D02*
X52159D01*
X52100Y129041D02*
Y129159D01*
M02*
