G04*
G04 #@! TF.GenerationSoftware,Altium Limited,Altium Designer,19.0.12 (326)*
G04*
G04 Layer_Physical_Order=2*
G04 Layer_Color=16711680*
%FSLAX24Y24*%
%MOIN*%
G70*
G01*
G75*
%ADD10C,0.0079*%
%ADD13C,0.0100*%
%ADD14C,0.0060*%
%ADD106C,0.0200*%
%ADD108C,0.0300*%
%ADD110C,0.1969*%
%ADD111C,0.0600*%
%ADD112C,0.1102*%
%ADD113C,0.0787*%
%ADD114R,0.0591X0.0591*%
%ADD115C,0.0591*%
%ADD116C,0.0984*%
%ADD117C,0.0197*%
%ADD118C,0.1614*%
%ADD119C,0.0394*%
G36*
X68595Y129216D02*
X68592Y129211D01*
X68589Y129205D01*
X68587Y129199D01*
X68585Y129192D01*
X68583Y129184D01*
X68582Y129176D01*
X68581Y129167D01*
X68580Y129146D01*
X68480D01*
X68480Y129157D01*
X68478Y129176D01*
X68477Y129184D01*
X68475Y129192D01*
X68473Y129199D01*
X68471Y129205D01*
X68468Y129211D01*
X68465Y129216D01*
X68461Y129220D01*
X68599D01*
X68595Y129216D01*
D02*
G37*
G36*
X48446Y129085D02*
X48451Y129009D01*
X48456Y128975D01*
X48462Y128944D01*
X48470Y128916D01*
X48479Y128891D01*
X48490Y128869D01*
X48502Y128850D01*
X48516Y128834D01*
X48446Y128764D01*
X48430Y128778D01*
X48411Y128790D01*
X48389Y128801D01*
X48364Y128810D01*
X48336Y128818D01*
X48305Y128824D01*
X48271Y128829D01*
X48195Y128834D01*
X48153Y128835D01*
X48445Y129127D01*
X48446Y129085D01*
D02*
G37*
G36*
X50212Y128729D02*
X50242Y128703D01*
X50246Y128700D01*
X50250Y128698D01*
X50252Y128697D01*
X50255Y128697D01*
X50173Y128615D01*
X50173Y128618D01*
X50172Y128620D01*
X50170Y128624D01*
X50167Y128628D01*
X50164Y128633D01*
X50154Y128644D01*
X50133Y128666D01*
X50204Y128737D01*
X50212Y128729D01*
D02*
G37*
G36*
X96110Y90125D02*
X96064Y90106D01*
X95960Y90210D01*
X18740D01*
Y129350D01*
X18810Y129420D01*
X47836D01*
X47861Y129370D01*
X47822Y129319D01*
X47784Y129228D01*
X47771Y129130D01*
X47784Y129032D01*
X47822Y128941D01*
X47882Y128862D01*
X47961Y128802D01*
X48052Y128764D01*
X48150Y128751D01*
X48162Y128753D01*
X48192Y128753D01*
X48263Y128748D01*
X48291Y128744D01*
X48316Y128739D01*
X48338Y128733D01*
X48356Y128726D01*
X48370Y128719D01*
X48380Y128712D01*
X48482Y128611D01*
X48525Y128582D01*
X48575Y128572D01*
X50094D01*
X50102Y128530D01*
X50141Y128471D01*
X50200Y128432D01*
X50270Y128418D01*
X50340Y128432D01*
X50399Y128471D01*
X50438Y128530D01*
X50452Y128600D01*
X50438Y128670D01*
X50399Y128729D01*
X50340Y128768D01*
X50277Y128781D01*
X50259Y128798D01*
X50216Y128827D01*
X50165Y128837D01*
X49525D01*
Y129420D01*
X68342D01*
X68369Y129370D01*
X68362Y129360D01*
X68348Y129290D01*
X68362Y129220D01*
X68397Y129168D01*
X68397Y129166D01*
X68397Y129164D01*
Y128606D01*
X68347Y128590D01*
X68329Y128619D01*
X68270Y128658D01*
X68200Y128672D01*
X68130Y128658D01*
X68071Y128619D01*
X68032Y128560D01*
X68018Y128490D01*
X68032Y128420D01*
X68046Y128399D01*
X68047Y128398D01*
X68047Y128397D01*
X68047Y128397D01*
X68048Y128392D01*
X68048Y128390D01*
X68049Y128381D01*
Y128356D01*
X67885Y128192D01*
X67884Y128192D01*
X67882Y128190D01*
X67820Y128178D01*
X67761Y128139D01*
X67722Y128080D01*
X67708Y128010D01*
X67722Y127940D01*
X67761Y127881D01*
X67820Y127842D01*
X67890Y127828D01*
X67960Y127842D01*
X68019Y127881D01*
X68058Y127940D01*
X68070Y128002D01*
X68071Y128004D01*
X68073Y128006D01*
X68105Y128038D01*
X68150Y128012D01*
X68143Y127975D01*
Y127863D01*
X68131Y127856D01*
X68092Y127797D01*
X68078Y127727D01*
X68092Y127657D01*
X68131Y127598D01*
X68190Y127559D01*
X68260Y127545D01*
X68330Y127559D01*
X68389Y127598D01*
X68428Y127657D01*
X68442Y127727D01*
X68428Y127797D01*
X68411Y127823D01*
X68411Y127823D01*
X68410Y127824D01*
X68410Y127825D01*
X68410Y127826D01*
X68409Y127828D01*
X68409Y127830D01*
X68408Y127840D01*
Y127920D01*
X68624Y128136D01*
X68652Y128179D01*
X68663Y128230D01*
Y129165D01*
X68663Y129165D01*
X68663Y129168D01*
X68698Y129220D01*
X68712Y129290D01*
X68698Y129360D01*
X68691Y129370D01*
X68718Y129420D01*
X96110D01*
Y90125D01*
D02*
G37*
G36*
X68254Y128408D02*
X68250Y128405D01*
X68246Y128400D01*
X68243Y128395D01*
X68240Y128389D01*
X68237Y128383D01*
X68235Y128375D01*
X68234Y128367D01*
X68232Y128358D01*
X68232Y128348D01*
X68231Y128338D01*
X68131Y128360D01*
X68131Y128371D01*
X68129Y128399D01*
X68128Y128407D01*
X68125Y128420D01*
X68124Y128425D01*
X68121Y128430D01*
X68119Y128434D01*
X68254Y128408D01*
D02*
G37*
G36*
X68027Y128076D02*
X68020Y128069D01*
X68007Y128054D01*
X68002Y128047D01*
X67998Y128041D01*
X67994Y128034D01*
X67992Y128028D01*
X67990Y128022D01*
X67989Y128016D01*
X67988Y128011D01*
X67891Y128108D01*
X67896Y128109D01*
X67902Y128110D01*
X67908Y128112D01*
X67914Y128114D01*
X67921Y128118D01*
X67927Y128122D01*
X67934Y128127D01*
X67941Y128133D01*
X67956Y128147D01*
X68027Y128076D01*
D02*
G37*
G36*
X68325Y127860D02*
X68326Y127849D01*
X68328Y127821D01*
X68329Y127813D01*
X68330Y127806D01*
X68332Y127800D01*
X68334Y127794D01*
X68336Y127790D01*
X68339Y127786D01*
X68203Y127807D01*
X68207Y127811D01*
X68211Y127815D01*
X68214Y127820D01*
X68217Y127826D01*
X68220Y127833D01*
X68222Y127840D01*
X68223Y127849D01*
X68224Y127858D01*
X68225Y127868D01*
X68225Y127878D01*
X68325Y127860D01*
D02*
G37*
%LPC*%
G36*
X58490Y129329D02*
X58392Y129316D01*
X58301Y129278D01*
X58222Y129218D01*
X58162Y129139D01*
X58124Y129048D01*
X58111Y128950D01*
X58124Y128852D01*
X58162Y128761D01*
X58222Y128682D01*
X58301Y128622D01*
X58392Y128584D01*
X58490Y128571D01*
X58588Y128584D01*
X58679Y128622D01*
X58758Y128682D01*
X58818Y128761D01*
X58856Y128852D01*
X58869Y128950D01*
X58856Y129048D01*
X58818Y129139D01*
X58758Y129218D01*
X58679Y129278D01*
X58588Y129316D01*
X58490Y129329D01*
D02*
G37*
G36*
X57490D02*
X57392Y129316D01*
X57301Y129278D01*
X57222Y129218D01*
X57162Y129139D01*
X57124Y129048D01*
X57111Y128950D01*
X57124Y128852D01*
X57162Y128761D01*
X57222Y128682D01*
X57301Y128622D01*
X57392Y128584D01*
X57490Y128571D01*
X57588Y128584D01*
X57679Y128622D01*
X57758Y128682D01*
X57818Y128761D01*
X57856Y128852D01*
X57869Y128950D01*
X57856Y129048D01*
X57818Y129139D01*
X57758Y129218D01*
X57679Y129278D01*
X57588Y129316D01*
X57490Y129329D01*
D02*
G37*
G36*
X56490D02*
X56392Y129316D01*
X56301Y129278D01*
X56222Y129218D01*
X56162Y129139D01*
X56124Y129048D01*
X56111Y128950D01*
X56113Y128938D01*
X56113Y128908D01*
X56108Y128837D01*
X56104Y128809D01*
X56099Y128784D01*
X56093Y128762D01*
X56086Y128744D01*
X56079Y128730D01*
X56072Y128720D01*
X55971Y128618D01*
X55942Y128575D01*
X55932Y128525D01*
Y127651D01*
X55942Y127601D01*
X55971Y127558D01*
X56002Y127527D01*
X55998Y127510D01*
X56012Y127440D01*
X56051Y127381D01*
X56110Y127342D01*
X56180Y127328D01*
X56250Y127342D01*
X56309Y127381D01*
X56348Y127440D01*
X56362Y127510D01*
X56355Y127546D01*
X56379Y127570D01*
X56398Y127584D01*
X56490Y127571D01*
X56588Y127584D01*
X56679Y127622D01*
X56758Y127682D01*
X56818Y127761D01*
X56856Y127852D01*
X56869Y127950D01*
X56856Y128048D01*
X56818Y128139D01*
X56758Y128218D01*
X56679Y128278D01*
X56588Y128316D01*
X56490Y128329D01*
X56392Y128316D01*
X56301Y128278D01*
X56247Y128237D01*
X56197Y128261D01*
Y128470D01*
X56260Y128532D01*
X56270Y128539D01*
X56284Y128546D01*
X56302Y128553D01*
X56324Y128559D01*
X56349Y128564D01*
X56377Y128568D01*
X56448Y128573D01*
X56478Y128573D01*
X56490Y128571D01*
X56588Y128584D01*
X56679Y128622D01*
X56758Y128682D01*
X56818Y128761D01*
X56856Y128852D01*
X56869Y128950D01*
X56856Y129048D01*
X56818Y129139D01*
X56758Y129218D01*
X56679Y129278D01*
X56588Y129316D01*
X56490Y129329D01*
D02*
G37*
G36*
X49505Y128505D02*
X48755D01*
Y127755D01*
X49505D01*
Y128505D01*
D02*
G37*
G36*
X48130Y128509D02*
X48032Y128496D01*
X47941Y128458D01*
X47862Y128398D01*
X47802Y128319D01*
X47764Y128228D01*
X47751Y128130D01*
X47764Y128032D01*
X47802Y127941D01*
X47862Y127862D01*
X47941Y127802D01*
X48032Y127764D01*
X48130Y127751D01*
X48228Y127764D01*
X48319Y127802D01*
X48398Y127862D01*
X48458Y127941D01*
X48496Y128032D01*
X48509Y128130D01*
X48496Y128228D01*
X48458Y128319D01*
X48398Y128398D01*
X48319Y128458D01*
X48228Y128496D01*
X48130Y128509D01*
D02*
G37*
G36*
X89585Y128696D02*
X89462Y128680D01*
X89346Y128632D01*
X89248Y128556D01*
X89172Y128457D01*
X89124Y128342D01*
X89108Y128218D01*
X89124Y128095D01*
X89172Y127980D01*
X89248Y127881D01*
X89346Y127805D01*
X89462Y127757D01*
X89585Y127741D01*
X89709Y127757D01*
X89824Y127805D01*
X89923Y127881D01*
X89999Y127980D01*
X90047Y128095D01*
X90063Y128218D01*
X90047Y128342D01*
X89999Y128457D01*
X89923Y128556D01*
X89824Y128632D01*
X89709Y128680D01*
X89585Y128696D01*
D02*
G37*
G36*
X85255D02*
X85131Y128680D01*
X85016Y128632D01*
X84917Y128556D01*
X84841Y128457D01*
X84793Y128342D01*
X84777Y128218D01*
X84793Y128095D01*
X84841Y127980D01*
X84917Y127881D01*
X85016Y127805D01*
X85131Y127757D01*
X85255Y127741D01*
X85378Y127757D01*
X85494Y127805D01*
X85592Y127881D01*
X85668Y127980D01*
X85716Y128095D01*
X85732Y128218D01*
X85716Y128342D01*
X85668Y128457D01*
X85592Y128556D01*
X85494Y128632D01*
X85378Y128680D01*
X85255Y128696D01*
D02*
G37*
G36*
X58490Y128329D02*
X58392Y128316D01*
X58301Y128278D01*
X58222Y128218D01*
X58162Y128139D01*
X58124Y128048D01*
X58111Y127950D01*
X58113Y127938D01*
X58113Y127908D01*
X58108Y127837D01*
X58104Y127809D01*
X58099Y127784D01*
X58093Y127762D01*
X58086Y127744D01*
X58079Y127730D01*
X58072Y127720D01*
X57515Y127163D01*
X55845D01*
X55845Y127163D01*
X55842Y127163D01*
X55790Y127198D01*
X55720Y127212D01*
X55650Y127198D01*
X55591Y127159D01*
X55552Y127100D01*
X55538Y127030D01*
X55552Y126960D01*
X55591Y126901D01*
X55650Y126862D01*
X55720Y126848D01*
X55790Y126862D01*
X55842Y126897D01*
X55844Y126897D01*
X55846Y126897D01*
X57570D01*
X57621Y126908D01*
X57664Y126936D01*
X58260Y127532D01*
X58270Y127539D01*
X58284Y127546D01*
X58302Y127553D01*
X58324Y127559D01*
X58349Y127564D01*
X58377Y127568D01*
X58448Y127573D01*
X58478Y127573D01*
X58490Y127571D01*
X58588Y127584D01*
X58679Y127622D01*
X58758Y127682D01*
X58818Y127761D01*
X58856Y127852D01*
X58869Y127950D01*
X58856Y128048D01*
X58818Y128139D01*
X58758Y128218D01*
X58679Y128278D01*
X58588Y128316D01*
X58490Y128329D01*
D02*
G37*
G36*
X57490D02*
X57392Y128316D01*
X57301Y128278D01*
X57222Y128218D01*
X57162Y128139D01*
X57124Y128048D01*
X57111Y127950D01*
X57124Y127852D01*
X57162Y127761D01*
X57222Y127682D01*
X57301Y127622D01*
X57392Y127584D01*
X57490Y127571D01*
X57588Y127584D01*
X57679Y127622D01*
X57758Y127682D01*
X57818Y127761D01*
X57856Y127852D01*
X57869Y127950D01*
X57856Y128048D01*
X57818Y128139D01*
X57758Y128218D01*
X57679Y128278D01*
X57588Y128316D01*
X57490Y128329D01*
D02*
G37*
G36*
X55490Y129329D02*
X55392Y129316D01*
X55301Y129278D01*
X55222Y129218D01*
X55162Y129139D01*
X55124Y129048D01*
X55111Y128950D01*
X55113Y128939D01*
X55113Y128923D01*
X55110Y128900D01*
X55107Y128879D01*
X55102Y128859D01*
X55095Y128840D01*
X55087Y128822D01*
X55078Y128805D01*
X55067Y128788D01*
X55060Y128779D01*
X54483Y128202D01*
X54443Y128143D01*
X54429Y128073D01*
Y126673D01*
X45535D01*
Y127203D01*
X46036Y127704D01*
X46047Y127714D01*
X46064Y127726D01*
X46080Y127736D01*
X46093Y127743D01*
X46105Y127748D01*
X46114Y127751D01*
X46121Y127753D01*
X46130Y127751D01*
X46141Y127753D01*
X46157Y127753D01*
X46180Y127750D01*
X46201Y127747D01*
X46221Y127742D01*
X46240Y127735D01*
X46258Y127727D01*
X46275Y127718D01*
X46292Y127707D01*
X46301Y127700D01*
X47169Y126832D01*
X47228Y126792D01*
X47298Y126778D01*
X49742D01*
X49812Y126792D01*
X49871Y126832D01*
X50580Y127540D01*
X50620Y127600D01*
X50634Y127670D01*
X50620Y127740D01*
X50580Y127800D01*
X50520Y127840D01*
X50450Y127854D01*
X50380Y127840D01*
X50320Y127800D01*
X49666Y127145D01*
X47374D01*
X46560Y127959D01*
X46553Y127968D01*
X46542Y127985D01*
X46533Y128002D01*
X46525Y128020D01*
X46518Y128039D01*
X46513Y128059D01*
X46510Y128080D01*
X46507Y128103D01*
X46507Y128119D01*
X46509Y128130D01*
X46496Y128228D01*
X46458Y128319D01*
X46398Y128398D01*
X46319Y128458D01*
X46228Y128496D01*
X46130Y128509D01*
X46032Y128496D01*
X45941Y128458D01*
X45862Y128398D01*
X45802Y128319D01*
X45764Y128228D01*
X45751Y128130D01*
X45753Y128121D01*
X45751Y128114D01*
X45748Y128105D01*
X45743Y128093D01*
X45736Y128080D01*
X45726Y128064D01*
X45714Y128048D01*
X45701Y128032D01*
X45134Y127466D01*
X45083Y127390D01*
X45065Y127300D01*
Y126673D01*
X39668D01*
X39579Y126655D01*
X39503Y126604D01*
X39474Y126576D01*
X39423Y126500D01*
X39405Y126410D01*
X39423Y126320D01*
X39474Y126244D01*
X39550Y126193D01*
X39640Y126175D01*
X39730Y126193D01*
X39746Y126204D01*
X48317D01*
X48350Y126182D01*
X48420Y126168D01*
X48490Y126182D01*
X48523Y126204D01*
X53106D01*
Y125450D01*
X53080Y125424D01*
X53040Y125364D01*
X53026Y125294D01*
Y123380D01*
X53040Y123310D01*
X53080Y123250D01*
X53140Y123210D01*
X53210Y123196D01*
X53280Y123210D01*
X53340Y123250D01*
X53380Y123310D01*
X53394Y123380D01*
Y125053D01*
X53444Y125080D01*
X53470Y125062D01*
X53540Y125048D01*
X53610Y125062D01*
X53662Y125097D01*
X53664Y125097D01*
X53666Y125097D01*
X53845D01*
X54017Y124925D01*
Y123553D01*
X54028Y123502D01*
X54056Y123459D01*
X54568Y122947D01*
X54595Y122908D01*
X54686Y122816D01*
X54729Y122788D01*
X54780Y122777D01*
X55675D01*
X55675Y122777D01*
X55678Y122777D01*
X55730Y122742D01*
X55800Y122728D01*
X55870Y122742D01*
X55929Y122781D01*
X55968Y122840D01*
X55982Y122910D01*
X55968Y122980D01*
X55929Y123039D01*
X55870Y123078D01*
X55800Y123092D01*
X55730Y123078D01*
X55678Y123043D01*
X55676Y123043D01*
X55674Y123043D01*
X54835D01*
X54808Y123069D01*
X54782Y123108D01*
X54283Y123608D01*
Y124980D01*
X54272Y125031D01*
X54244Y125074D01*
X53994Y125324D01*
X53951Y125352D01*
X53900Y125363D01*
X53665D01*
X53665Y125363D01*
X53662Y125363D01*
X53610Y125398D01*
X53540Y125412D01*
X53512Y125406D01*
X53474Y125438D01*
Y126138D01*
X53530Y126142D01*
X53681D01*
X54457Y125366D01*
X54461Y125361D01*
X54463Y125358D01*
X54464Y125356D01*
X54464Y125356D01*
X54465Y125355D01*
X54465Y125353D01*
X54465Y125353D01*
X54472Y125320D01*
X54511Y125261D01*
X54570Y125222D01*
X54640Y125208D01*
X54710Y125222D01*
X54769Y125261D01*
X54808Y125320D01*
X54822Y125390D01*
X54808Y125460D01*
X54769Y125519D01*
X54710Y125558D01*
X54640Y125572D01*
X54628Y125570D01*
X54628Y125570D01*
X54040Y126158D01*
X54059Y126204D01*
X54398D01*
X54447Y126132D01*
X54969Y125609D01*
X55045Y125558D01*
X55135Y125541D01*
X55834D01*
X55849Y125491D01*
X55831Y125479D01*
X55792Y125420D01*
X55780Y125358D01*
X55779Y125356D01*
X55777Y125354D01*
X55232Y124809D01*
X55203Y124766D01*
X55193Y124716D01*
Y124691D01*
X54696Y124194D01*
X54690Y124198D01*
X54620Y124212D01*
X54550Y124198D01*
X54491Y124159D01*
X54452Y124100D01*
X54438Y124030D01*
X54452Y123960D01*
X54491Y123901D01*
X54550Y123862D01*
X54620Y123848D01*
X54690Y123862D01*
X54735Y123892D01*
X54761Y123898D01*
X54804Y123926D01*
X55419Y124542D01*
X55448Y124585D01*
X55458Y124636D01*
Y124661D01*
X55965Y125168D01*
X55966Y125168D01*
X55968Y125170D01*
X56030Y125182D01*
X56089Y125221D01*
X56128Y125280D01*
X56142Y125350D01*
X56128Y125420D01*
X56089Y125479D01*
X56071Y125491D01*
X56086Y125541D01*
X59583D01*
X59602Y125494D01*
X59391Y125283D01*
X58482D01*
X58431Y125272D01*
X58388Y125244D01*
X58363Y125219D01*
X58346Y125222D01*
X58276Y125209D01*
X58217Y125169D01*
X58178Y125110D01*
X58164Y125040D01*
X58178Y124971D01*
X58217Y124912D01*
X58251Y124889D01*
Y124869D01*
X58212Y124810D01*
X58198Y124740D01*
X58212Y124670D01*
X58251Y124611D01*
X58310Y124572D01*
X58380Y124558D01*
X58450Y124572D01*
X58509Y124611D01*
X58557Y124594D01*
X58609Y124559D01*
X58678Y124545D01*
X58748Y124559D01*
X58801Y124594D01*
X58802Y124594D01*
X58805Y124594D01*
X59539D01*
X59590Y124604D01*
X59633Y124633D01*
X59965Y124965D01*
X59970Y124962D01*
X60040Y124948D01*
X60110Y124962D01*
X60169Y125001D01*
X60208Y125060D01*
X60222Y125130D01*
X60208Y125200D01*
X60169Y125259D01*
X60110Y125298D01*
X60100Y125300D01*
X60085Y125348D01*
X60375Y125637D01*
X60892D01*
X60896Y125637D01*
X60897Y125637D01*
X60897Y125636D01*
X60897Y125632D01*
Y124640D01*
X60908Y124589D01*
X60936Y124546D01*
X61287Y124195D01*
Y122945D01*
X61287Y122945D01*
X61287Y122942D01*
X61252Y122890D01*
X61238Y122820D01*
X61252Y122750D01*
X61291Y122691D01*
X61350Y122652D01*
X61420Y122638D01*
X61490Y122652D01*
X61549Y122691D01*
X61588Y122750D01*
X61602Y122820D01*
X61588Y122890D01*
X61553Y122942D01*
X61553Y122944D01*
X61553Y122946D01*
Y124250D01*
X61542Y124301D01*
X61514Y124344D01*
X61163Y124695D01*
Y125632D01*
X61163Y125636D01*
X61163Y125637D01*
X61164Y125637D01*
X61168Y125637D01*
X61366D01*
X61384Y125587D01*
X61352Y125540D01*
X61338Y125470D01*
X61352Y125400D01*
X61391Y125341D01*
X61450Y125302D01*
X61512Y125290D01*
X61514Y125289D01*
X61516Y125287D01*
X62809Y123994D01*
Y123735D01*
X62819Y123685D01*
X62848Y123642D01*
X62902Y123587D01*
X62883Y123541D01*
X62495D01*
X62445Y123531D01*
X62402Y123502D01*
X62098Y123198D01*
X62069Y123155D01*
X62059Y123105D01*
Y121958D01*
X62069Y121908D01*
X62098Y121865D01*
X62266Y121696D01*
X62309Y121668D01*
X62360Y121657D01*
X62388D01*
X62431Y121649D01*
X64164D01*
X64307Y121505D01*
Y120495D01*
X64266Y120454D01*
X64240Y120414D01*
X64231Y120409D01*
X64192Y120350D01*
X64178Y120280D01*
X64187Y120234D01*
X64154Y120184D01*
X62865D01*
X62416Y120634D01*
X62373Y120662D01*
X62322Y120673D01*
X58455D01*
X57581Y121546D01*
Y123130D01*
X57822Y123372D01*
X57851Y123415D01*
X57861Y123465D01*
Y123668D01*
X57851Y123719D01*
X57833Y123747D01*
Y123900D01*
X57822Y123951D01*
X57794Y123994D01*
X57645Y124142D01*
X57602Y124171D01*
X57552Y124181D01*
X56969D01*
X56919Y124171D01*
X56876Y124142D01*
X56506Y123773D01*
X56425D01*
X56425Y123773D01*
X56422Y123773D01*
X56370Y123808D01*
X56300Y123822D01*
X56230Y123808D01*
X56171Y123769D01*
X56132Y123710D01*
X56118Y123640D01*
X56132Y123570D01*
X56171Y123511D01*
X56230Y123472D01*
X56300Y123458D01*
X56370Y123472D01*
X56422Y123507D01*
X56424Y123507D01*
X56426Y123507D01*
X56561D01*
X56578Y123493D01*
Y121075D01*
X56020Y120517D01*
X55980Y120458D01*
X55966Y120388D01*
X55980Y120317D01*
X56020Y120258D01*
X56080Y120218D01*
X56150Y120204D01*
X56220Y120218D01*
X56280Y120258D01*
X56891Y120869D01*
X56931Y120929D01*
X56945Y120999D01*
Y121228D01*
X56995Y121248D01*
X58157Y120086D01*
X58200Y120058D01*
X58251Y120047D01*
X61965D01*
X62415Y119598D01*
X62458Y119569D01*
X62508Y119559D01*
X66384D01*
X66435Y119569D01*
X66478Y119598D01*
X68077Y121197D01*
X68975D01*
X68975Y121197D01*
X68978Y121197D01*
X69030Y121162D01*
X69100Y121148D01*
X69170Y121162D01*
X69229Y121201D01*
X69268Y121260D01*
X69282Y121330D01*
X69268Y121400D01*
X69229Y121459D01*
X69170Y121498D01*
X69100Y121512D01*
X69030Y121498D01*
X68978Y121463D01*
X68976Y121463D01*
X68974Y121463D01*
X68695D01*
X68676Y121509D01*
X69075Y121908D01*
X69076Y121908D01*
X69078Y121910D01*
X69140Y121922D01*
X69199Y121961D01*
X69238Y122020D01*
X69252Y122090D01*
X69238Y122160D01*
X69199Y122219D01*
X69140Y122258D01*
X69070Y122272D01*
X69000Y122258D01*
X68983Y122246D01*
X68933Y122273D01*
Y122460D01*
X68922Y122511D01*
X68894Y122554D01*
X68422Y123025D01*
X68422Y123026D01*
X68420Y123028D01*
X68408Y123090D01*
X68369Y123149D01*
X68310Y123188D01*
X68240Y123202D01*
X68170Y123188D01*
X68111Y123149D01*
X68072Y123090D01*
X68058Y123020D01*
X68072Y122950D01*
X68111Y122891D01*
X68170Y122852D01*
X68232Y122840D01*
X68234Y122839D01*
X68236Y122837D01*
X68667Y122405D01*
Y122129D01*
X68391Y121853D01*
X66646D01*
X66631Y121895D01*
X66629Y121903D01*
X66668Y121960D01*
X66682Y122030D01*
X66668Y122100D01*
X66629Y122159D01*
X66570Y122198D01*
X66500Y122212D01*
X66430Y122198D01*
X66378Y122163D01*
X66376Y122163D01*
X66374Y122163D01*
X65675D01*
X65656Y122209D01*
X66085Y122637D01*
X66235D01*
X66235Y122637D01*
X66238Y122637D01*
X66290Y122602D01*
X66360Y122588D01*
X66430Y122602D01*
X66489Y122641D01*
X66528Y122700D01*
X66542Y122770D01*
X66528Y122840D01*
X66493Y122893D01*
Y122910D01*
X66485Y122947D01*
X66513Y122997D01*
X66664D01*
X66715Y123008D01*
X66756Y123035D01*
X66820Y123048D01*
X66879Y123087D01*
X66918Y123146D01*
X66932Y123216D01*
X66918Y123285D01*
X66879Y123344D01*
X66820Y123384D01*
X66750Y123398D01*
X66680Y123384D01*
X66621Y123344D01*
X66582Y123285D01*
X66577Y123263D01*
X66245D01*
X66195Y123252D01*
X66152Y123224D01*
X66021Y123093D01*
X65647D01*
X65596Y123082D01*
X65553Y123054D01*
X65462Y122963D01*
X64795D01*
X64795Y122963D01*
X64792Y122963D01*
X64740Y122998D01*
X64670Y123012D01*
X64600Y122998D01*
X64541Y122959D01*
X64502Y122900D01*
X64488Y122830D01*
X64502Y122760D01*
X64541Y122701D01*
X64600Y122662D01*
X64670Y122648D01*
X64740Y122662D01*
X64792Y122697D01*
X64794Y122697D01*
X64796Y122697D01*
X65517D01*
X65568Y122708D01*
X65611Y122736D01*
X65702Y122827D01*
X65835D01*
X65854Y122781D01*
X65395Y122323D01*
X62725D01*
X62725Y122323D01*
X62722Y122323D01*
X62670Y122358D01*
X62600Y122372D01*
X62554Y122363D01*
X62504Y122396D01*
Y122907D01*
X62595Y122998D01*
X62596Y122998D01*
X62598Y123000D01*
X62660Y123012D01*
X62719Y123051D01*
X62758Y123110D01*
X62772Y123180D01*
X62763Y123226D01*
X62796Y123276D01*
X63571D01*
X63622Y123286D01*
X63665Y123315D01*
X63982Y123632D01*
X64011Y123675D01*
X64021Y123725D01*
Y124207D01*
X64011Y124258D01*
X63982Y124301D01*
X63935Y124348D01*
Y124732D01*
X63985Y124752D01*
X65341Y123396D01*
X65384Y123368D01*
X65434Y123357D01*
X66015D01*
X66015Y123357D01*
X66018Y123357D01*
X66070Y123322D01*
X66140Y123308D01*
X66210Y123322D01*
X66269Y123361D01*
X66308Y123420D01*
X66322Y123490D01*
X66308Y123560D01*
X66269Y123619D01*
X66210Y123658D01*
X66140Y123672D01*
X66070Y123658D01*
X66018Y123623D01*
X66016Y123623D01*
X66014Y123623D01*
X65489D01*
X65439Y123673D01*
X65460Y123723D01*
X72386D01*
X72436Y123733D01*
X72479Y123762D01*
X72694Y123976D01*
X72722Y124019D01*
X72733Y124070D01*
Y124465D01*
X72733Y124465D01*
X72733Y124468D01*
X72768Y124520D01*
X72782Y124590D01*
X72768Y124660D01*
X72729Y124719D01*
X72670Y124758D01*
X72600Y124772D01*
X72530Y124758D01*
X72471Y124719D01*
X72432Y124660D01*
X72418Y124590D01*
X72432Y124520D01*
X72467Y124468D01*
X72467Y124466D01*
X72467Y124464D01*
Y124125D01*
X72331Y123988D01*
X68416D01*
X68383Y124038D01*
X68392Y124084D01*
X68378Y124154D01*
X68343Y124206D01*
X68343Y124208D01*
X68343Y124210D01*
Y125281D01*
X68350Y125282D01*
X68409Y125321D01*
X68448Y125380D01*
X68462Y125450D01*
X68448Y125520D01*
X68409Y125579D01*
X68350Y125618D01*
X68280Y125632D01*
X68210Y125618D01*
X68151Y125579D01*
X68112Y125520D01*
X68098Y125450D01*
X68103Y125427D01*
X68088Y125405D01*
X68077Y125354D01*
Y124209D01*
X68077Y124209D01*
X68077Y124206D01*
X68042Y124154D01*
X68028Y124084D01*
X68037Y124038D01*
X68004Y123988D01*
X65484D01*
X64107Y125365D01*
X64127Y125415D01*
X67185D01*
X67275Y125433D01*
X67351Y125484D01*
X67753Y125885D01*
X76641D01*
X76650Y125878D01*
X76718Y125850D01*
X76790Y125841D01*
X76862Y125850D01*
X76930Y125878D01*
X76987Y125923D01*
X77032Y125980D01*
X77060Y126048D01*
X77069Y126120D01*
X77060Y126192D01*
X77032Y126260D01*
X76987Y126317D01*
X76930Y126362D01*
X76862Y126390D01*
X76790Y126399D01*
X76718Y126390D01*
X76650Y126362D01*
X76641Y126355D01*
X67655D01*
X67566Y126337D01*
X67490Y126286D01*
X67088Y125885D01*
X66429D01*
X66410Y125931D01*
X66978Y126498D01*
X68455D01*
X68526Y126512D01*
X68585Y126552D01*
X69960Y127926D01*
X77224D01*
X78920Y126230D01*
X78980Y126190D01*
X79050Y126176D01*
X79437D01*
X79507Y126190D01*
X79566Y126230D01*
X79760Y126424D01*
X79800Y126483D01*
X79814Y126553D01*
Y126827D01*
X79800Y126897D01*
X79760Y126956D01*
X79724Y126993D01*
Y127050D01*
X79710Y127120D01*
X79670Y127180D01*
X79610Y127220D01*
X79540Y127234D01*
X79470Y127220D01*
X79410Y127180D01*
X79370Y127120D01*
X79356Y127050D01*
Y127030D01*
X79310Y127011D01*
X77641Y128681D01*
X77565Y128732D01*
X77475Y128750D01*
X72360D01*
X72270Y128732D01*
X72194Y128681D01*
X72191Y128677D01*
X72189Y128675D01*
X72175Y128670D01*
X72155Y128665D01*
X72131Y128660D01*
X71974Y128648D01*
X69895D01*
X69844Y128637D01*
X69801Y128609D01*
X69031Y127838D01*
X68975Y127854D01*
X68972Y127868D01*
X69019Y127914D01*
X69047Y127957D01*
X69057Y128008D01*
Y128644D01*
X69057Y128644D01*
X69058Y128647D01*
X69093Y128699D01*
X69107Y128769D01*
X69093Y128838D01*
X69053Y128897D01*
X68994Y128937D01*
X68925Y128951D01*
X68855Y128937D01*
X68796Y128897D01*
X68757Y128838D01*
X68743Y128769D01*
X68757Y128699D01*
X68792Y128647D01*
X68792Y128645D01*
X68792Y128642D01*
Y128063D01*
X68662Y127932D01*
X68641Y127919D01*
X68628Y127898D01*
X68601Y127872D01*
X68573Y127829D01*
X68563Y127778D01*
X68573Y127727D01*
X68601Y127684D01*
X68644Y127656D01*
X68652Y127654D01*
X68700Y127622D01*
X68770Y127608D01*
X68782Y127560D01*
X68792Y127510D01*
X68831Y127451D01*
X68869Y127426D01*
X68881Y127367D01*
X68379Y126865D01*
X66902D01*
X66831Y126851D01*
X66772Y126811D01*
X66124Y126164D01*
X66120D01*
X66050Y126150D01*
X65990Y126110D01*
X65950Y126050D01*
X65936Y125980D01*
X65946Y125935D01*
X65912Y125885D01*
X62413D01*
X61842Y126456D01*
X61878Y126510D01*
X61892Y126580D01*
X61878Y126650D01*
X61839Y126709D01*
X61780Y126748D01*
X61710Y126762D01*
X61640Y126748D01*
X61586Y126712D01*
X61521Y126776D01*
X61445Y126827D01*
X61356Y126845D01*
X60509D01*
X60420Y126827D01*
X60344Y126776D01*
X60344Y126776D01*
X59577Y126010D01*
X57119D01*
Y126090D01*
X57105Y126160D01*
X57065Y126220D01*
X57006Y126260D01*
X56935Y126274D01*
X56865Y126260D01*
X56806Y126220D01*
X56766Y126160D01*
X56752Y126090D01*
Y126037D01*
X56741Y126027D01*
X56719Y126010D01*
X55232D01*
X54840Y126402D01*
X54847Y126438D01*
X54829Y126528D01*
X54800Y126572D01*
X54796Y126753D01*
Y127997D01*
X55319Y128520D01*
X55328Y128527D01*
X55345Y128538D01*
X55362Y128547D01*
X55380Y128555D01*
X55399Y128562D01*
X55419Y128567D01*
X55440Y128570D01*
X55463Y128573D01*
X55479Y128573D01*
X55490Y128571D01*
X55588Y128584D01*
X55679Y128622D01*
X55758Y128682D01*
X55818Y128761D01*
X55856Y128852D01*
X55869Y128950D01*
X55856Y129048D01*
X55818Y129139D01*
X55758Y129218D01*
X55679Y129278D01*
X55588Y129316D01*
X55490Y129329D01*
D02*
G37*
G36*
X44340Y125532D02*
X44270Y125518D01*
X44211Y125479D01*
X44172Y125420D01*
X44158Y125350D01*
X44172Y125280D01*
X44211Y125221D01*
X44270Y125182D01*
X44340Y125168D01*
X44410Y125182D01*
X44469Y125221D01*
X44508Y125280D01*
X44522Y125350D01*
X44508Y125420D01*
X44469Y125479D01*
X44410Y125518D01*
X44340Y125532D01*
D02*
G37*
G36*
X50570Y125062D02*
X50500Y125048D01*
X50441Y125009D01*
X50402Y124950D01*
X50388Y124880D01*
X50402Y124810D01*
X50408Y124802D01*
X49914Y124308D01*
X49855Y124320D01*
X49829Y124359D01*
X49770Y124398D01*
X49700Y124412D01*
X49630Y124398D01*
X49571Y124359D01*
X49532Y124300D01*
X49520Y124238D01*
X49519Y124236D01*
X49517Y124234D01*
X48595Y123313D01*
X48435D01*
X48416Y123359D01*
X48644Y123586D01*
X48649Y123594D01*
X48690Y123602D01*
X48749Y123641D01*
X48788Y123700D01*
X48802Y123770D01*
X48788Y123840D01*
X48749Y123899D01*
X48690Y123938D01*
X48620Y123952D01*
X48550Y123938D01*
X48491Y123899D01*
X48452Y123840D01*
X48438Y123770D01*
X48440Y123758D01*
X48195Y123513D01*
X47701D01*
X47697Y123524D01*
X47693Y123563D01*
X47744Y123596D01*
X47783Y123655D01*
X47797Y123725D01*
X47783Y123795D01*
X47744Y123854D01*
X47685Y123893D01*
X47615Y123907D01*
X47545Y123893D01*
X47486Y123854D01*
X47447Y123795D01*
X47435Y123733D01*
X47434Y123731D01*
X47432Y123729D01*
X47395Y123693D01*
X47325D01*
X47292Y123743D01*
X47302Y123790D01*
X47288Y123860D01*
X47249Y123919D01*
X47190Y123958D01*
X47120Y123972D01*
X47050Y123958D01*
X46998Y123923D01*
X46996Y123923D01*
X46994Y123923D01*
X46752D01*
X46702Y123912D01*
X46659Y123884D01*
X44874Y122099D01*
X44860Y122102D01*
X44790Y122088D01*
X44731Y122049D01*
X44692Y121990D01*
X44678Y121920D01*
X44692Y121850D01*
X44731Y121791D01*
X44735Y121789D01*
X44751Y121769D01*
X44712Y121710D01*
X44698Y121640D01*
X44712Y121570D01*
X44751Y121511D01*
X44810Y121472D01*
X44880Y121458D01*
X44950Y121472D01*
X45009Y121511D01*
X45048Y121570D01*
X45049Y121575D01*
X45060Y121587D01*
X45449Y121976D01*
X45497Y121966D01*
X45503Y121959D01*
X45541Y121901D01*
X45600Y121862D01*
X45670Y121848D01*
X45740Y121862D01*
X45799Y121901D01*
X45838Y121960D01*
X45850Y122022D01*
X45851Y122024D01*
X45853Y122026D01*
X45981Y122154D01*
X46027Y122135D01*
Y121705D01*
X46027Y121705D01*
X46027Y121702D01*
X45992Y121650D01*
X45978Y121580D01*
X45992Y121510D01*
X46031Y121451D01*
X46090Y121412D01*
X46160Y121398D01*
X46230Y121412D01*
X46289Y121451D01*
X46328Y121510D01*
X46342Y121580D01*
X46328Y121650D01*
X46293Y121702D01*
X46293Y121704D01*
X46293Y121706D01*
Y122211D01*
X47129Y123047D01*
X48562D01*
X48581Y123001D01*
X47552Y121973D01*
X47524Y121930D01*
X47513Y121879D01*
Y121788D01*
X47499Y121779D01*
X47459Y121720D01*
X47446Y121650D01*
X47459Y121580D01*
X47499Y121521D01*
X47558Y121482D01*
X47628Y121468D01*
X47697Y121482D01*
X47756Y121521D01*
X47796Y121580D01*
X47809Y121650D01*
X47796Y121720D01*
X47781Y121741D01*
X47781Y121742D01*
X47781Y121743D01*
X47780Y121743D01*
X47779Y121748D01*
X47779Y121750D01*
X47779Y121759D01*
Y121824D01*
X47981Y122027D01*
X48027Y122008D01*
Y121785D01*
X48027Y121785D01*
X48027Y121782D01*
X47992Y121730D01*
X47978Y121660D01*
X47992Y121590D01*
X48031Y121531D01*
X48090Y121492D01*
X48160Y121478D01*
X48230Y121492D01*
X48289Y121531D01*
X48328Y121590D01*
X48342Y121660D01*
X48328Y121730D01*
X48293Y121782D01*
X48293Y121784D01*
X48293Y121786D01*
Y122038D01*
X48636Y122382D01*
X48695Y122370D01*
X48721Y122331D01*
X48736Y122322D01*
Y122321D01*
X48746Y122271D01*
X48775Y122228D01*
X49125Y121878D01*
X49169Y121830D01*
X49193Y121801D01*
X49200Y121792D01*
X49200Y121791D01*
X49210Y121740D01*
X49250Y121680D01*
X49310Y121640D01*
X49380Y121626D01*
X50304D01*
X52650Y119280D01*
X52692Y119253D01*
X52676Y119203D01*
X52391D01*
X52140Y119454D01*
X52097Y119482D01*
X52046Y119493D01*
X51214D01*
X51163Y119482D01*
X51120Y119454D01*
X50897Y119230D01*
X45795D01*
X44645Y120380D01*
X44503Y120522D01*
Y123240D01*
X44492Y123291D01*
X44464Y123334D01*
X43902Y123895D01*
X43902Y123896D01*
X43900Y123898D01*
X43888Y123960D01*
X43849Y124019D01*
X43790Y124058D01*
X43720Y124072D01*
X43650Y124058D01*
X43591Y124019D01*
X43552Y123960D01*
X43538Y123890D01*
X43552Y123820D01*
X43591Y123761D01*
X43650Y123722D01*
X43712Y123710D01*
X43714Y123709D01*
X43716Y123707D01*
X44237Y123185D01*
Y123085D01*
X44191Y123066D01*
X43882Y123375D01*
X43882Y123376D01*
X43880Y123378D01*
X43868Y123440D01*
X43829Y123499D01*
X43770Y123538D01*
X43700Y123552D01*
X43630Y123538D01*
X43571Y123499D01*
X43532Y123440D01*
X43518Y123370D01*
X43532Y123300D01*
X43571Y123241D01*
X43630Y123202D01*
X43692Y123190D01*
X43694Y123189D01*
X43696Y123187D01*
X44057Y122825D01*
Y122735D01*
X44011Y122716D01*
X43892Y122835D01*
X43892Y122836D01*
X43890Y122838D01*
X43878Y122900D01*
X43839Y122959D01*
X43780Y122998D01*
X43710Y123012D01*
X43640Y122998D01*
X43581Y122959D01*
X43542Y122900D01*
X43528Y122830D01*
X43542Y122760D01*
X43581Y122701D01*
X43640Y122662D01*
X43702Y122650D01*
X43704Y122649D01*
X43706Y122647D01*
X43797Y122556D01*
X43772Y122509D01*
X43760Y122512D01*
X43690Y122498D01*
X43631Y122459D01*
X43592Y122400D01*
X43578Y122330D01*
X43592Y122260D01*
X43611Y122232D01*
X43611Y122232D01*
X43612Y122230D01*
X43612Y122229D01*
X43612Y122229D01*
X43613Y122227D01*
X43613Y122225D01*
X43614Y122214D01*
Y119052D01*
X43614Y119052D01*
X43611Y119040D01*
X43606Y119025D01*
X43598Y119008D01*
X43587Y118989D01*
X43572Y118968D01*
X43555Y118946D01*
X43506Y118895D01*
X43477Y118868D01*
X43476Y118867D01*
X43462Y118855D01*
X43423Y118804D01*
X43373Y118821D01*
X43373Y123809D01*
X43390Y123812D01*
X43449Y123851D01*
X43488Y123910D01*
X43502Y123980D01*
X43488Y124050D01*
X43449Y124109D01*
X43390Y124148D01*
X43320Y124162D01*
X43311Y124160D01*
X43281Y124205D01*
X43298Y124230D01*
X43312Y124300D01*
X43298Y124370D01*
X43259Y124429D01*
X43200Y124468D01*
X43131Y124482D01*
X43130Y124482D01*
X43093Y124526D01*
X43102Y124570D01*
X43088Y124640D01*
X43049Y124699D01*
X42990Y124738D01*
X42920Y124752D01*
X42914Y124751D01*
X42866Y124792D01*
X42857Y124840D01*
X42818Y124899D01*
X42759Y124938D01*
X42689Y124952D01*
X42619Y124938D01*
X42560Y124899D01*
X42521Y124840D01*
X42507Y124770D01*
X42521Y124700D01*
X42556Y124648D01*
X42556Y124646D01*
X42556Y124644D01*
X42556Y112253D01*
X42566Y112203D01*
X42595Y112160D01*
X43281Y111474D01*
X43305Y111437D01*
X43584Y111159D01*
X43580Y111146D01*
X43572Y111128D01*
X43560Y111107D01*
X43546Y111083D01*
X43528Y111059D01*
X43482Y111001D01*
X43467Y110986D01*
X43462Y110981D01*
X43401Y110902D01*
X43362Y110809D01*
X43349Y110710D01*
X43362Y110611D01*
X43401Y110519D01*
X43462Y110439D01*
X43541Y110378D01*
X43633Y110340D01*
X43733Y110327D01*
X43832Y110340D01*
X43924Y110378D01*
X44004Y110439D01*
X44065Y110519D01*
X44103Y110611D01*
X44116Y110710D01*
X44103Y110809D01*
X44082Y110860D01*
X44124Y110889D01*
X44384Y110628D01*
X44427Y110600D01*
X44478Y110590D01*
X51245D01*
X51275Y110519D01*
X51336Y110439D01*
X51415Y110378D01*
X51507Y110340D01*
X51607Y110327D01*
X51706Y110340D01*
X51798Y110378D01*
X51878Y110439D01*
X51939Y110519D01*
X51977Y110611D01*
X51990Y110710D01*
X51982Y110769D01*
X52025Y110819D01*
X58189D01*
X58233Y110828D01*
X59093D01*
X59129Y110778D01*
X59119Y110705D01*
X59132Y110606D01*
X59171Y110514D01*
X59232Y110434D01*
X59311Y110373D01*
X59403Y110335D01*
X59503Y110322D01*
X59602Y110335D01*
X59694Y110373D01*
X59774Y110434D01*
X59835Y110514D01*
X59873Y110606D01*
X59886Y110705D01*
X59873Y110804D01*
X59835Y110897D01*
X59788Y110958D01*
X59812Y111008D01*
X66870D01*
X66932Y110946D01*
X66938Y110935D01*
X66946Y110921D01*
X66952Y110903D01*
X66959Y110881D01*
X66964Y110855D01*
X66968Y110826D01*
X66973Y110754D01*
X66973Y110723D01*
X66971Y110710D01*
X66985Y110611D01*
X67023Y110519D01*
X67084Y110439D01*
X67163Y110378D01*
X67256Y110340D01*
X67355Y110327D01*
X67454Y110340D01*
X67546Y110378D01*
X67626Y110439D01*
X67687Y110519D01*
X67725Y110611D01*
X67738Y110710D01*
X67725Y110809D01*
X67687Y110902D01*
X67626Y110981D01*
X67546Y111042D01*
X67454Y111080D01*
X67355Y111094D01*
X67342Y111092D01*
X67311Y111092D01*
X67239Y111097D01*
X67210Y111101D01*
X67184Y111106D01*
X67162Y111113D01*
X67144Y111119D01*
X67130Y111127D01*
X67119Y111133D01*
X67018Y111234D01*
X66975Y111263D01*
X66925Y111273D01*
X52094D01*
X51901Y111466D01*
X51858Y111495D01*
X51807Y111505D01*
X51407D01*
X51356Y111495D01*
X51313Y111466D01*
X51090Y111243D01*
X44653D01*
X44068Y111829D01*
X44044Y111865D01*
X43373Y112536D01*
X43373Y118347D01*
X43423Y118364D01*
X43462Y118313D01*
X43541Y118252D01*
X43633Y118214D01*
X43733Y118201D01*
X43832Y118214D01*
X43924Y118252D01*
X44004Y118313D01*
X44065Y118393D01*
X44103Y118485D01*
X44116Y118584D01*
X44103Y118683D01*
X44065Y118776D01*
X44004Y118855D01*
X43998Y118859D01*
X43985Y118875D01*
X43938Y118932D01*
X43920Y118957D01*
X43906Y118980D01*
X43895Y119001D01*
X43887Y119020D01*
X43881Y119036D01*
X43879Y119048D01*
Y120134D01*
X43929Y120154D01*
X43985Y120097D01*
X43985Y120097D01*
X45646Y118436D01*
X45689Y118408D01*
X45740Y118397D01*
X51273D01*
X51275Y118393D01*
X51336Y118313D01*
X51415Y118252D01*
X51507Y118214D01*
X51607Y118201D01*
X51706Y118214D01*
X51798Y118252D01*
X51878Y118313D01*
X51939Y118393D01*
X51977Y118485D01*
X51990Y118584D01*
X51977Y118683D01*
X51939Y118776D01*
X51878Y118855D01*
X51846Y118879D01*
X51860Y118932D01*
X51887Y118936D01*
X52126Y118696D01*
X52169Y118668D01*
X52220Y118657D01*
X58570Y118657D01*
X58608Y118650D01*
X59034D01*
X59036Y118650D01*
X59046Y118648D01*
X59052Y118645D01*
X59056Y118643D01*
X59059Y118640D01*
X59062Y118635D01*
X59066Y118626D01*
X59070Y118613D01*
X59072Y118595D01*
X59073Y118582D01*
X59072Y118572D01*
X59085Y118473D01*
X59123Y118381D01*
X59184Y118301D01*
X59263Y118240D01*
X59356Y118202D01*
X59455Y118189D01*
X59554Y118202D01*
X59647Y118240D01*
X59726Y118301D01*
X59787Y118381D01*
X59825Y118473D01*
X59838Y118572D01*
X59835Y118597D01*
X59882Y118620D01*
X60012Y118490D01*
X60055Y118462D01*
X60106Y118452D01*
X66889D01*
X66901Y118449D01*
X66916Y118444D01*
X66934Y118436D01*
X66954Y118424D01*
X66976Y118410D01*
X67000Y118392D01*
X67054Y118345D01*
X67076Y118323D01*
X67084Y118313D01*
X67163Y118252D01*
X67256Y118214D01*
X67355Y118201D01*
X67454Y118214D01*
X67546Y118252D01*
X67626Y118313D01*
X67687Y118393D01*
X67725Y118485D01*
X67738Y118584D01*
X67725Y118683D01*
X67687Y118776D01*
X67626Y118855D01*
X67546Y118916D01*
X67454Y118954D01*
X67355Y118968D01*
X67256Y118954D01*
X67163Y118916D01*
X67084Y118855D01*
X67076Y118845D01*
X67054Y118823D01*
X67000Y118776D01*
X66976Y118758D01*
X66954Y118744D01*
X66934Y118732D01*
X66916Y118724D01*
X66901Y118719D01*
X66889Y118717D01*
X60161D01*
X60093Y118784D01*
X60083Y118834D01*
X60054Y118877D01*
X59773Y119158D01*
X59730Y119187D01*
X59680Y119197D01*
X59282D01*
X59273Y119195D01*
X58754D01*
X58729Y119200D01*
X56560D01*
X56557Y119203D01*
X52884D01*
X52868Y119253D01*
X52910Y119280D01*
X52950Y119340D01*
X52964Y119410D01*
X52950Y119480D01*
X52910Y119540D01*
X50510Y121940D01*
X50450Y121980D01*
X50380Y121994D01*
X49395D01*
X49304Y122074D01*
X49006Y122372D01*
X49018Y122390D01*
X49032Y122460D01*
X49018Y122530D01*
X48979Y122589D01*
X48940Y122615D01*
X48928Y122674D01*
X49845Y123591D01*
X49860Y123588D01*
X49930Y123602D01*
X49989Y123641D01*
X50028Y123700D01*
X50042Y123770D01*
X50028Y123840D01*
X49989Y123899D01*
X49965Y123914D01*
X49959Y123979D01*
X50664Y124683D01*
X50692Y124726D01*
X50697Y124750D01*
X50699Y124751D01*
X50738Y124810D01*
X50752Y124880D01*
X50738Y124950D01*
X50699Y125009D01*
X50640Y125048D01*
X50570Y125062D01*
D02*
G37*
G36*
X88404Y124859D02*
X88255Y124839D01*
X88116Y124781D01*
X87996Y124690D01*
X87905Y124570D01*
X87847Y124431D01*
X87827Y124281D01*
X87847Y124132D01*
X87905Y123993D01*
X87996Y123873D01*
X88116Y123782D01*
X88255Y123724D01*
X88404Y123704D01*
X88554Y123724D01*
X88693Y123782D01*
X88812Y123873D01*
X88904Y123993D01*
X88962Y124132D01*
X88981Y124281D01*
X88962Y124431D01*
X88904Y124570D01*
X88812Y124690D01*
X88693Y124781D01*
X88554Y124839D01*
X88404Y124859D01*
D02*
G37*
G36*
X39880Y124092D02*
X39810Y124078D01*
X39751Y124039D01*
X39712Y123980D01*
X39698Y123910D01*
X39712Y123840D01*
X39751Y123781D01*
X39810Y123742D01*
X39872Y123730D01*
X39874Y123729D01*
X39876Y123727D01*
X40397Y123205D01*
Y123105D01*
X40351Y123086D01*
X40052Y123385D01*
X40052Y123386D01*
X40050Y123388D01*
X40038Y123450D01*
X39999Y123509D01*
X39940Y123548D01*
X39870Y123562D01*
X39800Y123548D01*
X39741Y123509D01*
X39702Y123450D01*
X39688Y123380D01*
X39702Y123310D01*
X39741Y123251D01*
X39800Y123212D01*
X39862Y123200D01*
X39864Y123199D01*
X39866Y123197D01*
X40217Y122845D01*
Y122745D01*
X40171Y122726D01*
X40042Y122855D01*
X40042Y122856D01*
X40040Y122858D01*
X40028Y122920D01*
X39989Y122979D01*
X39930Y123018D01*
X39860Y123032D01*
X39790Y123018D01*
X39731Y122979D01*
X39692Y122920D01*
X39678Y122850D01*
X39692Y122780D01*
X39731Y122721D01*
X39790Y122682D01*
X39852Y122670D01*
X39854Y122669D01*
X39856Y122667D01*
X40037Y122485D01*
Y122347D01*
X39987Y122342D01*
X39978Y122390D01*
X39939Y122449D01*
X39880Y122488D01*
X39810Y122502D01*
X39740Y122488D01*
X39681Y122449D01*
X39642Y122390D01*
X39628Y122320D01*
X39642Y122250D01*
X39681Y122191D01*
X39740Y122152D01*
X39802Y122140D01*
X39804Y122139D01*
X39806Y122137D01*
X39856Y122086D01*
X39856Y105571D01*
X39866Y105521D01*
X39895Y105478D01*
X42600Y102773D01*
X42643Y102744D01*
X42693Y102734D01*
X43364D01*
X43401Y102645D01*
X43462Y102565D01*
X43541Y102504D01*
X43633Y102466D01*
X43733Y102453D01*
X43832Y102466D01*
X43924Y102504D01*
X44004Y102565D01*
X44065Y102645D01*
X44103Y102737D01*
X44116Y102836D01*
X44108Y102897D01*
X44149Y102947D01*
X51190Y102947D01*
X51231Y102897D01*
X51223Y102836D01*
X51236Y102737D01*
X51275Y102645D01*
X51336Y102565D01*
X51415Y102504D01*
X51507Y102466D01*
X51607Y102453D01*
X51706Y102466D01*
X51798Y102504D01*
X51878Y102565D01*
X51939Y102645D01*
X51977Y102737D01*
X51990Y102836D01*
X51982Y102897D01*
X52023Y102947D01*
X59064D01*
X59105Y102897D01*
X59097Y102836D01*
X59110Y102737D01*
X59149Y102645D01*
X59210Y102565D01*
X59289Y102504D01*
X59381Y102466D01*
X59481Y102453D01*
X59580Y102466D01*
X59672Y102504D01*
X59752Y102565D01*
X59813Y102645D01*
X59851Y102737D01*
X59864Y102836D01*
X59851Y102935D01*
X59813Y103028D01*
X59770Y103084D01*
X59794Y103134D01*
X66870Y103134D01*
X66932Y103072D01*
X66938Y103061D01*
X66946Y103047D01*
X66952Y103029D01*
X66959Y103007D01*
X66964Y102980D01*
X66968Y102952D01*
X66973Y102879D01*
X66973Y102849D01*
X66971Y102836D01*
X66985Y102737D01*
X67023Y102645D01*
X67084Y102565D01*
X67163Y102504D01*
X67256Y102466D01*
X67355Y102453D01*
X67454Y102466D01*
X67546Y102504D01*
X67626Y102565D01*
X67687Y102645D01*
X67725Y102737D01*
X67738Y102836D01*
X67725Y102935D01*
X67687Y103028D01*
X67626Y103107D01*
X67546Y103168D01*
X67454Y103206D01*
X67355Y103219D01*
X67342Y103218D01*
X67311Y103218D01*
X67239Y103223D01*
X67210Y103227D01*
X67184Y103232D01*
X67162Y103239D01*
X67144Y103245D01*
X67130Y103252D01*
X67119Y103259D01*
X67018Y103360D01*
X66975Y103389D01*
X66925Y103399D01*
X59216Y103399D01*
X52094D01*
X51953Y103540D01*
X51910Y103569D01*
X51859Y103579D01*
X51354D01*
X51323Y103573D01*
X44304Y103573D01*
X44153Y103724D01*
X44110Y103752D01*
X44059Y103763D01*
X43361D01*
X43310Y103752D01*
X43267Y103724D01*
X43086Y103543D01*
X42974D01*
X40663Y105854D01*
Y107159D01*
Y107370D01*
X40663Y123260D01*
X40652Y123311D01*
X40624Y123354D01*
X40062Y123915D01*
X40062Y123916D01*
X40060Y123918D01*
X40048Y123980D01*
X40009Y124039D01*
X39950Y124078D01*
X39880Y124092D01*
D02*
G37*
G36*
X90700Y124494D02*
X90630Y124480D01*
X90570Y124440D01*
X90530Y124380D01*
X90516Y124310D01*
Y123680D01*
X90530Y123610D01*
X90570Y123550D01*
X91050Y123070D01*
X91110Y123030D01*
X91180Y123016D01*
X94320D01*
X94390Y123030D01*
X94450Y123070D01*
X94950Y123570D01*
X94990Y123630D01*
X95004Y123700D01*
Y124020D01*
X94990Y124090D01*
X94950Y124150D01*
X94890Y124190D01*
X94820Y124204D01*
X94750Y124190D01*
X94690Y124150D01*
X94650Y124090D01*
X94636Y124020D01*
Y123776D01*
X94244Y123384D01*
X91256D01*
X90884Y123756D01*
Y124310D01*
X90870Y124380D01*
X90830Y124440D01*
X90770Y124480D01*
X90700Y124494D01*
D02*
G37*
G36*
X67690Y123121D02*
X67620Y123107D01*
X67560Y123067D01*
X67520Y123008D01*
X67506Y122937D01*
X67520Y122867D01*
X67560Y122808D01*
X68240Y122128D01*
X68300Y122088D01*
X68370Y122074D01*
X68440Y122088D01*
X68500Y122128D01*
X68540Y122187D01*
X68554Y122257D01*
X68540Y122328D01*
X68500Y122387D01*
X67820Y123067D01*
X67760Y123107D01*
X67690Y123121D01*
D02*
G37*
G36*
X54010Y122602D02*
X53940Y122588D01*
X53881Y122549D01*
X53842Y122490D01*
X53828Y122420D01*
X53842Y122350D01*
X53877Y122298D01*
X53877Y122296D01*
X53877Y122294D01*
Y122021D01*
X53877Y122021D01*
X53877Y122018D01*
X53842Y121966D01*
X53828Y121896D01*
X53842Y121826D01*
X53881Y121767D01*
X53940Y121728D01*
X54010Y121714D01*
X54080Y121728D01*
X54139Y121767D01*
X54178Y121826D01*
X54192Y121896D01*
X54178Y121966D01*
X54143Y122018D01*
X54143Y122020D01*
X54143Y122022D01*
Y122295D01*
X54143Y122295D01*
X54143Y122298D01*
X54178Y122350D01*
X54192Y122420D01*
X54178Y122490D01*
X54139Y122549D01*
X54080Y122588D01*
X54010Y122602D01*
D02*
G37*
G36*
X93630Y126704D02*
X89230D01*
X89160Y126690D01*
X89100Y126650D01*
X87270Y124820D01*
X87230Y124760D01*
X87216Y124690D01*
Y121250D01*
X87230Y121180D01*
X87270Y121120D01*
X89050Y119340D01*
X89110Y119300D01*
X89180Y119286D01*
X89190D01*
X89260Y119300D01*
X89320Y119340D01*
X89360Y119400D01*
X89374Y119470D01*
X89360Y119540D01*
X89320Y119600D01*
X89290Y119620D01*
X87584Y121326D01*
Y124614D01*
X89306Y126336D01*
X93630D01*
X93700Y126350D01*
X93760Y126390D01*
X93800Y126450D01*
X93814Y126520D01*
X93800Y126590D01*
X93760Y126650D01*
X93700Y126690D01*
X93630Y126704D01*
D02*
G37*
G36*
X87970Y116954D02*
X85250D01*
X85180Y116940D01*
X85120Y116900D01*
X74964Y106744D01*
X64400D01*
X64330Y106730D01*
X64291Y106704D01*
X56750D01*
X56741Y106702D01*
X56451D01*
X56450Y106702D01*
X56449Y106702D01*
X48719D01*
X48660Y106714D01*
X48510D01*
X48440Y106700D01*
X48380Y106660D01*
X48376Y106654D01*
X41036D01*
X41030Y106660D01*
X40970Y106700D01*
X40900Y106714D01*
X40830Y106700D01*
X40770Y106660D01*
X40730Y106600D01*
X40716Y106530D01*
X40730Y106460D01*
X40770Y106400D01*
X40830Y106340D01*
X40890Y106300D01*
X40960Y106286D01*
X48510D01*
X48580Y106300D01*
X48640Y106340D01*
X48640Y106341D01*
X48672Y106335D01*
X56752D01*
X56761Y106336D01*
X64164D01*
X64170Y106332D01*
X64240Y106318D01*
X64310Y106332D01*
X64316Y106336D01*
X64440D01*
X64510Y106350D01*
X64549Y106376D01*
X75040D01*
X75110Y106390D01*
X75170Y106430D01*
X85326Y116586D01*
X87498D01*
X87524Y116584D01*
X87555Y116578D01*
X87584Y116570D01*
X87613Y116559D01*
X87640Y116546D01*
X87667Y116531D01*
X87693Y116514D01*
X87713Y116498D01*
X87820Y116390D01*
X87880Y116350D01*
X87950Y116336D01*
X88150D01*
X88220Y116350D01*
X88280Y116390D01*
X88320Y116450D01*
X88334Y116520D01*
X88320Y116590D01*
X88280Y116650D01*
X88220Y116690D01*
X88190Y116696D01*
X88150Y116751D01*
X88154Y116770D01*
X88140Y116840D01*
X88100Y116900D01*
X88040Y116940D01*
X87970Y116954D01*
D02*
G37*
G36*
X60180Y113592D02*
X60110Y113578D01*
X60051Y113539D01*
X60012Y113480D01*
X59998Y113410D01*
X60012Y113340D01*
X60051Y113281D01*
X60110Y113242D01*
X60180Y113228D01*
X60250Y113242D01*
X60309Y113281D01*
X60348Y113340D01*
X60362Y113410D01*
X60348Y113480D01*
X60309Y113539D01*
X60250Y113578D01*
X60180Y113592D01*
D02*
G37*
G36*
X88456Y110275D02*
X88332Y110259D01*
X88217Y110211D01*
X88118Y110135D01*
X88042Y110036D01*
X87995Y109921D01*
X87989Y109880D01*
X87939D01*
X87933Y109921D01*
X87886Y110036D01*
X87810Y110135D01*
X87711Y110211D01*
X87595Y110259D01*
X87472Y110275D01*
X87348Y110259D01*
X87233Y110211D01*
X87134Y110135D01*
X87058Y110036D01*
X87010Y109921D01*
X86994Y109797D01*
X87010Y109673D01*
X87058Y109558D01*
X87134Y109459D01*
X87233Y109383D01*
X87348Y109335D01*
X87472Y109319D01*
X87595Y109335D01*
X87711Y109383D01*
X87810Y109459D01*
X87886Y109558D01*
X87933Y109673D01*
X87939Y109714D01*
X87989D01*
X87995Y109673D01*
X88042Y109558D01*
X88118Y109459D01*
X88217Y109383D01*
X88332Y109335D01*
X88456Y109319D01*
X88580Y109335D01*
X88695Y109383D01*
X88794Y109459D01*
X88870Y109558D01*
X88918Y109673D01*
X88934Y109797D01*
X88918Y109921D01*
X88870Y110036D01*
X88794Y110135D01*
X88695Y110211D01*
X88580Y110259D01*
X88456Y110275D01*
D02*
G37*
G36*
X25464D02*
X25340Y110259D01*
X25225Y110211D01*
X25126Y110135D01*
X25050Y110036D01*
X25002Y109921D01*
X24997Y109880D01*
X24947D01*
X24941Y109921D01*
X24893Y110036D01*
X24818Y110135D01*
X24719Y110211D01*
X24603Y110259D01*
X24480Y110275D01*
X24356Y110259D01*
X24241Y110211D01*
X24142Y110135D01*
X24066Y110036D01*
X24018Y109921D01*
X24002Y109797D01*
X24018Y109673D01*
X24066Y109558D01*
X24142Y109459D01*
X24241Y109383D01*
X24356Y109335D01*
X24480Y109319D01*
X24603Y109335D01*
X24719Y109383D01*
X24818Y109459D01*
X24893Y109558D01*
X24941Y109673D01*
X24947Y109714D01*
X24997D01*
X25002Y109673D01*
X25050Y109558D01*
X25126Y109459D01*
X25225Y109383D01*
X25340Y109335D01*
X25464Y109319D01*
X25588Y109335D01*
X25703Y109383D01*
X25802Y109459D01*
X25878Y109558D01*
X25925Y109673D01*
X25942Y109797D01*
X25925Y109921D01*
X25878Y110036D01*
X25802Y110135D01*
X25703Y110211D01*
X25588Y110259D01*
X25464Y110275D01*
D02*
G37*
G36*
X91506Y109194D02*
X91382Y109182D01*
X91263Y109146D01*
X91154Y109087D01*
X91058Y109008D01*
X90979Y108912D01*
X90920Y108803D01*
X90884Y108684D01*
X90872Y108560D01*
X90884Y108436D01*
X90920Y108317D01*
X90979Y108208D01*
X91058Y108112D01*
X91154Y108033D01*
X91263Y107974D01*
X91382Y107938D01*
X91506Y107926D01*
X91630Y107938D01*
X91749Y107974D01*
X91858Y108033D01*
X91955Y108112D01*
X92033Y108208D01*
X92092Y108317D01*
X92128Y108436D01*
X92140Y108560D01*
X92128Y108684D01*
X92092Y108803D01*
X92033Y108912D01*
X91955Y109008D01*
X91858Y109087D01*
X91749Y109146D01*
X91630Y109182D01*
X91506Y109194D01*
D02*
G37*
G36*
X85404D02*
X85280Y109182D01*
X85161Y109146D01*
X85051Y109087D01*
X84955Y109008D01*
X84876Y108912D01*
X84818Y108803D01*
X84782Y108684D01*
X84769Y108560D01*
X84782Y108436D01*
X84818Y108317D01*
X84876Y108208D01*
X84955Y108112D01*
X85051Y108033D01*
X85161Y107974D01*
X85280Y107938D01*
X85404Y107926D01*
X85527Y107938D01*
X85646Y107974D01*
X85756Y108033D01*
X85852Y108112D01*
X85931Y108208D01*
X85990Y108317D01*
X86026Y108436D01*
X86038Y108560D01*
X86026Y108684D01*
X85990Y108803D01*
X85931Y108912D01*
X85852Y109008D01*
X85756Y109087D01*
X85646Y109146D01*
X85527Y109182D01*
X85404Y109194D01*
D02*
G37*
G36*
X28514D02*
X28390Y109182D01*
X28271Y109146D01*
X28162Y109087D01*
X28065Y109008D01*
X27987Y108912D01*
X27928Y108803D01*
X27892Y108684D01*
X27880Y108560D01*
X27892Y108436D01*
X27928Y108317D01*
X27987Y108208D01*
X28065Y108112D01*
X28162Y108033D01*
X28271Y107974D01*
X28390Y107938D01*
X28514Y107926D01*
X28638Y107938D01*
X28757Y107974D01*
X28866Y108033D01*
X28962Y108112D01*
X29041Y108208D01*
X29100Y108317D01*
X29136Y108436D01*
X29148Y108560D01*
X29136Y108684D01*
X29100Y108803D01*
X29041Y108912D01*
X28962Y109008D01*
X28866Y109087D01*
X28757Y109146D01*
X28638Y109182D01*
X28514Y109194D01*
D02*
G37*
G36*
X22412D02*
X22288Y109182D01*
X22169Y109146D01*
X22059Y109087D01*
X21963Y109008D01*
X21884Y108912D01*
X21826Y108803D01*
X21790Y108684D01*
X21777Y108560D01*
X21790Y108436D01*
X21826Y108317D01*
X21884Y108208D01*
X21963Y108112D01*
X22059Y108033D01*
X22169Y107974D01*
X22288Y107938D01*
X22412Y107926D01*
X22535Y107938D01*
X22654Y107974D01*
X22764Y108033D01*
X22860Y108112D01*
X22939Y108208D01*
X22998Y108317D01*
X23034Y108436D01*
X23046Y108560D01*
X23034Y108684D01*
X22998Y108803D01*
X22939Y108912D01*
X22860Y109008D01*
X22764Y109087D01*
X22654Y109146D01*
X22535Y109182D01*
X22412Y109194D01*
D02*
G37*
G36*
X92393Y107322D02*
X92269Y107306D01*
X92154Y107258D01*
X92055Y107182D01*
X91979Y107083D01*
X91932Y106968D01*
X91915Y106844D01*
X91932Y106721D01*
X91979Y106605D01*
X92055Y106506D01*
X92154Y106430D01*
X92269Y106383D01*
X92310Y106377D01*
Y106327D01*
X92269Y106322D01*
X92154Y106274D01*
X92055Y106198D01*
X91979Y106099D01*
X91932Y105984D01*
X91915Y105860D01*
X91932Y105736D01*
X91979Y105621D01*
X92055Y105522D01*
X92154Y105446D01*
X92269Y105398D01*
X92393Y105382D01*
X92517Y105398D01*
X92632Y105446D01*
X92731Y105522D01*
X92807Y105621D01*
X92855Y105736D01*
X92871Y105860D01*
X92855Y105984D01*
X92807Y106099D01*
X92731Y106198D01*
X92632Y106274D01*
X92517Y106322D01*
X92476Y106327D01*
Y106377D01*
X92517Y106383D01*
X92632Y106430D01*
X92731Y106506D01*
X92807Y106605D01*
X92855Y106721D01*
X92871Y106844D01*
X92855Y106968D01*
X92807Y107083D01*
X92731Y107182D01*
X92632Y107258D01*
X92517Y107306D01*
X92393Y107322D01*
D02*
G37*
G36*
X29401D02*
X29277Y107306D01*
X29162Y107258D01*
X29063Y107182D01*
X28987Y107083D01*
X28939Y106968D01*
X28923Y106844D01*
X28939Y106721D01*
X28987Y106605D01*
X29063Y106506D01*
X29162Y106430D01*
X29277Y106383D01*
X29318Y106377D01*
Y106327D01*
X29277Y106322D01*
X29162Y106274D01*
X29063Y106198D01*
X28987Y106099D01*
X28939Y105984D01*
X28923Y105860D01*
X28939Y105736D01*
X28987Y105621D01*
X29063Y105522D01*
X29162Y105446D01*
X29277Y105398D01*
X29401Y105382D01*
X29525Y105398D01*
X29640Y105446D01*
X29739Y105522D01*
X29815Y105621D01*
X29862Y105736D01*
X29879Y105860D01*
X29862Y105984D01*
X29815Y106099D01*
X29739Y106198D01*
X29640Y106274D01*
X29525Y106322D01*
X29484Y106327D01*
Y106377D01*
X29525Y106383D01*
X29640Y106430D01*
X29739Y106506D01*
X29815Y106605D01*
X29862Y106721D01*
X29879Y106844D01*
X29862Y106968D01*
X29815Y107083D01*
X29739Y107182D01*
X29640Y107258D01*
X29525Y107306D01*
X29401Y107322D01*
D02*
G37*
G36*
X89745Y103298D02*
X89621Y103282D01*
X89506Y103234D01*
X89407Y103158D01*
X89394Y103140D01*
X89359Y103104D01*
X89284Y103034D01*
X89251Y103008D01*
X89220Y102986D01*
X89193Y102968D01*
X89168Y102956D01*
X89147Y102948D01*
X89130Y102944D01*
X89125Y102943D01*
X87784D01*
X87779Y102944D01*
X87762Y102948D01*
X87741Y102956D01*
X87716Y102968D01*
X87687Y102985D01*
X87656Y103006D01*
X87540Y103102D01*
X87513Y103127D01*
X87504Y103139D01*
X87405Y103215D01*
X87290Y103263D01*
X87166Y103279D01*
X87042Y103263D01*
X86927Y103215D01*
X86828Y103139D01*
X86752Y103041D01*
X86705Y102925D01*
X86688Y102802D01*
X86705Y102678D01*
X86752Y102563D01*
X86828Y102464D01*
X86927Y102388D01*
X87042Y102340D01*
X87166Y102324D01*
X87290Y102340D01*
X87405Y102388D01*
X87504Y102464D01*
X87517Y102481D01*
X87553Y102518D01*
X87627Y102587D01*
X87660Y102614D01*
X87691Y102636D01*
X87719Y102653D01*
X87743Y102666D01*
X87764Y102674D01*
X87781Y102678D01*
X87786Y102678D01*
X89127D01*
X89132Y102678D01*
X89149Y102674D01*
X89170Y102666D01*
X89196Y102653D01*
X89225Y102636D01*
X89255Y102615D01*
X89372Y102519D01*
X89398Y102494D01*
X89407Y102482D01*
X89506Y102406D01*
X89621Y102358D01*
X89745Y102342D01*
X89869Y102358D01*
X89984Y102406D01*
X90083Y102482D01*
X90159Y102581D01*
X90207Y102696D01*
X90223Y102820D01*
X90207Y102944D01*
X90159Y103059D01*
X90083Y103158D01*
X89984Y103234D01*
X89869Y103282D01*
X89745Y103298D01*
D02*
G37*
G36*
X26753D02*
X26629Y103282D01*
X26514Y103234D01*
X26415Y103158D01*
X26402Y103140D01*
X26367Y103104D01*
X26292Y103034D01*
X26259Y103008D01*
X26228Y102986D01*
X26201Y102968D01*
X26176Y102956D01*
X26155Y102948D01*
X26138Y102944D01*
X26133Y102943D01*
X24792D01*
X24787Y102944D01*
X24770Y102948D01*
X24749Y102956D01*
X24723Y102968D01*
X24694Y102985D01*
X24664Y103006D01*
X24547Y103102D01*
X24521Y103127D01*
X24512Y103139D01*
X24413Y103215D01*
X24298Y103263D01*
X24174Y103279D01*
X24050Y103263D01*
X23935Y103215D01*
X23836Y103139D01*
X23760Y103041D01*
X23712Y102925D01*
X23696Y102802D01*
X23712Y102678D01*
X23760Y102563D01*
X23836Y102464D01*
X23935Y102388D01*
X24050Y102340D01*
X24174Y102324D01*
X24298Y102340D01*
X24413Y102388D01*
X24512Y102464D01*
X24525Y102481D01*
X24560Y102518D01*
X24635Y102587D01*
X24668Y102614D01*
X24699Y102636D01*
X24726Y102653D01*
X24751Y102666D01*
X24772Y102674D01*
X24789Y102678D01*
X24794Y102678D01*
X26135D01*
X26140Y102678D01*
X26157Y102674D01*
X26178Y102666D01*
X26203Y102653D01*
X26233Y102636D01*
X26263Y102615D01*
X26380Y102519D01*
X26406Y102494D01*
X26415Y102482D01*
X26514Y102406D01*
X26629Y102358D01*
X26753Y102342D01*
X26877Y102358D01*
X26992Y102406D01*
X27091Y102482D01*
X27167Y102581D01*
X27215Y102696D01*
X27231Y102820D01*
X27215Y102944D01*
X27167Y103059D01*
X27091Y103158D01*
X26992Y103234D01*
X26877Y103282D01*
X26753Y103298D01*
D02*
G37*
G36*
X91506Y103844D02*
X91382Y103832D01*
X91263Y103796D01*
X91154Y103737D01*
X91058Y103658D01*
X90979Y103562D01*
X90920Y103453D01*
X90884Y103334D01*
X90872Y103210D01*
X90884Y103086D01*
X90920Y102967D01*
X90979Y102858D01*
X91058Y102762D01*
X91154Y102683D01*
X91263Y102624D01*
X91382Y102588D01*
X91506Y102576D01*
X91630Y102588D01*
X91749Y102624D01*
X91858Y102683D01*
X91955Y102762D01*
X92033Y102858D01*
X92092Y102967D01*
X92128Y103086D01*
X92140Y103210D01*
X92128Y103334D01*
X92092Y103453D01*
X92033Y103562D01*
X91955Y103658D01*
X91858Y103737D01*
X91749Y103796D01*
X91630Y103832D01*
X91506Y103844D01*
D02*
G37*
G36*
X85404D02*
X85280Y103832D01*
X85161Y103796D01*
X85051Y103737D01*
X84955Y103658D01*
X84876Y103562D01*
X84818Y103453D01*
X84782Y103334D01*
X84769Y103210D01*
X84782Y103086D01*
X84818Y102967D01*
X84876Y102858D01*
X84955Y102762D01*
X85051Y102683D01*
X85161Y102624D01*
X85280Y102588D01*
X85404Y102576D01*
X85527Y102588D01*
X85646Y102624D01*
X85756Y102683D01*
X85852Y102762D01*
X85931Y102858D01*
X85990Y102967D01*
X86026Y103086D01*
X86038Y103210D01*
X86026Y103334D01*
X85990Y103453D01*
X85931Y103562D01*
X85852Y103658D01*
X85756Y103737D01*
X85646Y103796D01*
X85527Y103832D01*
X85404Y103844D01*
D02*
G37*
G36*
X28514D02*
X28390Y103832D01*
X28271Y103796D01*
X28162Y103737D01*
X28065Y103658D01*
X27987Y103562D01*
X27928Y103453D01*
X27892Y103334D01*
X27880Y103210D01*
X27892Y103086D01*
X27928Y102967D01*
X27987Y102858D01*
X28065Y102762D01*
X28162Y102683D01*
X28271Y102624D01*
X28390Y102588D01*
X28514Y102576D01*
X28638Y102588D01*
X28757Y102624D01*
X28866Y102683D01*
X28962Y102762D01*
X29041Y102858D01*
X29100Y102967D01*
X29136Y103086D01*
X29148Y103210D01*
X29136Y103334D01*
X29100Y103453D01*
X29041Y103562D01*
X28962Y103658D01*
X28866Y103737D01*
X28757Y103796D01*
X28638Y103832D01*
X28514Y103844D01*
D02*
G37*
G36*
X22412D02*
X22288Y103832D01*
X22169Y103796D01*
X22059Y103737D01*
X21963Y103658D01*
X21884Y103562D01*
X21826Y103453D01*
X21790Y103334D01*
X21777Y103210D01*
X21790Y103086D01*
X21826Y102967D01*
X21884Y102858D01*
X21963Y102762D01*
X22059Y102683D01*
X22169Y102624D01*
X22288Y102588D01*
X22412Y102576D01*
X22535Y102588D01*
X22654Y102624D01*
X22764Y102683D01*
X22860Y102762D01*
X22939Y102858D01*
X22998Y102967D01*
X23034Y103086D01*
X23046Y103210D01*
X23034Y103334D01*
X22998Y103453D01*
X22939Y103562D01*
X22860Y103658D01*
X22764Y103737D01*
X22654Y103796D01*
X22535Y103832D01*
X22412Y103844D01*
D02*
G37*
G36*
X38780Y124812D02*
X38710Y124798D01*
X38651Y124759D01*
X38612Y124700D01*
X38598Y124630D01*
X38599Y124623D01*
X38598Y124621D01*
X38587Y124570D01*
X38587Y100328D01*
X38598Y100278D01*
X38626Y100235D01*
X43500Y95361D01*
X43498Y95356D01*
X43483Y95308D01*
X43473Y95285D01*
X43426Y95194D01*
X43410Y95165D01*
X43401Y95154D01*
X43362Y95061D01*
X43349Y94962D01*
X43362Y94863D01*
X43401Y94771D01*
X43462Y94691D01*
X43541Y94630D01*
X43633Y94592D01*
X43733Y94579D01*
X43832Y94592D01*
X43924Y94630D01*
X44004Y94691D01*
X44065Y94771D01*
X44103Y94863D01*
X44112Y94933D01*
X44165Y94951D01*
X44235Y94880D01*
X44278Y94852D01*
X44329Y94842D01*
X51245D01*
X51275Y94771D01*
X51336Y94691D01*
X51415Y94630D01*
X51507Y94592D01*
X51607Y94579D01*
X51706Y94592D01*
X51798Y94630D01*
X51878Y94691D01*
X51939Y94771D01*
X51977Y94863D01*
X51990Y94962D01*
X51977Y95061D01*
X51939Y95154D01*
X51914Y95186D01*
X51936Y95230D01*
X59025Y95230D01*
X59058Y95198D01*
X59064Y95187D01*
X59071Y95173D01*
X59078Y95155D01*
X59085Y95133D01*
X59090Y95106D01*
X59094Y95078D01*
X59099Y95005D01*
X59099Y94975D01*
X59097Y94962D01*
X59110Y94863D01*
X59149Y94771D01*
X59210Y94691D01*
X59289Y94630D01*
X59381Y94592D01*
X59481Y94579D01*
X59580Y94592D01*
X59672Y94630D01*
X59752Y94691D01*
X59813Y94771D01*
X59851Y94863D01*
X59864Y94962D01*
X59851Y95061D01*
X59813Y95154D01*
X59752Y95233D01*
X59672Y95294D01*
X59580Y95332D01*
X59481Y95345D01*
X59468Y95344D01*
X59437Y95344D01*
X59365Y95349D01*
X59336Y95353D01*
X59310Y95358D01*
X59288Y95365D01*
X59273Y95370D01*
X59242Y95397D01*
X59261Y95443D01*
X66687Y95443D01*
X66932Y95198D01*
X66938Y95187D01*
X66946Y95173D01*
X66952Y95155D01*
X66959Y95133D01*
X66964Y95106D01*
X66968Y95078D01*
X66973Y95005D01*
X66973Y94975D01*
X66971Y94962D01*
X66985Y94863D01*
X67023Y94771D01*
X67084Y94691D01*
X67163Y94630D01*
X67256Y94592D01*
X67355Y94579D01*
X67454Y94592D01*
X67546Y94630D01*
X67626Y94691D01*
X67687Y94771D01*
X67725Y94863D01*
X67738Y94962D01*
X67725Y95061D01*
X67687Y95154D01*
X67626Y95233D01*
X67546Y95294D01*
X67454Y95332D01*
X67355Y95345D01*
X67342Y95344D01*
X67311Y95344D01*
X67239Y95349D01*
X67210Y95353D01*
X67184Y95358D01*
X67162Y95365D01*
X67144Y95371D01*
X67130Y95378D01*
X67119Y95385D01*
X66835Y95669D01*
X66792Y95698D01*
X66741Y95708D01*
X51917Y95708D01*
X51894Y95713D01*
X51270D01*
X51219Y95702D01*
X51176Y95674D01*
X51008Y95505D01*
X44556Y95505D01*
X39436Y100625D01*
X39436Y123717D01*
X39460Y123722D01*
X39519Y123761D01*
X39558Y123820D01*
X39572Y123890D01*
X39558Y123960D01*
X39519Y124019D01*
X39460Y124058D01*
X39390Y124072D01*
X39390Y124101D01*
X39392Y124110D01*
X39378Y124180D01*
X39339Y124239D01*
X39280Y124278D01*
X39210Y124292D01*
X39205Y124291D01*
X39169Y124326D01*
X39172Y124340D01*
X39158Y124410D01*
X39119Y124469D01*
X39060Y124508D01*
X38990Y124522D01*
X38981Y124520D01*
X38960Y124546D01*
X38949Y124565D01*
X38962Y124630D01*
X38948Y124700D01*
X38909Y124759D01*
X38850Y124798D01*
X38780Y124812D01*
D02*
G37*
%LPD*%
G36*
X56487Y128655D02*
X56445Y128654D01*
X56369Y128649D01*
X56335Y128644D01*
X56304Y128638D01*
X56276Y128630D01*
X56251Y128621D01*
X56229Y128610D01*
X56210Y128598D01*
X56194Y128584D01*
X56124Y128654D01*
X56138Y128670D01*
X56150Y128689D01*
X56161Y128711D01*
X56170Y128736D01*
X56178Y128764D01*
X56184Y128795D01*
X56189Y128829D01*
X56194Y128905D01*
X56195Y128947D01*
X56487Y128655D01*
D02*
G37*
G36*
X56144Y127643D02*
X56165Y127624D01*
X56172Y127620D01*
X56183Y127612D01*
X56188Y127610D01*
X56193Y127608D01*
X56198Y127607D01*
X56084Y127529D01*
X56084Y127535D01*
X56084Y127541D01*
X56083Y127547D01*
X56081Y127553D01*
X56078Y127559D01*
X56074Y127566D01*
X56069Y127573D01*
X56064Y127580D01*
X56057Y127588D01*
X56050Y127595D01*
X56137Y127650D01*
X56144Y127643D01*
D02*
G37*
G36*
X58487Y127655D02*
X58445Y127654D01*
X58369Y127649D01*
X58335Y127644D01*
X58304Y127638D01*
X58276Y127630D01*
X58251Y127621D01*
X58229Y127610D01*
X58210Y127598D01*
X58194Y127584D01*
X58124Y127654D01*
X58138Y127670D01*
X58150Y127689D01*
X58161Y127711D01*
X58170Y127736D01*
X58178Y127764D01*
X58184Y127795D01*
X58189Y127829D01*
X58194Y127905D01*
X58195Y127947D01*
X58487Y127655D01*
D02*
G37*
G36*
X55794Y127095D02*
X55799Y127092D01*
X55805Y127089D01*
X55811Y127087D01*
X55818Y127085D01*
X55826Y127083D01*
X55834Y127082D01*
X55843Y127081D01*
X55864Y127080D01*
Y126980D01*
X55853Y126980D01*
X55834Y126978D01*
X55826Y126977D01*
X55818Y126975D01*
X55811Y126973D01*
X55805Y126971D01*
X55799Y126968D01*
X55794Y126965D01*
X55790Y126961D01*
Y127099D01*
X55794Y127095D01*
D02*
G37*
G36*
X68990Y128694D02*
X68987Y128690D01*
X68984Y128684D01*
X68982Y128678D01*
X68980Y128671D01*
X68978Y128663D01*
X68976Y128655D01*
X68976Y128646D01*
X68975Y128625D01*
X68875D01*
X68875Y128636D01*
X68873Y128655D01*
X68872Y128663D01*
X68870Y128671D01*
X68868Y128678D01*
X68866Y128684D01*
X68863Y128690D01*
X68859Y128694D01*
X68856Y128699D01*
X68994D01*
X68990Y128694D01*
D02*
G37*
G36*
X55487Y128655D02*
X55458Y128654D01*
X55429Y128651D01*
X55402Y128647D01*
X55376Y128640D01*
X55350Y128631D01*
X55326Y128620D01*
X55303Y128608D01*
X55280Y128593D01*
X55259Y128576D01*
X55239Y128558D01*
X55098Y128699D01*
X55116Y128719D01*
X55133Y128740D01*
X55148Y128763D01*
X55160Y128786D01*
X55171Y128810D01*
X55180Y128836D01*
X55187Y128862D01*
X55191Y128889D01*
X55194Y128918D01*
X55195Y128947D01*
X55487Y128655D01*
D02*
G37*
G36*
X72254Y128568D02*
X72254Y128568D01*
X72262Y128570D01*
X72269Y128572D01*
X72275Y128574D01*
X72281Y128577D01*
X72286Y128580D01*
X72290Y128584D01*
Y128446D01*
X72286Y128450D01*
X72281Y128453D01*
X72275Y128456D01*
X72269Y128458D01*
X72262Y128460D01*
X72254Y128462D01*
X72254Y128462D01*
Y128409D01*
X72241Y128420D01*
X72223Y128429D01*
X72200Y128437D01*
X72173Y128445D01*
X72142Y128451D01*
X72106Y128456D01*
X72021Y128463D01*
X71919Y128465D01*
Y128565D01*
X71972Y128566D01*
X72142Y128579D01*
X72173Y128585D01*
X72200Y128593D01*
X72223Y128601D01*
X72241Y128610D01*
X72254Y128621D01*
Y128568D01*
D02*
G37*
G36*
X68885Y127897D02*
X68878Y127890D01*
X68866Y127875D01*
X68862Y127869D01*
X68858Y127862D01*
X68856Y127856D01*
X68855Y127850D01*
X68855Y127845D01*
X68855Y127840D01*
X68857Y127835D01*
X68729Y127879D01*
X68764Y127918D01*
X68885Y127897D01*
D02*
G37*
G36*
X46282Y128126D02*
X46288Y128118D01*
X46314Y128091D01*
X46351Y128053D01*
X46425Y128127D01*
X46426Y128098D01*
X46429Y128069D01*
X46433Y128042D01*
X46440Y128016D01*
X46449Y127990D01*
X46460Y127966D01*
X46472Y127943D01*
X46487Y127920D01*
X46504Y127899D01*
X46522Y127879D01*
X46381Y127738D01*
X46361Y127756D01*
X46340Y127773D01*
X46317Y127788D01*
X46294Y127800D01*
X46270Y127811D01*
X46244Y127820D01*
X46218Y127827D01*
X46191Y127831D01*
X46162Y127834D01*
X46133Y127835D01*
X46206Y127907D01*
X46130Y127980D01*
X46280Y128130D01*
X46282Y128126D01*
D02*
G37*
G36*
X46127Y127835D02*
X46111Y127834D01*
X46094Y127830D01*
X46076Y127825D01*
X46058Y127817D01*
X46038Y127806D01*
X46018Y127793D01*
X45998Y127778D01*
X45976Y127761D01*
X45931Y127719D01*
X45719Y127931D01*
X45741Y127954D01*
X45778Y127998D01*
X45793Y128018D01*
X45806Y128038D01*
X45817Y128058D01*
X45825Y128076D01*
X45830Y128094D01*
X45834Y128111D01*
X45835Y128127D01*
X46127Y127835D01*
D02*
G37*
G36*
X69097Y127646D02*
X69090Y127639D01*
X69077Y127624D01*
X69072Y127617D01*
X69068Y127611D01*
X69064Y127604D01*
X69062Y127598D01*
X69060Y127592D01*
X69059Y127586D01*
X69058Y127581D01*
X68961Y127678D01*
X68966Y127679D01*
X68972Y127680D01*
X68978Y127682D01*
X68984Y127684D01*
X68991Y127688D01*
X68997Y127692D01*
X69004Y127697D01*
X69011Y127703D01*
X69026Y127717D01*
X69097Y127646D01*
D02*
G37*
G36*
X54719Y126544D02*
X54506D01*
X54508Y126549D01*
X54509Y126559D01*
X54510Y126596D01*
X54513Y126850D01*
X54713D01*
X54719Y126544D01*
D02*
G37*
G36*
X53367Y126341D02*
X53376Y126337D01*
X53389Y126334D01*
X53405Y126332D01*
X53448Y126328D01*
X53539Y126324D01*
X53577Y126324D01*
Y126224D01*
X53539Y126224D01*
X53389Y126214D01*
X53376Y126211D01*
X53367Y126207D01*
X53361Y126203D01*
Y126206D01*
X53360Y126205D01*
Y126343D01*
X53361Y126343D01*
Y126345D01*
X53367Y126341D01*
D02*
G37*
G36*
X61095Y125996D02*
X61092Y125991D01*
X61089Y125985D01*
X61087Y125979D01*
X61085Y125972D01*
X61083Y125964D01*
X61082Y125956D01*
X61081Y125947D01*
X61080Y125926D01*
X60980D01*
X60980Y125937D01*
X60978Y125956D01*
X60977Y125964D01*
X60975Y125972D01*
X60973Y125979D01*
X60971Y125985D01*
X60968Y125991D01*
X60965Y125996D01*
X60961Y126000D01*
X61099D01*
X61095Y125996D01*
D02*
G37*
G36*
X57006Y125890D02*
X56986Y125870D01*
X56918Y125792D01*
X56910Y125780D01*
X56904Y125770D01*
X56900Y125761D01*
X56899Y125754D01*
X56729Y125924D01*
X56736Y125926D01*
X56745Y125929D01*
X56755Y125935D01*
X56766Y125943D01*
X56794Y125965D01*
X56826Y125994D01*
X56865Y126031D01*
X57006Y125890D01*
D02*
G37*
G36*
X61081Y125901D02*
X61084Y125884D01*
X61089Y125869D01*
X61096Y125856D01*
X61105Y125845D01*
X61116Y125836D01*
X61129Y125829D01*
X61144Y125824D01*
X61161Y125821D01*
X61180Y125820D01*
Y125720D01*
X61161Y125719D01*
X61144Y125716D01*
X61129Y125711D01*
X61116Y125704D01*
X61105Y125695D01*
X61096Y125684D01*
X61089Y125671D01*
X61084Y125656D01*
X61081Y125639D01*
X61080Y125620D01*
X60980D01*
X60979Y125639D01*
X60976Y125656D01*
X60971Y125671D01*
X60964Y125684D01*
X60955Y125695D01*
X60944Y125704D01*
X60931Y125711D01*
X60916Y125716D01*
X60899Y125719D01*
X60880Y125720D01*
Y125820D01*
X60899Y125821D01*
X60916Y125824D01*
X60931Y125829D01*
X60944Y125836D01*
X60955Y125845D01*
X60964Y125856D01*
X60971Y125869D01*
X60976Y125884D01*
X60979Y125901D01*
X60980Y125920D01*
X61080D01*
X61081Y125901D01*
D02*
G37*
G36*
X54566Y125515D02*
X54581Y125502D01*
X54588Y125498D01*
X54595Y125494D01*
X54601Y125491D01*
X54608Y125489D01*
X54614Y125487D01*
X54619Y125487D01*
X54625Y125487D01*
X54542Y125377D01*
X54541Y125382D01*
X54540Y125387D01*
X54537Y125392D01*
X54534Y125398D01*
X54530Y125404D01*
X54526Y125410D01*
X54514Y125424D01*
X54508Y125431D01*
X54500Y125439D01*
X54559Y125522D01*
X54566Y125515D01*
D02*
G37*
G36*
X61619Y125464D02*
X61620Y125458D01*
X61622Y125452D01*
X61624Y125446D01*
X61628Y125439D01*
X61632Y125433D01*
X61637Y125426D01*
X61643Y125419D01*
X61657Y125404D01*
X61586Y125333D01*
X61579Y125340D01*
X61564Y125353D01*
X61557Y125358D01*
X61551Y125362D01*
X61544Y125366D01*
X61538Y125368D01*
X61532Y125370D01*
X61526Y125371D01*
X61521Y125372D01*
X61618Y125469D01*
X61619Y125464D01*
D02*
G37*
G36*
X55959Y125252D02*
X55954Y125251D01*
X55948Y125250D01*
X55942Y125248D01*
X55936Y125246D01*
X55929Y125242D01*
X55923Y125238D01*
X55916Y125233D01*
X55909Y125227D01*
X55894Y125213D01*
X55823Y125284D01*
X55830Y125291D01*
X55843Y125306D01*
X55848Y125313D01*
X55852Y125319D01*
X55856Y125326D01*
X55858Y125332D01*
X55860Y125338D01*
X55861Y125344D01*
X55862Y125349D01*
X55959Y125252D01*
D02*
G37*
G36*
X53614Y125295D02*
X53619Y125292D01*
X53625Y125289D01*
X53631Y125287D01*
X53638Y125285D01*
X53646Y125283D01*
X53654Y125282D01*
X53663Y125281D01*
X53684Y125280D01*
Y125180D01*
X53673Y125180D01*
X53654Y125178D01*
X53646Y125177D01*
X53638Y125175D01*
X53631Y125173D01*
X53625Y125171D01*
X53619Y125168D01*
X53614Y125165D01*
X53610Y125161D01*
Y125299D01*
X53614Y125295D01*
D02*
G37*
G36*
X58486Y125084D02*
X58479Y125076D01*
X58460Y125055D01*
X58456Y125049D01*
X58448Y125037D01*
X58446Y125032D01*
X58444Y125027D01*
X58443Y125023D01*
X58365Y125137D01*
X58371Y125136D01*
X58377Y125137D01*
X58383Y125138D01*
X58389Y125140D01*
X58395Y125143D01*
X58402Y125146D01*
X58409Y125151D01*
X58416Y125157D01*
X58424Y125163D01*
X58431Y125170D01*
X58486Y125084D01*
D02*
G37*
G36*
X59970Y125061D02*
X59967Y125063D01*
X59964Y125064D01*
X59960Y125064D01*
X59955Y125063D01*
X59950Y125060D01*
X59945Y125057D01*
X59938Y125053D01*
X59932Y125047D01*
X59917Y125033D01*
X59864Y125123D01*
X59960Y125188D01*
X59970Y125061D01*
D02*
G37*
G36*
X63868Y124831D02*
X63864Y124826D01*
X63861Y124820D01*
X63859Y124814D01*
X63857Y124807D01*
X63855Y124799D01*
X63854Y124791D01*
X63853Y124782D01*
X63852Y124761D01*
X63752D01*
X63752Y124772D01*
X63751Y124791D01*
X63749Y124799D01*
X63747Y124807D01*
X63745Y124814D01*
X63743Y124820D01*
X63740Y124826D01*
X63737Y124831D01*
X63733Y124835D01*
X63871D01*
X63868Y124831D01*
D02*
G37*
G36*
X58514Y124815D02*
X58507Y124807D01*
X58495Y124793D01*
X58490Y124786D01*
X58486Y124779D01*
X58483Y124773D01*
X58480Y124766D01*
X58479Y124760D01*
X58478Y124755D01*
X58478Y124749D01*
X58373Y124838D01*
X58378Y124839D01*
X58383Y124840D01*
X58389Y124843D01*
X58395Y124846D01*
X58401Y124849D01*
X58408Y124854D01*
X58415Y124859D01*
X58429Y124872D01*
X58437Y124879D01*
X58514Y124815D01*
D02*
G37*
G36*
X58753Y124792D02*
X58758Y124789D01*
X58763Y124786D01*
X58769Y124784D01*
X58776Y124782D01*
X58784Y124780D01*
X58793Y124779D01*
X58802Y124778D01*
X58822Y124777D01*
Y124677D01*
X58812Y124677D01*
X58793Y124675D01*
X58784Y124674D01*
X58776Y124672D01*
X58769Y124670D01*
X58763Y124668D01*
X58758Y124665D01*
X58753Y124662D01*
X58749Y124658D01*
Y124796D01*
X58753Y124792D01*
D02*
G37*
G36*
X72665Y124516D02*
X72662Y124511D01*
X72659Y124505D01*
X72657Y124499D01*
X72655Y124492D01*
X72653Y124484D01*
X72652Y124476D01*
X72651Y124467D01*
X72650Y124446D01*
X72550D01*
X72550Y124457D01*
X72548Y124476D01*
X72547Y124484D01*
X72545Y124492D01*
X72543Y124499D01*
X72541Y124505D01*
X72538Y124511D01*
X72535Y124516D01*
X72531Y124520D01*
X72669D01*
X72665Y124516D01*
D02*
G37*
G36*
X68260Y124217D02*
X68262Y124198D01*
X68263Y124190D01*
X68265Y124182D01*
X68267Y124175D01*
X68269Y124169D01*
X68272Y124163D01*
X68275Y124158D01*
X68279Y124154D01*
X68141D01*
X68145Y124158D01*
X68148Y124163D01*
X68151Y124169D01*
X68153Y124175D01*
X68155Y124182D01*
X68157Y124190D01*
X68158Y124198D01*
X68159Y124207D01*
X68160Y124228D01*
X68260D01*
X68260Y124217D01*
D02*
G37*
G36*
X54796Y124035D02*
X54699Y123971D01*
X54691Y124098D01*
X54694Y124096D01*
X54698Y124095D01*
X54701Y124095D01*
X54706Y124096D01*
X54711Y124098D01*
X54716Y124101D01*
X54723Y124106D01*
X54729Y124111D01*
X54744Y124125D01*
X54796Y124035D01*
D02*
G37*
G36*
X63202Y123971D02*
X63204Y123953D01*
X63206Y123944D01*
X63207Y123942D01*
X63207Y123942D01*
X63214Y123947D01*
X63221Y123953D01*
X63236Y123967D01*
X63307Y123896D01*
X63300Y123889D01*
X63287Y123874D01*
X63282Y123867D01*
X63278Y123861D01*
X63274Y123854D01*
X63272Y123848D01*
X63270Y123842D01*
X63269Y123836D01*
X63268Y123831D01*
X63194Y123906D01*
X63090Y123887D01*
X63092Y123891D01*
X63094Y123895D01*
X63096Y123901D01*
X63098Y123907D01*
X63099Y123914D01*
X63101Y123930D01*
X63102Y123940D01*
X63102Y123960D01*
X63202Y123982D01*
X63202Y123971D01*
D02*
G37*
G36*
X63659Y123722D02*
X63654Y123721D01*
X63648Y123720D01*
X63642Y123718D01*
X63636Y123716D01*
X63629Y123712D01*
X63623Y123708D01*
X63616Y123703D01*
X63609Y123697D01*
X63594Y123683D01*
X63523Y123754D01*
X63530Y123761D01*
X63543Y123776D01*
X63548Y123783D01*
X63552Y123789D01*
X63556Y123796D01*
X63558Y123802D01*
X63560Y123808D01*
X63561Y123814D01*
X63562Y123819D01*
X63659Y123722D01*
D02*
G37*
G36*
X56374Y123705D02*
X56379Y123702D01*
X56385Y123699D01*
X56391Y123697D01*
X56398Y123695D01*
X56406Y123693D01*
X56414Y123692D01*
X56423Y123691D01*
X56444Y123690D01*
Y123590D01*
X56433Y123590D01*
X56414Y123588D01*
X56406Y123587D01*
X56398Y123585D01*
X56391Y123583D01*
X56385Y123581D01*
X56379Y123578D01*
X56374Y123575D01*
X56370Y123571D01*
Y123709D01*
X56374Y123705D01*
D02*
G37*
G36*
X66070Y123421D02*
X66066Y123425D01*
X66061Y123428D01*
X66055Y123431D01*
X66049Y123433D01*
X66042Y123435D01*
X66034Y123437D01*
X66026Y123438D01*
X66017Y123439D01*
X65996Y123440D01*
Y123540D01*
X66007Y123540D01*
X66026Y123542D01*
X66034Y123543D01*
X66042Y123545D01*
X66049Y123547D01*
X66055Y123549D01*
X66061Y123552D01*
X66066Y123555D01*
X66070Y123559D01*
Y123421D01*
D02*
G37*
G36*
X57512Y123462D02*
X57507Y123461D01*
X57502Y123460D01*
X57497Y123457D01*
X57491Y123454D01*
X57485Y123450D01*
X57478Y123446D01*
X57464Y123434D01*
X57457Y123428D01*
X57449Y123420D01*
X57368Y123480D01*
X57375Y123487D01*
X57387Y123502D01*
X57392Y123509D01*
X57396Y123516D01*
X57399Y123522D01*
X57401Y123529D01*
X57402Y123535D01*
X57403Y123540D01*
X57403Y123546D01*
X57512Y123462D01*
D02*
G37*
G36*
X57105Y123326D02*
X57102Y123321D01*
X57099Y123315D01*
X57097Y123309D01*
X57095Y123302D01*
X57093Y123294D01*
X57092Y123286D01*
X57091Y123277D01*
X57090Y123256D01*
X56990D01*
X56990Y123267D01*
X56988Y123286D01*
X56987Y123294D01*
X56985Y123302D01*
X56983Y123309D01*
X56981Y123315D01*
X56978Y123321D01*
X56975Y123326D01*
X56971Y123330D01*
X57109D01*
X57105Y123326D01*
D02*
G37*
G36*
X62589Y123082D02*
X62584Y123081D01*
X62578Y123080D01*
X62572Y123078D01*
X62566Y123076D01*
X62559Y123072D01*
X62553Y123068D01*
X62546Y123063D01*
X62539Y123057D01*
X62524Y123043D01*
X62453Y123114D01*
X62460Y123121D01*
X62473Y123136D01*
X62478Y123143D01*
X62482Y123149D01*
X62486Y123156D01*
X62488Y123162D01*
X62490Y123168D01*
X62491Y123174D01*
X62492Y123179D01*
X62589Y123082D01*
D02*
G37*
G36*
X61470Y122953D02*
X61472Y122934D01*
X61473Y122926D01*
X61475Y122918D01*
X61477Y122911D01*
X61479Y122905D01*
X61482Y122899D01*
X61485Y122894D01*
X61489Y122890D01*
X61351D01*
X61355Y122894D01*
X61358Y122899D01*
X61361Y122905D01*
X61363Y122911D01*
X61365Y122918D01*
X61367Y122926D01*
X61368Y122934D01*
X61369Y122943D01*
X61370Y122964D01*
X61470D01*
X61470Y122953D01*
D02*
G37*
G36*
X68339Y123014D02*
X68340Y123008D01*
X68342Y123002D01*
X68344Y122996D01*
X68348Y122989D01*
X68352Y122983D01*
X68357Y122976D01*
X68363Y122969D01*
X68377Y122954D01*
X68306Y122883D01*
X68299Y122890D01*
X68284Y122903D01*
X68277Y122908D01*
X68271Y122912D01*
X68264Y122916D01*
X68258Y122918D01*
X68252Y122920D01*
X68246Y122921D01*
X68241Y122922D01*
X68338Y123019D01*
X68339Y123014D01*
D02*
G37*
G36*
X55730Y122841D02*
X55726Y122845D01*
X55721Y122848D01*
X55715Y122851D01*
X55709Y122853D01*
X55702Y122855D01*
X55694Y122857D01*
X55686Y122858D01*
X55677Y122859D01*
X55656Y122860D01*
Y122960D01*
X55667Y122960D01*
X55686Y122962D01*
X55694Y122963D01*
X55702Y122965D01*
X55709Y122967D01*
X55715Y122969D01*
X55721Y122972D01*
X55726Y122975D01*
X55730Y122979D01*
Y122841D01*
D02*
G37*
G36*
X64744Y122895D02*
X64749Y122892D01*
X64755Y122889D01*
X64761Y122887D01*
X64768Y122885D01*
X64776Y122883D01*
X64784Y122882D01*
X64793Y122881D01*
X64814Y122880D01*
Y122780D01*
X64803Y122780D01*
X64784Y122778D01*
X64776Y122777D01*
X64768Y122775D01*
X64761Y122773D01*
X64755Y122771D01*
X64749Y122768D01*
X64744Y122765D01*
X64740Y122761D01*
Y122899D01*
X64744Y122895D01*
D02*
G37*
G36*
X66290Y122701D02*
X66286Y122705D01*
X66281Y122708D01*
X66275Y122711D01*
X66269Y122713D01*
X66262Y122715D01*
X66254Y122717D01*
X66246Y122718D01*
X66237Y122719D01*
X66216Y122720D01*
Y122820D01*
X66227Y122820D01*
X66246Y122822D01*
X66254Y122823D01*
X66262Y122825D01*
X66269Y122827D01*
X66275Y122829D01*
X66281Y122832D01*
X66286Y122835D01*
X66290Y122839D01*
Y122701D01*
D02*
G37*
G36*
X62674Y122255D02*
X62679Y122252D01*
X62685Y122249D01*
X62691Y122247D01*
X62698Y122245D01*
X62706Y122243D01*
X62714Y122242D01*
X62723Y122241D01*
X62744Y122240D01*
Y122140D01*
X62733Y122140D01*
X62714Y122138D01*
X62706Y122137D01*
X62698Y122135D01*
X62691Y122133D01*
X62685Y122131D01*
X62679Y122128D01*
X62674Y122125D01*
X62670Y122121D01*
Y122259D01*
X62674Y122255D01*
D02*
G37*
G36*
X66430Y121961D02*
X66426Y121965D01*
X66421Y121968D01*
X66415Y121971D01*
X66409Y121973D01*
X66402Y121975D01*
X66394Y121977D01*
X66386Y121978D01*
X66377Y121979D01*
X66356Y121980D01*
Y122080D01*
X66367Y122080D01*
X66386Y122082D01*
X66394Y122083D01*
X66402Y122085D01*
X66409Y122087D01*
X66415Y122089D01*
X66421Y122092D01*
X66426Y122095D01*
X66430Y122099D01*
Y121961D01*
D02*
G37*
G36*
X69069Y121992D02*
X69064Y121991D01*
X69058Y121990D01*
X69052Y121988D01*
X69046Y121986D01*
X69039Y121982D01*
X69033Y121978D01*
X69026Y121973D01*
X69019Y121967D01*
X69004Y121953D01*
X68933Y122024D01*
X68940Y122031D01*
X68953Y122046D01*
X68958Y122053D01*
X68962Y122059D01*
X68966Y122066D01*
X68968Y122072D01*
X68970Y122078D01*
X68971Y122084D01*
X68972Y122089D01*
X69069Y121992D01*
D02*
G37*
G36*
X69030Y121261D02*
X69026Y121265D01*
X69021Y121268D01*
X69015Y121271D01*
X69009Y121273D01*
X69002Y121275D01*
X68994Y121277D01*
X68986Y121278D01*
X68977Y121279D01*
X68956Y121280D01*
Y121380D01*
X68967Y121380D01*
X68986Y121382D01*
X68994Y121383D01*
X69002Y121385D01*
X69009Y121387D01*
X69015Y121389D01*
X69021Y121392D01*
X69026Y121395D01*
X69030Y121399D01*
Y121261D01*
D02*
G37*
G36*
X64467Y120396D02*
X64459Y120388D01*
X64447Y120374D01*
X64443Y120367D01*
X64440Y120361D01*
X64438Y120356D01*
X64437Y120350D01*
X64437Y120346D01*
X64438Y120341D01*
X64440Y120337D01*
X64311Y120365D01*
X64383Y120454D01*
X64467Y120396D01*
D02*
G37*
G36*
X42754Y124696D02*
X42751Y124691D01*
X42748Y124685D01*
X42746Y124679D01*
X42744Y124672D01*
X42742Y124664D01*
X42741Y124656D01*
X42740Y124647D01*
X42739Y124626D01*
X42639D01*
X42639Y124637D01*
X42637Y124656D01*
X42636Y124664D01*
X42634Y124672D01*
X42632Y124679D01*
X42630Y124685D01*
X42627Y124691D01*
X42624Y124696D01*
X42620Y124700D01*
X42758D01*
X42754Y124696D01*
D02*
G37*
G36*
X49699Y124132D02*
X49694Y124131D01*
X49688Y124130D01*
X49682Y124128D01*
X49676Y124126D01*
X49669Y124122D01*
X49663Y124118D01*
X49656Y124113D01*
X49649Y124107D01*
X49634Y124093D01*
X49563Y124164D01*
X49570Y124171D01*
X49583Y124186D01*
X49588Y124193D01*
X49592Y124199D01*
X49596Y124206D01*
X49598Y124212D01*
X49600Y124218D01*
X49601Y124224D01*
X49602Y124229D01*
X49699Y124132D01*
D02*
G37*
G36*
X43819Y123884D02*
X43820Y123878D01*
X43822Y123872D01*
X43824Y123866D01*
X43828Y123859D01*
X43832Y123853D01*
X43837Y123846D01*
X43843Y123839D01*
X43857Y123824D01*
X43786Y123753D01*
X43779Y123760D01*
X43764Y123773D01*
X43757Y123778D01*
X43751Y123782D01*
X43744Y123786D01*
X43738Y123788D01*
X43732Y123790D01*
X43726Y123791D01*
X43721Y123792D01*
X43818Y123889D01*
X43819Y123884D01*
D02*
G37*
G36*
X47050Y123721D02*
X47046Y123725D01*
X47041Y123728D01*
X47035Y123731D01*
X47029Y123733D01*
X47022Y123735D01*
X47014Y123737D01*
X47006Y123738D01*
X46997Y123739D01*
X46976Y123740D01*
Y123840D01*
X46987Y123840D01*
X47006Y123842D01*
X47014Y123843D01*
X47022Y123845D01*
X47029Y123847D01*
X47035Y123849D01*
X47041Y123852D01*
X47046Y123855D01*
X47050Y123859D01*
Y123721D01*
D02*
G37*
G36*
X49843Y123673D02*
X49837Y123674D01*
X49831Y123673D01*
X49825Y123672D01*
X49819Y123670D01*
X49813Y123667D01*
X49806Y123663D01*
X49799Y123658D01*
X49792Y123653D01*
X49784Y123646D01*
X49777Y123639D01*
X49720Y123724D01*
X49727Y123731D01*
X49746Y123752D01*
X49750Y123759D01*
X49754Y123765D01*
X49757Y123770D01*
X49760Y123776D01*
X49762Y123781D01*
X49763Y123785D01*
X49843Y123673D01*
D02*
G37*
G36*
X47614Y123627D02*
X47609Y123626D01*
X47603Y123625D01*
X47597Y123623D01*
X47591Y123621D01*
X47584Y123617D01*
X47578Y123613D01*
X47571Y123608D01*
X47564Y123602D01*
X47549Y123588D01*
X47478Y123659D01*
X47485Y123666D01*
X47498Y123681D01*
X47503Y123688D01*
X47507Y123694D01*
X47511Y123701D01*
X47513Y123707D01*
X47515Y123713D01*
X47516Y123719D01*
X47517Y123724D01*
X47614Y123627D01*
D02*
G37*
G36*
X43799Y123364D02*
X43800Y123358D01*
X43802Y123352D01*
X43804Y123346D01*
X43808Y123339D01*
X43812Y123333D01*
X43817Y123326D01*
X43823Y123319D01*
X43837Y123304D01*
X43766Y123233D01*
X43759Y123240D01*
X43744Y123253D01*
X43737Y123258D01*
X43731Y123262D01*
X43724Y123266D01*
X43718Y123268D01*
X43712Y123270D01*
X43706Y123271D01*
X43701Y123272D01*
X43798Y123369D01*
X43799Y123364D01*
D02*
G37*
G36*
X43809Y122824D02*
X43810Y122818D01*
X43812Y122812D01*
X43814Y122806D01*
X43818Y122799D01*
X43822Y122793D01*
X43827Y122786D01*
X43833Y122779D01*
X43847Y122764D01*
X43776Y122693D01*
X43769Y122700D01*
X43754Y122713D01*
X43747Y122718D01*
X43741Y122722D01*
X43734Y122726D01*
X43728Y122728D01*
X43722Y122730D01*
X43716Y122731D01*
X43711Y122732D01*
X43808Y122829D01*
X43809Y122824D01*
D02*
G37*
G36*
X43818Y122251D02*
X43814Y122247D01*
X43811Y122243D01*
X43807Y122238D01*
X43804Y122232D01*
X43802Y122225D01*
X43800Y122217D01*
X43798Y122209D01*
X43797Y122200D01*
X43797Y122190D01*
X43796Y122179D01*
X43696Y122196D01*
X43696Y122207D01*
X43694Y122234D01*
X43693Y122242D01*
X43691Y122249D01*
X43689Y122255D01*
X43687Y122261D01*
X43685Y122266D01*
X43682Y122270D01*
X43818Y122251D01*
D02*
G37*
G36*
X45807Y122096D02*
X45800Y122089D01*
X45787Y122074D01*
X45782Y122067D01*
X45778Y122061D01*
X45774Y122054D01*
X45772Y122048D01*
X45770Y122042D01*
X45769Y122036D01*
X45768Y122031D01*
X45671Y122128D01*
X45676Y122129D01*
X45682Y122130D01*
X45688Y122132D01*
X45694Y122134D01*
X45701Y122138D01*
X45707Y122142D01*
X45714Y122147D01*
X45721Y122153D01*
X45736Y122167D01*
X45807Y122096D01*
D02*
G37*
G36*
X45000Y121967D02*
X44993Y121959D01*
X44974Y121938D01*
X44970Y121932D01*
X44966Y121926D01*
X44963Y121920D01*
X44960Y121915D01*
X44958Y121910D01*
X44957Y121905D01*
X44877Y122017D01*
X44882Y122016D01*
X44888Y122017D01*
X44894Y122018D01*
X44900Y122020D01*
X44907Y122023D01*
X44914Y122027D01*
X44921Y122032D01*
X44928Y122037D01*
X44935Y122044D01*
X44943Y122051D01*
X45000Y121967D01*
D02*
G37*
G36*
X49239Y122022D02*
X49353Y121922D01*
X49364Y121916D01*
X49373Y121911D01*
X49380Y121910D01*
X49379Y121908D01*
X49379Y121908D01*
X49282Y121811D01*
X49282Y121811D01*
X49280Y121810D01*
X49279Y121817D01*
X49274Y121826D01*
X49268Y121837D01*
X49258Y121851D01*
X49230Y121884D01*
X49168Y121951D01*
X49142Y121977D01*
X49213Y122048D01*
X49239Y122022D01*
D02*
G37*
G36*
X45018Y121662D02*
X45010Y121654D01*
X44979Y121619D01*
X44976Y121615D01*
X44975Y121612D01*
X44973Y121609D01*
X44913Y121733D01*
X44918Y121731D01*
X44924Y121731D01*
X44930Y121732D01*
X44936Y121733D01*
X44942Y121736D01*
X44948Y121739D01*
X44955Y121744D01*
X44962Y121749D01*
X44970Y121755D01*
X44978Y121763D01*
X45018Y121662D01*
D02*
G37*
G36*
X48210Y121793D02*
X48212Y121774D01*
X48213Y121766D01*
X48215Y121758D01*
X48217Y121751D01*
X48219Y121745D01*
X48222Y121739D01*
X48225Y121734D01*
X48229Y121730D01*
X48091D01*
X48095Y121734D01*
X48098Y121739D01*
X48101Y121745D01*
X48103Y121751D01*
X48105Y121758D01*
X48107Y121766D01*
X48108Y121774D01*
X48109Y121783D01*
X48110Y121804D01*
X48210D01*
X48210Y121793D01*
D02*
G37*
G36*
X47696Y121780D02*
X47696Y121769D01*
X47698Y121741D01*
X47699Y121733D01*
X47702Y121720D01*
X47704Y121715D01*
X47706Y121710D01*
X47708Y121706D01*
X47573Y121732D01*
X47577Y121735D01*
X47581Y121740D01*
X47585Y121745D01*
X47588Y121751D01*
X47590Y121757D01*
X47592Y121765D01*
X47594Y121773D01*
X47595Y121782D01*
X47596Y121792D01*
X47596Y121802D01*
X47696Y121780D01*
D02*
G37*
G36*
X46210Y121713D02*
X46212Y121694D01*
X46213Y121686D01*
X46215Y121678D01*
X46217Y121671D01*
X46219Y121665D01*
X46222Y121659D01*
X46225Y121654D01*
X46229Y121650D01*
X46091D01*
X46095Y121654D01*
X46098Y121659D01*
X46101Y121665D01*
X46103Y121671D01*
X46105Y121678D01*
X46107Y121686D01*
X46108Y121694D01*
X46109Y121703D01*
X46110Y121724D01*
X46210D01*
X46210Y121713D01*
D02*
G37*
G36*
X43796Y119057D02*
X43798Y119036D01*
X43803Y119014D01*
X43810Y118991D01*
X43821Y118966D01*
X43835Y118940D01*
X43852Y118912D01*
X43873Y118883D01*
X43923Y118822D01*
X43952Y118789D01*
X43845Y118794D01*
X43846Y118793D01*
X43860Y118782D01*
X43873Y118774D01*
X43885Y118767D01*
X43896Y118762D01*
X43906Y118758D01*
X43915Y118756D01*
X43805Y118646D01*
X43803Y118655D01*
X43800Y118666D01*
X43795Y118677D01*
X43788Y118689D01*
X43779Y118702D01*
X43769Y118716D01*
X43743Y118746D01*
X43711Y118780D01*
X43730Y118799D01*
X43533Y118808D01*
X43564Y118837D01*
X43616Y118892D01*
X43637Y118919D01*
X43655Y118945D01*
X43670Y118970D01*
X43682Y118994D01*
X43690Y119017D01*
X43695Y119040D01*
X43696Y119062D01*
X43796Y119057D01*
D02*
G37*
G36*
X59155Y118573D02*
X59154Y118603D01*
X59150Y118630D01*
X59143Y118654D01*
X59134Y118675D01*
X59122Y118693D01*
X59107Y118707D01*
X59089Y118718D01*
X59069Y118726D01*
X59047Y118731D01*
X59021Y118732D01*
X59061Y118832D01*
X59086Y118833D01*
X59208Y118841D01*
X59364Y118862D01*
X59408Y118868D01*
X59155Y118573D01*
D02*
G37*
G36*
X67141Y118374D02*
X67110Y118405D01*
X67051Y118456D01*
X67023Y118476D01*
X66997Y118494D01*
X66971Y118508D01*
X66946Y118520D01*
X66923Y118528D01*
X66900Y118532D01*
X66879Y118534D01*
X66879Y118634D01*
X66900Y118636D01*
X66923Y118640D01*
X66946Y118648D01*
X66971Y118660D01*
X66997Y118674D01*
X67023Y118692D01*
X67051Y118713D01*
X67110Y118764D01*
X67140Y118794D01*
X67141Y118374D01*
D02*
G37*
G36*
X43772Y111166D02*
X43777Y111143D01*
X43785Y111120D01*
X43796Y111096D01*
X43811Y111070D01*
X43829Y111045D01*
X43850Y111018D01*
X43875Y110990D01*
X43933Y110933D01*
X43514Y110915D01*
X43543Y110948D01*
X43593Y111010D01*
X43614Y111038D01*
X43631Y111066D01*
X43645Y111092D01*
X43656Y111117D01*
X43664Y111140D01*
X43668Y111163D01*
X43670Y111184D01*
X43770Y111188D01*
X43772Y111166D01*
D02*
G37*
G36*
X59276Y110986D02*
X59286Y110978D01*
X59295Y110971D01*
X59304Y110966D01*
X59313Y110962D01*
X59321Y110959D01*
X59328Y110958D01*
X59336Y110958D01*
X59342Y110960D01*
X59349Y110963D01*
X59234Y110838D01*
X59236Y110845D01*
X59237Y110852D01*
X59237Y110859D01*
X59235Y110867D01*
X59232Y110876D01*
X59228Y110885D01*
X59222Y110894D01*
X59214Y110904D01*
X59206Y110914D01*
X59195Y110925D01*
X59266Y110996D01*
X59276Y110986D01*
D02*
G37*
G36*
X67070Y111068D02*
X67089Y111055D01*
X67112Y111044D01*
X67137Y111035D01*
X67165Y111027D01*
X67196Y111021D01*
X67231Y111016D01*
X67308Y111011D01*
X67352Y111010D01*
X67055Y110713D01*
X67054Y110757D01*
X67049Y110834D01*
X67044Y110868D01*
X67038Y110900D01*
X67030Y110928D01*
X67020Y110953D01*
X67009Y110976D01*
X66997Y110995D01*
X66983Y111011D01*
X67054Y111082D01*
X67070Y111068D01*
D02*
G37*
G36*
X39979Y123904D02*
X39980Y123898D01*
X39982Y123892D01*
X39984Y123886D01*
X39988Y123879D01*
X39992Y123873D01*
X39997Y123866D01*
X40003Y123859D01*
X40017Y123844D01*
X39946Y123773D01*
X39939Y123780D01*
X39924Y123793D01*
X39917Y123798D01*
X39911Y123802D01*
X39904Y123806D01*
X39898Y123808D01*
X39892Y123810D01*
X39886Y123811D01*
X39881Y123812D01*
X39978Y123909D01*
X39979Y123904D01*
D02*
G37*
G36*
X39969Y123374D02*
X39970Y123368D01*
X39972Y123362D01*
X39974Y123356D01*
X39978Y123349D01*
X39982Y123343D01*
X39987Y123336D01*
X39993Y123329D01*
X40007Y123314D01*
X39936Y123243D01*
X39929Y123250D01*
X39914Y123263D01*
X39907Y123268D01*
X39901Y123272D01*
X39894Y123276D01*
X39888Y123278D01*
X39882Y123280D01*
X39876Y123281D01*
X39871Y123282D01*
X39968Y123379D01*
X39969Y123374D01*
D02*
G37*
G36*
X39959Y122844D02*
X39960Y122838D01*
X39962Y122832D01*
X39964Y122826D01*
X39968Y122819D01*
X39972Y122813D01*
X39977Y122806D01*
X39983Y122799D01*
X39997Y122784D01*
X39926Y122713D01*
X39919Y122720D01*
X39904Y122733D01*
X39897Y122738D01*
X39891Y122742D01*
X39884Y122746D01*
X39878Y122748D01*
X39872Y122750D01*
X39866Y122751D01*
X39861Y122752D01*
X39958Y122849D01*
X39959Y122844D01*
D02*
G37*
G36*
X39909Y122314D02*
X39910Y122308D01*
X39912Y122302D01*
X39914Y122296D01*
X39918Y122289D01*
X39922Y122283D01*
X39927Y122276D01*
X39933Y122269D01*
X39947Y122254D01*
X39876Y122183D01*
X39869Y122190D01*
X39854Y122203D01*
X39847Y122208D01*
X39841Y122212D01*
X39834Y122216D01*
X39828Y122218D01*
X39822Y122220D01*
X39816Y122221D01*
X39811Y122222D01*
X39908Y122319D01*
X39909Y122314D01*
D02*
G37*
G36*
X59309Y103082D02*
X59235Y103008D01*
X59235Y103009D01*
X59234Y103010D01*
X59232Y103012D01*
X59227Y103018D01*
X59202Y103045D01*
X59272Y103115D01*
X59309Y103082D01*
D02*
G37*
G36*
X67070Y103194D02*
X67089Y103181D01*
X67112Y103170D01*
X67137Y103161D01*
X67165Y103153D01*
X67196Y103147D01*
X67231Y103142D01*
X67308Y103137D01*
X67352Y103136D01*
X67055Y102839D01*
X67054Y102883D01*
X67049Y102960D01*
X67044Y102994D01*
X67038Y103026D01*
X67030Y103054D01*
X67020Y103079D01*
X67009Y103102D01*
X66997Y103121D01*
X66983Y103137D01*
X67054Y103208D01*
X67070Y103194D01*
D02*
G37*
G36*
X54075Y122346D02*
X54072Y122341D01*
X54069Y122335D01*
X54067Y122329D01*
X54065Y122322D01*
X54063Y122314D01*
X54062Y122306D01*
X54061Y122297D01*
X54060Y122276D01*
X53960D01*
X53960Y122287D01*
X53958Y122306D01*
X53957Y122314D01*
X53955Y122322D01*
X53953Y122329D01*
X53951Y122335D01*
X53948Y122341D01*
X53945Y122346D01*
X53941Y122350D01*
X54079D01*
X54075Y122346D01*
D02*
G37*
G36*
X54060Y122029D02*
X54062Y122010D01*
X54063Y122002D01*
X54065Y121994D01*
X54067Y121987D01*
X54069Y121981D01*
X54072Y121975D01*
X54075Y121970D01*
X54079Y121966D01*
X53941D01*
X53945Y121970D01*
X53948Y121975D01*
X53951Y121981D01*
X53953Y121987D01*
X53955Y121994D01*
X53957Y122002D01*
X53958Y122010D01*
X53959Y122019D01*
X53960Y122040D01*
X54060D01*
X54060Y122029D01*
D02*
G37*
G36*
X87970Y116670D02*
X87965Y116669D01*
X87963Y116667D01*
X87963Y116663D01*
X87964Y116657D01*
X87968Y116650D01*
X87975Y116641D01*
X88006Y116606D01*
X88021Y116591D01*
X87800Y116529D01*
X87771Y116555D01*
X87741Y116579D01*
X87710Y116601D01*
X87677Y116619D01*
X87644Y116635D01*
X87609Y116647D01*
X87573Y116657D01*
X87536Y116664D01*
X87498Y116669D01*
X87459Y116670D01*
X87700Y116870D01*
X87970Y116670D01*
D02*
G37*
G36*
X89470Y102538D02*
X89426Y102580D01*
X89304Y102681D01*
X89268Y102705D01*
X89234Y102725D01*
X89202Y102741D01*
X89173Y102752D01*
X89145Y102759D01*
X89120Y102761D01*
X89117Y102861D01*
X89144Y102863D01*
X89172Y102870D01*
X89201Y102881D01*
X89233Y102897D01*
X89266Y102918D01*
X89301Y102943D01*
X89337Y102973D01*
X89416Y103046D01*
X89458Y103089D01*
X89470Y102538D01*
D02*
G37*
G36*
X87485Y103041D02*
X87607Y102941D01*
X87643Y102917D01*
X87677Y102896D01*
X87709Y102881D01*
X87738Y102870D01*
X87766Y102863D01*
X87792Y102861D01*
X87794Y102761D01*
X87768Y102759D01*
X87740Y102752D01*
X87710Y102740D01*
X87679Y102724D01*
X87645Y102704D01*
X87610Y102679D01*
X87574Y102649D01*
X87495Y102576D01*
X87454Y102533D01*
X87441Y103084D01*
X87485Y103041D01*
D02*
G37*
G36*
X26478Y102538D02*
X26434Y102580D01*
X26312Y102681D01*
X26276Y102705D01*
X26242Y102725D01*
X26210Y102741D01*
X26181Y102752D01*
X26153Y102759D01*
X26128Y102761D01*
X26125Y102861D01*
X26151Y102863D01*
X26179Y102870D01*
X26209Y102881D01*
X26241Y102897D01*
X26274Y102918D01*
X26309Y102943D01*
X26345Y102973D01*
X26424Y103046D01*
X26465Y103089D01*
X26478Y102538D01*
D02*
G37*
G36*
X24493Y103041D02*
X24615Y102941D01*
X24651Y102917D01*
X24685Y102896D01*
X24717Y102881D01*
X24746Y102870D01*
X24774Y102863D01*
X24799Y102861D01*
X24802Y102761D01*
X24776Y102759D01*
X24748Y102752D01*
X24718Y102740D01*
X24686Y102724D01*
X24653Y102704D01*
X24618Y102679D01*
X24582Y102649D01*
X24503Y102576D01*
X24461Y102533D01*
X24449Y103084D01*
X24493Y103041D01*
D02*
G37*
G36*
X38792Y124532D02*
X38788Y124531D01*
X38784Y124529D01*
X38781Y124526D01*
X38778Y124522D01*
X38775Y124516D01*
X38773Y124510D01*
X38772Y124502D01*
X38771Y124494D01*
X38770Y124484D01*
X38770Y124473D01*
X38670Y124493D01*
X38684Y124607D01*
X38792Y124532D01*
D02*
G37*
G36*
X39209Y124012D02*
X39204Y124011D01*
X39198Y124010D01*
X39192Y124008D01*
X39186Y124006D01*
X39179Y124002D01*
X39173Y123998D01*
X39166Y123993D01*
X39159Y123987D01*
X39144Y123973D01*
X39073Y124044D01*
X39080Y124051D01*
X39093Y124066D01*
X39098Y124073D01*
X39102Y124079D01*
X39106Y124086D01*
X39108Y124092D01*
X39110Y124098D01*
X39111Y124104D01*
X39112Y124109D01*
X39209Y124012D01*
D02*
G37*
G36*
X43689Y95390D02*
X43693Y95370D01*
X43701Y95350D01*
X43712Y95332D01*
X43726Y95314D01*
X43743Y95298D01*
X43763Y95282D01*
X43786Y95268D01*
X43812Y95254D01*
X43842Y95242D01*
X43477Y95119D01*
X43498Y95154D01*
X43547Y95251D01*
X43559Y95280D01*
X43577Y95334D01*
X43583Y95359D01*
X43586Y95383D01*
X43587Y95404D01*
X43687Y95411D01*
X43689Y95390D01*
D02*
G37*
G36*
X67070Y95320D02*
X67089Y95307D01*
X67112Y95296D01*
X67137Y95287D01*
X67165Y95279D01*
X67196Y95273D01*
X67231Y95268D01*
X67308Y95263D01*
X67352Y95262D01*
X67055Y94965D01*
X67054Y95009D01*
X67049Y95086D01*
X67044Y95120D01*
X67038Y95152D01*
X67030Y95180D01*
X67020Y95205D01*
X67009Y95228D01*
X66997Y95247D01*
X66983Y95263D01*
X67054Y95334D01*
X67070Y95320D01*
D02*
G37*
G36*
X59196D02*
X59215Y95307D01*
X59238Y95296D01*
X59263Y95287D01*
X59291Y95279D01*
X59322Y95273D01*
X59357Y95268D01*
X59434Y95263D01*
X59478Y95262D01*
X59181Y94965D01*
X59180Y95009D01*
X59175Y95086D01*
X59170Y95120D01*
X59164Y95152D01*
X59156Y95180D01*
X59146Y95205D01*
X59135Y95228D01*
X59123Y95247D01*
X59109Y95263D01*
X59180Y95334D01*
X59196Y95320D01*
D02*
G37*
D10*
X88414Y129234D02*
X88430Y129250D01*
D13*
X26744Y102811D02*
X26753Y102820D01*
X24183Y102811D02*
X26744D01*
X24174Y102802D02*
X24183Y102811D01*
X61543Y125770D02*
X63152Y124161D01*
Y123848D02*
Y124161D01*
Y123848D02*
X63170Y123830D01*
X55490Y127536D02*
X55766Y127260D01*
X55490Y127536D02*
Y127950D01*
X55766Y127260D02*
X56530D01*
X57570Y127030D02*
X58490Y127950D01*
X55720Y127030D02*
X57570D01*
X53736Y126274D02*
X54620Y125390D01*
X53290Y126274D02*
X53736D01*
X54620Y125390D02*
X54640D01*
X68275Y127975D02*
X68530Y128230D01*
X68275Y127742D02*
Y127975D01*
X68260Y127727D02*
X68275Y127742D01*
X83020Y126560D02*
X85299Y124282D01*
X68707Y127790D02*
X68770D01*
X67890Y128010D02*
X68181Y128301D01*
Y128471D02*
X68200Y128490D01*
X68181Y128301D02*
Y128471D01*
X68530Y128230D02*
Y129290D01*
X68695Y127778D02*
X68925Y128008D01*
X68695Y127778D02*
X68707Y127790D01*
X68925Y128008D02*
Y128769D01*
X62254Y125313D02*
X63971D01*
X61269Y126298D02*
X62254Y125313D01*
X62942Y123735D02*
Y124048D01*
X61520Y125470D02*
X62942Y124048D01*
X61030Y125770D02*
X61543D01*
X60594Y126298D02*
X61269D01*
X59445Y125150D02*
X60594Y126298D01*
X58251Y120180D02*
X62020D01*
X57040Y121391D02*
X58251Y120180D01*
X62020D02*
X62508Y119692D01*
X58400Y120540D02*
X62322D01*
X57448Y121492D02*
X58400Y120540D01*
X62322D02*
X62810Y120052D01*
X58325Y120360D02*
X62095D01*
X57268Y121417D02*
X58325Y120360D01*
X62095D02*
X62583Y119872D01*
X57268Y123310D02*
X57509Y123551D01*
X66462Y121720D02*
X68445D01*
X64794Y120052D02*
X66462Y121720D01*
X62810Y120052D02*
X64794D01*
X57040Y121391D02*
Y123400D01*
X57268Y121417D02*
Y123310D01*
X57448Y121492D02*
Y123185D01*
X66384Y119692D02*
X68022Y121330D01*
X62508Y119692D02*
X66384D01*
X64919Y119872D02*
X66558Y121510D01*
X62583Y119872D02*
X64919D01*
X67355Y118584D02*
X67355Y118584D01*
X56166Y122560D02*
X56200D01*
X56046Y122680D02*
X56166Y122560D01*
X56020Y122680D02*
X56046D01*
X54700D02*
X56020D01*
X54460Y122920D02*
X54700Y122680D01*
X56699Y124723D02*
X56706Y124716D01*
X55917Y124723D02*
X56699D01*
X55910Y124730D02*
X55917Y124723D01*
X57448Y123185D02*
X57728Y123465D01*
Y123668D01*
X57700Y123697D02*
X57728Y123668D01*
X57700Y123697D02*
Y123900D01*
X64031Y124894D02*
X65434Y123490D01*
X64031Y124894D02*
Y125000D01*
X63897Y125133D02*
X64031Y125000D01*
X63708Y125133D02*
X63897D01*
X63571Y124997D02*
X63708Y125133D01*
X63571Y124231D02*
Y124997D01*
X60320Y125770D02*
X61030D01*
X59520Y124970D02*
X60320Y125770D01*
X65429Y123856D02*
X72386D01*
X63971Y125313D02*
X65429Y123856D01*
X58482Y125150D02*
X59445D01*
X58598Y124970D02*
X59520D01*
X72386Y123856D02*
X72600Y124070D01*
Y124590D01*
X65434Y123490D02*
X66140D01*
X61030Y124640D02*
Y125770D01*
Y124640D02*
X61420Y124250D01*
X67585Y127545D02*
X67600Y127530D01*
X66110Y127560D02*
X66125Y127545D01*
X70633Y125537D02*
X71870Y124300D01*
X69572Y125537D02*
X70633D01*
X83080Y126646D02*
Y127500D01*
X85299Y124282D02*
X86436D01*
X47130Y127997D02*
X47390Y127737D01*
Y127510D02*
Y127737D01*
Y127330D02*
Y127510D01*
X47530Y127650D01*
X49340D01*
X50040Y126110D02*
X50910Y125240D01*
X54450Y122930D02*
X54460Y122920D01*
X52280Y122930D02*
X54450D01*
X52270Y122940D02*
X52280Y122930D01*
X50910Y125240D02*
X51020Y125350D01*
X51450D01*
X51810Y123400D02*
X52270Y122940D01*
X50910Y123400D02*
X51810D01*
X50910D02*
Y125240D01*
X51120Y128120D02*
X52100Y129100D01*
X49740Y128120D02*
X51120D01*
X47130Y127997D02*
Y128130D01*
X84080Y119190D02*
X84273Y118997D01*
X86366D01*
X87283Y118080D01*
X88860D01*
X89736Y102811D02*
X89745Y102820D01*
X87175Y102811D02*
X89736D01*
X87166Y102802D02*
X87175Y102811D01*
X54010Y121896D02*
Y122420D01*
X77840Y94690D02*
X77855Y94705D01*
X63170Y123830D02*
X63571Y124231D01*
X66245Y123130D02*
X66664D01*
X66075Y122960D02*
X66245Y123130D01*
X66664D02*
X66750Y123216D01*
X65450Y122190D02*
X66030Y122770D01*
X66360D01*
X65647Y122960D02*
X66075D01*
X66320Y122950D02*
X66360Y122910D01*
Y122770D02*
Y122910D01*
X65517Y122830D02*
X65647Y122960D01*
X61030Y125770D02*
Y126070D01*
X61420Y122820D02*
Y124250D01*
X62942Y123735D02*
X63075Y123602D01*
X63353Y123690D02*
X63442Y123602D01*
X63353Y123690D02*
X63353D01*
X63265Y123602D02*
X63353Y123690D01*
X63075Y123602D02*
X63265D01*
X63442D02*
X63660Y123820D01*
X62495Y123408D02*
X63571D01*
X63888Y123725D01*
Y124207D01*
X63802Y124293D02*
X63888Y124207D01*
X63802Y124293D02*
Y124905D01*
X64670Y122830D02*
X65517D01*
X48869Y122321D02*
X49380Y121810D01*
X48850Y122460D02*
X48869Y122441D01*
Y122321D02*
Y122441D01*
X48160Y122093D02*
X49837Y123770D01*
X48160Y121660D02*
Y122093D01*
X49837Y123770D02*
X49860D01*
X68280Y125424D02*
Y125450D01*
X40530Y107159D02*
Y107370D01*
Y105799D02*
Y107159D01*
X40350Y105725D02*
Y107370D01*
X40170Y105650D02*
Y107010D01*
X40530Y105799D02*
X42919Y103410D01*
X40350Y105725D02*
X42845Y103230D01*
X40170Y105650D02*
X42770Y103050D01*
X42919Y103410D02*
X43141D01*
X42845Y103230D02*
X43215D01*
X42770Y103050D02*
X43290D01*
X43141Y103410D02*
X43361Y103630D01*
X43215Y103230D02*
X43435Y103450D01*
X43290Y103050D02*
X43510Y103270D01*
X43361Y103630D02*
X44059D01*
X43435Y103450D02*
X43985D01*
X43510Y103270D02*
X43910D01*
X44059Y103630D02*
X44249Y103440D01*
X43985Y103450D02*
X44175Y103260D01*
X43910Y103270D02*
X44100Y103080D01*
X40170Y122540D02*
X40170Y107010D01*
X44100Y103080D02*
X51498Y103080D01*
X51607Y102972D01*
X42693Y102867D02*
X43763D01*
X39989Y105571D02*
X42693Y102867D01*
X39989Y122141D02*
X39989Y105571D01*
X53540Y125230D02*
X53900D01*
X54150Y124980D01*
Y123553D02*
Y124980D01*
Y123553D02*
X54688Y123015D01*
Y123002D02*
Y123015D01*
Y123002D02*
X54780Y122910D01*
X55800D01*
X62600Y122190D02*
X65450D01*
X68445Y121720D02*
X68800Y122075D01*
Y122460D01*
X68240Y123020D02*
X68800Y122460D01*
X59961Y118729D02*
X60106Y118584D01*
X66558Y121510D02*
X68490D01*
X69070Y122090D01*
X60106Y118584D02*
X67355D01*
X57552Y124048D02*
X57700Y123900D01*
X56969Y124048D02*
X57552D01*
X56561Y123640D02*
X56969Y124048D01*
X56300Y123640D02*
X56561D01*
X68022Y121330D02*
X69100D01*
X68210Y125354D02*
X68280Y125424D01*
X68210Y124084D02*
Y125354D01*
X54710Y124020D02*
X55326Y124636D01*
Y124716D01*
X55960Y125350D01*
X58678Y124727D02*
X59539D01*
X59282Y118782D02*
X59481Y118584D01*
X51616Y118696D02*
X51718Y118687D01*
X51481Y118706D02*
X51616Y118696D01*
X43746Y118815D02*
X43905Y118657D01*
X43720Y110914D02*
X43828Y110806D01*
X48575Y128705D02*
X50165D01*
X48150Y129130D02*
X48575Y128705D01*
X50165D02*
X50270Y128600D01*
X49791Y123998D02*
X50570Y124777D01*
Y124880D01*
X47628Y121650D02*
X47646Y121669D01*
Y121879D01*
X49765Y123998D01*
X49791D01*
X47075Y123180D02*
X48650D01*
X49700Y124230D01*
X46160Y122265D02*
X47075Y123180D01*
X46160Y121580D02*
Y122265D01*
X47020Y123380D02*
X48250D01*
X45670Y122030D02*
X47020Y123380D01*
X48250D02*
X48550Y123680D01*
X47450Y123560D02*
X47615Y123725D01*
X44882Y121920D02*
X46752Y123790D01*
X47120D01*
X44925Y121640D02*
X46845Y123560D01*
X44880Y121640D02*
X44925D01*
X46845Y123560D02*
X47450D01*
X44860Y121920D02*
X44882D01*
X43710Y122830D02*
X44008Y122532D01*
X43746Y122316D02*
X43760Y122330D01*
X44008Y120262D02*
Y122532D01*
X44190Y120368D02*
Y122880D01*
X44370Y120468D02*
Y123240D01*
X43746Y118815D02*
Y122316D01*
X43905Y118657D02*
X43940D01*
X44008Y120262D02*
X44079Y120191D01*
X44370Y120468D02*
X44551Y120286D01*
X43720Y123890D02*
X44370Y123240D01*
X43700Y123370D02*
X44190Y122880D01*
X44079Y120191D02*
X45740Y118530D01*
X44079Y120191D02*
X44079D01*
X44190Y120368D02*
X44353Y120204D01*
X64218Y121782D02*
X64440Y121560D01*
Y120440D02*
Y121560D01*
X62703Y121970D02*
X65485D01*
X65545Y122030D02*
X66500D01*
X62192Y121958D02*
Y123105D01*
X62372Y122095D02*
Y122962D01*
X62431Y121782D02*
X64218D01*
X64360Y120280D02*
Y120360D01*
X64440Y120440D01*
X62695Y121962D02*
X62703Y121970D01*
X62192Y121958D02*
X62360Y121790D01*
X62422D01*
X62431Y121782D01*
X65485Y121970D02*
X65545Y122030D01*
X62505Y121962D02*
X62695D01*
X62372Y122962D02*
X62590Y123180D01*
X52336Y119070D02*
X58716D01*
X58724Y119062D02*
X59280D01*
X58716Y119070D02*
X58724Y119062D01*
X59680Y119064D02*
X59961Y118783D01*
X52046Y119360D02*
X52336Y119070D01*
X59282Y119064D02*
X59680D01*
X59280Y119062D02*
X59282Y119064D01*
X62372Y122095D02*
X62505Y121962D01*
X62192Y123105D02*
X62495Y123408D01*
X69895Y128515D02*
X72360D01*
X68960Y127580D02*
X69895Y128515D01*
X59942Y125130D02*
X60040D01*
X59539Y124727D02*
X59942Y125130D01*
X58380Y124752D02*
X58598Y124970D01*
X58372Y125040D02*
X58482Y125150D01*
X58346Y125040D02*
X58372D01*
X58380Y124740D02*
Y124752D01*
X39303Y123803D02*
X39390Y123890D01*
X38720Y124570D02*
X38780Y124630D01*
X38900Y124250D02*
X38990Y124340D01*
X38900Y124250D02*
X38900Y100403D01*
X38720Y124570D02*
X38720Y100328D01*
X43637Y95411D01*
Y95058D02*
Y95411D01*
X39091Y123991D02*
X39210Y124110D01*
X39303Y123803D02*
X39303Y100570D01*
X39091Y123575D02*
Y123991D01*
X38900Y100403D02*
X44329Y94974D01*
X44413Y95160D02*
X51170D01*
X39091Y100482D02*
X44413Y95160D01*
X39091Y123575D02*
X39091Y100482D01*
X43637Y95058D02*
X43733Y94962D01*
X51410Y95400D02*
X51819D01*
X51170Y95160D02*
X51410Y95400D01*
X51819D02*
X51856Y95363D01*
X51894Y95576D02*
X66741Y95576D01*
X67355Y94962D01*
X51270Y95580D02*
X51894D01*
X51062Y95372D02*
X51270Y95580D01*
X44501Y95372D02*
X51062Y95372D01*
X51856Y95363D02*
X59080Y95363D01*
X59481Y94962D01*
X39303Y100570D02*
X44501Y95372D01*
X44329Y94974D02*
X51595D01*
X51607Y94962D01*
X39880Y123910D02*
X40530Y123260D01*
X39870Y123380D02*
X40350Y122900D01*
X39860Y122850D02*
X40170Y122540D01*
X39810Y122320D02*
X39989Y122141D01*
X40350Y122900D02*
X40350Y107085D01*
X40530Y123260D02*
X40530Y107159D01*
X43733Y102836D02*
X43763Y102867D01*
X51859Y103446D02*
X52039Y103266D01*
X51354Y103446D02*
X51859D01*
X51348Y103440D02*
X51354Y103446D01*
X44249Y103440D02*
X51348Y103440D01*
X51785Y103266D02*
X51971Y103080D01*
X51429Y103266D02*
X51785D01*
X51422Y103260D02*
X51429Y103266D01*
X44175Y103260D02*
X51422Y103260D01*
X51607Y102836D02*
Y102972D01*
X51971Y103080D02*
X59237D01*
X59481Y102836D01*
X52039Y103266D02*
X59216D01*
X66925Y103266D01*
X67355Y102836D01*
X44599Y111111D02*
X51145D01*
X43950Y111759D02*
X44599Y111111D01*
X51145D02*
X51407Y111373D01*
X51807D01*
X52039Y111140D01*
X43060Y124230D02*
X43060Y112407D01*
X43060Y124230D02*
X43130Y124300D01*
X43060Y112407D02*
X43770Y111697D01*
X43240Y112482D02*
X43950Y111772D01*
X43240Y123900D02*
X43320Y123980D01*
X43240Y123900D02*
X43240Y112482D01*
X42880Y124430D02*
X42880Y112332D01*
X42880Y124430D02*
X42920Y124470D01*
X42880Y112332D02*
X43590Y111622D01*
X42920Y124470D02*
Y124570D01*
X42689Y124690D02*
X42689Y112253D01*
X43950Y111759D02*
Y111772D01*
X42689Y112253D02*
X43399Y111543D01*
Y111531D02*
Y111543D01*
X43590Y111610D02*
Y111622D01*
X43770Y111685D02*
Y111697D01*
X43733Y110710D02*
X43828Y110806D01*
X43770Y111685D02*
X44524Y110931D01*
X43399Y111531D02*
X43720Y111210D01*
Y110914D02*
Y111210D01*
X52039Y111140D02*
X66925D01*
X51732Y111193D02*
X51974Y110951D01*
X51481Y111193D02*
X51732D01*
X51974Y110951D02*
X58189D01*
X44524Y110931D02*
X51219D01*
X51481Y111193D01*
X43590Y111610D02*
X44478Y110722D01*
X51595D01*
X51607Y110710D01*
X59231Y110960D02*
X59481Y110710D01*
X58198Y110960D02*
X59231D01*
X58189Y110951D02*
X58198Y110960D01*
X66925Y111140D02*
X67355Y110710D01*
X44353Y120204D02*
X45740Y118818D01*
X44551Y120286D02*
X45740Y119098D01*
X45744D02*
X50952D01*
X45740Y118530D02*
X51305D01*
X45769Y118818D02*
X51068D01*
X51330Y119080D01*
X52220Y118790D02*
X58600Y118790D01*
X51930Y119080D02*
X52220Y118790D01*
X58600Y118790D02*
X58608Y118782D01*
X51305Y118530D02*
X51481Y118706D01*
X51607Y118584D02*
X51718Y118687D01*
X50952Y119098D02*
X51214Y119360D01*
X52046D01*
X51330Y119080D02*
X51930D01*
X59961Y118729D02*
Y118783D01*
X58608Y118782D02*
X59282D01*
X56180Y127510D02*
Y127536D01*
X56065Y127651D02*
X56180Y127536D01*
X56065Y127651D02*
Y128525D01*
X56490Y128950D01*
D14*
X96180Y121566D02*
Y129440D01*
X18750D02*
X96180D01*
X18750Y127140D02*
Y129440D01*
Y121566D02*
Y127140D01*
Y90070D02*
Y121566D01*
Y90070D02*
X96180D01*
X96180Y121566D02*
X96180Y90070D01*
D106*
X48672Y106518D02*
X56450D01*
X56750Y106520D02*
X64240D01*
X56935Y125960D02*
Y126090D01*
X54613Y126297D02*
Y126438D01*
Y128073D01*
X59750Y123500D02*
X59942D01*
X58160Y121910D02*
X59750Y123500D01*
X78590Y128920D02*
X79910Y127600D01*
Y126437D02*
Y127600D01*
X78912Y125439D02*
X79910Y126437D01*
X78617Y125439D02*
X78912D01*
X79540Y126917D02*
X79630Y126827D01*
X79050Y126360D02*
X79437D01*
X79630Y126553D01*
X79540Y126917D02*
Y127050D01*
X56762Y120999D02*
Y123515D01*
X56150Y120388D02*
X56762Y120999D01*
X73330Y128920D02*
X78590D01*
X77579Y124401D02*
X78617Y125439D01*
X30907Y103370D02*
X33720D01*
X36820Y97670D02*
Y115899D01*
X56200Y122560D02*
Y123260D01*
X62120Y126370D02*
X62170Y126420D01*
X64190D01*
X55084Y120782D02*
X55403Y120463D01*
X55084Y120782D02*
X56200Y121898D01*
X55403Y120297D02*
Y120463D01*
X53930Y119628D02*
X55084Y120782D01*
X55403Y120297D02*
X55990Y119710D01*
X56710D01*
X56850Y120640D02*
X57150Y120940D01*
X56850Y119780D02*
Y120640D01*
X56200Y121898D02*
Y122560D01*
X56750Y125775D02*
X56935Y125960D01*
X55910Y123920D02*
X56706Y124716D01*
X55910Y123550D02*
Y123920D01*
Y123550D02*
X56200Y123260D01*
X56762Y123515D02*
X57051Y123805D01*
X57295D01*
X49742Y126962D02*
X50450Y127670D01*
X46130Y128130D02*
X47298Y126962D01*
X49742D01*
X63860Y127637D02*
X63985D01*
X64190Y127432D01*
Y126420D02*
Y127432D01*
Y126420D02*
X64380D01*
X65520Y127560D01*
X66110D01*
X66125Y127545D02*
X67585D01*
X88450Y117130D02*
X89090Y117770D01*
X88450Y115910D02*
Y117130D01*
Y115910D02*
X89440Y114920D01*
Y109797D02*
Y114920D01*
Y107829D02*
Y109797D01*
Y107829D02*
X92393Y104876D01*
X92281Y104763D02*
X92393Y104876D01*
X92025Y104763D02*
X92281D01*
X90530Y103268D02*
X92025Y104763D01*
X90530Y102794D02*
Y103268D01*
X89745Y102009D02*
X90530Y102794D01*
X89745Y101048D02*
Y102009D01*
X89736Y101039D02*
X89745Y101048D01*
X87175Y101039D02*
X89736D01*
X87166Y101030D02*
X87175Y101039D01*
X73295Y116010D02*
X77870D01*
X69678Y119628D02*
X73295Y116010D01*
X69678Y111754D02*
X70864Y112940D01*
X77840D01*
X69727Y103830D02*
X77770D01*
X69678Y103880D02*
X69727Y103830D01*
X56450Y106518D02*
X56752D01*
X64240Y106520D02*
X64440D01*
X87700Y116770D02*
X87950Y116520D01*
X77840Y115980D02*
X77870Y116010D01*
X77840Y112940D02*
Y115980D01*
X77780Y112880D02*
X77840Y112940D01*
X77780Y109910D02*
Y112880D01*
X64400Y106560D02*
X75040D01*
X85250Y116770D01*
X64400Y106560D02*
X64440Y106520D01*
X77780Y108620D02*
X77830Y108670D01*
X77780Y106870D02*
Y108620D01*
X77770Y106860D02*
X77780Y106870D01*
X77770Y103830D02*
Y106860D01*
Y103830D02*
X77860Y103740D01*
Y100820D02*
Y103740D01*
X77740Y100700D02*
X77860Y100820D01*
X77740Y97880D02*
Y100700D01*
Y97880D02*
X77855Y97765D01*
Y94705D02*
Y97765D01*
X36799Y122159D02*
X36830Y122190D01*
X36799Y115920D02*
Y122159D01*
Y115920D02*
X36820Y115899D01*
X36810Y97660D02*
X36820Y97670D01*
X36810Y94700D02*
Y97660D01*
X29401Y104876D02*
X30907Y103370D01*
X26448Y107829D02*
X29401Y104876D01*
X26448Y107829D02*
Y109797D01*
X29289Y104763D02*
X29401Y104876D01*
X29033Y104763D02*
X29289D01*
X27538Y103268D02*
X29033Y104763D01*
X27538Y102794D02*
Y103268D01*
X26753Y102009D02*
X27538Y102794D01*
X26753Y101048D02*
Y102009D01*
X54613Y128073D02*
X55490Y128950D01*
X53210Y123380D02*
Y125294D01*
X53290Y125374D01*
Y126274D01*
X50380Y121810D02*
X52780Y119410D01*
X49380Y121810D02*
X50380D01*
X66902Y126682D02*
X68455D01*
X66200Y125980D02*
X66902Y126682D01*
X66120Y125980D02*
X66200D01*
X68455Y126682D02*
X69884Y128110D01*
X77300D01*
X79050Y126360D01*
X79630Y126553D02*
Y126827D01*
X87950Y116520D02*
X88150D01*
X87700Y116770D02*
X87970D01*
X85250D02*
X87700D01*
X48510Y106530D02*
X48660D01*
X56750Y106520D02*
X56752Y106518D01*
X48660Y106530D02*
X48672Y106518D01*
X40960Y106470D02*
X48510D01*
X40900Y106530D02*
X40960Y106470D01*
X43660Y118657D02*
X43905D01*
X94820Y123700D02*
Y124020D01*
X94320Y123200D02*
X94820Y123700D01*
X91180Y123200D02*
X94320D01*
X90700Y123680D02*
X91180Y123200D01*
X90700Y123680D02*
Y124310D01*
X67690Y122937D02*
X68370Y122257D01*
X87400Y124690D02*
X89230Y126520D01*
X87400Y121250D02*
Y124690D01*
Y121250D02*
X89180Y119470D01*
X89190D01*
X89230Y126520D02*
X93630D01*
X43660Y118657D02*
X43733Y118584D01*
D108*
X45300Y126438D02*
X48420D01*
X54613D01*
X39668D02*
X45300D01*
X61356Y126610D02*
X62316Y125650D01*
X54613Y126297D02*
X55135Y125775D01*
X56750D01*
X62316Y125650D02*
X67185D01*
X60509Y126610D02*
X61356D01*
X56750Y125775D02*
X59675D01*
X60509Y126610D01*
X39640Y126410D02*
X39668Y126438D01*
X77870Y116010D02*
X81050Y119190D01*
X84080D01*
X45300Y126560D02*
Y127300D01*
X46130Y128130D01*
X67655Y126120D02*
X76790D01*
X67185Y125650D02*
X67655Y126120D01*
X77475Y128515D02*
X79300Y126690D01*
X72360Y128515D02*
X77475D01*
D110*
X20440Y127670D02*
D03*
X93630Y91870D02*
D03*
X20470Y92100D02*
D03*
D111*
X43733Y118584D02*
D03*
X46056Y119628D02*
D03*
X51607Y118584D02*
D03*
X53930Y119628D02*
D03*
X59455Y118572D02*
D03*
X61778Y119616D02*
D03*
X67355Y118584D02*
D03*
X69678Y119628D02*
D03*
X43733Y110710D02*
D03*
X46056Y111754D02*
D03*
X51607Y110710D02*
D03*
X53930Y111754D02*
D03*
X67355Y110710D02*
D03*
X69678Y111754D02*
D03*
X43733Y102836D02*
D03*
X46056Y103880D02*
D03*
X51607Y102836D02*
D03*
X53930Y103880D02*
D03*
X59481Y102836D02*
D03*
X61804Y103880D02*
D03*
X67355Y102836D02*
D03*
X69678Y103880D02*
D03*
X43733Y94962D02*
D03*
X46056Y96006D02*
D03*
X51607Y94962D02*
D03*
X53930Y96006D02*
D03*
X59481Y94962D02*
D03*
X61804Y96006D02*
D03*
X67355Y94962D02*
D03*
X69678Y96006D02*
D03*
X59503Y110705D02*
D03*
X61826Y111749D02*
D03*
D112*
X85404Y103210D02*
D03*
Y108560D02*
D03*
X91506Y103210D02*
D03*
X91506Y108560D02*
D03*
X28514D02*
D03*
X28514Y103210D02*
D03*
X22412Y108560D02*
D03*
Y103210D02*
D03*
D113*
X88456Y109797D02*
D03*
X87472D02*
D03*
X89440D02*
D03*
X92393Y106844D02*
D03*
Y104876D02*
D03*
Y105860D02*
D03*
X87166Y101030D02*
D03*
Y102802D02*
D03*
X89745Y102820D02*
D03*
Y101048D02*
D03*
X85255Y128218D02*
D03*
X89585D02*
D03*
X26753Y101048D02*
D03*
Y102820D02*
D03*
X24174Y102802D02*
D03*
Y101030D02*
D03*
X29401Y105860D02*
D03*
Y104876D02*
D03*
Y106844D02*
D03*
X26448Y109797D02*
D03*
X24480D02*
D03*
X25464D02*
D03*
D114*
X49130Y128130D02*
D03*
X55490Y127950D02*
D03*
X49150Y129130D02*
D03*
D115*
X48130Y128130D02*
D03*
X47130D02*
D03*
X46130D02*
D03*
X55490Y128950D02*
D03*
X56490Y127950D02*
D03*
Y128950D02*
D03*
X57490Y127950D02*
D03*
Y128950D02*
D03*
X58490Y127950D02*
D03*
X58490Y128950D02*
D03*
X48150Y129130D02*
D03*
D116*
X86436Y124282D02*
D03*
X88404Y124281D02*
D03*
D117*
X40970Y121660D02*
D03*
X41230Y121820D02*
D03*
X41730Y121860D02*
D03*
X74510Y119550D02*
D03*
X69234Y119730D02*
D03*
X21720Y99240D02*
D03*
X22170Y98790D02*
D03*
X22621Y98339D02*
D03*
X23071Y97889D02*
D03*
X23521Y97439D02*
D03*
X55720Y127030D02*
D03*
X56530Y127260D02*
D03*
X56935Y126090D02*
D03*
X54613Y125770D02*
D03*
X54640Y125390D02*
D03*
X59942Y123500D02*
D03*
X58160Y121910D02*
D03*
X79540Y127050D02*
D03*
X56150Y120388D02*
D03*
X71890Y122990D02*
D03*
X72830Y123077D02*
D03*
X68260Y127727D02*
D03*
X68770Y127790D02*
D03*
X67890Y128010D02*
D03*
X62120Y126370D02*
D03*
X61520Y125470D02*
D03*
X57150Y120940D02*
D03*
X56850Y119780D02*
D03*
X56020Y122680D02*
D03*
X55910Y124730D02*
D03*
X56706Y124716D02*
D03*
X57040Y123400D02*
D03*
X57500Y123560D02*
D03*
X59020Y114420D02*
D03*
X58105D02*
D03*
X57190D02*
D03*
Y115293D02*
D03*
X58105D02*
D03*
X59020D02*
D03*
Y116167D02*
D03*
X58105D02*
D03*
X57190D02*
D03*
Y117040D02*
D03*
X58105D02*
D03*
X59020D02*
D03*
X50080Y114910D02*
D03*
X49165D02*
D03*
X48250D02*
D03*
Y115783D02*
D03*
X49165D02*
D03*
X50080D02*
D03*
Y116657D02*
D03*
X49165D02*
D03*
X48250D02*
D03*
Y117530D02*
D03*
X49165D02*
D03*
X50080D02*
D03*
X49620Y107390D02*
D03*
X48705D02*
D03*
X47790D02*
D03*
Y108263D02*
D03*
X48705D02*
D03*
X49620D02*
D03*
Y109137D02*
D03*
X48705D02*
D03*
X47790D02*
D03*
Y110010D02*
D03*
X48705D02*
D03*
X49620D02*
D03*
X42145Y108080D02*
D03*
X41230D02*
D03*
Y108953D02*
D03*
X42145D02*
D03*
X43060D02*
D03*
Y109827D02*
D03*
X42145D02*
D03*
X41230D02*
D03*
Y110700D02*
D03*
X42145D02*
D03*
X43060D02*
D03*
X57730Y91500D02*
D03*
X56815D02*
D03*
X55900D02*
D03*
Y92373D02*
D03*
X56815D02*
D03*
X57730D02*
D03*
Y93247D02*
D03*
X56815D02*
D03*
X55900D02*
D03*
Y94120D02*
D03*
X56815D02*
D03*
X57730D02*
D03*
X49660Y91340D02*
D03*
X48745D02*
D03*
X47830D02*
D03*
Y92213D02*
D03*
X48745D02*
D03*
X49660D02*
D03*
Y93087D02*
D03*
X48745D02*
D03*
X47830D02*
D03*
Y93960D02*
D03*
X48745D02*
D03*
X49660D02*
D03*
X50020Y98990D02*
D03*
X49105D02*
D03*
X48190D02*
D03*
Y99863D02*
D03*
X49105D02*
D03*
X50020D02*
D03*
Y100737D02*
D03*
X49105D02*
D03*
X48190D02*
D03*
Y101610D02*
D03*
X49105D02*
D03*
X50020D02*
D03*
X57640Y99350D02*
D03*
X56725D02*
D03*
X55810D02*
D03*
Y100223D02*
D03*
X56725D02*
D03*
X57640D02*
D03*
Y101097D02*
D03*
X56725D02*
D03*
X55810D02*
D03*
Y101970D02*
D03*
X56725D02*
D03*
X57640D02*
D03*
X57930Y107790D02*
D03*
X57015D02*
D03*
X56100D02*
D03*
Y108663D02*
D03*
X57015D02*
D03*
X57930D02*
D03*
Y109537D02*
D03*
X57015D02*
D03*
X56100D02*
D03*
Y110410D02*
D03*
X57015D02*
D03*
X57930D02*
D03*
X65740Y108000D02*
D03*
X64825D02*
D03*
X63910D02*
D03*
Y108873D02*
D03*
X64825D02*
D03*
X65740D02*
D03*
Y109747D02*
D03*
X64825D02*
D03*
X63910D02*
D03*
Y110620D02*
D03*
X64825D02*
D03*
X65740D02*
D03*
X67610Y98339D02*
D03*
X66695D02*
D03*
X65780D02*
D03*
Y99213D02*
D03*
X66695D02*
D03*
X67610D02*
D03*
Y100086D02*
D03*
X66695D02*
D03*
X65780D02*
D03*
Y100959D02*
D03*
X66695D02*
D03*
X67610D02*
D03*
X64530Y98220D02*
D03*
X63615D02*
D03*
X62700D02*
D03*
Y99093D02*
D03*
X63615D02*
D03*
X64530D02*
D03*
Y99967D02*
D03*
X63615D02*
D03*
X62700D02*
D03*
Y100840D02*
D03*
X63615D02*
D03*
X64530D02*
D03*
X65740Y92080D02*
D03*
X64825D02*
D03*
X63910D02*
D03*
Y92953D02*
D03*
X64825D02*
D03*
X65740D02*
D03*
Y93827D02*
D03*
X64825D02*
D03*
X63910D02*
D03*
Y94700D02*
D03*
X64825D02*
D03*
X65740D02*
D03*
X84950Y97970D02*
D03*
X84035D02*
D03*
X83120D02*
D03*
Y97097D02*
D03*
X84035D02*
D03*
X84950D02*
D03*
Y96223D02*
D03*
X84035D02*
D03*
X83120D02*
D03*
Y95350D02*
D03*
X84035D02*
D03*
X84950D02*
D03*
X63830Y116830D02*
D03*
X65640Y116430D02*
D03*
X65090Y117520D02*
D03*
X63490Y114730D02*
D03*
X62740Y113710D02*
D03*
X63720Y113200D02*
D03*
X67130Y113570D02*
D03*
X66690Y114320D02*
D03*
X66610Y115680D02*
D03*
X66150Y117390D02*
D03*
X67010Y119320D02*
D03*
X67740Y119340D02*
D03*
X68560Y119310D02*
D03*
X69070Y119420D02*
D03*
X75060Y118160D02*
D03*
X73800Y116690D02*
D03*
X75480Y115260D02*
D03*
X75330Y114980D02*
D03*
X74230Y115030D02*
D03*
X82150Y118520D02*
D03*
X81310Y119890D02*
D03*
X80400Y121110D02*
D03*
X81640Y120740D02*
D03*
X82420Y121250D02*
D03*
X82230Y120050D02*
D03*
X82880Y118720D02*
D03*
X84850Y112710D02*
D03*
X85950Y113030D02*
D03*
X87560Y113170D02*
D03*
X86960Y114500D02*
D03*
X83340Y114180D02*
D03*
X84210Y114730D02*
D03*
X83800Y116930D02*
D03*
X83110Y116840D02*
D03*
Y116060D02*
D03*
X84810Y113620D02*
D03*
X87150Y112710D02*
D03*
X40790Y102030D02*
D03*
X40820Y100482D02*
D03*
X41510Y100550D02*
D03*
X40960Y102300D02*
D03*
X38180Y110200D02*
D03*
Y111400D02*
D03*
Y114210D02*
D03*
Y116310D02*
D03*
X38070Y117750D02*
D03*
X31930Y118640D02*
D03*
X31480Y117330D02*
D03*
X29940Y115720D02*
D03*
X29010Y114730D02*
D03*
X27950Y113760D02*
D03*
X28640Y112120D02*
D03*
X27330Y112840D02*
D03*
X30630Y115860D02*
D03*
X30320Y114520D02*
D03*
X29840Y113010D02*
D03*
X28840Y112670D02*
D03*
X29600Y114110D02*
D03*
X41480Y118930D02*
D03*
X41520Y117160D02*
D03*
X41640Y115180D02*
D03*
X44400Y113740D02*
D03*
X45720Y113820D02*
D03*
X47370Y113860D02*
D03*
X48690Y113700D02*
D03*
X49590D02*
D03*
X51160Y113660D02*
D03*
X53140Y113620D02*
D03*
X55240Y113450D02*
D03*
X58040Y113370D02*
D03*
X60180Y113410D02*
D03*
X63970Y114440D02*
D03*
X64960Y113250D02*
D03*
X72830Y115220D02*
D03*
X73990Y114110D02*
D03*
X71970Y114520D02*
D03*
X73120Y114360D02*
D03*
X75840Y114190D02*
D03*
Y111100D02*
D03*
X74190Y107480D02*
D03*
X74930Y109130D02*
D03*
X73860Y109040D02*
D03*
X74110Y110730D02*
D03*
X51490Y121760D02*
D03*
X51840Y121370D02*
D03*
X49980Y123090D02*
D03*
X49770Y121460D02*
D03*
X49720Y122180D02*
D03*
X49790Y122710D02*
D03*
X47930Y124910D02*
D03*
X47100Y124800D02*
D03*
X46470Y124530D02*
D03*
X48213Y125537D02*
D03*
X48850D02*
D03*
X46940D02*
D03*
X47577D02*
D03*
X45667D02*
D03*
X45030D02*
D03*
X62583Y129080D02*
D03*
X63220D02*
D03*
X60673D02*
D03*
X61310D02*
D03*
X61947D02*
D03*
X60037D02*
D03*
X59400D02*
D03*
X77240Y118860D02*
D03*
X77690Y118410D02*
D03*
X75889Y120211D02*
D03*
X76339Y119761D02*
D03*
X76790Y119310D02*
D03*
X75439Y120661D02*
D03*
X74989Y121111D02*
D03*
X74800Y117240D02*
D03*
X75250Y116790D02*
D03*
X73449Y118591D02*
D03*
X73899Y118141D02*
D03*
X74350Y117690D02*
D03*
X72999Y119041D02*
D03*
X72549Y119491D02*
D03*
X76090Y118170D02*
D03*
X76540Y117720D02*
D03*
X74739Y119521D02*
D03*
X75189Y119071D02*
D03*
X75640Y118620D02*
D03*
X74289Y119971D02*
D03*
X73839Y120421D02*
D03*
X81910Y122710D02*
D03*
X82360Y122260D02*
D03*
X80559Y124061D02*
D03*
X81009Y123611D02*
D03*
X81460Y123160D02*
D03*
X80109Y124511D02*
D03*
X79659Y124961D02*
D03*
X80750Y122700D02*
D03*
X81200Y122250D02*
D03*
X79399Y124051D02*
D03*
X79849Y123601D02*
D03*
X80300Y123150D02*
D03*
X78949Y124501D02*
D03*
X78499Y124951D02*
D03*
X79830Y122150D02*
D03*
X80280Y121700D02*
D03*
X78479Y123501D02*
D03*
X78929Y123051D02*
D03*
X79380Y122600D02*
D03*
X78029Y123951D02*
D03*
X77579Y124401D02*
D03*
X82850Y102097D02*
D03*
Y101460D02*
D03*
Y104007D02*
D03*
Y103370D02*
D03*
Y102733D02*
D03*
Y104643D02*
D03*
Y105280D02*
D03*
X81580Y103177D02*
D03*
Y102540D02*
D03*
Y105087D02*
D03*
Y104450D02*
D03*
Y103813D02*
D03*
Y105723D02*
D03*
Y106360D02*
D03*
X81480Y96257D02*
D03*
Y95620D02*
D03*
Y98167D02*
D03*
Y97530D02*
D03*
Y96893D02*
D03*
Y98803D02*
D03*
Y99440D02*
D03*
X91160Y97620D02*
D03*
X90710Y97170D02*
D03*
X92511Y98971D02*
D03*
X92061Y98521D02*
D03*
X91610Y98070D02*
D03*
X92961Y99421D02*
D03*
X93411Y99871D02*
D03*
X91853Y95630D02*
D03*
X92490D02*
D03*
X89943D02*
D03*
X90580D02*
D03*
X91217D02*
D03*
X89307D02*
D03*
X88670D02*
D03*
X90503Y93910D02*
D03*
X91140D02*
D03*
X88593D02*
D03*
X89230D02*
D03*
X89867D02*
D03*
X87957D02*
D03*
X87320D02*
D03*
X86993Y92370D02*
D03*
X87630D02*
D03*
X85083D02*
D03*
X85720D02*
D03*
X86357D02*
D03*
X84447D02*
D03*
X83810D02*
D03*
X82623Y91320D02*
D03*
X83260D02*
D03*
X80713D02*
D03*
X81350D02*
D03*
X81987D02*
D03*
X80077D02*
D03*
X79440D02*
D03*
X76953Y91140D02*
D03*
X77590D02*
D03*
X75043D02*
D03*
X75680D02*
D03*
X76317D02*
D03*
X74407D02*
D03*
X73770D02*
D03*
X73770Y97317D02*
D03*
Y96680D02*
D03*
Y99227D02*
D03*
Y98590D02*
D03*
Y97953D02*
D03*
Y99863D02*
D03*
Y100500D02*
D03*
X74640Y98976D02*
D03*
Y98339D02*
D03*
Y100886D02*
D03*
Y100249D02*
D03*
Y99613D02*
D03*
Y101523D02*
D03*
Y102159D02*
D03*
X32420Y107637D02*
D03*
Y107000D02*
D03*
Y109547D02*
D03*
Y108910D02*
D03*
Y108273D02*
D03*
Y110183D02*
D03*
Y110820D02*
D03*
X37830Y105067D02*
D03*
Y104430D02*
D03*
Y106977D02*
D03*
Y106340D02*
D03*
Y105703D02*
D03*
Y107613D02*
D03*
Y108250D02*
D03*
X37900Y98617D02*
D03*
Y97980D02*
D03*
Y100527D02*
D03*
Y99890D02*
D03*
Y99253D02*
D03*
Y101163D02*
D03*
Y101800D02*
D03*
X38910Y94930D02*
D03*
X38460Y95380D02*
D03*
X40261Y93579D02*
D03*
X39811Y94029D02*
D03*
X39360Y94480D02*
D03*
X40711Y93129D02*
D03*
X41161Y92679D02*
D03*
X36117Y92530D02*
D03*
X35480D02*
D03*
X38027D02*
D03*
X37390D02*
D03*
X36753D02*
D03*
X38663D02*
D03*
X39300D02*
D03*
X30387Y100930D02*
D03*
X29750D02*
D03*
X32297D02*
D03*
X31660D02*
D03*
X31023D02*
D03*
X33570D02*
D03*
X28347Y99160D02*
D03*
X27710D02*
D03*
X30257D02*
D03*
X29620D02*
D03*
X28983D02*
D03*
X30893D02*
D03*
X31530D02*
D03*
X26197Y97180D02*
D03*
X25560D02*
D03*
X28107D02*
D03*
X27470D02*
D03*
X26833D02*
D03*
X28743D02*
D03*
X29380D02*
D03*
X21270Y99690D02*
D03*
X23971Y96989D02*
D03*
X20390Y105503D02*
D03*
Y106140D02*
D03*
Y103593D02*
D03*
Y104230D02*
D03*
Y104867D02*
D03*
Y102957D02*
D03*
Y102320D02*
D03*
X22500Y112890D02*
D03*
X22950Y113340D02*
D03*
X21149Y111539D02*
D03*
X21599Y111989D02*
D03*
X22050Y112440D02*
D03*
X20699Y111089D02*
D03*
X20249Y110639D02*
D03*
X20390Y107777D02*
D03*
Y107140D02*
D03*
Y109687D02*
D03*
Y109050D02*
D03*
Y108413D02*
D03*
Y110323D02*
D03*
Y110960D02*
D03*
X23370Y112920D02*
D03*
X22920Y112470D02*
D03*
X24721Y114271D02*
D03*
X24271Y113821D02*
D03*
X23820Y113370D02*
D03*
X25171Y114721D02*
D03*
X25621Y115171D02*
D03*
X27420Y116630D02*
D03*
X26970Y116180D02*
D03*
X28771Y117981D02*
D03*
X28321Y117531D02*
D03*
X27870Y117080D02*
D03*
X29221Y118431D02*
D03*
X29671Y118881D02*
D03*
X31160Y120160D02*
D03*
X30710Y119710D02*
D03*
X32511Y121511D02*
D03*
X32061Y121061D02*
D03*
X31610Y120610D02*
D03*
X32961Y121961D02*
D03*
X33411Y122411D02*
D03*
X34550Y123550D02*
D03*
X34100Y123100D02*
D03*
X35901Y124901D02*
D03*
X35451Y124451D02*
D03*
X35000Y124000D02*
D03*
X36351Y125351D02*
D03*
X36801Y125801D02*
D03*
X40197Y128170D02*
D03*
X39560D02*
D03*
X42107D02*
D03*
X41470D02*
D03*
X40833D02*
D03*
X42743D02*
D03*
X43380D02*
D03*
X41267Y127510D02*
D03*
X40630D02*
D03*
X43177D02*
D03*
X42540D02*
D03*
X41903D02*
D03*
X43813D02*
D03*
X44440Y127010D02*
D03*
X43803D02*
D03*
X43460Y127720D02*
D03*
X41790Y128010D02*
D03*
X41893Y127010D02*
D03*
X42530D02*
D03*
X43167D02*
D03*
X43110Y125330D02*
D03*
X43610Y124980D02*
D03*
X45600Y125880D02*
D03*
X45240Y125230D02*
D03*
X45550Y124760D02*
D03*
X45230Y124020D02*
D03*
X44790Y123460D02*
D03*
X41210Y123040D02*
D03*
X40850Y123440D02*
D03*
X41380Y124300D02*
D03*
X40680Y125870D02*
D03*
X38640Y126700D02*
D03*
X39380Y126970D02*
D03*
X40620Y127010D02*
D03*
X41257D02*
D03*
X40840Y128830D02*
D03*
X40420Y128460D02*
D03*
X39990Y127600D02*
D03*
X38370Y127430D02*
D03*
X37180Y126040D02*
D03*
X37280Y124240D02*
D03*
X39650Y121360D02*
D03*
X38170Y121350D02*
D03*
X40950Y123110D02*
D03*
X41010Y124940D02*
D03*
X63860Y127637D02*
D03*
X64190Y126420D02*
D03*
X71870Y124300D02*
D03*
X84590Y125030D02*
D03*
X49340Y127650D02*
D03*
X50040Y126110D02*
D03*
X51450Y125350D02*
D03*
X50910Y123400D02*
D03*
X49740Y128120D02*
D03*
X47390Y127330D02*
D03*
X46140Y124220D02*
D03*
X87650Y101680D02*
D03*
X54010Y121896D02*
D03*
Y122420D02*
D03*
X77830Y108670D02*
D03*
X77740Y97880D02*
D03*
X36830Y122190D02*
D03*
X36799Y115920D02*
D03*
X36830Y103770D02*
D03*
X36850Y112770D02*
D03*
X33720Y103330D02*
D03*
X66140Y123490D02*
D03*
X66360Y122770D02*
D03*
X61420Y122820D02*
D03*
X63660Y123820D02*
D03*
X63170Y123830D02*
D03*
X66750Y123216D02*
D03*
X64670Y122830D02*
D03*
X77840Y94690D02*
D03*
X77870Y116010D02*
D03*
X77840Y112940D02*
D03*
X77780Y109910D02*
D03*
Y106870D02*
D03*
X77770Y103830D02*
D03*
X77860Y100820D02*
D03*
X36840Y110650D02*
D03*
X36810Y94700D02*
D03*
X36820Y97670D02*
D03*
X36850Y100700D02*
D03*
X36880Y107000D02*
D03*
X61710Y126580D02*
D03*
X61030Y126070D02*
D03*
X52270Y122940D02*
D03*
X53290Y126274D02*
D03*
X48420Y126350D02*
D03*
X50450Y127670D02*
D03*
X52780Y119410D02*
D03*
X49380Y121810D02*
D03*
X48850Y122460D02*
D03*
X44340Y125350D02*
D03*
X39640Y126380D02*
D03*
X67750Y125750D02*
D03*
X68280Y125450D02*
D03*
X66120Y125980D02*
D03*
X79300Y126690D02*
D03*
X83020Y126560D02*
D03*
X84080Y119190D02*
D03*
X86366Y118997D02*
D03*
X86280Y121413D02*
D03*
X89090Y117770D02*
D03*
X88860Y118080D02*
D03*
X88450Y115910D02*
D03*
X83080Y127500D02*
D03*
X88150Y116520D02*
D03*
X87970Y116770D02*
D03*
X64240Y106500D02*
D03*
X56450Y106520D02*
D03*
X48660Y106530D02*
D03*
X40900D02*
D03*
X53540Y125230D02*
D03*
X55800Y122910D02*
D03*
X68210Y124084D02*
D03*
X68240Y123020D02*
D03*
X56300Y123640D02*
D03*
X63802Y124905D02*
D03*
X55960Y125350D02*
D03*
X57280Y123820D02*
D03*
X72600Y124590D02*
D03*
X58678Y124727D02*
D03*
X73330Y128920D02*
D03*
X92460Y124410D02*
D03*
X92460Y123940D02*
D03*
X92135Y124405D02*
D03*
X92460Y124175D02*
D03*
X92135Y123930D02*
D03*
X91810Y124405D02*
D03*
X92135Y124167D02*
D03*
X91810Y123930D02*
D03*
X90700Y124310D02*
D03*
X94820Y124020D02*
D03*
X48620Y123770D02*
D03*
X50570Y124880D02*
D03*
X49860Y123770D02*
D03*
X49700Y124230D02*
D03*
X48160Y121660D02*
D03*
X47628Y121650D02*
D03*
X46160Y121580D02*
D03*
X54620Y124030D02*
D03*
X47615Y123725D02*
D03*
X47120Y123790D02*
D03*
X44880Y121640D02*
D03*
X44860Y121920D02*
D03*
X45670Y122030D02*
D03*
X43710Y122830D02*
D03*
X43760Y122330D02*
D03*
X43700Y123370D02*
D03*
X43720Y123890D02*
D03*
X43320Y123980D02*
D03*
X42689Y124770D02*
D03*
X43130Y124300D02*
D03*
X42920Y124570D02*
D03*
X54460Y122920D02*
D03*
X53210Y123380D02*
D03*
X69100Y121330D02*
D03*
X68370Y122257D02*
D03*
X67690Y122937D02*
D03*
X69070Y122090D02*
D03*
X62590Y123180D02*
D03*
X64360Y120280D02*
D03*
X62600Y122190D02*
D03*
X67600Y127530D02*
D03*
X68960Y127580D02*
D03*
X68925Y128769D02*
D03*
X72360Y128515D02*
D03*
X68530Y129290D02*
D03*
X68200Y128490D02*
D03*
X66110Y127560D02*
D03*
X66500Y122030D02*
D03*
X58346Y125040D02*
D03*
X58380Y124740D02*
D03*
X60040Y125130D02*
D03*
X69572Y125537D02*
D03*
X89190Y119470D02*
D03*
X93630Y126520D02*
D03*
X91810Y124167D02*
D03*
X91810Y124642D02*
D03*
X91810Y124880D02*
D03*
X92135D02*
D03*
Y124642D02*
D03*
X92460Y124880D02*
D03*
Y124645D02*
D03*
X39390Y123890D02*
D03*
X39880Y123910D02*
D03*
X39810Y122320D02*
D03*
X39860Y122850D02*
D03*
X39870Y123380D02*
D03*
X38780Y124630D02*
D03*
X38990Y124340D02*
D03*
X39210Y124110D02*
D03*
X56180Y127510D02*
D03*
X50270Y128600D02*
D03*
X52100Y129100D02*
D03*
D118*
X45150Y117659D02*
D03*
X53024Y117659D02*
D03*
X60872Y117647D02*
D03*
X68772Y117659D02*
D03*
X45150Y109785D02*
D03*
X53024D02*
D03*
X68772D02*
D03*
X45150Y101911D02*
D03*
X53024D02*
D03*
X60898D02*
D03*
X68772D02*
D03*
X45150Y94037D02*
D03*
X53024D02*
D03*
X60898D02*
D03*
X68772D02*
D03*
X60920Y109780D02*
D03*
D119*
X76790Y126120D02*
D03*
M02*
