*
*
G04 PADS VX.0 Build Number: 635560 generated Gerber (RS-274-X) file*
G04 PC Version=2.1*
*
%IN "闫生主板1.pcb"*%
*
%MOIN*%
*
%FSLAX35Y35*%
*
*
*
*
G04 PC Standard Apertures*
*
*
G04 Thermal Relief Aperture macro.*
%AMTER*
1,1,$1,0,0*
1,0,$1-$2,0,0*
21,0,$3,$4,0,0,45*
21,0,$3,$4,0,0,135*
%
*
*
G04 Annular Aperture macro.*
%AMANN*
1,1,$1,0,0*
1,0,$2,0,0*
%
*
*
G04 Odd Aperture macro.*
%AMODD*
1,1,$1,0,0*
1,0,$1-0.005,0,0*
%
*
*
G04 PC Custom Aperture Macros*
*
*
*
*
*
*
G04 PC Aperture Table*
*
%ADD010C,0.001*%
%ADD044C,0.00984*%
%ADD093C,0.0315*%
%ADD105C,0.012*%
%ADD198C,0.07087*%
%ADD209C,0.008*%
*
*
*
*
G04 PC Circuitry*
G04 Layer Name 闫生主板1.pcb - circuitry*
%LPD*%
*
*
G04 PC Custom Flashes*
G04 Layer Name 闫生主板1.pcb - flashes*
%LPD*%
*
*
G04 PC Circuitry*
G04 Layer Name 闫生主板1.pcb - circuitry*
%LPD*%
*
G54D10*
G54D44*
G01X2045444Y1568720D02*
Y1609630D01*
G75*
G03X2044952Y1610122I-492J0D01*
G01X2031788*
X2029696Y1612214D02*
G03X2031788Y1610122I2092J0D01*
G01X2029696Y1612214D02*
Y1614677D01*
G03X2028958Y1615104I-492J0*
G01X2024065Y1617776D02*
G03X2028958Y1615104I3263J159D01*
G01X2024065Y1617776D02*
G03X2023922Y1618100I-491J-24D01*
G01X2018649Y1623373*
G03X2018301Y1623517I-348J-348*
G01X1997309*
X1995994Y1623931D02*
G03X1997309Y1623517I1315J1878D01*
G01X1995994Y1623931D02*
G03X1995727Y1624020I-282J-403D01*
G01X1998895Y1628422D02*
G03X1995727Y1624020I-3063J-1137D01*
G01X1998895Y1628422D02*
G03X1999356Y1628101I461J171D01*
G01X2019454*
X2021075Y1627430D02*
G03X2019454Y1628101I-1621J-1621D01*
G01X2021075Y1627430D02*
X2027163Y1621342D01*
G03X2027487Y1621198I348J348*
G01X2028958Y1620766D02*
G03X2027487Y1621198I-1630J-2831D01*
G01X2028958Y1620766D02*
G03X2029696Y1621193I246J427D01*
G01Y1631099*
X2029701Y1631246D02*
G03X2029696Y1631099I2087J-147D01*
G01X2029701Y1631246D02*
G03X2029210Y1631772I-491J34D01*
G01X1971900*
G03X1971412Y1631218I-0J-492*
G01X1971428Y1630955D02*
G03X1971412Y1631218I-2092J0D01*
G01X1971428Y1630955D02*
Y1611935D01*
X1969336Y1609843D02*
G03X1971428Y1611935I0J2092D01*
G01X1969336Y1609843D02*
X1955136D01*
X1954890Y1609858D02*
G03X1955136Y1609843I246J2077D01*
G01X1954890Y1609858D02*
G03X1954340Y1609369I-58J-489D01*
G01Y1568720*
G03X1954832Y1568228I492J-0*
G01X2044952*
G03X2045444Y1568720I-0J492*
G01X1954413Y1609626D02*
X2045444D01*
X1954340Y1608626D02*
X2045444D01*
X1954340Y1607626D02*
X2045444D01*
X1954340Y1606626D02*
X2045444D01*
X1954340Y1605626D02*
X2045444D01*
X1954340Y1604626D02*
X2045444D01*
X1954340Y1603626D02*
X2045444D01*
X1954340Y1602626D02*
X2045444D01*
X1954340Y1601626D02*
X2045444D01*
X1954340Y1600626D02*
X2045444D01*
X1954340Y1599626D02*
X2045444D01*
X1954340Y1598626D02*
X2045444D01*
X1954340Y1597626D02*
X2045444D01*
X1954340Y1596626D02*
X2045444D01*
X1954340Y1595626D02*
X2045444D01*
X1954340Y1594626D02*
X2045444D01*
X1954340Y1593626D02*
X2045444D01*
X1954340Y1592626D02*
X2045444D01*
X1954340Y1591626D02*
X2045444D01*
X1954340Y1590626D02*
X2045444D01*
X1954340Y1589626D02*
X2045444D01*
X1954340Y1588626D02*
X2045444D01*
X1954340Y1587626D02*
X2045444D01*
X1954340Y1586626D02*
X2045444D01*
X1954340Y1585626D02*
X2045444D01*
X1954340Y1584626D02*
X2045444D01*
X1954340Y1583626D02*
X2045444D01*
X1954340Y1582626D02*
X2045444D01*
X1954340Y1581626D02*
X2045444D01*
X1954340Y1580626D02*
X2045444D01*
X1954340Y1579626D02*
X2045444D01*
X1954340Y1578626D02*
X2045444D01*
X1954340Y1577626D02*
X2045444D01*
X1954340Y1576626D02*
X2045444D01*
X1954340Y1575626D02*
X2045444D01*
X1954340Y1574626D02*
X2045444D01*
X1954340Y1573626D02*
X2045444D01*
X1954340Y1572626D02*
X2045444D01*
X1954340Y1571626D02*
X2045444D01*
X1954340Y1570626D02*
X2045444D01*
X1954340Y1569626D02*
X2045444D01*
X1954349Y1568626D02*
X2045435D01*
X1970968Y1610626D02*
X2030426D01*
X1971405Y1611626D02*
X2029780D01*
X1971428Y1630626D02*
X2029696D01*
X1998111Y1629626D02*
X2029696D01*
X1998811Y1628626D02*
X2029696D01*
X2020851Y1627626D02*
X2029696D01*
X2021879Y1626626D02*
X2029696D01*
X2022879Y1625626D02*
X2029696D01*
X2023879Y1624626D02*
X2029696D01*
X2024879Y1623626D02*
X2029696D01*
X2025879Y1622626D02*
X2029696D01*
X2026879Y1621626D02*
X2029696D01*
X1971428Y1614626D02*
X2029696D01*
X1971428Y1613626D02*
X2029696D01*
X1971428Y1612626D02*
X2029696D01*
X1971550Y1631626D02*
X2029560D01*
X1971428Y1615626D02*
X2025017D01*
X1971428Y1616626D02*
X2024335D01*
X1971428Y1617626D02*
X2024076D01*
X1971428Y1618626D02*
X2023395D01*
X1971428Y1619626D02*
X2022395D01*
X1971428Y1620626D02*
X2021395D01*
X1971428Y1621626D02*
X2020395D01*
X1971428Y1622626D02*
X2019395D01*
X1971428Y1623626D02*
X1996609D01*
X1971428Y1624626D02*
X1993934D01*
X1971428Y1629626D02*
X1993553D01*
X1971428Y1625626D02*
X1993018D01*
X1971428Y1628626D02*
X1992853D01*
X1971428Y1626626D02*
X1992632D01*
X1971428Y1627626D02*
X1992583D01*
X2045340Y1568417D02*
Y1609933D01*
X2044340Y1568228D02*
Y1610122D01*
X2043340Y1568228D02*
Y1610122D01*
X2042340Y1568228D02*
Y1610122D01*
X2041340Y1568228D02*
Y1610122D01*
X2040340Y1568228D02*
Y1610122D01*
X2039340Y1568228D02*
Y1610122D01*
X2038340Y1568228D02*
Y1610122D01*
X2037340Y1568228D02*
Y1610122D01*
X2036340Y1568228D02*
Y1610122D01*
X2035340Y1568228D02*
Y1610122D01*
X2034340Y1568228D02*
Y1610122D01*
X2033340Y1568228D02*
Y1610122D01*
X2032340Y1568228D02*
Y1610122D01*
X2031340Y1568228D02*
Y1610171D01*
X2030340Y1568228D02*
Y1610704D01*
X2029340Y1620720D02*
Y1631755D01*
Y1568228D02*
Y1615150D01*
X2028340Y1621041D02*
Y1631772D01*
Y1568228D02*
Y1614829D01*
X2027340Y1621228D02*
Y1631772D01*
Y1568228D02*
Y1614668D01*
X2026340Y1622165D02*
Y1631772D01*
Y1568228D02*
Y1614821D01*
X2025340Y1623165D02*
Y1631772D01*
Y1568228D02*
Y1615343D01*
X2024340Y1624165D02*
Y1631772D01*
Y1568228D02*
Y1616614D01*
X2023340Y1625165D02*
Y1631772D01*
Y1568228D02*
Y1618682D01*
X2022340Y1626165D02*
Y1631772D01*
Y1568228D02*
Y1619682D01*
X2021340Y1627165D02*
Y1631772D01*
Y1568228D02*
Y1620682D01*
X2020340Y1627923D02*
Y1631772D01*
Y1568228D02*
Y1621682D01*
X2019340Y1628101D02*
Y1631772D01*
Y1568228D02*
Y1622682D01*
X2018340Y1628101D02*
Y1631772D01*
Y1568228D02*
Y1623515D01*
X2017340Y1628101D02*
Y1631772D01*
Y1568228D02*
Y1623517D01*
X2016340Y1628101D02*
Y1631772D01*
Y1568228D02*
Y1623517D01*
X2015340Y1628101D02*
Y1631772D01*
Y1568228D02*
Y1623517D01*
X2014340Y1628101D02*
Y1631772D01*
Y1568228D02*
Y1623517D01*
X2013340Y1628101D02*
Y1631772D01*
Y1568228D02*
Y1623517D01*
X2012340Y1628101D02*
Y1631772D01*
Y1568228D02*
Y1623517D01*
X2011340Y1628101D02*
Y1631772D01*
Y1568228D02*
Y1623517D01*
X2010340Y1628101D02*
Y1631772D01*
Y1568228D02*
Y1623517D01*
X2009340Y1628101D02*
Y1631772D01*
Y1568228D02*
Y1623517D01*
X2008340Y1628101D02*
Y1631772D01*
Y1568228D02*
Y1623517D01*
X2007340Y1628101D02*
Y1631772D01*
Y1568228D02*
Y1623517D01*
X2006340Y1628101D02*
Y1631772D01*
Y1568228D02*
Y1623517D01*
X2005340Y1628101D02*
Y1631772D01*
Y1568228D02*
Y1623517D01*
X2004340Y1628101D02*
Y1631772D01*
Y1568228D02*
Y1623517D01*
X2003340Y1628101D02*
Y1631772D01*
Y1568228D02*
Y1623517D01*
X2002340Y1628101D02*
Y1631772D01*
Y1568228D02*
Y1623517D01*
X2001340Y1628101D02*
Y1631772D01*
Y1568228D02*
Y1623517D01*
X2000340Y1628101D02*
Y1631772D01*
Y1568228D02*
Y1623517D01*
X1999340Y1628101D02*
Y1631772D01*
Y1568228D02*
Y1623517D01*
X1998340Y1629379D02*
Y1631772D01*
Y1568228D02*
Y1623517D01*
X1997340Y1630184D02*
Y1631772D01*
Y1568228D02*
Y1623517D01*
X1996340Y1630513D02*
Y1631772D01*
Y1568228D02*
Y1623732D01*
X1995340Y1630515D02*
Y1631772D01*
Y1568228D02*
Y1624056D01*
X1994340Y1630192D02*
Y1631772D01*
Y1568228D02*
Y1624379D01*
X1993340Y1629398D02*
Y1631772D01*
Y1568228D02*
Y1625173D01*
X1992340Y1568228D02*
Y1631772D01*
X1991340Y1568228D02*
Y1631772D01*
X1990340Y1568228D02*
Y1631772D01*
X1989340Y1568228D02*
Y1631772D01*
X1988340Y1568228D02*
Y1631772D01*
X1987340Y1568228D02*
Y1631772D01*
X1986340Y1568228D02*
Y1631772D01*
X1985340Y1568228D02*
Y1631772D01*
X1984340Y1568228D02*
Y1631772D01*
X1983340Y1568228D02*
Y1631772D01*
X1982340Y1568228D02*
Y1631772D01*
X1981340Y1568228D02*
Y1631772D01*
X1980340Y1568228D02*
Y1631772D01*
X1979340Y1568228D02*
Y1631772D01*
X1978340Y1568228D02*
Y1631772D01*
X1977340Y1568228D02*
Y1631772D01*
X1976340Y1568228D02*
Y1631772D01*
X1975340Y1568228D02*
Y1631772D01*
X1974340Y1568228D02*
Y1631772D01*
X1973340Y1568228D02*
Y1631772D01*
X1972340Y1568228D02*
Y1631772D01*
X1971340Y1568228D02*
Y1611334D01*
X1970340Y1568228D02*
Y1610100D01*
X1969340Y1568228D02*
Y1609843D01*
X1968340Y1568228D02*
Y1609843D01*
X1967340Y1568228D02*
Y1609843D01*
X1966340Y1568228D02*
Y1609843D01*
X1965340Y1568228D02*
Y1609843D01*
X1964340Y1568228D02*
Y1609843D01*
X1963340Y1568228D02*
Y1609843D01*
X1962340Y1568228D02*
Y1609843D01*
X1961340Y1568228D02*
Y1609843D01*
X1960340Y1568228D02*
Y1609843D01*
X1959340Y1568228D02*
Y1609843D01*
X1958340Y1568228D02*
Y1609843D01*
X1957340Y1568228D02*
Y1609843D01*
X1956340Y1568228D02*
Y1609843D01*
X1955340Y1568228D02*
Y1609843D01*
G54D93*
X2015258Y1602627D03*
X2020383Y1597108D03*
X2015383D03*
X2010258D03*
X2005466D03*
X2005258Y1602627D03*
X2010383D03*
X2020091D03*
X1977254Y1569488D03*
X1970365D03*
X1963475D03*
X1956585D03*
X1984144D03*
X2014390Y1579961D03*
X1991034Y1569488D03*
X2025483D03*
X1997924D03*
X2011703D03*
X2004813D03*
X2018593D03*
X1986672Y1615607D03*
X1957569Y1585236D03*
X1986983Y1611333D03*
X1980207Y1590161D03*
X1963475Y1585236D03*
X2027328Y1617935D03*
X1993987Y1600000D03*
X2020390Y1616561D03*
X1993583Y1590933D03*
X2009120Y1630238D03*
X1995832Y1627285D03*
X2027820Y1625317D03*
X1998908Y1622641D03*
X2039262Y1569488D03*
X2032372D03*
Y1575394D03*
X2029990Y1606361D03*
X2042215Y1585236D03*
X2033357Y1596066D03*
X2032372Y1581299D03*
X2036309Y1585236D03*
G54D105*
X2025708Y1619555D02*
G03X2027301Y1618909I1559J1559D01*
G01X2026354Y1617962D02*
G03X2025708Y1619555I-2204J34D01*
G01X2026639Y1618624*
X1996805Y1627224D02*
G03X1997309Y1625809I1741J-178D01*
X1995893Y1626313I-1238J-1237*
G01X1997309Y1625809D02*
X1996522Y1626596D01*
X2027328Y1617935D02*
X2019454Y1625809D01*
X1997309*
X1995832Y1627285*
G54D198*
X1959735Y1623622D03*
X2040050Y1576378D03*
Y1623622D03*
X1959735Y1576378D03*
G54D209*
X1955136Y1630955D02*
X1969336D01*
Y1611935*
X1955136*
Y1630955*
X2031788Y1631099D02*
X2045752D01*
Y1612214*
X2031788*
Y1631099*
X1990819Y1631807D02*
X2022499D01*
Y1630638*
X1990819*
Y1631807*
X1955136Y1630955D02*
X1969336D01*
X1955136Y1630155D02*
X1969336D01*
X1955136Y1629355D02*
X1969336D01*
X1955136Y1628555D02*
X1969336D01*
X1955136Y1627755D02*
X1969336D01*
X1955136Y1626955D02*
X1969336D01*
X1955136Y1626155D02*
X1969336D01*
X1955136Y1625355D02*
X1969336D01*
X1955136Y1624555D02*
X1969336D01*
X1955136Y1623755D02*
X1969336D01*
X1955136Y1622955D02*
X1969336D01*
X1955136Y1622155D02*
X1969336D01*
X1955136Y1621355D02*
X1969336D01*
X1955136Y1620555D02*
X1969336D01*
X1955136Y1619755D02*
X1969336D01*
X1955136Y1618955D02*
X1969336D01*
X1955136Y1618155D02*
X1969336D01*
X1955136Y1617355D02*
X1969336D01*
X1955136Y1616555D02*
X1969336D01*
X1955136Y1615755D02*
X1969336D01*
X1955136Y1614955D02*
X1969336D01*
X1955136Y1614155D02*
X1969336D01*
X1955136Y1613355D02*
X1969336D01*
X1955136Y1612555D02*
X1969336D01*
X1955136Y1611935D02*
Y1630955D01*
X1955936Y1611935D02*
Y1630955D01*
X1956736Y1611935D02*
Y1630955D01*
X1957536Y1611935D02*
Y1630955D01*
X1958336Y1611935D02*
Y1630955D01*
X1959136Y1611935D02*
Y1630955D01*
X1959936Y1611935D02*
Y1630955D01*
X1960736Y1611935D02*
Y1630955D01*
X1961536Y1611935D02*
Y1630955D01*
X1962336Y1611935D02*
Y1630955D01*
X1963136Y1611935D02*
Y1630955D01*
X1963936Y1611935D02*
Y1630955D01*
X1964736Y1611935D02*
Y1630955D01*
X1965536Y1611935D02*
Y1630955D01*
X1966336Y1611935D02*
Y1630955D01*
X1967136Y1611935D02*
Y1630955D01*
X1967936Y1611935D02*
Y1630955D01*
X1968736Y1611935D02*
Y1630955D01*
X2031788Y1631099D02*
X2045752D01*
X2031788Y1630299D02*
X2045752D01*
X2031788Y1629499D02*
X2045752D01*
X2031788Y1628699D02*
X2045752D01*
X2031788Y1627899D02*
X2045752D01*
X2031788Y1627099D02*
X2045752D01*
X2031788Y1626299D02*
X2045752D01*
X2031788Y1625499D02*
X2045752D01*
X2031788Y1624699D02*
X2045752D01*
X2031788Y1623899D02*
X2045752D01*
X2031788Y1623099D02*
X2045752D01*
X2031788Y1622299D02*
X2045752D01*
X2031788Y1621499D02*
X2045752D01*
X2031788Y1620699D02*
X2045752D01*
X2031788Y1619899D02*
X2045752D01*
X2031788Y1619099D02*
X2045752D01*
X2031788Y1618299D02*
X2045752D01*
X2031788Y1617499D02*
X2045752D01*
X2031788Y1616699D02*
X2045752D01*
X2031788Y1615899D02*
X2045752D01*
X2031788Y1615099D02*
X2045752D01*
X2031788Y1614299D02*
X2045752D01*
X2031788Y1613499D02*
X2045752D01*
X2031788Y1612699D02*
X2045752D01*
X2031788Y1612214D02*
Y1631099D01*
X2032588Y1612214D02*
Y1631099D01*
X2033388Y1612214D02*
Y1631099D01*
X2034188Y1612214D02*
Y1631099D01*
X2034988Y1612214D02*
Y1631099D01*
X2035788Y1612214D02*
Y1631099D01*
X2036588Y1612214D02*
Y1631099D01*
X2037388Y1612214D02*
Y1631099D01*
X2038188Y1612214D02*
Y1631099D01*
X2038988Y1612214D02*
Y1631099D01*
X2039788Y1612214D02*
Y1631099D01*
X2040588Y1612214D02*
Y1631099D01*
X2041388Y1612214D02*
Y1631099D01*
X2042188Y1612214D02*
Y1631099D01*
X2042988Y1612214D02*
Y1631099D01*
X2043788Y1612214D02*
Y1631099D01*
X2044588Y1612214D02*
Y1631099D01*
X2045388Y1612214D02*
Y1631099D01*
X1990819Y1631807D02*
X2022499D01*
X1990819Y1631007D02*
X2022499D01*
X1990819Y1630638D02*
Y1631807D01*
X1991619Y1630638D02*
Y1631807D01*
X1992419Y1630638D02*
Y1631807D01*
X1993219Y1630638D02*
Y1631807D01*
X1994019Y1630638D02*
Y1631807D01*
X1994819Y1630638D02*
Y1631807D01*
X1995619Y1630638D02*
Y1631807D01*
X1996419Y1630638D02*
Y1631807D01*
X1997219Y1630638D02*
Y1631807D01*
X1998019Y1630638D02*
Y1631807D01*
X1998819Y1630638D02*
Y1631807D01*
X1999619Y1630638D02*
Y1631807D01*
X2000419Y1630638D02*
Y1631807D01*
X2001219Y1630638D02*
Y1631807D01*
X2002019Y1630638D02*
Y1631807D01*
X2002819Y1630638D02*
Y1631807D01*
X2003619Y1630638D02*
Y1631807D01*
X2004419Y1630638D02*
Y1631807D01*
X2005219Y1630638D02*
Y1631807D01*
X2006019Y1630638D02*
Y1631807D01*
X2006819Y1630638D02*
Y1631807D01*
X2007619Y1630638D02*
Y1631807D01*
X2008419Y1630638D02*
Y1631807D01*
X2009219Y1630638D02*
Y1631807D01*
X2010019Y1630638D02*
Y1631807D01*
X2010819Y1630638D02*
Y1631807D01*
X2011619Y1630638D02*
Y1631807D01*
X2012419Y1630638D02*
Y1631807D01*
X2013219Y1630638D02*
Y1631807D01*
X2014019Y1630638D02*
Y1631807D01*
X2014819Y1630638D02*
Y1631807D01*
X2015619Y1630638D02*
Y1631807D01*
X2016419Y1630638D02*
Y1631807D01*
X2017219Y1630638D02*
Y1631807D01*
X2018019Y1630638D02*
Y1631807D01*
X2018819Y1630638D02*
Y1631807D01*
X2019619Y1630638D02*
Y1631807D01*
X2020419Y1630638D02*
Y1631807D01*
X2021219Y1630638D02*
Y1631807D01*
X2022019Y1630638D02*
Y1631807D01*
G74*
X0Y0D02*
M02*
