*
*
G04 PADS VX.0 Build Number: 635560 generated Gerber (RS-274-X) file*
G04 PC Version=2.1*
*
%IN "闫生主板1.pcb"*%
*
%MOIN*%
*
%FSLAX35Y35*%
*
*
*
*
G04 PC Standard Apertures*
*
*
G04 Thermal Relief Aperture macro.*
%AMTER*
1,1,$1,0,0*
1,0,$1-$2,0,0*
21,0,$3,$4,0,0,45*
21,0,$3,$4,0,0,135*
%
*
*
G04 Annular Aperture macro.*
%AMANN*
1,1,$1,0,0*
1,0,$2,0,0*
%
*
*
G04 Odd Aperture macro.*
%AMODD*
1,1,$1,0,0*
1,0,$1-0.005,0,0*
%
*
*
G04 PC Custom Aperture Macros*
*
*
*
*
*
*
G04 PC Aperture Table*
*
%ADD010C,0.001*%
%ADD035C,0.00787*%
%ADD038C,0.01*%
%ADD044C,0.00984*%
%ADD047C,0.00394*%
%ADD093C,0.0315*%
%ADD105C,0.012*%
%ADD120C,0.01969*%
%ADD146C,0.02362*%
%ADD178R,0.05X0.05906*%
%ADD181O,0.024X0.07874*%
%ADD182R,0.03X0.03*%
%ADD185R,0.07087X0.06693*%
%ADD198C,0.07087*%
%ADD201R,0.04724X0.04724*%
%ADD202R,0.06299X0.06299*%
%ADD209C,0.008*%
%ADD249R,0.17717X0.11811*%
*
*
*
*
G04 PC Circuitry*
G04 Layer Name 闫生主板1.pcb - circuitry*
%LPD*%
*
*
G04 PC Custom Flashes*
G04 Layer Name 闫生主板1.pcb - flashes*
%LPD*%
*
*
G04 PC Circuitry*
G04 Layer Name 闫生主板1.pcb - circuitry*
%LPD*%
*
G54D10*
G01X1934414Y1623766D02*
X1934417D01*
X2028902D02*
X2028905D01*
X2028902Y1556837D02*
X2028905D01*
X2028902Y1623766D02*
X2028905D01*
G54D35*
X1974368Y1602731D02*
G75*
G03X1973608Y1600935I1741J-1796D01*
X1972848Y1602731I-2502J0*
G01X1973821Y1602449D02*
G03X1973608Y1600935I5261J-1514D01*
X1973394Y1602449I-5474J0*
G01X1973608Y1603535D02*
Y1600435D01*
X1980749Y1593293*
Y1586635*
X1989738Y1584432D02*
G03X1992844Y1582636I4911J4912D01*
G01X1992138Y1578857D02*
G03X1989738Y1584432I-8203J-227D01*
X1992703Y1581881I18500J18501*
G01X1992562Y1581125D02*
G03X1989738Y1584432I-22385J-16254D01*
G01X1992420Y1580369D02*
G03X1989738Y1584432I-11269J-4523D01*
G01X1992279Y1579613D02*
G03X1989738Y1584432I-9058J-1697D01*
G01X1976352Y1601362D02*
X1983149Y1594564D01*
Y1586638*
X1985354Y1584432*
X1989738*
X1992441Y1581729*
Y1579201*
X1982827Y1609629D02*
G03X1984467Y1610399I-0J2134D01*
G01X1985028Y1608799D02*
G03X1982827Y1609629I-2201J-2503D01*
X1984314Y1609888I-0J4394*
G01X1984377Y1609463D02*
G03X1982827Y1609629I-1550J-7124D01*
G01X1976352Y1601362D02*
Y1605692D01*
X1980289Y1609629*
X1985214*
X1985419Y1609834*
X1985400Y1612935D02*
G03X1984631Y1614758I-2545J0D01*
G01X1986152Y1614706D02*
G03X1985400Y1612935I1711J-1771D01*
X1985186Y1614453I-5494J0*
G01X1985613Y1614446D02*
G03X1985400Y1612935I5243J-1511D01*
G01Y1615264D02*
X1985419Y1615535D01*
G54D38*
X1987441Y1570666D02*
G03X1988314Y1570015I2667J2667D01*
G01X1987779D02*
G03X1987441Y1570666I-1199J-209D01*
G01X1988858Y1567169D02*
X1990938D01*
X1987441Y1572671D02*
G03X1986822Y1576335I-11151J0D01*
G01X1988060D02*
G03X1987441Y1572671I10532J-3664D01*
G01Y1576335*
Y1579201D02*
Y1571069D01*
Y1570666*
X1990938Y1567169*
X2008793Y1604720D02*
X2008858Y1604785D01*
X2008171Y1583521D02*
G03X2008858Y1585144I-1575J1623D01*
X2009545Y1583521I2261J-0*
G01X2008858Y1585144D02*
Y1583794D01*
Y1585968D02*
G03X2008171Y1587591I-2262J-0D01*
G01X2009545D02*
G03X2008858Y1585968I1574J-1623D01*
G01Y1587318*
Y1582794D02*
Y1588318D01*
X1996897Y1604093D02*
G03X1997612Y1607711I-8801J3618D01*
X1998134Y1604037I13178J-0*
G01X1997612Y1607711D02*
X1997516Y1604065D01*
X1998299Y1609107D02*
G03X1997612Y1607484I1574J-1623D01*
X1996925Y1609107I-2262J0*
G01X1997612Y1607484D02*
Y1608834D01*
X1997441Y1601201D02*
X1997612Y1601372D01*
Y1609834*
X2002127Y1582564D02*
G03X2005327Y1584169I-817J5621D01*
X2003016Y1576904I5865J-5866*
G01X2002275Y1581621D02*
G03X2005327Y1584169I-12639J18238D01*
X2002423Y1580678I17538J-17538*
G01X2005327Y1584169D02*
G03X2002572Y1579734I8115J-8116D01*
G01X2005327Y1584169D02*
G03X2002720Y1578791I6445J-6446D01*
G01X2005327Y1584169D02*
G03X2002868Y1577848I5955J-5956D01*
G01X2002441Y1579201D02*
Y1581283D01*
X2005486Y1584327*
Y1601413*
X2008793Y1604720*
X1997441Y1574761D02*
G03X1996867Y1576177I-2033J-0D01*
G01X1998015D02*
G03X1997441Y1574761I1459J-1416D01*
G01Y1576177D02*
Y1574761D01*
Y1579201*
Y1574761D02*
X1999116Y1573086D01*
X2004520*
X2003112Y1612184D02*
G03X2003799Y1610561I2261J0D01*
G01X2002425D02*
G03X2003112Y1612184I-1575J1623D01*
G01Y1610834*
X2003799Y1614808D02*
G03X2003112Y1613185I1574J-1623D01*
X2002425Y1614808I-2262J-0*
G01X2003112Y1613185D02*
Y1614535D01*
Y1609834D02*
Y1615535D01*
X1979459Y1604471D02*
G03X1981450Y1603724I1991J2279D01*
X1979968Y1603026I0J-1922*
G01X1981450Y1603724D02*
X1980097Y1603678D01*
X1979108Y1603535D02*
X1979297Y1603724D01*
X1984919D02*
G03X1987159Y1604099I986J986D01*
G01X1986840Y1599187D02*
G03X1984919Y1603724I-6561J-103D01*
X1987095Y1603116I1627J1627*
G01X1984919Y1603724D02*
G03X1987031Y1602134I6681J6682D01*
G01X1986967Y1601152D02*
G03X1984919Y1603724I-12384J-7763D01*
G01X1986903Y1600170D02*
G03X1984919Y1603724I-7265J-1727D01*
G01X1979297D02*
X1984919D01*
X1987441Y1601201*
X2007133Y1575698D02*
G03X2007882Y1577514I-1810J1810D01*
G01X2008670Y1576312D02*
G03X2007133Y1575698I-54J-2097D01*
G01X2008089Y1576654*
X2004520Y1573086D02*
X2008728Y1577294D01*
X2008858*
X1964703Y1611120D02*
G03X1963017Y1611654I-1356J-1356D01*
G01Y1613959D02*
G03X1964703Y1611120I6415J1890D01*
X1963017Y1612422I-5904J-5904*
G01Y1613191D02*
G03X1964703Y1611120I10963J7206D01*
G01X1971104Y1608980D02*
G03X1969428Y1610338I-1676J-355D01*
X1971104Y1611695I-0J1713*
G01Y1609885D02*
G03X1969428Y1610338I-1676J-2877D01*
X1971104Y1610790I-0J3330*
G01X1960367Y1614275D02*
X1961549D01*
X1965486Y1610338*
X1972966*
X1934414Y1636913D02*
X1962976D01*
X1934414D02*
X1944414Y1639413D01*
Y1634413*
X1934414Y1636913*
X2028902D02*
X2000340D01*
X2028902D02*
X2018902Y1634413D01*
Y1639413*
X2028902Y1636913*
X1934414Y1628766D02*
Y1641913D01*
X2028902Y1628766D02*
Y1641913D01*
X1966204Y1638163D02*
Y1638475D01*
X1966431Y1639100*
X1966658Y1639413*
X1967113Y1639725*
X1968022*
X1968476Y1639413*
X1968476D02*
X1968704Y1639100D01*
X1968931Y1638475*
Y1637850*
X1968704Y1637225*
X1968249Y1636288*
X1965976Y1633163*
X1965976D02*
X1969158D01*
X1973476Y1639725D02*
X1971204Y1635350D01*
X1974613*
X1973476Y1639725D02*
Y1633163D01*
X1976886Y1633788D02*
X1976658Y1633475D01*
X1976886Y1633163*
X1977113Y1633475*
X1976886Y1633788*
X1980522Y1639725D02*
X1979840Y1639413D01*
X1979386Y1638475*
X1979158Y1636913*
Y1635975*
X1979386Y1634413*
X1979840Y1633475*
X1980522Y1633163*
X1980976*
X1980976D02*
X1981658Y1633475D01*
X1982113Y1634413*
X1982340Y1635975*
Y1636913*
X1982113Y1638475*
X1981658Y1639413*
X1980976Y1639725*
X1980976D02*
X1980522D01*
X1984386Y1637538D02*
Y1633163D01*
Y1636288D02*
X1985067Y1637225D01*
X1985522Y1637538*
X1986204*
X1986658Y1637225*
X1986886Y1636288*
Y1633163*
Y1636288D02*
X1987567Y1637225D01*
X1988022Y1637538*
X1988704*
X1989158Y1637225*
X1989386Y1636288*
Y1633163*
X1991431Y1637538D02*
Y1633163D01*
Y1636288D02*
X1992113Y1637225D01*
X1992567Y1637538*
X1993249*
X1993704Y1637225*
X1993931Y1636288*
Y1633163*
Y1636288D02*
X1994613Y1637225D01*
X1995067Y1637538*
X1995749*
X1996204Y1637225*
X1996431Y1636288*
Y1633163*
X2050131Y1556837D02*
Y1583552D01*
Y1556837D02*
X2047631Y1566837D01*
X2052631*
X2050131Y1556837*
Y1623766D02*
Y1597052D01*
Y1623766D02*
X2052631Y1613766D01*
X2047631*
X2050131Y1623766*
X2033902Y1556837D02*
X2055131D01*
X2033902Y1623766D02*
X2055131D01*
X2035586Y1591864D02*
X2036040Y1592177D01*
X2036722Y1593114*
Y1586552*
X2041949Y1593114D02*
X2039677Y1586552D01*
X2038768Y1593114D02*
X2041949D01*
X2044222Y1587177D02*
X2043995Y1586864D01*
X2044222Y1586552*
X2044449Y1586864*
X2044222Y1587177*
X2047859Y1593114D02*
X2047177Y1592802D01*
X2046722Y1591864*
X2046495Y1590302*
Y1589364*
X2046722Y1587802*
X2047177Y1586864*
X2047859Y1586552*
X2048313*
X2048995Y1586864*
X2049449Y1587802*
X2049677Y1589364*
Y1590302*
X2049449Y1591864*
X2048995Y1592802*
X2048313Y1593114*
X2047859*
X2051722Y1590927D02*
Y1586552D01*
Y1589677D02*
X2052404Y1590614D01*
X2052859Y1590927*
X2053540*
X2053995Y1590614*
X2054222Y1589677*
Y1586552*
Y1589677D02*
X2054904Y1590614D01*
X2055359Y1590927*
X2056040*
X2056495Y1590614*
X2056722Y1589677*
Y1586552*
X2058768Y1590927D02*
Y1586552D01*
Y1589677D02*
X2059449Y1590614D01*
X2059904Y1590927*
X2060586*
X2061040Y1590614*
X2061268Y1589677*
Y1586552*
Y1589677D02*
X2061949Y1590614D01*
X2062404Y1590927*
X2063086*
X2063540Y1590614*
X2063768Y1589677*
Y1586552*
G54D44*
X2027210Y1559022D02*
Y1589817D01*
G03X2026718Y1590309I-492J-0*
G01X2017963*
X2016628Y1590862D02*
G03X2017963Y1590309I1335J1336D01*
G01X2016628Y1590862D02*
X2014581Y1592909D01*
X2014027Y1594245D02*
G03X2014581Y1592909I1889J-0D01*
G01X2014027Y1594245D02*
Y1596611D01*
G03X2013883Y1596959I-492J0*
G01X2012067Y1598775*
X2011514Y1600111D02*
G03X2012067Y1598775I1889J0D01*
G01X2011514Y1600111D02*
Y1601204D01*
G03X2010872Y1601673I-492J-0*
G01X2010358Y1601593D02*
G03X2010872Y1601673I-0J1692D01*
G01X2010358Y1601593D02*
X2008969D01*
G03X2008621Y1601449I0J-492*
G01X2007822Y1600649*
G03X2007678Y1600301I348J-348*
G01Y1592002*
G03X2008170Y1591510I492J-0*
G01X2010358*
X2012050Y1589818D02*
G03X2010358Y1591510I-1692J-0D01*
G01X2012050Y1589818D02*
Y1586818D01*
X2011739Y1585840D02*
G03X2012050Y1586818I-1381J978D01*
G01X2011739Y1585840D02*
G03Y1585271I402J-284D01*
G01X2012050Y1584294D02*
G03X2011739Y1585271I-1692J-0D01*
G01X2012050Y1584294D02*
Y1581294D01*
X2011745Y1580326D02*
G03X2012050Y1581294I-1387J968D01*
G01X2011745Y1580326D02*
G03Y1579762I404J-282D01*
G01X2012050Y1578794D02*
G03X2011745Y1579762I-1692J-0D01*
G01X2012050Y1578794D02*
Y1575794D01*
X2010358Y1574102D02*
G03X2012050Y1575794I-0J1692D01*
G01X2010358Y1574102D02*
X2008840D01*
G03X2008492Y1573958I0J-492*
G01X2006070Y1571536*
X2004520Y1570894D02*
G03X2006070Y1571536I0J2192D01*
G01X2004520Y1570894D02*
X1999116D01*
X1997566Y1571536D02*
G03X1999116Y1570894I1550J1550D01*
G01X1997566Y1571536D02*
X1995891Y1573210D01*
X1995320Y1574206D02*
G03X1995891Y1573210I2121J555D01*
G01X1995320Y1574206D02*
G03X1994495Y1574428I-476J-125D01*
G01X1992310Y1573575D02*
G03X1994495Y1574428I131J2889D01*
G01X1992310Y1573575D02*
G03X1991875Y1572814I-23J-491D01*
G01X1992044Y1572501D02*
G03X1991875Y1572814I-1919J-833D01*
G01X1992044Y1572501D02*
G03X1992474Y1572206I452J196D01*
G01X1994093Y1570515D02*
G03X1992474Y1572206I-1692J0D01*
G01X1994093Y1570515D02*
Y1563822D01*
X1992401Y1562130D02*
G03X1994093Y1563822I0J1692D01*
G01X1992401Y1562130D02*
X1991838D01*
G03X1991512Y1562006I0J-492*
G01X1990125Y1561480D02*
G03X1991512Y1562006I-0J2093D01*
G01X1990125Y1561480D02*
X1953449D01*
X1951357Y1563573D02*
G03X1953449Y1561480I2092J-0D01*
G01X1951357Y1563573D02*
Y1576635D01*
X1953449Y1578727D02*
G03X1951357Y1576635I0J-2092D01*
G01X1953449Y1578727D02*
X1977965D01*
G03X1978457Y1579219I-0J492*
G01Y1582201*
Y1586635*
X1978627Y1587501D02*
G03X1978457Y1586635I2122J-866D01*
G01X1978627Y1587501D02*
G03X1978663Y1587687I-456J186D01*
G01Y1592225*
G03X1978519Y1592573I-492J0*
G01X1973724Y1597369*
G03X1972905Y1596878I-348J-348*
G01X1972995Y1596272D02*
G03X1972905Y1596878I-2093J-0D01*
G01X1972995Y1596272D02*
Y1585437D01*
X1972239Y1583827D02*
G03X1972995Y1585437I-1337J1610D01*
G01X1972239Y1583827D02*
G03X1972165Y1583752I314J-378D01*
G01X1970832Y1583101D02*
G03X1972165Y1583752I-0J1692D01*
G01X1970832Y1583101D02*
X1953115D01*
X1952330Y1583294D02*
G03X1953115Y1583101I785J1499D01*
G01X1952330Y1583294D02*
G03X1952133Y1583349I-228J-436D01*
G01X1950789Y1583958D02*
G03X1952133Y1583349I1479J1479D01*
G01X1950789Y1583958D02*
X1945846Y1588901D01*
G03X1945498Y1589045I-348J-348*
G01X1936598*
G03X1936106Y1588553I0J-492*
G01Y1559022*
G03X1936598Y1558529I492J-0*
G01X2026718*
G03X2027210Y1559022I0J493*
G01X2011514Y1611728D02*
Y1616508D01*
G03X2011370Y1616856I-492J-0*
G01X2011268Y1616958*
G03X2010920Y1617102I-348J-348*
G01X2002022*
G03X2001530Y1616610I-0J-492*
G01Y1614688*
X2000976Y1613352D02*
G03X2001530Y1614688I-1335J1336D01*
G01X2000976Y1613352D02*
X2000555Y1612931D01*
G03X2000500Y1612302I348J-348*
G01X2000804Y1611334D02*
G03X2000500Y1612302I-1692J0D01*
G01X2000804Y1611334D02*
Y1608334D01*
X2000080Y1606946D02*
G03X2000804Y1608334I-968J1388D01*
G01X2000080Y1606946D02*
G03X1999872Y1606488I281J-404D01*
X2000167Y1604909I10918J1223*
X2000177Y1604875I476J125*
G01X2000333Y1603938D02*
G03X2000177Y1604875I-2892J0D01*
G01X2000333Y1603938D02*
Y1598464D01*
X1995304Y1596515D02*
G03X2000333Y1598464I2137J1949D01*
G01X1995304Y1596515D02*
G03X1994577I-363J-332D01*
G01X1990304D02*
G03X1994577I2137J1949D01*
G01X1990304D02*
G03X1989577I-363J-332D01*
G01X1985739Y1596126D02*
G03X1989577Y1596515I1702J2338D01*
G01X1985739Y1596126D02*
G03X1985010Y1595506I-290J-398D01*
G01X1985235Y1594564D02*
G03X1985010Y1595506I-2086J0D01*
G01X1985235Y1594564D02*
Y1587705D01*
G03X1985379Y1587357I492J0*
G01X1986074Y1586662*
G03X1986422Y1586518I348J348*
G01X1989738*
X1991212Y1585907D02*
G03X1989738Y1586518I-1474J-1475D01*
G01X1991212Y1585907D02*
G03X1992938Y1584795I3437J3437D01*
X1993014Y1584773I173J461*
G01X1994577Y1583888D02*
G03X1993014Y1584773I-2136J-1950D01*
G01X1994577Y1583888D02*
G03X1995304I364J331D01*
G01X1999577D02*
G03X1995304I-2136J-1950D01*
G01X1999577D02*
G03X2000304I364J331D01*
G01X2002195Y1584820D02*
G03X2000304Y1583888I246J-2882D01*
G01X2002195Y1584820D02*
G03X2002292Y1584838I-42J490D01*
X2003046Y1585160I-982J3347*
X2003293Y1585587I-245J427*
G01Y1601413*
X2003936Y1602963D02*
G03X2003293Y1601413I1550J-1550D01*
G01X2003936Y1602963D02*
X2005521Y1604549D01*
G03X2005665Y1604897I-348J348*
G01Y1606285*
X2005740Y1606782D02*
G03X2005665Y1606285I1618J-497D01*
G01X2005740Y1606782D02*
G03X2005762Y1606927I-470J145D01*
G01Y1609426*
X2007854Y1611518D02*
G03X2005762Y1609426I0J-2092D01*
G01X2007854Y1611518D02*
X2009847D01*
X2010798Y1611290D02*
G03X2009847Y1611518I-951J-1864D01*
G01X2010798Y1611290D02*
G03X2011514Y1611728I224J438D01*
G01X1993695Y1621422D02*
G03X1993230Y1622074I-465J160D01*
G01X1979850*
G03X1979502Y1621234I0J-492*
G01X1980266Y1620470*
X1980819Y1619134D02*
G03X1980266Y1620470I-1889J0D01*
G01X1980819Y1619134D02*
Y1618173D01*
G03X1980825Y1618096I493J-0*
G01Y1617078D02*
G03Y1618096I-3227J509D01*
G01Y1617078D02*
G03X1980819Y1617001I487J-77D01*
G01Y1616245*
X1980266Y1614909D02*
G03X1980819Y1616245I-1336J1336D01*
G01X1980266Y1614909D02*
X1979822Y1614465D01*
X1978486Y1613912D02*
G03X1979822Y1614465I0J1889D01*
G01X1978486Y1613912D02*
X1978283D01*
G03X1977792Y1613395I0J-493*
G01X1977795Y1613291D02*
G03X1977792Y1613395I-2093J-0D01*
G01X1977795Y1613291D02*
Y1611273D01*
G03X1978635Y1610925I492J0*
G01X1978814Y1611104*
X1980289Y1611715D02*
G03X1978814Y1611104I-0J-2086D01*
G01X1980289Y1611715D02*
X1981917D01*
G03X1982368Y1612011I-0J492*
G01X1982589Y1612380D02*
G03X1982368Y1612011I1330J-1046D01*
G01X1982589Y1612380D02*
G03Y1612989I-387J304D01*
G01X1982227Y1614035D02*
G03X1982589Y1612989I1692J-0D01*
G01X1982227Y1614035D02*
Y1617035D01*
X1983919Y1618727D02*
G03X1982227Y1617035I-0J-1692D01*
G01X1983919Y1618727D02*
X1986919D01*
X1988611Y1617035D02*
G03X1986919Y1618727I-1692J-0D01*
G01X1988611Y1617035D02*
Y1614035D01*
X1988591Y1613778D02*
G03X1988611Y1614035I-1672J257D01*
G01X1988591Y1613778D02*
G03X1989147Y1613216I487J-75D01*
G01X1989414Y1613235D02*
G03X1989147Y1613216I0J-1889D01*
G01X1989414Y1613235D02*
X1990697D01*
G03X1991045Y1613379I-0J492*
G01X1993449Y1615783*
G03X1993593Y1616131I-348J348*
G01Y1620809*
X1993695Y1621422D02*
G03X1993593Y1620809I1787J-613D01*
G01X1970968Y1599058D02*
G03X1971668Y1599667I243J428D01*
G01X1971537Y1600184D02*
G03X1971668Y1599667I2071J251D01*
G01X1971537Y1600184D02*
G03X1971287Y1600555I-489J-59D01*
G01X1970415Y1602035D02*
G03X1971287Y1600555I1693J-0D01*
G01X1970415Y1602035D02*
Y1605035D01*
X1970539Y1605670D02*
G03X1970415Y1605035I1569J-635D01*
G01X1970539Y1605670D02*
G03X1970200Y1606332I-456J184D01*
G01X1968961Y1607571D02*
G03X1970200Y1606332I1643J405D01*
G01X1968961Y1607571D02*
G03X1968483Y1607945I-478J-118D01*
G01X1963583*
G03X1963149Y1607221I-0J-492*
G01X1963395Y1606237D02*
G03X1963149Y1607221I-2093J0D01*
G01X1963395Y1606237D02*
Y1599822D01*
G03X1963887Y1599329I492J-0*
G01X1969937*
X1970968Y1599058D02*
G03X1969937Y1599329I-1031J-1821D01*
G01X1984072Y1596591D02*
G03X1984859Y1597161I348J348D01*
G01X1984549Y1598464D02*
G03X1984859Y1597161I2892J0D01*
G01X1984549Y1598464D02*
Y1599957D01*
G03X1984536Y1600067I-492J-0*
X1984052Y1601288I-4257J-983*
X1983627Y1601532I-425J-248*
G01X1982552*
G03X1982114Y1601264I-0J-492*
G01X1981199Y1600449D02*
G03X1982114Y1601264I-591J1586D01*
G01X1981199Y1600449D02*
G03X1981023Y1599640I172J-461D01*
G01X1984072Y1596591*
X1983735Y1596928D02*
X1984912D01*
X1982735Y1597928D02*
X1984599D01*
X1980882Y1599928D02*
X1984549D01*
X1981735Y1598928D02*
X1984549D01*
X1981888Y1600928D02*
X1984240D01*
X1963395Y1599928D02*
X1971584D01*
X1963395Y1600928D02*
X1970828D01*
X1963395Y1605928D02*
X1970570D01*
X1963395Y1601928D02*
X1970419D01*
X1963395Y1604928D02*
X1970415D01*
X1963395Y1603928D02*
X1970415D01*
X1963395Y1602928D02*
X1970415D01*
X1963277Y1606928D02*
X1969275D01*
X1963454Y1607928D02*
X1968611D01*
X1979808Y1620928D02*
X1993597D01*
X1980645Y1619928D02*
X1993593D01*
X1980819Y1618928D02*
X1993593D01*
X1988356Y1617928D02*
X1993593D01*
X1988611Y1616928D02*
X1993593D01*
X1979500Y1621928D02*
X1993580D01*
X1988611Y1615928D02*
X1993549D01*
X1988611Y1614928D02*
X1992594D01*
X1988607Y1613928D02*
X1991594D01*
X1977795Y1612928D02*
X1982629D01*
X1980848Y1617928D02*
X1982481D01*
X1977795Y1611928D02*
X1982322D01*
X1978735Y1613928D02*
X1982230D01*
X1980819Y1616928D02*
X1982227D01*
X1980793Y1615928D02*
X1982227D01*
X1980285Y1614928D02*
X1982227D01*
X1977936Y1610928D02*
X1978638D01*
X2001530Y1615928D02*
X2011514D01*
X2001530Y1614928D02*
X2011514D01*
X2001370Y1613928D02*
X2011514D01*
X2000552Y1612928D02*
X2011514D01*
X2000696Y1611928D02*
X2011514D01*
X2001646Y1616928D02*
X2011298D01*
X2000804Y1610928D02*
X2006398D01*
X2000804Y1609928D02*
X2005823D01*
X2000804Y1608928D02*
X2005762D01*
X2000754Y1607928D02*
X2005762D01*
X2000055Y1606928D02*
X2005762D01*
X1999949Y1605928D02*
X2005665D01*
X2000162Y1604928D02*
X2005665D01*
X2000333Y1603928D02*
X2004901D01*
X2000333Y1602928D02*
X2003901D01*
X2000333Y1601928D02*
X2003355D01*
X2000333Y1600928D02*
X2003293D01*
X2000333Y1599928D02*
X2003293D01*
X2000333Y1598928D02*
X2003293D01*
X2000283Y1597928D02*
X2003293D01*
X1999891Y1596928D02*
X2003293D01*
X1998831Y1595928D02*
X2003293D01*
X1985203Y1594928D02*
X2003293D01*
X1985235Y1593928D02*
X2003293D01*
X1985235Y1592928D02*
X2003293D01*
X1985235Y1591928D02*
X2003293D01*
X1985235Y1590928D02*
X2003293D01*
X1985235Y1589928D02*
X2003293D01*
X1985235Y1588928D02*
X2003293D01*
X1985235Y1587928D02*
X2003293D01*
X1985809Y1586928D02*
X2003293D01*
X1991191Y1585928D02*
X2003293D01*
X1992619Y1584928D02*
X2002558D01*
X1999540Y1583928D02*
X2000342D01*
X1993831Y1595928D02*
X1996051D01*
X1994540Y1583928D02*
X1995342D01*
X1988831Y1595928D02*
X1991051D01*
X1985000D02*
X1986051D01*
X2012050Y1588928D02*
X2027210D01*
X2012050Y1587928D02*
X2027210D01*
X2012050Y1586928D02*
X2027210D01*
X2011797Y1585928D02*
X2027210D01*
X2011926Y1584928D02*
X2027210D01*
X2012050Y1583928D02*
X2027210D01*
X2012050Y1582928D02*
X2027210D01*
X2012050Y1581928D02*
X2027210D01*
X2012010Y1580928D02*
X2027210D01*
X2011671Y1579928D02*
X2027210D01*
X2012044Y1578928D02*
X2027210D01*
X2012050Y1577928D02*
X2027210D01*
X2012050Y1576928D02*
X2027210D01*
X2012050Y1575928D02*
X2027210D01*
X2011811Y1574928D02*
X2027210D01*
X2008463Y1573928D02*
X2027210D01*
X2007463Y1572928D02*
X2027210D01*
X2006463Y1571928D02*
X2027210D01*
X2004907Y1570928D02*
X2027210D01*
X1994093Y1569928D02*
X2027210D01*
X1994093Y1568928D02*
X2027210D01*
X1994093Y1567928D02*
X2027210D01*
X1994093Y1566928D02*
X2027210D01*
X1994093Y1565928D02*
X2027210D01*
X1994093Y1564928D02*
X2027210D01*
X1994093Y1563928D02*
X2027210D01*
X1993838Y1562928D02*
X2027210D01*
X1991418Y1561928D02*
X2027210D01*
X1936106Y1560928D02*
X2027210D01*
X1936106Y1559928D02*
X2027210D01*
X1936115Y1558928D02*
X2027201D01*
X2012046Y1589928D02*
X2027198D01*
X2011634Y1590928D02*
X2016562D01*
X2007683Y1591928D02*
X2015562D01*
X2007678Y1592928D02*
X2014562D01*
X2007678Y1593928D02*
X2014054D01*
X2007678Y1595928D02*
X2014027D01*
X2007678Y1594928D02*
X2014027D01*
X2007678Y1596928D02*
X2013912D01*
X2007678Y1597928D02*
X2012915D01*
X2007678Y1598928D02*
X2011930D01*
X2007678Y1599928D02*
X2011523D01*
X2008101Y1600928D02*
X2011514D01*
X1994042Y1570928D02*
X1998729D01*
X1993332Y1571928D02*
X1997173D01*
X1991820Y1572928D02*
X1996173D01*
X1993831Y1573928D02*
X1995413D01*
X1972995Y1591928D02*
X1978663D01*
X1972995Y1590928D02*
X1978663D01*
X1972995Y1589928D02*
X1978663D01*
X1972995Y1588928D02*
X1978663D01*
X1972995Y1587928D02*
X1978663D01*
X1972995Y1586928D02*
X1978476D01*
X1972995Y1585928D02*
X1978457D01*
X1972932Y1584928D02*
X1978457D01*
X1972351Y1583928D02*
X1978457D01*
X1936106Y1582928D02*
X1978457D01*
X1936106Y1581928D02*
X1978457D01*
X1936106Y1580928D02*
X1978457D01*
X1936106Y1579928D02*
X1978457D01*
X1936106Y1578928D02*
X1978362D01*
X1972995Y1592928D02*
X1978165D01*
X1972995Y1593928D02*
X1977165D01*
X1972995Y1594928D02*
X1976165D01*
X1972995Y1595928D02*
X1975165D01*
X1972892Y1596928D02*
X1974165D01*
X1936106Y1561928D02*
X1952156D01*
X1936106Y1577928D02*
X1951805D01*
X1936106Y1562928D02*
X1951459D01*
X1936106Y1576928D02*
X1951378D01*
X1936106Y1575928D02*
X1951357D01*
X1936106Y1574928D02*
X1951357D01*
X1936106Y1573928D02*
X1951357D01*
X1936106Y1572928D02*
X1951357D01*
X1936106Y1571928D02*
X1951357D01*
X1936106Y1570928D02*
X1951357D01*
X1936106Y1569928D02*
X1951357D01*
X1936106Y1568928D02*
X1951357D01*
X1936106Y1567928D02*
X1951357D01*
X1936106Y1566928D02*
X1951357D01*
X1936106Y1565928D02*
X1951357D01*
X1936106Y1564928D02*
X1951357D01*
X1936106Y1563928D02*
X1951357D01*
X1936106Y1583928D02*
X1950819D01*
X1936106Y1584928D02*
X1949819D01*
X1936106Y1585928D02*
X1948819D01*
X1936106Y1586928D02*
X1947819D01*
X1936106Y1587928D02*
X1946819D01*
X1936280Y1588928D02*
X1945816D01*
X1984106Y1596560D02*
Y1601192D01*
X1983106Y1597557D02*
Y1601532D01*
X1982106Y1598557D02*
Y1601249D01*
X1981106Y1599557D02*
Y1600403D01*
X1971106Y1599005D02*
Y1600671D01*
X1970106Y1599323D02*
Y1606358D01*
X1969106Y1599329D02*
Y1607187D01*
X1968106Y1599329D02*
Y1607945D01*
X1967106Y1599329D02*
Y1607945D01*
X1966106Y1599329D02*
Y1607945D01*
X1965106Y1599329D02*
Y1607945D01*
X1964106Y1599329D02*
Y1607945D01*
X1963106Y1607330D02*
Y1607576D01*
X1993106Y1615441D02*
Y1622074D01*
X1992106Y1614441D02*
Y1622074D01*
X1991106Y1613441D02*
Y1622074D01*
X1990106Y1613235D02*
Y1622074D01*
X1989106Y1613212D02*
Y1622074D01*
X1988106Y1618240D02*
Y1622074D01*
X1987106Y1618717D02*
Y1622074D01*
X1986106Y1618727D02*
Y1622074D01*
X1985106Y1618727D02*
Y1622074D01*
X1984106Y1618727D02*
Y1622074D01*
X1983106Y1618519D02*
Y1622074D01*
X1982106Y1611753D02*
Y1622074D01*
X1981106Y1611715D02*
Y1622074D01*
X1980106Y1620630D02*
Y1622074D01*
Y1611707D02*
Y1614749D01*
X1979106Y1611348D02*
Y1614016D01*
X1978106Y1610815D02*
Y1613879D01*
X2011106Y1611243D02*
Y1617065D01*
X2010106Y1611502D02*
Y1617102D01*
X2009106Y1611518D02*
Y1617102D01*
X2008106Y1611518D02*
Y1617102D01*
X2007106Y1611380D02*
Y1617102D01*
X2006106Y1610576D02*
Y1617102D01*
X2005106Y1604134D02*
Y1617102D01*
X2004106Y1603134D02*
Y1617102D01*
X2003106Y1585201D02*
Y1617102D01*
X2002106Y1584811D02*
Y1617102D01*
X2001106Y1584504D02*
Y1613496D01*
X2000106Y1605150D02*
Y1606965D01*
Y1583756D02*
Y1597342D01*
X1999106Y1584303D02*
Y1596100D01*
X1998106Y1584753D02*
Y1595650D01*
X1997106Y1584811D02*
Y1595592D01*
X1996106Y1584504D02*
Y1595899D01*
X1995106Y1583756D02*
Y1596647D01*
X1994106Y1584303D02*
Y1596100D01*
X1993106Y1584753D02*
Y1595650D01*
X1992106Y1585202D02*
Y1595592D01*
X1991106Y1586006D02*
Y1595899D01*
X1990106Y1586485D02*
Y1596647D01*
X1989106Y1586518D02*
Y1596100D01*
X1988106Y1586518D02*
Y1595650D01*
X1987106Y1586518D02*
Y1595592D01*
X1986106Y1586633D02*
Y1595899D01*
X1985106Y1595285D02*
Y1596081D01*
X2027106Y1558719D02*
Y1590119D01*
X2026106Y1558529D02*
Y1590309D01*
X2025106Y1558529D02*
Y1590309D01*
X2024106Y1558529D02*
Y1590309D01*
X2023106Y1558529D02*
Y1590309D01*
X2022106Y1558529D02*
Y1590309D01*
X2021106Y1558529D02*
Y1590309D01*
X2020106Y1558529D02*
Y1590309D01*
X2019106Y1558529D02*
Y1590309D01*
X2018106Y1558529D02*
Y1590309D01*
X2017106Y1558529D02*
Y1590515D01*
X2016106Y1558529D02*
Y1591384D01*
X2015106Y1558529D02*
Y1592384D01*
X2014106Y1558529D02*
Y1593705D01*
X2013106Y1558529D02*
Y1597736D01*
X2012106Y1558529D02*
Y1598736D01*
X2011106Y1591335D02*
Y1601689D01*
Y1558529D02*
Y1574276D01*
X2010106Y1591510D02*
Y1601593D01*
Y1558529D02*
Y1574102D01*
X2009106Y1591510D02*
Y1601593D01*
Y1558529D02*
Y1574102D01*
X2008106Y1591514D02*
Y1600933D01*
Y1558529D02*
Y1573572D01*
X2007106Y1558529D02*
Y1572572D01*
X2006106Y1558529D02*
Y1571572D01*
X2005106Y1558529D02*
Y1570973D01*
X2004106Y1558529D02*
Y1570894D01*
X2003106Y1558529D02*
Y1570894D01*
X2002106Y1558529D02*
Y1570894D01*
X2001106Y1558529D02*
Y1570894D01*
X2000106Y1558529D02*
Y1570894D01*
X1999106Y1558529D02*
Y1570894D01*
X1998106Y1558529D02*
Y1571140D01*
X1997106Y1558529D02*
Y1571995D01*
X1996106Y1558529D02*
Y1572995D01*
X1995106Y1558529D02*
Y1574498D01*
X1994106Y1558529D02*
Y1574100D01*
X1993106Y1572053D02*
Y1573650D01*
Y1558529D02*
Y1562284D01*
X1992106Y1572396D02*
Y1573541D01*
Y1558529D02*
Y1562130D01*
X1991106Y1558529D02*
Y1561725D01*
X1990106Y1558529D02*
Y1561480D01*
X1989106Y1558529D02*
Y1561480D01*
X1988106Y1558529D02*
Y1561480D01*
X1987106Y1558529D02*
Y1561480D01*
X1986106Y1558529D02*
Y1561480D01*
X1985106Y1558529D02*
Y1561480D01*
X1984106Y1558529D02*
Y1561480D01*
X1983106Y1558529D02*
Y1561480D01*
X1982106Y1558529D02*
Y1561480D01*
X1981106Y1558529D02*
Y1561480D01*
X1980106Y1558529D02*
Y1561480D01*
X1979106Y1558529D02*
Y1561480D01*
X1978106Y1578748D02*
Y1592986D01*
Y1558529D02*
Y1561480D01*
X1977106Y1578727D02*
Y1593986D01*
Y1558529D02*
Y1561480D01*
X1976106Y1578727D02*
Y1594986D01*
Y1558529D02*
Y1561480D01*
X1975106Y1578727D02*
Y1595986D01*
Y1558529D02*
Y1561480D01*
X1974106Y1578727D02*
Y1596986D01*
Y1558529D02*
Y1561480D01*
X1973106Y1578727D02*
Y1597433D01*
Y1558529D02*
Y1561480D01*
X1972106Y1578727D02*
Y1583681D01*
Y1558529D02*
Y1561480D01*
X1971106Y1578727D02*
Y1583124D01*
Y1558529D02*
Y1561480D01*
X1970106Y1578727D02*
Y1583101D01*
Y1558529D02*
Y1561480D01*
X1969106Y1578727D02*
Y1583101D01*
Y1558529D02*
Y1561480D01*
X1968106Y1578727D02*
Y1583101D01*
Y1558529D02*
Y1561480D01*
X1967106Y1578727D02*
Y1583101D01*
Y1558529D02*
Y1561480D01*
X1966106Y1578727D02*
Y1583101D01*
Y1558529D02*
Y1561480D01*
X1965106Y1578727D02*
Y1583101D01*
Y1558529D02*
Y1561480D01*
X1964106Y1578727D02*
Y1583101D01*
Y1558529D02*
Y1561480D01*
X1963106Y1578727D02*
Y1583101D01*
Y1558529D02*
Y1561480D01*
X1962106Y1578727D02*
Y1583101D01*
Y1558529D02*
Y1561480D01*
X1961106Y1578727D02*
Y1583101D01*
Y1558529D02*
Y1561480D01*
X1960106Y1578727D02*
Y1583101D01*
Y1558529D02*
Y1561480D01*
X1959106Y1578727D02*
Y1583101D01*
Y1558529D02*
Y1561480D01*
X1958106Y1578727D02*
Y1583101D01*
Y1558529D02*
Y1561480D01*
X1957106Y1578727D02*
Y1583101D01*
Y1558529D02*
Y1561480D01*
X1956106Y1578727D02*
Y1583101D01*
Y1558529D02*
Y1561480D01*
X1955106Y1578727D02*
Y1583101D01*
Y1558529D02*
Y1561480D01*
X1954106Y1578727D02*
Y1583101D01*
Y1558529D02*
Y1561480D01*
X1953106Y1578699D02*
Y1583101D01*
Y1558529D02*
Y1561509D01*
X1952106Y1578239D02*
Y1583351D01*
Y1558529D02*
Y1561968D01*
X1951106Y1558529D02*
Y1583697D01*
X1950106Y1558529D02*
Y1584640D01*
X1949106Y1558529D02*
Y1585640D01*
X1948106Y1558529D02*
Y1586640D01*
X1947106Y1558529D02*
Y1587640D01*
X1946106Y1558529D02*
Y1588640D01*
X1945106Y1558529D02*
Y1589045D01*
X1944106Y1558529D02*
Y1589045D01*
X1943106Y1558529D02*
Y1589045D01*
X1942106Y1558529D02*
Y1589045D01*
X1941106Y1558529D02*
Y1589045D01*
X1940106Y1558529D02*
Y1589045D01*
X1939106Y1558529D02*
Y1589045D01*
X1938106Y1558529D02*
Y1589045D01*
X1937106Y1558529D02*
Y1589045D01*
G54D47*
X1967091Y1620299D02*
X1977766D01*
X1978930Y1619134*
Y1616245*
X1978486Y1615801*
X1967091*
Y1620299*
X1993548Y1600738D02*
Y1610308D01*
X1997187Y1613947*
X1998900*
X1999641Y1614688*
Y1618339*
X2000292Y1618991*
X2011906*
X2013403Y1617494*
Y1600111*
X2015916Y1597598*
Y1594245*
X2017963Y1592198*
X2026737*
Y1621408*
X2018272*
Y1599948*
X2016678Y1601543*
Y1620184*
X2014717Y1622146*
X1996819*
X1995482Y1620809*
Y1615145*
X1991683Y1611346*
X1989414*
Y1607788*
X1991343Y1605859*
Y1600738*
X1993548*
X1967091Y1620299D02*
X1977766D01*
X1967091Y1619905D02*
X1978160D01*
X1967091Y1619511D02*
X1978554D01*
X1967091Y1619117D02*
X1978930D01*
X1967091Y1618724D02*
X1978930D01*
X1967091Y1618330D02*
X1978930D01*
X1967091Y1617936D02*
X1978930D01*
X1967091Y1617543D02*
X1978930D01*
X1967091Y1617149D02*
X1978930D01*
X1967091Y1616755D02*
X1978930D01*
X1967091Y1616362D02*
X1978930D01*
X1967091Y1615968D02*
X1978653D01*
X1967091Y1615801D02*
Y1620299D01*
X1967485Y1615801D02*
Y1620299D01*
X1967879Y1615801D02*
Y1620299D01*
X1968272Y1615801D02*
Y1620299D01*
X1968666Y1615801D02*
Y1620299D01*
X1969060Y1615801D02*
Y1620299D01*
X1969454Y1615801D02*
Y1620299D01*
X1969847Y1615801D02*
Y1620299D01*
X1970241Y1615801D02*
Y1620299D01*
X1970635Y1615801D02*
Y1620299D01*
X1971028Y1615801D02*
Y1620299D01*
X1971422Y1615801D02*
Y1620299D01*
X1971816Y1615801D02*
Y1620299D01*
X1972209Y1615801D02*
Y1620299D01*
X1972603Y1615801D02*
Y1620299D01*
X1972997Y1615801D02*
Y1620299D01*
X1973391Y1615801D02*
Y1620299D01*
X1973784Y1615801D02*
Y1620299D01*
X1974178Y1615801D02*
Y1620299D01*
X1974572Y1615801D02*
Y1620299D01*
X1974965Y1615801D02*
Y1620299D01*
X1975359Y1615801D02*
Y1620299D01*
X1975753Y1615801D02*
Y1620299D01*
X1976147Y1615801D02*
Y1620299D01*
X1976540Y1615801D02*
Y1620299D01*
X1976934Y1615801D02*
Y1620299D01*
X1977328Y1615801D02*
Y1620299D01*
X1977721Y1615801D02*
Y1620299D01*
X1978115Y1615801D02*
Y1619950D01*
X1978509Y1615823D02*
Y1619556D01*
X1978902Y1616217D02*
Y1619162D01*
X1996671Y1621998D02*
X2014864D01*
X1996277Y1621604D02*
X2015258D01*
X1995884Y1621211D02*
X2015652D01*
X2018272D02*
X2026737D01*
X1995490Y1620817D02*
X2016045D01*
X2018272D02*
X2026737D01*
X1995482Y1620423D02*
X2016439D01*
X2018272D02*
X2026737D01*
X1995482Y1620030D02*
X2016678D01*
X2018272D02*
X2026737D01*
X1995482Y1619636D02*
X2016678D01*
X2018272D02*
X2026737D01*
X1995482Y1619242D02*
X2016678D01*
X2018272D02*
X2026737D01*
X1995482Y1618848D02*
X2000150D01*
X2012049D02*
X2016678D01*
X2018272D02*
X2026737D01*
X1995482Y1618455D02*
X1999756D01*
X2012442D02*
X2016678D01*
X2018272D02*
X2026737D01*
X1995482Y1618061D02*
X1999641D01*
X2012836D02*
X2016678D01*
X2018272D02*
X2026737D01*
X1995482Y1617667D02*
X1999641D01*
X2013230D02*
X2016678D01*
X2018272D02*
X2026737D01*
X1995482Y1617274D02*
X1999641D01*
X2013403D02*
X2016678D01*
X2018272D02*
X2026737D01*
X1995482Y1616880D02*
X1999641D01*
X2013403D02*
X2016678D01*
X2018272D02*
X2026737D01*
X1995482Y1616486D02*
X1999641D01*
X2013403D02*
X2016678D01*
X2018272D02*
X2026737D01*
X1995482Y1616093D02*
X1999641D01*
X2013403D02*
X2016678D01*
X2018272D02*
X2026737D01*
X1995482Y1615699D02*
X1999641D01*
X2013403D02*
X2016678D01*
X2018272D02*
X2026737D01*
X1995482Y1615305D02*
X1999641D01*
X2013403D02*
X2016678D01*
X2018272D02*
X2026737D01*
X1995249Y1614911D02*
X1999641D01*
X2013403D02*
X2016678D01*
X2018272D02*
X2026737D01*
X1994855Y1614518D02*
X1999470D01*
X2013403D02*
X2016678D01*
X2018272D02*
X2026737D01*
X1994461Y1614124D02*
X1999077D01*
X2013403D02*
X2016678D01*
X2018272D02*
X2026737D01*
X1994068Y1613730D02*
X1996970D01*
X2013403D02*
X2016678D01*
X2018272D02*
X2026737D01*
X1993674Y1613337D02*
X1996577D01*
X2013403D02*
X2016678D01*
X2018272D02*
X2026737D01*
X1993280Y1612943D02*
X1996183D01*
X2013403D02*
X2016678D01*
X2018272D02*
X2026737D01*
X1992887Y1612549D02*
X1995789D01*
X2013403D02*
X2016678D01*
X2018272D02*
X2026737D01*
X1992493Y1612156D02*
X1995396D01*
X2013403D02*
X2016678D01*
X2018272D02*
X2026737D01*
X1992099Y1611762D02*
X1995002D01*
X2013403D02*
X2016678D01*
X2018272D02*
X2026737D01*
X1991705Y1611368D02*
X1994608D01*
X2013403D02*
X2016678D01*
X2018272D02*
X2026737D01*
X1989414Y1610974D02*
X1994215D01*
X2013403D02*
X2016678D01*
X2018272D02*
X2026737D01*
X1989414Y1610581D02*
X1993821D01*
X2013403D02*
X2016678D01*
X2018272D02*
X2026737D01*
X1989414Y1610187D02*
X1993548D01*
X2013403D02*
X2016678D01*
X2018272D02*
X2026737D01*
X1989414Y1609793D02*
X1993548D01*
X2013403D02*
X2016678D01*
X2018272D02*
X2026737D01*
X1989414Y1609400D02*
X1993548D01*
X2013403D02*
X2016678D01*
X2018272D02*
X2026737D01*
X1989414Y1609006D02*
X1993548D01*
X2013403D02*
X2016678D01*
X2018272D02*
X2026737D01*
X1989414Y1608612D02*
X1993548D01*
X2013403D02*
X2016678D01*
X2018272D02*
X2026737D01*
X1989414Y1608219D02*
X1993548D01*
X2013403D02*
X2016678D01*
X2018272D02*
X2026737D01*
X1989414Y1607825D02*
X1993548D01*
X2013403D02*
X2016678D01*
X2018272D02*
X2026737D01*
X1989771Y1607431D02*
X1993548D01*
X2013403D02*
X2016678D01*
X2018272D02*
X2026737D01*
X1990165Y1607037D02*
X1993548D01*
X2013403D02*
X2016678D01*
X2018272D02*
X2026737D01*
X1990559Y1606644D02*
X1993548D01*
X2013403D02*
X2016678D01*
X2018272D02*
X2026737D01*
X1990952Y1606250D02*
X1993548D01*
X2013403D02*
X2016678D01*
X2018272D02*
X2026737D01*
X1991343Y1605856D02*
X1993548D01*
X2013403D02*
X2016678D01*
X2018272D02*
X2026737D01*
X1991343Y1605463D02*
X1993548D01*
X2013403D02*
X2016678D01*
X2018272D02*
X2026737D01*
X1991343Y1605069D02*
X1993548D01*
X2013403D02*
X2016678D01*
X2018272D02*
X2026737D01*
X1991343Y1604675D02*
X1993548D01*
X2013403D02*
X2016678D01*
X2018272D02*
X2026737D01*
X1991343Y1604282D02*
X1993548D01*
X2013403D02*
X2016678D01*
X2018272D02*
X2026737D01*
X1991343Y1603888D02*
X1993548D01*
X2013403D02*
X2016678D01*
X2018272D02*
X2026737D01*
X1991343Y1603494D02*
X1993548D01*
X2013403D02*
X2016678D01*
X2018272D02*
X2026737D01*
X1991343Y1603100D02*
X1993548D01*
X2013403D02*
X2016678D01*
X2018272D02*
X2026737D01*
X1991343Y1602707D02*
X1993548D01*
X2013403D02*
X2016678D01*
X2018272D02*
X2026737D01*
X1991343Y1602313D02*
X1993548D01*
X2013403D02*
X2016678D01*
X2018272D02*
X2026737D01*
X1991343Y1601919D02*
X1993548D01*
X2013403D02*
X2016678D01*
X2018272D02*
X2026737D01*
X1991343Y1601526D02*
X1993548D01*
X2013403D02*
X2016695D01*
X2018272D02*
X2026737D01*
X1991343Y1601132D02*
X1993548D01*
X2013403D02*
X2017089D01*
X2018272D02*
X2026737D01*
X2013403Y1600738D02*
X2017482D01*
X2018272D02*
X2026737D01*
X2013403Y1600345D02*
X2017876D01*
X2018272D02*
X2026737D01*
X2013563Y1599951D02*
X2018270D01*
X2018272D02*
X2026737D01*
X2013957Y1599557D02*
X2026737D01*
X2014351Y1599163D02*
X2026737D01*
X2014744Y1598770D02*
X2026737D01*
X2015138Y1598376D02*
X2026737D01*
X2015532Y1597982D02*
X2026737D01*
X2015916Y1597589D02*
X2026737D01*
X2015916Y1597195D02*
X2026737D01*
X2015916Y1596801D02*
X2026737D01*
X2015916Y1596408D02*
X2026737D01*
X2015916Y1596014D02*
X2026737D01*
X2015916Y1595620D02*
X2026737D01*
X2015916Y1595226D02*
X2026737D01*
X2015916Y1594833D02*
X2026737D01*
X2015916Y1594439D02*
X2026737D01*
X2016116Y1594045D02*
X2026737D01*
X2016510Y1593652D02*
X2026737D01*
X2016903Y1593258D02*
X2026737D01*
X2017297Y1592864D02*
X2026737D01*
X2017691Y1592471D02*
X2026737D01*
X1989611Y1607591D02*
Y1611346D01*
X1990005Y1607198D02*
Y1611346D01*
X1990398Y1606804D02*
Y1611346D01*
X1990792Y1606410D02*
Y1611346D01*
X1991186Y1606017D02*
Y1611346D01*
X1991580Y1600738D02*
Y1611346D01*
X1991973Y1600738D02*
Y1611636D01*
X1992367Y1600738D02*
Y1612030D01*
X1992761Y1600738D02*
Y1612423D01*
X1993154Y1600738D02*
Y1612817D01*
X1993548Y1610308D02*
Y1613211D01*
X1993942Y1610702D02*
Y1613605D01*
X1994335Y1611095D02*
Y1613998D01*
X1994729Y1611489D02*
Y1614392D01*
X1995123Y1611883D02*
Y1614786D01*
X1995517Y1612276D02*
Y1620844D01*
X1995910Y1612670D02*
Y1621237D01*
X1996304Y1613064D02*
Y1621631D01*
X1996698Y1613458D02*
Y1622025D01*
X1997091Y1613851D02*
Y1622146D01*
X1997485Y1613947D02*
Y1622146D01*
X1997879Y1613947D02*
Y1622146D01*
X1998272Y1613947D02*
Y1622146D01*
X1998666Y1613947D02*
Y1622146D01*
X1999060Y1614107D02*
Y1622146D01*
X1999454Y1614501D02*
Y1622146D01*
X1999847Y1618546D02*
Y1622146D01*
X2000241Y1618940D02*
Y1622146D01*
X2000635Y1618991D02*
Y1622146D01*
X2001028Y1618991D02*
Y1622146D01*
X2001422Y1618991D02*
Y1622146D01*
X2001816Y1618991D02*
Y1622146D01*
X2002209Y1618991D02*
Y1622146D01*
X2002603Y1618991D02*
Y1622146D01*
X2002997Y1618991D02*
Y1622146D01*
X2003391Y1618991D02*
Y1622146D01*
X2003784Y1618991D02*
Y1622146D01*
X2004178Y1618991D02*
Y1622146D01*
X2004572Y1618991D02*
Y1622146D01*
X2004965Y1618991D02*
Y1622146D01*
X2005359Y1618991D02*
Y1622146D01*
X2005753Y1618991D02*
Y1622146D01*
X2006147Y1618991D02*
Y1622146D01*
X2006540Y1618991D02*
Y1622146D01*
X2006934Y1618991D02*
Y1622146D01*
X2007328Y1618991D02*
Y1622146D01*
X2007721Y1618991D02*
Y1622146D01*
X2008115Y1618991D02*
Y1622146D01*
X2008509Y1618991D02*
Y1622146D01*
X2008902Y1618991D02*
Y1622146D01*
X2009296Y1618991D02*
Y1622146D01*
X2009690Y1618991D02*
Y1622146D01*
X2010084Y1618991D02*
Y1622146D01*
X2010477Y1618991D02*
Y1622146D01*
X2010871Y1618991D02*
Y1622146D01*
X2011265Y1618991D02*
Y1622146D01*
X2011658Y1618991D02*
Y1622146D01*
X2012052Y1618845D02*
Y1622146D01*
X2012446Y1618451D02*
Y1622146D01*
X2012839Y1618058D02*
Y1622146D01*
X2013233Y1617664D02*
Y1622146D01*
X2013627Y1599887D02*
Y1622146D01*
X2014021Y1599494D02*
Y1622146D01*
X2014414Y1599100D02*
Y1622146D01*
X2014808Y1598706D02*
Y1622054D01*
X2015202Y1598312D02*
Y1621661D01*
X2015595Y1597919D02*
Y1621267D01*
X2015989Y1594172D02*
Y1620873D01*
X2016383Y1593779D02*
Y1620480D01*
X2016776Y1593385D02*
Y1601444D01*
X2017170Y1592991D02*
Y1601050D01*
X2017564Y1592598D02*
Y1600657D01*
X2017958Y1592204D02*
Y1600263D01*
X2018351Y1592198D02*
Y1621408D01*
X2018745Y1592198D02*
Y1621408D01*
X2019139Y1592198D02*
Y1621408D01*
X2019532Y1592198D02*
Y1621408D01*
X2019926Y1592198D02*
Y1621408D01*
X2020320Y1592198D02*
Y1621408D01*
X2020713Y1592198D02*
Y1621408D01*
X2021107Y1592198D02*
Y1621408D01*
X2021501Y1592198D02*
Y1621408D01*
X2021895Y1592198D02*
Y1621408D01*
X2022288Y1592198D02*
Y1621408D01*
X2022682Y1592198D02*
Y1621408D01*
X2023076Y1592198D02*
Y1621408D01*
X2023469Y1592198D02*
Y1621408D01*
X2023863Y1592198D02*
Y1621408D01*
X2024257Y1592198D02*
Y1621408D01*
X2024650Y1592198D02*
Y1621408D01*
X2025044Y1592198D02*
Y1621408D01*
X2025438Y1592198D02*
Y1621408D01*
X2025832Y1592198D02*
Y1621408D01*
X2026225Y1592198D02*
Y1621408D01*
X2026619Y1592198D02*
Y1621408D01*
G54D93*
X1997024Y1592929D03*
X2002149Y1587410D03*
X1997149D03*
X1992024D03*
X1987233D03*
X1987024Y1592929D03*
X1992149D03*
X2001858D03*
X1959021Y1559790D03*
X1952131D03*
X1945241D03*
X1938351D03*
X1965910D03*
X1996157Y1570263D03*
X1972800Y1559790D03*
X2007249D03*
X1979690D03*
X1993469D03*
X1986580D03*
X2000359D03*
X1968438Y1605909D03*
X1939335Y1575538D03*
X1968749Y1601635D03*
X1961973Y1580463D03*
X1945241Y1575538D03*
X2009094Y1608237D03*
X1975753Y1590302D03*
X2002157Y1606863D03*
X1975349Y1581235D03*
X1990886Y1620540D03*
X1977598Y1617587D03*
X2009587Y1615619D03*
X1980674Y1612943D03*
X2021028Y1559790D03*
X2014139D03*
Y1565696D03*
X2011757Y1596663D03*
X2023981Y1575538D03*
X2015123Y1586368D03*
X2014139Y1571601D03*
X2018076Y1575538D03*
G54D105*
X1970232Y1575252D02*
G03X1977661Y1570703I7187J3397D01*
X1970232Y1565703I255J-8397*
G01Y1574059D02*
G03X1977661Y1570703I7146J5922D01*
G01X1970232Y1572865D02*
G03X1977661Y1570703I7047J10375D01*
G01X1970232Y1571671D02*
G03X1977661Y1570703I6714J22541D01*
G01X1970232Y1570478*
X1977661Y1570703D02*
G03X1970232Y1569284I728J-23960D01*
G01X1977661Y1570703D02*
G03X1970232Y1568090I394J-12988D01*
G01X1977661Y1570703D02*
G03X1970232Y1566896I295J-9729D01*
G01X1961973Y1570226D02*
X1987370Y1570999D01*
X1987441Y1571069*
X1997131Y1570235D02*
G03X1997776Y1568643I2204J-33D01*
X1996184Y1569288I-1558J-1559*
G01X1997776Y1568643D02*
X1996846Y1569573D01*
X2001663Y1565262D02*
G03X1999251Y1567169I-2412J-573D01*
X2001663Y1569075I-0J2479*
G01Y1566215D02*
G03X1999251Y1567169I-2412J-2575D01*
G01X2001663*
X1999251D02*
G03X2001663Y1568122I-0J3528D01*
G01X1996157Y1570263D02*
X1999251Y1567169D01*
X2004606*
X1965598Y1604046D02*
G03X1966349Y1603535I751J296D01*
X1965598Y1603023I0J-807*
G01X1966349Y1603535D02*
X1965758D01*
X1966953Y1603057D02*
G03X1968610Y1602600I1368J1728D01*
G01X1967778Y1601549D02*
G03X1966953Y1603057I-2193J-221D01*
G01X1967985Y1602240*
X1964858Y1603535D02*
X1966349D01*
X1968749Y1601635*
X1965061Y1604412D02*
G03X1966620Y1604704I435J1988D01*
X1965744Y1603381I1125J-1697*
G01X1966620Y1604704D02*
X1965608Y1604032D01*
X1966529Y1604643D02*
G03X1967478Y1606076I-1218J1837D01*
G01X1968218Y1604959D02*
G03X1966529Y1604643I-471J-2153D01*
G01X1967626Y1605370*
X1964858Y1603535D02*
X1968438Y1605909D01*
X1941501Y1585577D02*
X1941557Y1584042D01*
X1969724Y1601607D02*
G03X1970369Y1600015I2204J-33D01*
X1968777Y1600660I-1559J-1559*
G01X1970369Y1600015D02*
X1969439Y1600946D01*
X1975349Y1583526D02*
G03X1976019Y1581943I2205J-0D01*
G01X1974680D02*
G03X1975349Y1583526I-1535J1583D01*
G01Y1582210*
X1968749Y1601635D02*
X1975349Y1595035D01*
Y1581235*
X1941501Y1595449D02*
Y1595026D01*
X1948502Y1590699D02*
G03X1953715Y1595308I0J5252D01*
G01Y1586090D02*
G03X1948502Y1590699I-5213J-643D01*
X1953715Y1594156I0J5658*
G01X1948502Y1590699D02*
G03X1953715Y1593003I0J7047D01*
G01X1948502Y1590699D02*
G03X1953715Y1591851I0J12366D01*
G01X1948502Y1590699D02*
X1953715D01*
Y1589547D02*
G03X1948502Y1590699I-5213J-11214D01*
G01X1953715Y1588394D02*
G03X1948502Y1590699I-5213J-4742D01*
G01X1953715Y1587242D02*
G03X1948502Y1590699I-5213J-2202D01*
G01X1941501Y1595449D02*
X1943752D01*
X1948502Y1590699*
X1961973*
X2009764Y1607529D02*
G03X2009094Y1605946I1535J-1583D01*
X2008425Y1607529I-2204J0*
G01X2009094Y1605946D02*
Y1607262D01*
X2008793Y1604720D02*
X2009094Y1605022D01*
Y1608237*
X2003083Y1606561D02*
G03X2002441Y1604590I2703J-1971D01*
X2001698Y1606003I-1715J-0*
G01X2002441Y1604590D02*
G03X2002339Y1605905I-8522J-0D01*
G01X2001915Y1604075D02*
G03X2002441Y1606578I-5696J2503D01*
X2002967Y1604075I6222J0*
G01X2002157Y1606863D02*
X2002441Y1606578D01*
Y1601201*
X2001188Y1593637D02*
G03X2001858Y1595219I-1535J1582D01*
X2002527Y1593637I2204J0*
G01X2001858Y1595219D02*
Y1593903D01*
Y1595321D02*
X2001841Y1598461D01*
X2002884Y1598268D02*
G03X2001858Y1595321I3718J-2947D01*
G01Y1592929D02*
Y1592535D01*
Y1600618*
X2002441Y1601201*
X1987024Y1589691D02*
G03X1987720Y1588254I1832J0D01*
G01X1986316Y1587743D02*
G03X1987024Y1589691I-2327J1948D01*
X1987082Y1588373I14961J0*
G01X1987024Y1587535D02*
X1987233Y1587410D01*
X1987694Y1592220D02*
G03X1987024Y1590638I1535J-1582D01*
X1986355Y1592220I-2204J-0*
G01X1987024Y1590638D02*
Y1591954D01*
Y1587535D02*
Y1592929D01*
X2009476Y1598631D02*
G03X2008858Y1597170I1417J-1461D01*
X2008239Y1598631I-2036J-0*
G01X2008858Y1597170D02*
Y1598385D01*
Y1595933D02*
G03X2009476Y1594472I2035J-0D01*
G01X2008239D02*
G03X2008858Y1595933I-1417J1461D01*
G01Y1594718*
Y1599285D02*
X2008858D01*
Y1593818*
X2009672Y1599667D02*
G03X2010485Y1597934I2804J257D01*
X2009092Y1598416I-1192J-1192*
G01X2010485Y1597934D02*
G03X2009585Y1598755I-9432J-9433D01*
G01X2010137Y1598282D02*
G03X2011729Y1597637I1558J1559D01*
G01X2010782Y1596690D02*
G03X2010137Y1598282I-2204J34D01*
G01X2011067Y1597352*
X2008858Y1599285D02*
X2009134D01*
X2011757Y1596663*
X1992574Y1593806D02*
X1996599D01*
X1992574Y1592051D02*
X1996599D01*
X1993124Y1592929D02*
X1996049D01*
X1992149D02*
X1997024D01*
X1987449Y1593806D02*
X1991724D01*
X1987449Y1592051D02*
X1991724D01*
X1987999Y1592929D02*
X1991174D01*
X1987024D02*
X1992149D01*
X1987658Y1588287D02*
X1991599D01*
X1987658Y1586532D02*
X1991599D01*
X1988207Y1587410D02*
X1991049D01*
X1987233D02*
X1992024D01*
X1992449Y1588287D02*
X1996724D01*
X1992449Y1586532D02*
X1996724D01*
X1992999Y1587410D02*
X1996174D01*
X1992024D02*
X1997149D01*
X1997574Y1588287D02*
X2001724D01*
X1997574Y1586532D02*
X2001724D01*
X1998124Y1587410D02*
X2001174D01*
X1997149D02*
X2002149D01*
X1997449Y1593806D02*
X2001433D01*
X1997449Y1592051D02*
X2001433D01*
X1997999Y1592929D02*
X2000883D01*
X1997024D02*
X2001858D01*
X1983838Y1579201D02*
G03X1987018Y1582048I-0J3200D01*
G01Y1576355D02*
G03X1983838Y1579201I-3180J-353D01*
X1987018Y1580909I-0J3815*
G01X1983838Y1579201D02*
G03X1987018Y1579771I-0J9169D01*
G01Y1578632D02*
G03X1983838Y1579201I-3180J-8599D01*
G01X1987018Y1577494D02*
G03X1983838Y1579201I-3180J-2108D01*
G01X1980749Y1586635D02*
Y1582201D01*
X1983749Y1579201*
X1987441*
X1957615Y1612118D02*
G03X1955321Y1613924I-2294J-555D01*
X1957615Y1615730I-0J2361*
G01Y1613322D02*
G03X1955321Y1613924I-2294J-4072D01*
X1957615Y1614526I-0J4674*
G01X1960367Y1614275D02*
X1960804Y1613924D01*
X1943523Y1611785D02*
G03X1941501Y1607007I4634J-4778D01*
X1939479Y1611785I-6656J0*
G01X1942369Y1611112D02*
G03X1941501Y1607007I9265J-4105D01*
G01Y1610981*
Y1607007D02*
G03X1940632Y1611112I-10133J0D01*
G01X1941501Y1613924D02*
Y1595449D01*
X1943640Y1615946D02*
G03X1948418Y1613924I4778J4634D01*
X1943640Y1611902I-0J-6656*
G01X1944313Y1614792D02*
G03X1948418Y1613924I4105J9265D01*
G01X1944444*
X1948418D02*
G03X1944313Y1613055I-0J-10133D01*
G01X1941501Y1613924D02*
X1960804D01*
X1991605Y1619882D02*
G03X1990919Y1618249I1598J-1633D01*
X1990263Y1619790I-2138J0*
G01X1990919Y1618249D02*
Y1619566D01*
Y1617650D02*
G03X1991537Y1616189I2035J-0D01*
G01X1990300D02*
G03X1990919Y1617650I-1417J1461D01*
G01Y1616435*
X1990886Y1620540D02*
X1990919D01*
Y1615535*
X1997375Y1615456D02*
Y1616849D01*
X1976314Y1618212D02*
G03X1974728Y1616927I0J-1621D01*
G01Y1619497D02*
G03X1976314Y1618212I1586J336D01*
X1974728Y1617784I0J-3151*
G01Y1618640D02*
G03X1976314Y1618212I1586J2723D01*
G01X1972966D02*
X1977106D01*
X1977598Y1617720*
Y1617587*
X2003766Y1616153D02*
G03X2005227Y1615535I1461J1417D01*
X2003766Y1614916I-0J-2035*
G01X2005227Y1615535D02*
X2004012D01*
X2007297D02*
G03X2008785Y1616173I0J2052D01*
G01X2009048Y1614806D02*
G03X2007297Y1615535I-1751J-1739D01*
G01X2008615*
X2003112D02*
X2009503D01*
X2009587Y1615619*
X1997612Y1617650D02*
G03X1998230Y1616189I2035J-0D01*
G01X1996993D02*
G03X1997612Y1617650I-1417J1461D01*
G01Y1616435*
X2018419Y1598424D02*
G03X2019916Y1597379I3680J3680D01*
G01Y1596023D02*
G03X2018419Y1598424I-5928J-2030D01*
G01X2019916Y1596701D02*
G03X2018419Y1598424I-13053J-9833D01*
G01X1997612Y1615535D02*
Y1618848D01*
X1999375Y1620612*
X2013154*
X2015904Y1617862*
Y1600938*
X2021816Y1595026*
X1985419Y1611949D02*
G03X1986037Y1610488I2035J0D01*
G01X1984800D02*
G03X1985419Y1611949I-1417J1461D01*
G01Y1610734*
X1985400Y1615264D02*
Y1612281D01*
X1985419Y1612263*
Y1609834*
X2021816Y1573597D02*
G03X2023838Y1568819I6656J-0D01*
G01X2019794D02*
G03X2021816Y1573597I-4634J4778D01*
X2022684Y1569492I10133J-0*
G01X2021816Y1573597D02*
Y1569623D01*
X2020947Y1569492D02*
G03X2021816Y1573597I-9264J4105D01*
G01X2023526Y1583225D02*
G03X2021816Y1581107I456J-2118D01*
X2020106Y1583225I-2166J0*
G01X2022386D02*
G03X2021816Y1581107I3648J-2118D01*
X2021246Y1583225I-4218J0*
G01X2021816Y1566680D02*
Y1585577D01*
Y1599496D02*
G03X2023526Y1597379I2166J0D01*
G01X2020106D02*
G03X2021816Y1599496I-456J2117D01*
X2022386Y1597379I4218J0*
G01X2021246D02*
G03X2021816Y1599496I-3648J2117D01*
G01X2023838Y1611785D02*
G03X2021816Y1607007I4634J-4778D01*
X2019794Y1611785I-6656J0*
G01X2022684Y1611112D02*
G03X2021816Y1607007I9265J-4105D01*
G01Y1610981*
Y1607007D02*
G03X2020947Y1611112I-10133J0D01*
G01X2021816Y1595026D02*
Y1613924D01*
G54D120*
X1991321Y1610157D02*
G03X1991911Y1609834I590J378D01*
X1991321Y1609511I-0J-701*
G01X1990919Y1609834D02*
X1991911D01*
X1991864Y1610338D02*
X1992441Y1609944D01*
Y1601201*
X1997375Y1615456D02*
X1991864Y1610338D01*
X1991911Y1609834*
G54D146*
X1959358Y1603535D02*
Y1590835D01*
X1959994Y1591471*
X1961973Y1590699*
G54D178*
X1941501Y1595026D03*
Y1585577D03*
X2021816Y1595026D03*
Y1585577D03*
G54D181*
X1987441Y1579201D03*
X1992441D03*
X1997441D03*
X2002441D03*
Y1601201D03*
X1997441D03*
X1992441D03*
X1987441D03*
G54D182*
X1979108Y1603535D03*
X1973608D03*
X2008858Y1604785D03*
Y1599285D03*
X1968745Y1612098D03*
Y1617598D03*
X1985419Y1615535D03*
X1990919D03*
Y1609834D03*
X1985419D03*
X2008858Y1593818D03*
Y1588318D03*
X1997612Y1615535D03*
X2003112D03*
X1997612Y1609834D03*
X2003112D03*
X2008858Y1582794D03*
Y1577294D03*
X1964858Y1603535D03*
X1959358D03*
G54D185*
X2004606Y1567169D03*
X1988858D03*
G54D198*
X1941501Y1613924D03*
X2021816Y1566680D03*
Y1613924D03*
X1941501Y1566680D03*
G54D201*
X1972966Y1618212D03*
Y1610338D03*
G54D202*
X1960367Y1614275D03*
G54D209*
X1988156Y1576635D02*
X1953449D01*
Y1563573*
X1990125*
Y1571668*
X1988156Y1573637*
Y1576635*
X2010044Y1605699D02*
X2010597Y1606252D01*
Y1608676*
X2009847Y1609426*
X2007854*
Y1605699*
X2010044*
X1974207Y1619504D02*
X1977241D01*
X1978207Y1618538*
Y1617670*
X1977241Y1616704*
X1974207*
Y1619504*
X1988149Y1582635D02*
X1982384D01*
X1981184Y1583835*
X1980549*
Y1575035*
X1988149*
Y1582635*
X1936302Y1621257D02*
X1964902D01*
Y1613291*
X1975702*
Y1608237*
X1971468*
X1969668Y1610037*
X1951102*
Y1606237*
X1961302*
Y1597237*
X1969937*
X1970902Y1596272*
Y1585437*
X1952268*
X1946568Y1591137*
X1936302*
Y1621257*
X2008141Y1588425D02*
X2009309D01*
Y1582828*
X2008141*
Y1588425*
X1953449Y1576635D02*
X1988156D01*
X1953449Y1575835D02*
X1988156D01*
X1953449Y1575035D02*
X1988156D01*
X1953449Y1574235D02*
X1988156D01*
X1953449Y1573435D02*
X1988358D01*
X1953449Y1572635D02*
X1989158D01*
X1953449Y1571835D02*
X1989958D01*
X1953449Y1571035D02*
X1990125D01*
X1953449Y1570235D02*
X1990125D01*
X1953449Y1569435D02*
X1990125D01*
X1953449Y1568635D02*
X1990125D01*
X1953449Y1567835D02*
X1990125D01*
X1953449Y1567035D02*
X1990125D01*
X1953449Y1566235D02*
X1990125D01*
X1953449Y1565435D02*
X1990125D01*
X1953449Y1564635D02*
X1990125D01*
X1953449Y1563835D02*
X1990125D01*
X1953756Y1563573D02*
Y1576635D01*
X1954556Y1563573D02*
Y1576635D01*
X1955356Y1563573D02*
Y1576635D01*
X1956156Y1563573D02*
Y1576635D01*
X1956956Y1563573D02*
Y1576635D01*
X1957756Y1563573D02*
Y1576635D01*
X1958556Y1563573D02*
Y1576635D01*
X1959356Y1563573D02*
Y1576635D01*
X1960156Y1563573D02*
Y1576635D01*
X1960956Y1563573D02*
Y1576635D01*
X1961756Y1563573D02*
Y1576635D01*
X1962556Y1563573D02*
Y1576635D01*
X1963356Y1563573D02*
Y1576635D01*
X1964156Y1563573D02*
Y1576635D01*
X1964956Y1563573D02*
Y1576635D01*
X1965756Y1563573D02*
Y1576635D01*
X1966556Y1563573D02*
Y1576635D01*
X1967356Y1563573D02*
Y1576635D01*
X1968156Y1563573D02*
Y1576635D01*
X1968956Y1563573D02*
Y1576635D01*
X1969756Y1563573D02*
Y1576635D01*
X1970556Y1563573D02*
Y1576635D01*
X1971356Y1563573D02*
Y1576635D01*
X1972156Y1563573D02*
Y1576635D01*
X1972956Y1563573D02*
Y1576635D01*
X1973756Y1563573D02*
Y1576635D01*
X1974556Y1563573D02*
Y1576635D01*
X1975356Y1563573D02*
Y1576635D01*
X1976156Y1563573D02*
Y1576635D01*
X1976956Y1563573D02*
Y1576635D01*
X1977756Y1563573D02*
Y1576635D01*
X1978556Y1563573D02*
Y1576635D01*
X1979356Y1563573D02*
Y1576635D01*
X1980156Y1563573D02*
Y1576635D01*
X1980956Y1563573D02*
Y1576635D01*
X1981756Y1563573D02*
Y1576635D01*
X1982556Y1563573D02*
Y1576635D01*
X1983356Y1563573D02*
Y1576635D01*
X1984156Y1563573D02*
Y1576635D01*
X1984956Y1563573D02*
Y1576635D01*
X1985756Y1563573D02*
Y1576635D01*
X1986556Y1563573D02*
Y1576635D01*
X1987356Y1563573D02*
Y1576635D01*
X1988156Y1563573D02*
Y1576635D01*
X1988956Y1563573D02*
Y1572837D01*
X1989756Y1563573D02*
Y1572037D01*
X2007854Y1608899D02*
X2010375D01*
X2007854Y1608099D02*
X2010597D01*
X2007854Y1607299D02*
X2010597D01*
X2007854Y1606499D02*
X2010597D01*
X2008444Y1605699D02*
Y1609426D01*
X2009244Y1605699D02*
Y1609426D01*
X2010044Y1605699D02*
Y1609229D01*
X1974207Y1619504D02*
X1977241D01*
X1974207Y1618704D02*
X1978041D01*
X1974207Y1617904D02*
X1978207D01*
X1974207Y1617104D02*
X1977641D01*
X1974207Y1616704D02*
Y1619504D01*
X1975007Y1616704D02*
Y1619504D01*
X1975807Y1616704D02*
Y1619504D01*
X1976607Y1616704D02*
Y1619504D01*
X1977407Y1616870D02*
Y1619338D01*
X1980549Y1583435D02*
X1981584D01*
X1980549Y1582635D02*
X1988149D01*
X1980549Y1581835D02*
X1988149D01*
X1980549Y1581035D02*
X1988149D01*
X1980549Y1580235D02*
X1988149D01*
X1980549Y1579435D02*
X1988149D01*
X1980549Y1578635D02*
X1988149D01*
X1980549Y1577835D02*
X1988149D01*
X1980549Y1577035D02*
X1988149D01*
X1980549Y1576235D02*
X1988149D01*
X1980549Y1575435D02*
X1988149D01*
X1980949Y1575035D02*
Y1583835D01*
X1981749Y1575035D02*
Y1583269D01*
X1982549Y1575035D02*
Y1582635D01*
X1983349Y1575035D02*
Y1582635D01*
X1984149Y1575035D02*
Y1582635D01*
X1984949Y1575035D02*
Y1582635D01*
X1985749Y1575035D02*
Y1582635D01*
X1986549Y1575035D02*
Y1582635D01*
X1987349Y1575035D02*
Y1582635D01*
X1936302Y1621257D02*
X1964902D01*
X1936302Y1620457D02*
X1964902D01*
X1936302Y1619657D02*
X1964902D01*
X1936302Y1618857D02*
X1964902D01*
X1936302Y1618057D02*
X1964902D01*
X1936302Y1617257D02*
X1964902D01*
X1936302Y1616457D02*
X1964902D01*
X1936302Y1615657D02*
X1964902D01*
X1936302Y1614857D02*
X1964902D01*
X1936302Y1614057D02*
X1964902D01*
X1936302Y1613257D02*
X1975702D01*
X1936302Y1612457D02*
X1975702D01*
X1936302Y1611657D02*
X1975702D01*
X1936302Y1610857D02*
X1975702D01*
X1936302Y1610057D02*
X1975702D01*
X1936302Y1609257D02*
X1951102D01*
X1970449D02*
X1975702D01*
X1936302Y1608457D02*
X1951102D01*
X1971249D02*
X1975702D01*
X1936302Y1607657D02*
X1951102D01*
X1936302Y1606857D02*
X1951102D01*
X1936302Y1606057D02*
X1961302D01*
X1936302Y1605257D02*
X1961302D01*
X1936302Y1604457D02*
X1961302D01*
X1936302Y1603657D02*
X1961302D01*
X1936302Y1602857D02*
X1961302D01*
X1936302Y1602057D02*
X1961302D01*
X1936302Y1601257D02*
X1961302D01*
X1936302Y1600457D02*
X1961302D01*
X1936302Y1599657D02*
X1961302D01*
X1936302Y1598857D02*
X1961302D01*
X1936302Y1598057D02*
X1961302D01*
X1936302Y1597257D02*
X1961302D01*
X1936302Y1596457D02*
X1970717D01*
X1936302Y1595657D02*
X1970902D01*
X1936302Y1594857D02*
X1970902D01*
X1936302Y1594057D02*
X1970902D01*
X1936302Y1593257D02*
X1970902D01*
X1936302Y1592457D02*
X1970902D01*
X1936302Y1591657D02*
X1970902D01*
X1946849Y1590857D02*
X1970902D01*
X1947649Y1590057D02*
X1970902D01*
X1948449Y1589257D02*
X1970902D01*
X1949249Y1588457D02*
X1970902D01*
X1950049Y1587657D02*
X1970902D01*
X1950849Y1586857D02*
X1970902D01*
X1951649Y1586057D02*
X1970902D01*
X1936302Y1591137D02*
Y1621257D01*
X1937102Y1591137D02*
Y1621257D01*
X1937902Y1591137D02*
Y1621257D01*
X1938702Y1591137D02*
Y1621257D01*
X1939502Y1591137D02*
Y1621257D01*
X1940302Y1591137D02*
Y1621257D01*
X1941102Y1591137D02*
Y1621257D01*
X1941902Y1591137D02*
Y1621257D01*
X1942702Y1591137D02*
Y1621257D01*
X1943502Y1591137D02*
Y1621257D01*
X1944302Y1591137D02*
Y1621257D01*
X1945102Y1591137D02*
Y1621257D01*
X1945902Y1591137D02*
Y1621257D01*
X1946702Y1591003D02*
Y1621257D01*
X1947502Y1590203D02*
Y1621257D01*
X1948302Y1589403D02*
Y1621257D01*
X1949102Y1588603D02*
Y1621257D01*
X1949902Y1587803D02*
Y1621257D01*
X1950702Y1587003D02*
Y1621257D01*
X1951502Y1586203D02*
Y1606237D01*
Y1610037D02*
Y1621257D01*
X1952302Y1585437D02*
Y1606237D01*
Y1610037D02*
Y1621257D01*
X1953102Y1585437D02*
Y1606237D01*
Y1610037D02*
Y1621257D01*
X1953902Y1585437D02*
Y1606237D01*
Y1610037D02*
Y1621257D01*
X1954702Y1585437D02*
Y1606237D01*
Y1610037D02*
Y1621257D01*
X1955502Y1585437D02*
Y1606237D01*
Y1610037D02*
Y1621257D01*
X1956302Y1585437D02*
Y1606237D01*
Y1610037D02*
Y1621257D01*
X1957102Y1585437D02*
Y1606237D01*
Y1610037D02*
Y1621257D01*
X1957902Y1585437D02*
Y1606237D01*
Y1610037D02*
Y1621257D01*
X1958702Y1585437D02*
Y1606237D01*
Y1610037D02*
Y1621257D01*
X1959502Y1585437D02*
Y1606237D01*
Y1610037D02*
Y1621257D01*
X1960302Y1585437D02*
Y1606237D01*
Y1610037D02*
Y1621257D01*
X1961102Y1585437D02*
Y1606237D01*
Y1610037D02*
Y1621257D01*
X1961902Y1585437D02*
Y1597237D01*
Y1610037D02*
Y1621257D01*
X1962702Y1585437D02*
Y1597237D01*
Y1610037D02*
Y1621257D01*
X1963502Y1585437D02*
Y1597237D01*
Y1610037D02*
Y1621257D01*
X1964302Y1585437D02*
Y1597237D01*
Y1610037D02*
Y1621257D01*
X1965102Y1585437D02*
Y1597237D01*
Y1610037D02*
Y1613291D01*
X1965902Y1585437D02*
Y1597237D01*
Y1610037D02*
Y1613291D01*
X1966702Y1585437D02*
Y1597237D01*
Y1610037D02*
Y1613291D01*
X1967502Y1585437D02*
Y1597237D01*
Y1610037D02*
Y1613291D01*
X1968302Y1585437D02*
Y1597237D01*
Y1610037D02*
Y1613291D01*
X1969102Y1585437D02*
Y1597237D01*
Y1610037D02*
Y1613291D01*
X1969902Y1585437D02*
Y1597237D01*
Y1609803D02*
Y1613291D01*
X1970702Y1585437D02*
Y1596472D01*
Y1609003D02*
Y1613291D01*
X1971502Y1608237D02*
Y1613291D01*
X1972302Y1608237D02*
Y1613291D01*
X1973102Y1608237D02*
Y1613291D01*
X1973902Y1608237D02*
Y1613291D01*
X1974702Y1608237D02*
Y1613291D01*
X1975502Y1608237D02*
Y1613291D01*
X2008141Y1588425D02*
X2009309D01*
X2008141Y1587625D02*
X2009309D01*
X2008141Y1586825D02*
X2009309D01*
X2008141Y1586025D02*
X2009309D01*
X2008141Y1585225D02*
X2009309D01*
X2008141Y1584425D02*
X2009309D01*
X2008141Y1583625D02*
X2009309D01*
X2008141Y1582828D02*
Y1588425D01*
X2008941Y1582828D02*
Y1588425D01*
G54D249*
X1961973Y1590699D03*
Y1570226D03*
G74*
X0Y0D02*
M02*
