%
T1C.02362F197S55
X012461Y010295
X011772Y010295
X011083Y010295
X010394Y010295
X010492Y01187
X011083Y01187
X012756Y012363
X014318Y016075
X014626Y015611
X013402Y014907
X013434Y01448
X014134Y013346
X014094Y01244
X01315Y010295
X013839Y010295
X014528Y010295
X015217Y010295
X017283Y010295
X016594Y010295
X015906Y010295
X016174Y011343
X017734Y013983
X016774Y015003
X017468Y01514
X017517Y015878
X015647Y01637
X018071Y012953
X018957Y01187
X018366Y01187
X017972Y011476
X017972Y010886
X017972Y010295
X018661Y010295
T2C.02756F197S55
X015282Y013057
X015261Y013609
X016261Y013609
X015774Y013609
X016744Y013609
X016774Y013057
X015761Y013057
X016274Y013057
T3C.03937F197S55
X010709Y010984
X010709Y015709
X01874Y015709
X01874Y010984
M30
