*
*
G04 PADS VX.0 Build Number: 635560 generated Gerber (RS-274-X) file*
G04 PC Version=2.1*
*
%IN "闫生主板1.pcb"*%
*
%MOIN*%
*
%FSLAX35Y35*%
*
*
*
*
G04 PC Standard Apertures*
*
*
G04 Thermal Relief Aperture macro.*
%AMTER*
1,1,$1,0,0*
1,0,$1-$2,0,0*
21,0,$3,$4,0,0,45*
21,0,$3,$4,0,0,135*
%
*
*
G04 Annular Aperture macro.*
%AMANN*
1,1,$1,0,0*
1,0,$2,0,0*
%
*
*
G04 Odd Aperture macro.*
%AMODD*
1,1,$1,0,0*
1,0,$1-0.005,0,0*
%
*
*
G04 PC Custom Aperture Macros*
*
*
*
*
*
*
G04 PC Aperture Table*
*
%ADD010C,0.001*%
%ADD209C,0.008*%
%ADD235C,0.08087*%
%ADD260C,0.0415*%
*
*
*
*
G04 PC Circuitry*
G04 Layer Name 闫生主板1.pcb - circuitry*
%LPD*%
*
*
G04 PC Custom Flashes*
G04 Layer Name 闫生主板1.pcb - flashes*
%LPD*%
*
*
G04 PC Circuitry*
G04 Layer Name 闫生主板1.pcb - circuitry*
%LPD*%
*
G54D10*
G54D209*
G01X2002148Y1606028D02*
X2025948D01*
Y1593628*
X2002148*
Y1606028*
X1995971Y1607966D02*
X2030112D01*
Y1589573*
X1995971*
Y1607966*
X2002148Y1606028D02*
X2025948D01*
X2002148Y1605228D02*
X2025948D01*
X2002148Y1604428D02*
X2025948D01*
X2002148Y1603628D02*
X2025948D01*
X2002148Y1602828D02*
X2025948D01*
X2002148Y1602028D02*
X2025948D01*
X2002148Y1601228D02*
X2025948D01*
X2002148Y1600428D02*
X2025948D01*
X2002148Y1599628D02*
X2025948D01*
X2002148Y1598828D02*
X2025948D01*
X2002148Y1598028D02*
X2025948D01*
X2002148Y1597228D02*
X2025948D01*
X2002148Y1596428D02*
X2025948D01*
X2002148Y1595628D02*
X2025948D01*
X2002148Y1594828D02*
X2025948D01*
X2002148Y1594028D02*
X2025948D01*
X2002148Y1593628D02*
Y1606028D01*
X2002948Y1593628D02*
Y1606028D01*
X2003748Y1593628D02*
Y1606028D01*
X2004548Y1593628D02*
Y1606028D01*
X2005348Y1593628D02*
Y1606028D01*
X2006148Y1593628D02*
Y1606028D01*
X2006948Y1593628D02*
Y1606028D01*
X2007748Y1593628D02*
Y1606028D01*
X2008548Y1593628D02*
Y1606028D01*
X2009348Y1593628D02*
Y1606028D01*
X2010148Y1593628D02*
Y1606028D01*
X2010948Y1593628D02*
Y1606028D01*
X2011748Y1593628D02*
Y1606028D01*
X2012548Y1593628D02*
Y1606028D01*
X2013348Y1593628D02*
Y1606028D01*
X2014148Y1593628D02*
Y1606028D01*
X2014948Y1593628D02*
Y1606028D01*
X2015748Y1593628D02*
Y1606028D01*
X2016548Y1593628D02*
Y1606028D01*
X2017348Y1593628D02*
Y1606028D01*
X2018148Y1593628D02*
Y1606028D01*
X2018948Y1593628D02*
Y1606028D01*
X2019748Y1593628D02*
Y1606028D01*
X2020548Y1593628D02*
Y1606028D01*
X2021348Y1593628D02*
Y1606028D01*
X2022148Y1593628D02*
Y1606028D01*
X2022948Y1593628D02*
Y1606028D01*
X2023748Y1593628D02*
Y1606028D01*
X2024548Y1593628D02*
Y1606028D01*
X2025348Y1593628D02*
Y1606028D01*
X1995971Y1607966D02*
X2030112D01*
X1995971Y1607166D02*
X2030112D01*
X1995971Y1606366D02*
X2030112D01*
X1995971Y1605566D02*
X2030112D01*
X1995971Y1604766D02*
X2030112D01*
X1995971Y1603966D02*
X2030112D01*
X1995971Y1603166D02*
X2030112D01*
X1995971Y1602366D02*
X2030112D01*
X1995971Y1601566D02*
X2030112D01*
X1995971Y1600766D02*
X2030112D01*
X1995971Y1599966D02*
X2030112D01*
X1995971Y1599166D02*
X2030112D01*
X1995971Y1598366D02*
X2030112D01*
X1995971Y1597566D02*
X2030112D01*
X1995971Y1596766D02*
X2030112D01*
X1995971Y1595966D02*
X2030112D01*
X1995971Y1595166D02*
X2030112D01*
X1995971Y1594366D02*
X2030112D01*
X1995971Y1593566D02*
X2030112D01*
X1995971Y1592766D02*
X2030112D01*
X1995971Y1591966D02*
X2030112D01*
X1995971Y1591166D02*
X2030112D01*
X1995971Y1590366D02*
X2030112D01*
X1995971Y1589573D02*
Y1607966D01*
X1996771Y1589573D02*
Y1607966D01*
X1997571Y1589573D02*
Y1607966D01*
X1998371Y1589573D02*
Y1607966D01*
X1999171Y1589573D02*
Y1607966D01*
X1999971Y1589573D02*
Y1607966D01*
X2000771Y1589573D02*
Y1607966D01*
X2001571Y1589573D02*
Y1607966D01*
X2002371Y1589573D02*
Y1607966D01*
X2003171Y1589573D02*
Y1607966D01*
X2003971Y1589573D02*
Y1607966D01*
X2004771Y1589573D02*
Y1607966D01*
X2005571Y1589573D02*
Y1607966D01*
X2006371Y1589573D02*
Y1607966D01*
X2007171Y1589573D02*
Y1607966D01*
X2007971Y1589573D02*
Y1607966D01*
X2008771Y1589573D02*
Y1607966D01*
X2009571Y1589573D02*
Y1607966D01*
X2010371Y1589573D02*
Y1607966D01*
X2011171Y1589573D02*
Y1607966D01*
X2011971Y1589573D02*
Y1607966D01*
X2012771Y1589573D02*
Y1607966D01*
X2013571Y1589573D02*
Y1607966D01*
X2014371Y1589573D02*
Y1607966D01*
X2015171Y1589573D02*
Y1607966D01*
X2015971Y1589573D02*
Y1607966D01*
X2016771Y1589573D02*
Y1607966D01*
X2017571Y1589573D02*
Y1607966D01*
X2018371Y1589573D02*
Y1607966D01*
X2019171Y1589573D02*
Y1607966D01*
X2019971Y1589573D02*
Y1607966D01*
X2020771Y1589573D02*
Y1607966D01*
X2021571Y1589573D02*
Y1607966D01*
X2022371Y1589573D02*
Y1607966D01*
X2023171Y1589573D02*
Y1607966D01*
X2023971Y1589573D02*
Y1607966D01*
X2024771Y1589573D02*
Y1607966D01*
X2025571Y1589573D02*
Y1607966D01*
X2026371Y1589573D02*
Y1607966D01*
X2027171Y1589573D02*
Y1607966D01*
X2027971Y1589573D02*
Y1607966D01*
X2028771Y1589573D02*
Y1607966D01*
X2029571Y1589573D02*
Y1607966D01*
G54D235*
X1959843Y1623622D03*
X2040157Y1576378D03*
Y1623622D03*
X1959843Y1576378D03*
G54D260*
X2015366Y1602627D03*
X2020491Y1597108D03*
X2015491D03*
X2010366D03*
X2005574D03*
X2005366Y1602627D03*
X2010491D03*
X2020199D03*
X0Y0D02*
M02*
